<svg width="592" height="663" viewBox="0 0 592 663" fill="none" xmlns="http://www.w3.org/2000/svg">
<g opacity="0.559903">
<path fill-rule="evenodd" clip-rule="evenodd" d="M66.8596 463.787L296 596.073L525.14 463.787V199.214L296 66.9263L66.8596 199.214V463.787ZM296 597C295.926 597 295.852 596.98 295.785 596.942L66.2149 464.409C66.0817 464.332 66 464.19 66 464.036V198.966C66 198.812 66.0817 198.67 66.2149 198.593L295.785 66.0574C295.919 65.9809 296.081 65.9809 296.214 66.0574L525.785 198.593C525.917 198.67 526 198.812 526 198.966V464.036C526 464.19 525.917 464.332 525.785 464.409L296.214 596.942C296.148 596.98 296.074 597 296 597V597Z" fill="#CCCCCC"/>
<path fill-rule="evenodd" clip-rule="evenodd" d="M67.1731 199.859L295.586 595.712L524.826 199.859H67.1731ZM295.585 597V597C295.431 597 295.29 596.918 295.213 596.785L66.0579 199.644C65.9807 199.512 65.9807 199.347 66.0579 199.215C66.1344 199.082 66.276 199 66.4297 199H525.57C525.724 199 525.866 199.082 525.942 199.215C526.019 199.348 526.019 199.512 525.942 199.645L295.957 596.786C295.879 596.919 295.738 597 295.585 597V597Z" fill="#CCCCCC"/>
<path fill-rule="evenodd" clip-rule="evenodd" d="M295.5 597C295.224 597 295 596.808 295 596.57V66.4296C295 66.1925 295.224 66 295.5 66C295.776 66 296 66.1925 296 66.4296V596.57C296 596.808 295.776 597 295.5 597" fill="#CCCCCC"/>
<path fill-rule="evenodd" clip-rule="evenodd" d="M66.4299 463C66.2814 463 66.1371 462.923 66.0573 462.784C65.9388 462.579 66.0101 462.316 66.2161 462.198L525.356 198.057C525.562 197.94 525.824 198.009 525.943 198.215C526.061 198.421 525.99 198.684 525.784 198.802L66.6436 462.943C66.5758 462.982 66.5028 463 66.4299 463" fill="#CCCCCC"/>
<path fill-rule="evenodd" clip-rule="evenodd" d="M525.57 463C525.497 463 525.424 462.982 525.356 462.943L66.2157 198.802C66.0097 198.684 65.9393 198.421 66.0569 198.216C66.1754 198.01 66.4372 197.939 66.6433 198.057L525.785 462.198C525.99 462.316 526.061 462.579 525.943 462.784C525.863 462.923 525.719 463 525.57 463" fill="#CCCCCC"/>
<path fill-rule="evenodd" clip-rule="evenodd" d="M180.858 396.702L295 462.076L409.142 396.702V264.299L295 198.924L180.858 264.299V396.702ZM295 463C294.927 463 294.853 462.981 294.787 462.943L180.216 397.324C180.082 397.248 180 397.106 180 396.951V264.05C180 263.895 180.082 263.753 180.216 263.677L294.787 198.057C294.92 197.981 295.081 197.981 295.214 198.057L409.785 263.677C409.918 263.753 410 263.895 410 264.05V396.951C410 397.106 409.918 397.248 409.785 397.324L295.214 462.943C295.147 462.981 295.074 463 295 463V463Z" fill="#CCCCCC"/>
<path fill-rule="evenodd" clip-rule="evenodd" d="M181.173 264.857L295 461.714L408.827 264.857H181.173ZM295 463C294.847 463 294.705 462.918 294.629 462.786L180.058 264.643C179.981 264.511 179.981 264.346 180.058 264.214C180.134 264.082 180.276 264 180.43 264H409.57C409.724 264 409.866 264.082 409.942 264.214C410.019 264.346 410.019 264.511 409.942 264.643L295.372 462.786C295.295 462.918 295.153 463 295 463V463Z" fill="#CCCCCC"/>
<path fill-rule="evenodd" clip-rule="evenodd" d="M181.173 398.143H408.827L295 201.27L181.173 398.143ZM409.57 399H180.43C180.276 399 180.134 398.918 180.058 398.786C179.981 398.654 179.981 398.489 180.058 398.357L294.629 200.198C294.782 199.934 295.218 199.934 295.372 200.198L409.942 398.357C410.019 398.489 410.019 398.654 409.942 398.786C409.866 398.918 409.724 399 409.57 399V399Z" fill="#CCCCCC"/>
<path fill-rule="evenodd" clip-rule="evenodd" d="M296.5 264.858C260.304 264.858 230.857 294.305 230.857 330.5C230.857 366.696 260.304 396.142 296.5 396.142C332.696 396.142 362.143 366.696 362.143 330.5C362.143 294.305 332.696 264.858 296.5 264.858M296.5 397C259.832 397 230 367.168 230 330.5C230 293.831 259.832 264 296.5 264C333.168 264 363 293.831 363 330.5C363 367.168 333.168 397 296.5 397" fill="#CCCCCC"/>
<path fill-rule="evenodd" clip-rule="evenodd" d="M296.5 132.858C260.304 132.858 230.857 162.305 230.857 198.5C230.857 234.694 260.304 264.142 296.5 264.142C332.696 264.142 362.143 234.694 362.143 198.5C362.143 162.305 332.696 132.858 296.5 132.858M296.5 265C259.832 265 230 235.168 230 198.5C230 161.831 259.832 132 296.5 132C333.168 132 363 161.831 363 198.5C363 235.168 333.168 265 296.5 265" fill="#CCCCCC"/>
<path fill-rule="evenodd" clip-rule="evenodd" d="M410.5 198.858C374.304 198.858 344.857 228.305 344.857 264.5C344.857 300.696 374.304 330.142 410.5 330.142C446.696 330.142 476.143 300.696 476.143 264.5C476.143 228.305 446.696 198.858 410.5 198.858M410.5 331C373.832 331 344 301.168 344 264.5C344 227.831 373.832 198 410.5 198C447.168 198 477 227.831 477 264.5C477 301.168 447.168 331 410.5 331" fill="#CCCCCC"/>
<path fill-rule="evenodd" clip-rule="evenodd" d="M410.5 330.858C374.304 330.858 344.857 360.304 344.857 396.499C344.857 432.695 374.304 462.142 410.5 462.142C446.696 462.142 476.143 432.695 476.143 396.499C476.143 360.304 446.696 330.858 410.5 330.858M410.5 463C373.832 463 344 433.168 344 396.499C344 359.831 373.832 330 410.5 330C447.168 330 477 359.831 477 396.499C477 433.168 447.168 463 410.5 463" fill="#CCCCCC"/>
<path fill-rule="evenodd" clip-rule="evenodd" d="M296.5 396.858C260.304 396.858 230.857 426.304 230.857 462.499C230.857 498.694 260.304 528.142 296.5 528.142C332.696 528.142 362.143 498.694 362.143 462.499C362.143 426.304 332.696 396.858 296.5 396.858M296.5 529C259.832 529 230 499.168 230 462.499C230 425.831 259.832 396 296.5 396C333.168 396 363 425.831 363 462.499C363 499.168 333.168 529 296.5 529" fill="#CCCCCC"/>
<path fill-rule="evenodd" clip-rule="evenodd" d="M180.5 330.858C144.305 330.858 114.857 360.304 114.857 396.499C114.857 432.695 144.305 462.142 180.5 462.142C216.696 462.142 246.143 432.695 246.143 396.499C246.143 360.304 216.696 330.858 180.5 330.858M180.5 463C143.832 463 114 433.168 114 396.499C114 359.831 143.832 330 180.5 330C217.168 330 247 359.831 247 396.499C247 433.168 217.168 463 180.5 463" fill="#CCCCCC"/>
<path fill-rule="evenodd" clip-rule="evenodd" d="M180.5 198.858C144.305 198.858 114.857 228.305 114.857 264.5C114.857 300.696 144.305 330.142 180.5 330.142C216.696 330.142 246.143 300.696 246.143 264.5C246.143 228.305 216.696 198.858 180.5 198.858M180.5 331C143.832 331 114 301.168 114 264.5C114 227.831 143.832 198 180.5 198C217.168 198 247 227.831 247 264.5C247 301.168 217.168 331 180.5 331" fill="#CCCCCC"/>
<path fill-rule="evenodd" clip-rule="evenodd" d="M296.5 0.857744C260.304 0.857744 230.857 30.3049 230.857 66.5C230.857 102.695 260.304 132.142 296.5 132.142C332.696 132.142 362.143 102.695 362.143 66.5C362.143 30.3049 332.696 0.857744 296.5 0.857744M296.5 133C259.832 133 230 103.168 230 66.5C230 29.8315 259.832 0 296.5 0C333.168 0 363 29.8315 363 66.5C363 103.168 333.168 133 296.5 133" fill="#CCCCCC"/>
<mask id="mask0_1_2" style="mask-type:alpha" maskUnits="userSpaceOnUse" x="459" y="132" width="133" height="133">
<path fill-rule="evenodd" clip-rule="evenodd" d="M459 132H592V265H459V132Z" fill="white"/>
</mask>
<g mask="url(#mask0_1_2)">
<path fill-rule="evenodd" clip-rule="evenodd" d="M525.5 132.858C489.304 132.858 459.857 162.305 459.857 198.5C459.857 234.694 489.304 264.142 525.5 264.142C561.696 264.142 591.143 234.694 591.143 198.5C591.143 162.305 561.696 132.858 525.5 132.858M525.5 265C488.832 265 459 235.168 459 198.5C459 161.831 488.832 132 525.5 132C562.168 132 592 161.831 592 198.5C592 235.168 562.168 265 525.5 265" fill="#CCCCCC"/>
</g>
<path fill-rule="evenodd" clip-rule="evenodd" d="M66.4996 132.858C30.3037 132.858 0.857031 162.305 0.857031 198.5C0.857031 234.694 30.3037 264.142 66.4996 264.142C102.695 264.142 132.143 234.694 132.143 198.5C132.143 162.305 102.695 132.858 66.4996 132.858M66.4996 265C29.8315 265 0 235.168 0 198.5C0 161.831 29.8315 132 66.4996 132C103.168 132 133 161.831 133 198.5C133 235.168 103.168 265 66.4996 265" fill="#CCCCCC"/>
<path fill-rule="evenodd" clip-rule="evenodd" d="M66.4996 396.858C30.3037 396.858 0.857031 426.304 0.857031 462.499C0.857031 498.694 30.3037 528.142 66.4996 528.142C102.695 528.142 132.143 498.694 132.143 462.499C132.143 426.304 102.695 396.858 66.4996 396.858M66.4996 529C29.8315 529 0 499.168 0 462.499C0 425.831 29.8315 396 66.4996 396C103.168 396 133 425.831 133 462.499C133 499.168 103.168 529 66.4996 529" fill="#CCCCCC"/>
<mask id="mask1_1_2" style="mask-type:alpha" maskUnits="userSpaceOnUse" x="230" y="530" width="133" height="133">
<path fill-rule="evenodd" clip-rule="evenodd" d="M230 530H363V663H230V530Z" fill="white"/>
</mask>
<g mask="url(#mask1_1_2)">
<path fill-rule="evenodd" clip-rule="evenodd" d="M296.5 530.858C260.304 530.858 230.857 560.305 230.857 596.5C230.857 632.695 260.304 662.143 296.5 662.143C332.696 662.143 362.143 632.695 362.143 596.5C362.143 560.305 332.696 530.858 296.5 530.858M296.5 663C259.832 663 230 633.168 230 596.5C230 559.832 259.832 530 296.5 530C333.168 530 363 559.832 363 596.5C363 633.168 333.168 663 296.5 663" fill="#CCCCCC"/>
</g>
<mask id="mask2_1_2" style="mask-type:alpha" maskUnits="userSpaceOnUse" x="459" y="396" width="133" height="133">
<path fill-rule="evenodd" clip-rule="evenodd" d="M459 396H592V529H459V396Z" fill="white"/>
</mask>
<g mask="url(#mask2_1_2)">
<path fill-rule="evenodd" clip-rule="evenodd" d="M525.5 396.858C489.304 396.858 459.857 426.304 459.857 462.499C459.857 498.694 489.304 528.142 525.5 528.142C561.696 528.142 591.143 498.694 591.143 462.499C591.143 426.304 561.696 396.858 525.5 396.858M525.5 529C488.832 529 459 499.168 459 462.499C459 425.831 488.832 396 525.5 396C562.168 396 592 425.831 592 462.499C592 499.168 562.168 529 525.5 529" fill="#CCCCCC"/>
</g>
<path fill-rule="evenodd" clip-rule="evenodd" d="M180.432 399C180.385 399 180.338 398.992 180.29 398.977C180.066 398.898 179.946 398.654 180.024 398.429L295.16 66.2896C295.239 66.065 295.483 65.9462 295.71 66.0237C295.934 66.1011 296.054 66.3465 295.976 66.5711L180.84 398.71C180.778 398.888 180.61 399 180.432 399" fill="#CCCCCC"/>
<path fill-rule="evenodd" clip-rule="evenodd" d="M409.568 399C409.39 399 409.222 398.888 409.16 398.71L294.024 66.5711C293.946 66.3465 294.065 66.1011 294.291 66.0237C294.515 65.9462 294.761 66.065 294.839 66.2896L409.976 398.429C410.054 398.654 409.934 398.898 409.71 398.977C409.662 398.992 409.615 399 409.568 399" fill="#CCCCCC"/>
<path fill-rule="evenodd" clip-rule="evenodd" d="M181.428 265C181.227 265 181.047 264.858 181.007 264.654C180.964 264.422 181.116 264.198 181.349 264.155L525.491 199.007C525.724 198.966 525.948 199.115 525.992 199.346C526.037 199.577 525.883 199.8 525.651 199.845L181.509 264.992C181.482 264.997 181.455 265 181.428 265" fill="#CCCCCC"/>
<path fill-rule="evenodd" clip-rule="evenodd" d="M295.43 463C295.329 463 295.229 462.966 295.147 462.894C294.969 462.738 294.95 462.467 295.106 462.289L525.246 198.148C525.403 197.969 525.674 197.95 525.853 198.106C526.031 198.262 526.05 198.533 525.894 198.711L295.754 462.852C295.669 462.95 295.549 463 295.43 463" fill="#CCCCCC"/>
<path fill-rule="evenodd" clip-rule="evenodd" d="M525.57 463C525.451 463 525.331 462.95 525.246 462.852L295.106 198.712C294.95 198.533 294.969 198.263 295.147 198.107C295.326 197.949 295.597 197.968 295.754 198.149L525.894 462.289C526.05 462.467 526.031 462.738 525.853 462.894C525.771 462.966 525.671 463 525.57 463" fill="#CCCCCC"/>
<path fill-rule="evenodd" clip-rule="evenodd" d="M525.572 464C525.545 464 525.518 463.997 525.491 463.992L181.349 398.846C181.117 398.802 180.963 398.578 181.008 398.347C181.052 398.116 181.274 397.963 181.509 398.008L525.651 463.155C525.884 463.199 526.036 463.422 525.993 463.654C525.953 463.858 525.773 464 525.572 464" fill="#CCCCCC"/>
<path fill-rule="evenodd" clip-rule="evenodd" d="M295.568 597C295.39 597 295.222 596.888 295.16 596.71L180.024 264.571C179.946 264.346 180.066 264.102 180.29 264.023C180.516 263.947 180.761 264.065 180.84 264.29L295.976 596.429C296.054 596.654 295.934 596.898 295.71 596.977C295.662 596.992 295.615 597 295.568 597" fill="#CCCCCC"/>
<path fill-rule="evenodd" clip-rule="evenodd" d="M65.4295 464C65.2275 464 65.047 463.858 65.0075 463.654C64.9637 463.422 65.1167 463.199 65.3496 463.155L409.49 398.007C409.722 397.965 409.947 398.115 409.993 398.347C410.036 398.578 409.883 398.801 409.65 398.845L65.5103 463.992C65.4828 463.997 65.4562 464 65.4295 464" fill="#CCCCCC"/>
<path fill-rule="evenodd" clip-rule="evenodd" d="M66.4292 463C66.3296 463 66.2292 462.966 66.1476 462.895C65.9691 462.739 65.9493 462.468 66.1056 462.289L295.247 198.148C295.402 197.97 295.673 197.949 295.852 198.105C296.031 198.261 296.05 198.531 295.895 198.711L66.7529 462.852C66.6687 462.949 66.5494 463 66.4292 463" fill="#CCCCCC"/>
<path fill-rule="evenodd" clip-rule="evenodd" d="M294.857 597C294.81 597 294.763 596.992 294.716 596.977C294.492 596.899 294.373 596.655 294.45 596.43L409.002 265.395L66.5661 200.083L295.182 463.355C295.337 463.534 295.318 463.805 295.139 463.961C294.959 464.116 294.688 464.096 294.533 463.918L65.1049 199.711C64.9854 199.573 64.9657 199.374 65.0576 199.216C65.1488 199.057 65.3284 198.973 65.5098 199.008L409.651 264.644C409.774 264.667 409.879 264.743 409.942 264.851C410.005 264.958 410.017 265.088 409.977 265.206L295.263 596.71C295.202 596.888 295.035 597 294.857 597" fill="#CCCCCC"/>
<path fill-rule="evenodd" clip-rule="evenodd" d="M72.9008 458.409H518.073L295.084 74.1571L72.9008 458.409ZM533 467H58L295.071 57L533 467Z" fill="white"/>
</g>
</svg>
