<svg width="456" height="410" viewBox="0 0 456 410" fill="none" xmlns="http://www.w3.org/2000/svg">
<path fill-rule="evenodd" clip-rule="evenodd" d="M220.556 121.228C204.255 121.228 188.831 126.378 176.665 135.969C169.267 141.783 165.099 149.669 165.227 157.605C165.306 165.487 170.672 171.166 175.16 174.541C183.545 180.951 192.398 184.917 201.767 189.116C205.258 190.677 208.867 192.296 212.425 194.041C216.507 196.035 243.483 216.327 259.601 228.453C265.641 232.998 270.413 236.588 271.791 237.568C275.567 240.401 277.965 243.551 279.138 247.209C280.546 251.375 278.009 255.188 275.767 258.55C275.583 258.825 275.402 259.099 275.222 259.37C274.096 261.119 272.476 262.822 270.91 264.47C267.092 268.484 263.486 272.276 265.998 276.942C268.538 281.666 274.729 281.71 280.192 281.75C280.604 281.753 281.012 281.756 281.409 281.76C287.954 281.894 294.724 280.872 302.15 278.646C315.016 274.672 329.502 269.272 339.374 259.356C342.763 255.954 345.484 252.128 347.466 247.987C348.975 244.529 346.073 235.818 323.641 214.074C309.962 200.816 294.021 187.691 288.838 183.732C283.963 180.239 278.698 176.702 273.189 173.218C271.972 172.457 270.759 171.711 269.549 170.965C265.593 168.53 261.501 166.015 257.484 163.034C252.592 159.402 247.203 154.776 244.333 148.004C242.706 144.145 242.564 140.016 242.428 136.023C242.379 134.644 242.331 133.216 242.22 131.824C241.585 123.605 231.56 121.762 225.643 121.394C223.939 121.284 222.242 121.228 220.556 121.228M282.53 283C282.149 283 281.769 282.997 281.389 282.988C280.998 282.983 280.594 282.981 280.184 282.978C274.669 282.938 267.806 282.889 264.921 277.527C261.985 272.075 266.071 267.778 270.023 263.621C271.552 262.016 273.13 260.354 274.198 258.699C274.381 258.419 274.565 258.145 274.75 257.868C276.933 254.588 279.192 251.198 277.976 247.594C276.864 244.131 274.672 241.264 271.071 238.561C269.692 237.579 265.151 234.164 258.865 229.435C242.783 217.336 215.866 197.086 211.888 195.144C208.348 193.407 204.749 191.795 201.268 190.236C191.83 186.009 182.915 182.014 174.42 175.52C169.716 171.982 164.087 166.001 164.003 157.622C163.868 149.301 168.208 141.056 175.911 135.004C189.57 124.234 207.258 118.966 225.719 120.168C232.034 120.561 242.736 122.584 243.441 131.727C243.554 133.147 243.605 134.589 243.651 135.981C243.789 140.041 243.923 143.876 245.461 147.526C248.215 154.025 253.453 158.513 258.213 162.047C262.186 164.995 266.255 167.498 270.189 169.918C271.402 170.664 272.618 171.413 273.839 172.177C279.373 175.678 284.66 179.23 289.557 182.738L289.572 182.749C294.766 186.716 310.767 199.888 324.491 213.191C342.908 231.04 351.012 242.921 348.578 248.499C346.529 252.784 343.726 256.723 340.239 260.223C330.178 270.328 315.52 275.801 302.506 279.82C295.382 281.957 288.835 283 282.53 283" fill="#FF00FF"/>
<path fill-rule="evenodd" clip-rule="evenodd" d="M216.105 107.228C195.235 107.228 175.487 113.783 159.912 125.992C150.449 133.387 145.097 143.456 145.231 153.62C145.363 163.66 152.244 170.935 157.993 175.268C168.776 183.398 180.11 188.464 192.11 193.828C196.541 195.807 201.122 197.855 205.643 200.059C211.707 203.004 244.764 227.306 258.881 237.686C261.367 239.515 263.233 240.886 264.205 241.59C268.893 244.997 271.941 248.972 273.522 253.746C275.247 258.955 272.077 263.728 269.28 267.939C269.031 268.312 268.784 268.685 268.54 269.055C267.108 271.243 265.06 273.382 263.081 275.45C258.135 280.617 253.462 285.499 256.743 291.556C260.015 297.602 267.917 297.678 274.889 297.746C275.466 297.752 276.034 297.757 276.587 297.766C285.173 297.908 293.86 296.609 303.139 293.801C319.496 288.852 337.95 282.063 350.781 269.25C355.398 264.641 358.789 259.904 361.149 254.771C364.097 248.361 356.596 235.758 339.459 218.327C325.564 204.192 309.209 190.896 303.466 186.673C296.668 181.673 289.201 176.905 283.457 173.309C281.785 172.264 280.089 171.226 278.452 170.223C273.515 167.199 268.408 164.073 263.398 160.378C257.163 155.775 250.298 149.916 246.644 141.352C244.58 136.477 244.4 131.248 244.225 126.19C244.165 124.433 244.102 122.619 243.961 120.844C243.138 110.276 230.235 107.91 222.615 107.439C220.436 107.299 218.264 107.228 216.105 107.228M277.843 299C277.417 299 276.992 298.996 276.568 298.99C276.016 298.979 275.452 298.975 274.877 298.969C267.926 298.902 259.279 298.818 255.664 292.138C251.958 285.297 257.161 279.862 262.193 274.604C264.135 272.577 266.142 270.479 267.513 268.385C267.757 268.014 268.006 267.638 268.257 267.262C271.027 263.09 273.895 258.774 272.356 254.13C270.859 249.607 267.955 245.829 263.482 242.58C262.509 241.873 260.642 240.501 258.152 238.67C244.062 228.312 211.07 204.057 205.105 201.158C200.602 198.962 196.029 196.919 191.609 194.945C179.543 189.551 168.146 184.459 157.253 176.245C151.285 171.747 144.142 164.171 144.003 153.637C143.865 143.089 149.388 132.662 159.156 125.03C168.106 118.013 178.279 112.844 189.39 109.664C199.989 106.633 211.195 105.474 222.693 106.219C230.708 106.714 244.29 109.259 245.184 120.748C245.327 122.549 245.389 124.379 245.451 126.147C245.631 131.322 245.8 136.209 247.775 140.874C251.313 149.168 258.028 154.89 264.129 159.394C269.094 163.057 274.178 166.169 279.094 169.179C280.734 170.183 282.432 171.223 284.109 172.273C289.872 175.879 297.363 180.664 304.194 185.687C309.964 189.932 326.389 203.282 340.336 217.47C358.11 235.55 365.487 248.271 362.264 255.28C359.843 260.549 356.371 265.4 351.65 270.115C338.626 283.119 320 289.978 303.494 294.972C294.552 297.678 286.145 298.999 277.843 299" fill="#FF00FF"/>
<path fill-rule="evenodd" clip-rule="evenodd" d="M211.312 92.2319C185.972 92.2319 161.996 100.227 143.083 115.116C131.574 124.149 125.065 136.452 125.229 148.873C125.389 161.155 133.762 170.047 140.757 175.345C153.846 185.257 167.599 191.429 182.159 197.964C187.531 200.377 193.085 202.869 198.565 205.553C206.89 209.614 244.662 237.013 256.04 245.313C261.703 249.445 265.383 254.266 267.291 260.052C269.363 266.337 265.537 272.121 262.161 277.226C261.86 277.683 261.561 278.135 261.267 278.587C259.535 281.242 257.057 283.841 254.659 286.355C248.628 292.686 242.929 298.664 246.953 306.129C250.957 313.561 260.582 313.655 269.073 313.737C269.773 313.743 270.461 313.749 271.132 313.762C281.571 313.935 292.109 312.351 303.373 308.927C323.227 302.892 345.624 294.616 361.205 278.989C366.814 273.364 370.937 267.582 373.807 261.314C377.428 253.406 370.657 239.872 354.23 222.173C340.453 207.331 324.073 194 317.338 189.024C309.087 182.928 300.03 177.12 293.063 172.741C291.035 171.466 288.98 170.202 286.994 168.98C281.006 165.298 274.816 161.492 268.746 156.996C261.199 151.4 252.89 144.279 248.473 133.876C245.976 127.961 245.758 121.603 245.547 115.457C245.473 113.316 245.396 111.104 245.226 108.938C244.222 95.9667 228.499 93.0648 219.216 92.4895C216.569 92.3178 213.933 92.2319 211.312 92.2319M272.655 315C272.14 315 271.626 314.996 271.111 314.987C270.443 314.975 269.758 314.97 269.062 314.963C260.668 314.881 250.221 314.78 245.876 306.711C241.429 298.462 247.704 291.878 253.774 285.509C256.132 283.034 258.572 280.476 260.241 277.916C260.537 277.461 260.837 277.006 261.141 276.549C264.519 271.44 268.013 266.157 266.128 260.436C264.304 254.902 260.768 250.278 255.319 246.305C247.234 240.408 206.476 210.775 198.029 206.654C192.566 203.979 187.021 201.491 181.658 199.084C167.032 192.519 153.218 186.318 140.02 176.323C132.805 170.861 124.171 161.667 124.003 148.888C123.837 136.081 130.515 123.421 142.327 114.152C153.171 105.615 165.492 99.3259 178.949 95.4587C191.789 91.7695 205.36 90.3594 219.293 91.2667C228.971 91.8647 245.37 94.9466 246.446 108.844C246.619 111.033 246.696 113.26 246.77 115.413C246.987 121.728 247.193 127.693 249.599 133.397C253.902 143.528 262.061 150.512 269.474 156.009C275.501 160.475 281.669 164.269 287.635 167.936C289.623 169.159 291.68 170.424 293.714 171.702C300.7 176.093 309.781 181.917 318.064 188.037C324.832 193.036 341.287 206.43 355.125 221.338C372.158 239.689 378.818 253.311 374.919 261.825C371.989 268.228 367.787 274.126 362.072 279.856C346.301 295.674 323.728 304.021 303.728 310.1C292.896 313.393 282.713 315 272.655 315" fill="#FF00FF"/>
<path fill-rule="evenodd" clip-rule="evenodd" d="M205.838 77.2305C175.938 77.2305 147.643 86.6303 125.324 104.133C111.726 114.762 104.039 129.245 104.229 143.865C104.42 158.334 114.316 168.807 122.584 175.044C138.024 186.691 154.245 193.943 171.419 201.622C177.752 204.454 184.301 207.383 190.761 210.533C200.951 215.484 238.652 242.015 247.366 248.347C254.025 253.187 258.351 258.831 260.594 265.606C263.02 272.936 258.525 279.708 254.558 285.683C254.202 286.219 253.849 286.75 253.502 287.28C251.466 290.39 248.547 293.441 245.723 296.39C238.584 303.854 231.838 310.903 236.622 319.74C241.372 328.526 253.252 328.64 262.798 328.733C263.623 328.741 264.433 328.748 265.223 328.762C277.53 328.964 289.979 327.103 303.27 323.078C326.693 315.987 353.116 306.261 371.506 287.89C378.129 281.273 382.995 274.473 386.383 267.099C396.343 245.43 349.718 204.773 330.913 190.935C321.182 183.775 310.501 176.95 302.285 171.806C299.893 170.309 297.471 168.826 295.129 167.39C288.071 163.068 280.774 158.597 273.62 153.318C264.735 146.754 254.95 138.402 249.75 126.207C246.817 119.28 246.559 111.823 246.312 104.611C246.223 102.097 246.134 99.4979 245.932 96.9529C244.741 81.6342 226.143 78.2109 215.163 77.5339C212.042 77.3316 208.928 77.2305 205.838 77.2305M267.021 330C266.415 330 265.809 329.994 265.203 329.985C264.415 329.971 263.607 329.963 262.786 329.956C252.918 329.861 240.637 329.742 235.542 320.321C230.337 310.703 237.708 302.998 244.837 295.546C247.623 292.636 250.501 289.626 252.475 286.611C252.823 286.079 253.178 285.546 253.536 285.008C257.535 278.984 261.67 272.756 259.43 265.987C257.27 259.466 253.09 254.019 246.646 249.336C237.948 243.016 200.341 216.55 190.223 211.633C183.78 208.489 177.241 205.566 170.916 202.739C153.678 195.031 137.396 187.751 121.845 176.019C113.358 169.619 103.201 158.847 103.004 143.882C102.807 128.875 110.667 114.036 124.567 103.17C137.342 93.1518 151.857 85.7717 167.709 81.2338C182.837 76.9043 198.828 75.2479 215.241 76.313C220.804 76.6556 228.825 77.7506 235.437 81.0139C242.674 84.5859 246.615 89.9153 247.154 96.8569C247.359 99.4277 247.449 102.041 247.536 104.568C247.792 111.997 248.035 119.012 250.88 125.729C255.963 137.655 265.596 145.87 274.35 152.334C281.461 157.582 288.735 162.038 295.771 166.348C298.115 167.783 300.541 169.269 302.937 170.77C311.172 175.927 321.876 182.766 331.641 189.95C341.515 197.216 357.423 210.655 369.763 224.625C386.127 243.148 392.095 257.609 387.499 267.609C384.048 275.116 379.101 282.033 372.374 288.754C353.793 307.317 327.195 317.114 303.627 324.249C290.864 328.113 278.869 330 267.021 330" fill="#FF00FF"/>
<path fill-rule="evenodd" clip-rule="evenodd" d="M200.974 62.2327C166.625 62.2327 134.12 73.0722 108.48 93.2584C92.8469 105.525 84.0064 122.242 84.2272 139.124C84.444 155.837 95.8268 167.928 105.335 175.129C123.072 188.559 141.7 196.921 161.422 205.772C168.692 209.035 176.209 212.41 183.625 216.04C195.178 221.677 227.866 243.827 239.156 252.062C246.785 257.627 251.74 264.117 254.309 271.906C257.08 280.312 251.932 288.097 247.39 294.964C246.982 295.581 246.575 296.196 246.178 296.807C243.845 300.385 240.495 303.897 237.258 307.294C229.036 315.921 221.268 324.069 226.793 334.312C232.271 344.486 245.941 344.618 256.924 344.724C257.87 344.734 258.801 344.742 259.709 344.757C273.844 344.99 288.15 342.845 303.42 338.204C330.321 330.028 360.671 318.812 381.798 297.626C389.411 289.992 395.005 282.146 398.9 273.637C403.968 262.565 398.772 247.643 383.457 229.281C368.733 211.627 350.014 197.273 344.629 193.296C333.454 185.041 321.191 177.175 311.754 171.245C309.007 169.519 306.225 167.807 303.533 166.154C295.435 161.173 287.06 156.024 278.85 149.942C268.657 142.386 257.437 132.769 251.477 118.735C248.114 110.767 247.82 102.182 247.534 93.8787C247.434 90.9812 247.331 87.9834 247.099 85.0477C245.727 67.3248 224.323 63.3657 211.688 62.5832C208.1 62.3495 204.527 62.2327 200.974 62.2327M261.775 346C261.078 346 260.385 345.994 259.69 345.982C258.784 345.968 257.857 345.958 256.912 345.949C245.607 345.84 231.538 345.703 225.715 334.894C219.771 323.866 228.211 315.012 236.373 306.447C239.572 303.09 242.881 299.62 245.153 296.137C245.552 295.524 245.961 294.908 246.37 294.287C250.973 287.328 255.732 280.132 253.146 272.29C250.662 264.754 245.85 258.461 238.437 253.053C227.49 245.07 194.393 222.657 183.088 217.141C175.689 213.519 168.182 210.149 160.922 206.889C141.135 198.009 122.445 189.62 104.598 176.107C94.8699 168.741 83.2271 156.348 83.0041 139.14C82.7791 121.873 91.7889 104.798 107.726 92.294C122.382 80.7547 139.037 72.2545 157.225 67.0281C174.581 62.0405 192.931 60.1343 211.765 61.3603C218.142 61.7552 227.339 63.0153 234.916 66.7676C243.192 70.8694 247.702 76.9868 248.319 84.9526C248.553 87.9142 248.656 90.9254 248.756 93.8373C249.051 102.406 249.33 110.5 252.603 118.257C258.447 132.019 269.519 141.498 279.579 148.957C287.745 155.007 296.097 160.143 304.174 165.109C306.868 166.766 309.652 168.477 312.405 170.209C321.859 176.15 334.147 184.031 345.355 192.31C350.769 196.31 369.583 210.735 384.396 228.496C400.039 247.251 405.293 262.61 400.012 274.147C396.055 282.791 390.38 290.753 382.664 298.492C361.346 319.87 330.822 331.155 303.776 339.377C289.132 343.827 275.367 346 261.775 346" fill="#FF00FF"/>
<path fill-rule="evenodd" clip-rule="evenodd" d="M195.449 48.2364C156.553 48.2364 119.747 60.5152 90.7103 83.3836C72.9961 97.2926 62.9789 116.247 63.2288 135.387C63.4757 154.346 76.3751 168.058 87.1536 176.223C107.234 191.437 128.324 200.906 150.649 210.932C158.876 214.627 167.385 218.447 175.777 222.557C188.691 228.863 218.071 247.77 230.406 256.772C239.025 263.063 244.625 270.399 247.527 279.202C250.651 288.687 245.087 297.105 239.705 305.245C239.241 305.945 238.781 306.641 238.332 307.331C235.694 311.376 231.908 315.352 228.246 319.196C219.33 328.555 210.108 338.232 216.388 349.884C222.612 361.445 238.11 361.595 250.562 361.717C251.634 361.728 252.686 361.737 253.715 361.755C269.724 362.013 285.922 359.587 303.213 354.33C333.671 345.069 368.035 332.363 391.96 308.359C400.583 299.707 406.92 290.814 411.332 281.171C417.115 268.532 412.61 252.704 397.939 234.131C384.207 216.744 365.499 202.139 358.093 196.666C345.444 187.318 331.562 178.41 320.881 171.693C317.771 169.738 314.624 167.802 311.579 165.929C302.412 160.289 292.933 154.457 283.642 147.573C272.115 139.023 259.422 128.141 252.685 112.268C248.886 103.26 248.552 93.5436 248.228 84.1475C248.117 80.8643 247.999 77.4714 247.739 74.1448C247.076 65.616 242.215 59.0486 233.288 54.6237C224.907 50.469 214.682 49.0717 207.581 48.6329C203.522 48.3679 199.471 48.2364 195.449 48.2364M256.053 363C255.267 363 254.481 362.995 253.694 362.98C252.669 362.965 251.619 362.953 250.551 362.944C237.776 362.819 221.877 362.665 215.31 350.467C208.608 338.032 218.141 328.025 227.36 318.348C230.984 314.543 234.732 310.61 237.306 306.66C237.758 305.968 238.218 305.269 238.682 304.568C243.903 296.672 249.303 288.504 246.364 279.586C243.546 271.037 238.09 263.899 229.685 257.763C217.385 248.789 188.101 229.938 175.241 223.661C166.867 219.559 158.367 215.743 150.148 212.052C127.756 201.996 106.607 192.498 86.415 177.203C75.4185 168.872 62.2588 154.859 62.0047 135.403C61.7485 115.877 71.9372 96.5639 89.9551 82.4189C106.536 69.3597 125.377 59.7389 145.955 53.8226C165.591 48.1774 186.351 46.0194 207.66 47.4084C214.871 47.8555 225.267 49.2787 233.832 53.5235C243.173 58.1533 248.261 65.0601 248.959 74.0495C249.222 77.401 249.34 80.8094 249.452 84.105C249.786 93.8179 250.102 102.99 253.813 111.788C260.435 127.391 272.977 138.135 284.372 146.586C293.617 153.441 303.074 159.258 312.22 164.884C315.267 166.758 318.417 168.695 321.53 170.654C332.23 177.383 346.139 186.307 358.82 195.678C366.265 201.18 385.074 215.867 398.899 233.369C413.878 252.335 418.437 268.589 412.444 281.682C407.97 291.459 401.554 300.47 392.826 309.225C368.709 333.422 334.172 346.198 303.569 355.504C287.003 360.541 271.43 363 256.053 363" fill="#FF00FF"/>
<path fill-rule="evenodd" clip-rule="evenodd" d="M190.908 33.2363C147.468 33.2363 106.365 46.9165 73.9375 72.3963C54.1425 87.9 42.9499 109.03 43.23 130.37C43.507 151.514 57.9223 166.804 69.9665 175.906C92.392 192.855 115.937 203.403 140.865 214.572C150.049 218.686 159.549 222.941 168.916 227.519C183.685 234.709 209.283 250.106 222.622 259.817C232.233 266.815 238.475 274.975 241.71 284.766C245.188 295.294 238.985 304.656 232.985 313.708C232.469 314.488 231.957 315.262 231.453 316.033C228.513 320.531 224.289 324.955 220.202 329.235C210.229 339.677 199.918 350.474 206.952 363.496C213.922 376.41 231.247 376.577 245.168 376.713C246.363 376.723 247.537 376.736 248.684 376.754C266.57 377.046 284.656 374.341 303.965 368.482C337.976 358.164 376.347 344.011 403.067 317.265C412.701 307.624 419.779 297.713 424.709 286.964C440.156 253.29 393.358 213.923 372.52 198.561C358.394 188.146 342.897 178.225 330.972 170.745C327.502 168.568 323.987 166.41 320.588 164.324C310.355 158.046 299.775 151.551 289.406 143.883C276.545 134.368 262.384 122.257 254.87 104.592C250.632 94.5701 250.26 83.757 249.9 73.2983C249.773 69.643 249.643 65.8626 249.35 62.1567C248.612 52.6299 243.17 45.2965 233.181 40.3569C223.814 35.7242 212.39 34.1672 204.455 33.6775C199.922 33.382 195.398 33.2363 190.908 33.2363M251.299 378C250.421 378 249.542 377.993 248.664 377.978C247.519 377.96 246.347 377.948 245.154 377.937C230.912 377.8 213.187 377.627 205.874 364.079C198.416 350.274 209.041 339.149 219.316 328.389C223.365 324.149 227.55 319.768 230.428 315.363C230.932 314.59 231.446 313.814 231.964 313.033C237.802 304.223 243.839 295.113 240.546 285.149C237.396 275.611 231.297 267.65 221.901 260.808C208.607 251.13 183.096 235.787 168.378 228.62C159.029 224.049 149.54 219.8 140.364 215.688C115.371 204.493 91.7636 193.916 69.2275 176.883C56.9652 167.616 42.2884 152.025 42.0052 130.386C41.721 108.661 53.0831 87.1727 73.1809 71.4334C91.684 56.8937 112.71 46.1829 135.673 39.5975C157.586 33.3118 180.754 30.9086 204.534 32.4542C212.577 32.9512 224.174 34.5361 233.725 39.2597C244.129 44.4028 249.796 52.075 250.572 62.0616C250.867 65.7924 250.998 69.5861 251.123 73.258C251.497 84.0794 251.85 94.3025 255.998 104.114C263.397 121.508 277.406 133.48 290.135 142.899C300.461 150.535 311.019 157.015 321.23 163.281C324.631 165.37 328.147 167.527 331.624 169.708C343.565 177.199 359.089 187.136 373.249 197.576C394.325 213.115 441.643 252.984 425.822 287.475C420.831 298.357 413.672 308.384 403.934 318.13C377.023 345.068 338.477 359.293 304.32 369.654C285.833 375.262 268.457 378 251.299 378" fill="#FF00FF"/>
<path fill-rule="evenodd" clip-rule="evenodd" d="M185.315 18.2384C137.348 18.2384 91.9607 33.3593 56.1519 61.5252C34.2848 78.6683 21.9217 102.036 22.2308 125.636C22.5357 149.027 38.4621 165.937 51.769 176.004C76.5295 194.737 102.525 206.395 130.047 218.735C140.186 223.282 150.669 227.986 161.01 233.042C168.759 236.82 195.467 250.183 213.773 263.525C224.371 271.247 231.255 280.256 234.82 291.059C238.651 302.664 231.811 312.994 225.197 322.986C224.628 323.847 224.062 324.704 223.505 325.555C220.264 330.522 215.601 335.409 211.093 340.135C200.068 351.69 188.669 363.64 196.457 378.068C204.168 392.371 223.312 392.556 238.697 392.706C240.016 392.717 241.313 392.732 242.579 392.751C262.332 393.077 282.3 390.084 303.622 383.608C341.176 372.205 383.543 356.561 413.049 326.997C423.688 316.337 431.506 305.38 436.951 293.496C452.472 259.628 417.72 224.468 385.834 200.936C370.24 189.427 353.128 178.463 339.965 170.196C336.134 167.79 332.252 165.406 328.499 163.101C317.205 156.16 305.528 148.986 294.085 140.517C279.894 130.006 264.27 116.631 255.98 97.1259C251.308 86.0637 250.897 74.1203 250.499 62.5709C250.361 58.5298 250.217 54.3511 249.893 50.2552C249.076 39.705 243.058 31.5834 232.009 26.1138C221.658 20.9908 209.038 19.2686 200.274 18.7256C195.268 18.3998 190.274 18.2384 185.315 18.2384M245.464 394C244.495 394 243.527 393.993 242.56 393.977C241.296 393.957 240.001 393.943 238.685 393.932C222.979 393.779 203.433 393.589 195.377 378.652C187.167 363.438 198.879 351.161 210.206 339.288C214.676 334.602 219.299 329.757 222.48 324.884C223.036 324.032 223.606 323.173 224.175 322.308C230.629 312.563 237.3 302.483 233.656 291.443C230.175 280.893 223.435 272.084 213.051 264.515C194.826 251.232 168.199 237.912 160.472 234.145C150.149 229.094 139.676 224.397 129.545 219.855C101.96 207.484 75.902 195.798 51.0299 176.983C37.5059 166.75 21.3159 149.539 21.0058 125.653C20.6905 101.666 33.2253 77.9411 55.3953 60.5612C75.8141 44.4991 99.0178 32.6674 124.359 25.3908C148.542 18.4484 174.11 15.7943 200.352 17.502C209.226 18.0522 222.02 19.8003 232.552 25.0143C244.015 30.6887 250.261 39.1485 251.115 50.159C251.44 54.2808 251.584 58.474 251.724 62.5285C252.117 73.9672 252.526 85.7948 257.107 96.6481C265.284 115.881 280.756 129.12 294.814 139.531C306.215 147.971 317.87 155.131 329.14 162.054C332.897 164.362 336.78 166.748 340.616 169.158C353.799 177.436 370.935 188.416 386.562 199.949C418.813 223.751 453.928 259.39 438.065 294.008C432.559 306.026 424.659 317.1 413.917 327.865C384.219 357.62 341.677 373.334 303.978 384.781C283.576 390.977 264.4 394 245.464 394" fill="#FF00FF"/>
<mask id="mask0_1_798" style="mask-type:alpha" maskUnits="userSpaceOnUse" x="1" y="3" width="455" height="407">
<path fill-rule="evenodd" clip-rule="evenodd" d="M1 3H456V410H1V3Z" fill="white"/>
</mask>
<g mask="url(#mask0_1_798)">
<path fill-rule="evenodd" clip-rule="evenodd" d="M180.816 4.23712C128.297 4.23712 78.5996 20.7592 39.3919 51.5344C15.359 70.3348 1.81638 95.8759 2.23529 121.609C2.48974 147.285 19.9722 165.726 34.5926 176.674C61.5671 197.202 89.9908 209.878 120.084 223.298C131.254 228.279 142.804 233.429 154.186 238.985L157.191 240.446C173.67 248.45 190.709 256.725 206.023 267.565C218.023 276.529 225.335 286.077 229.051 297.623C233.357 310.304 225.419 322.164 218.418 332.628C217.828 333.509 217.243 334.384 216.669 335.252C213.122 340.732 207.976 346.117 203.001 351.326C190.978 363.912 178.543 376.928 187.057 392.672C195.574 408.434 216.716 408.585 233.705 408.705C235.025 408.716 236.324 408.725 237.594 408.74C258.644 409.162 280.51 405.894 304.44 398.749C345.818 386.025 392.417 368.724 424.247 336.898C435.209 325.939 444.018 313.618 450.43 300.278C467.625 261.03 430.091 226.428 400.355 203.817C384.703 192.658 367.806 181.358 350.139 170.236C346.237 167.802 342.288 165.383 338.467 163.042C325.816 155.296 312.736 147.286 299.919 137.818C284.391 126.341 267.295 111.739 258.226 90.4447C253.116 78.3696 252.667 65.329 252.231 52.718C252.078 48.3039 251.922 43.7381 251.568 39.2632C250.67 27.7179 244.072 18.83 231.958 12.8452C220.62 7.24555 206.796 5.36386 197.196 4.77002C191.715 4.41475 186.248 4.23712 180.816 4.23712M241.201 410C239.988 410 238.782 409.989 237.576 409.965C236.311 409.948 235.014 409.939 233.695 409.93C216.384 409.807 194.84 409.653 185.98 393.254C177.041 376.727 189.788 363.384 202.113 350.48C207.05 345.313 212.156 339.97 215.643 334.583C216.222 333.707 216.807 332.831 217.398 331.949C224.577 321.219 232.002 310.125 227.887 298.008C224.249 286.706 217.074 277.35 205.303 268.555C190.081 257.782 173.089 249.529 156.655 241.548L153.647 240.085C142.284 234.539 130.744 229.392 119.583 224.415C89.424 210.967 60.9383 198.262 33.853 177.651C19.0144 166.538 1.26818 147.797 1.0096 121.626C0.584485 95.5083 14.2978 69.6087 38.6337 50.5698C60.9807 33.0315 86.3737 20.1096 114.108 12.1646C140.573 4.58206 168.552 1.6831 197.274 3.54827C206.984 4.1483 220.98 6.05787 232.501 11.7484C245.03 17.9367 251.858 27.1623 252.79 39.1681C253.145 43.6689 253.303 48.2482 253.457 52.6766C253.888 65.1761 254.334 78.1022 259.355 89.9675C268.308 110.989 285.255 125.456 300.649 136.834C313.423 146.269 326.479 154.266 339.108 161.999C342.931 164.341 346.884 166.761 350.79 169.199C368.484 180.338 385.402 191.651 401.076 202.826L401.09 202.837C431.156 225.7 469.096 260.727 451.544 300.787C445.063 314.273 436.174 326.705 425.114 337.763C393.094 369.777 346.324 387.15 304.795 399.921C282.11 406.693 261.262 410 241.201 410" fill="#FF00FF"/>
</g>
<path fill-rule="evenodd" clip-rule="evenodd" d="M220.556 118.228C204.254 118.228 188.83 123.378 176.665 132.969C169.267 138.783 165.098 146.669 165.227 154.604C165.305 162.487 170.671 168.166 175.159 171.541C183.544 177.951 192.396 181.917 201.768 186.115C205.258 187.678 208.866 189.295 212.426 191.04C216.507 193.035 243.482 213.328 259.599 225.453C265.641 229.998 270.413 233.587 271.792 234.568C275.566 237.402 277.966 240.551 279.137 244.209C280.546 248.375 278.007 252.187 275.767 255.549C275.584 255.825 275.401 256.098 275.223 256.37C274.097 258.118 272.477 259.821 270.91 261.469C267.092 265.484 263.485 269.276 265.999 273.943C268.538 278.667 274.73 278.71 280.193 278.75C280.606 278.752 281.012 278.755 281.41 278.76C287.955 278.894 294.724 277.873 302.15 275.645C315.015 271.671 329.502 266.271 339.375 256.356C342.764 252.953 345.484 249.128 347.466 244.987C348.974 241.528 346.074 232.818 323.642 211.073C309.963 197.815 294.022 184.69 288.838 180.731C283.963 177.239 278.697 173.702 273.188 170.217C271.973 169.456 270.758 168.71 269.548 167.966C265.592 165.531 261.501 163.014 257.485 160.035C252.593 156.402 247.202 151.775 244.331 145.004C242.706 141.145 242.564 137.017 242.426 133.023C242.379 131.644 242.331 130.217 242.221 128.824C241.586 120.604 231.56 118.762 225.641 118.394C223.94 118.283 222.242 118.228 220.556 118.228M282.53 280C282.149 280 281.768 279.996 281.389 279.989C280.999 279.983 280.594 279.98 280.184 279.977C274.668 279.939 267.805 279.889 264.921 274.527C261.985 269.074 266.072 264.777 270.024 260.622C271.551 259.016 273.132 257.354 274.198 255.699C274.382 255.42 274.566 255.145 274.749 254.868C276.934 251.587 279.192 248.197 277.974 244.594C276.865 241.13 274.673 238.263 271.071 235.56C269.691 234.58 265.149 231.164 258.865 226.435C242.783 214.336 215.865 194.086 211.888 192.144C208.346 190.407 204.749 188.795 201.267 187.237C191.829 183.008 182.915 179.015 174.421 172.521C169.716 168.981 164.086 163 164.003 154.622C163.867 146.3 168.207 138.056 175.909 132.003C189.571 121.233 207.258 115.966 225.72 117.168C232.033 117.56 242.734 119.583 243.441 128.727C243.553 130.147 243.603 131.588 243.65 132.98C243.791 137.041 243.922 140.877 245.46 144.525C248.215 151.024 253.452 155.513 258.213 159.047C262.187 161.995 266.254 164.497 270.19 166.917C271.402 167.663 272.618 168.412 273.838 169.176C279.373 172.678 284.662 176.23 289.558 179.737L289.573 179.748C294.766 183.715 310.767 196.888 324.492 210.19C342.907 228.042 351.012 239.92 348.578 245.498C346.53 249.784 343.726 253.723 340.24 257.223C330.179 267.328 315.519 272.8 302.507 276.82C295.382 278.957 288.834 280 282.53 280" fill="#00FFFF"/>
<path fill-rule="evenodd" clip-rule="evenodd" d="M215.104 104.229C194.235 104.229 174.488 110.785 158.912 122.994C149.448 130.388 144.097 140.457 144.231 150.62C144.362 160.66 151.244 167.934 156.993 172.27C167.775 180.399 179.11 185.465 191.11 190.827C195.541 192.807 200.12 194.855 204.641 197.06C210.708 200.005 243.764 224.308 257.88 234.686C260.368 236.514 262.232 237.886 263.204 238.592C267.893 241.997 270.94 245.973 272.521 250.745C274.246 255.956 271.076 260.729 268.278 264.939C268.03 265.314 267.784 265.685 267.542 266.055C266.108 268.242 264.061 270.382 262.081 272.45C257.134 277.617 252.462 282.498 255.743 288.558C259.014 294.602 266.915 294.678 273.889 294.747C274.465 294.752 275.032 294.757 275.586 294.765C284.171 294.908 292.861 293.61 302.138 290.802C318.496 285.852 336.95 279.064 349.781 266.251C354.398 261.641 357.788 256.905 360.149 251.771C363.096 245.362 355.596 232.758 338.46 215.327C324.564 201.193 308.209 187.898 302.466 183.674C295.667 178.674 288.201 173.906 282.457 170.309C280.784 169.264 279.09 168.225 277.452 167.223C272.513 164.198 267.407 161.072 262.399 157.378C256.163 152.776 249.299 146.917 245.646 138.351C243.58 133.478 243.4 128.248 243.224 123.19C243.163 121.434 243.101 119.62 242.961 117.844C242.138 107.276 229.234 104.911 221.615 104.44C219.436 104.3 217.263 104.229 215.104 104.229M276.842 296C276.416 296 275.993 295.997 275.566 295.991C275.015 295.981 274.451 295.975 273.876 295.969C266.927 295.903 258.278 295.818 254.663 289.139C250.957 282.297 256.16 276.863 261.193 271.605C263.135 269.577 265.141 267.481 266.513 265.386C266.757 265.015 267.005 264.64 267.256 264.263C270.028 260.09 272.894 255.775 271.355 251.13C269.859 246.608 266.957 242.83 262.482 239.581C261.509 238.874 259.641 237.501 257.152 235.67C243.062 225.313 210.069 201.056 204.104 198.158C199.601 195.962 195.028 193.92 190.608 191.944C178.542 186.552 167.145 181.458 156.253 173.246C150.284 168.746 143.141 161.171 143.003 150.636C142.865 140.088 148.387 129.662 158.155 122.032C167.107 115.014 177.278 109.843 188.389 106.665C198.987 103.634 210.193 102.474 221.693 103.219C229.708 103.713 243.29 106.259 244.184 117.749C244.327 119.55 244.39 121.379 244.45 123.148C244.629 128.322 244.799 133.21 246.775 137.873C250.313 146.168 257.026 151.891 263.129 156.394C268.094 160.058 273.178 163.171 278.094 166.178C279.735 167.184 281.432 168.223 283.109 169.273C288.871 172.879 296.363 177.664 303.194 182.688C308.965 186.931 325.388 200.282 339.335 214.471C357.109 232.551 364.487 245.271 361.265 252.281C358.843 257.55 355.37 262.402 350.651 267.115C337.626 280.12 318.998 286.979 302.494 291.973C293.552 294.679 285.145 296 276.842 296" fill="#00FFFF"/>
<path fill-rule="evenodd" clip-rule="evenodd" d="M210.311 89.2333C184.973 89.2333 160.996 97.2272 142.083 112.118C130.574 121.149 124.066 133.452 124.228 145.872C124.389 158.155 132.762 167.048 139.758 172.347C152.846 182.257 166.599 188.43 181.158 194.965C186.531 197.377 192.084 199.869 197.565 202.553C205.889 206.614 243.661 234.013 255.039 242.314C260.703 246.445 264.383 251.266 266.291 257.052C268.362 263.337 264.537 269.122 261.161 274.225C260.86 274.683 260.56 275.137 260.266 275.587C258.534 278.242 256.056 280.842 253.66 283.355C247.627 289.687 241.928 295.665 245.954 303.13C249.957 310.561 259.581 310.655 268.073 310.738C268.773 310.744 269.461 310.75 270.132 310.762C280.572 310.936 291.108 309.351 302.372 305.928C322.225 299.893 344.624 291.617 360.206 275.99C365.816 270.364 369.938 264.583 372.807 258.315C376.427 250.407 369.658 236.872 353.229 219.174C339.452 204.332 323.074 191 316.338 186.024C308.087 179.928 299.03 174.121 292.063 169.741C290.035 168.467 287.98 167.203 285.993 165.982C280.007 162.3 273.816 158.493 267.746 153.995C260.2 148.402 251.89 141.278 247.471 130.876C244.977 124.961 244.758 118.605 244.547 112.457C244.472 110.316 244.396 108.105 244.227 105.939C243.221 92.967 227.498 90.0651 218.215 89.4909C215.569 89.3181 212.933 89.2333 210.311 89.2333M271.655 312C271.14 312 270.626 311.996 270.112 311.989C269.444 311.978 268.759 311.97 268.061 311.963C259.669 311.882 249.222 311.781 244.876 303.712C240.427 295.463 246.705 288.878 252.775 282.509C255.133 280.035 257.571 277.476 259.242 274.915C259.536 274.463 259.839 274.008 260.141 273.55C263.519 268.439 267.014 263.156 265.129 257.438C263.303 251.902 259.768 247.28 254.319 243.306C246.235 237.407 205.476 207.776 197.028 203.655C191.566 200.98 186.021 198.491 180.658 196.085C166.033 189.52 152.218 183.318 139.02 173.325C131.805 167.862 123.17 158.667 123.003 145.888C122.837 133.083 129.515 120.423 141.328 111.153C152.171 102.615 164.493 96.3262 177.949 92.459C190.788 88.7708 204.361 87.3587 218.294 88.267C227.971 88.866 244.37 91.9469 245.447 105.844C245.619 108.035 245.696 110.262 245.77 112.414C245.988 118.728 246.192 124.694 248.599 130.398C252.901 140.528 261.06 147.514 268.474 153.01C274.502 157.476 280.669 161.268 286.633 164.938C288.623 166.16 290.681 167.425 292.714 168.701C299.699 173.094 308.78 178.918 317.064 185.038C323.832 190.037 340.288 203.431 354.127 218.339C371.158 236.689 377.817 250.31 373.92 258.826C370.989 265.228 366.786 271.127 361.073 276.856C345.299 292.675 322.727 301.022 302.728 307.101C291.895 310.393 281.712 312 271.655 312" fill="#00FFFF"/>
<path fill-rule="evenodd" clip-rule="evenodd" d="M204.836 75.2311C174.936 75.2311 146.642 84.6299 124.323 102.132C110.726 112.761 103.037 127.244 103.229 141.865C103.419 156.336 113.314 166.807 121.584 173.044C137.025 184.691 153.246 191.944 170.418 199.622C176.751 202.454 183.3 205.381 189.76 208.533C199.95 213.486 237.652 240.014 246.367 246.348C253.024 251.186 257.351 256.831 259.593 263.605C262.02 270.937 257.523 277.709 253.556 283.682C253.201 284.218 252.848 284.751 252.502 285.279C250.466 288.389 247.547 291.44 244.725 294.39C237.583 301.854 230.838 308.904 235.621 317.74C240.372 326.525 252.251 326.64 261.797 326.733C262.622 326.74 263.432 326.748 264.223 326.762C276.53 326.965 288.979 325.103 302.269 321.078C325.693 313.988 352.116 304.261 370.505 285.89C377.129 279.274 381.996 272.473 385.385 265.098C395.343 243.429 348.718 202.773 329.913 188.934C320.182 181.774 309.502 174.951 301.284 169.805C298.893 168.309 296.471 166.825 294.129 165.389C287.071 161.067 279.774 156.596 272.62 151.317C263.735 144.756 253.949 136.402 248.751 124.207C245.817 117.281 245.559 109.822 245.31 102.611C245.223 100.097 245.133 97.4974 244.931 94.9534C243.742 79.6359 225.143 76.2115 214.162 75.5335C211.04 75.3312 207.93 75.2311 204.836 75.2311M266.021 328C265.414 328 264.808 327.994 264.203 327.985C263.415 327.971 262.607 327.964 261.784 327.956C251.918 327.861 239.636 327.742 234.541 318.322C229.335 308.703 236.709 300.998 243.837 293.546C246.621 290.636 249.501 287.626 251.476 284.61C251.823 284.079 252.178 283.545 252.535 283.008C256.534 276.984 260.669 270.757 258.428 263.988C256.271 257.466 252.088 252.018 245.644 247.337C236.949 241.017 199.341 214.551 189.222 209.632C182.78 206.49 176.241 203.567 169.917 200.738C152.678 193.031 136.396 185.75 120.843 174.019C112.357 167.619 102.2 156.846 102.004 141.881C101.807 126.875 109.666 112.037 123.566 101.169C136.342 91.1524 150.855 83.7713 166.709 79.2334C181.836 74.9039 197.827 73.2486 214.241 74.3126C219.802 74.6563 227.824 75.7513 234.436 79.0146C241.672 82.5854 245.614 87.9159 246.155 94.8575C246.358 97.4283 246.449 100.041 246.536 102.569C246.792 109.996 247.034 117.012 249.88 123.73C254.963 135.654 264.596 143.87 273.349 150.334C280.46 155.583 287.735 160.038 294.77 164.348C297.115 165.784 299.54 167.269 301.937 168.769C310.171 173.926 320.877 180.766 330.641 187.951C340.514 195.216 356.423 208.656 368.762 222.625C385.126 241.147 391.094 255.609 386.499 265.609C383.049 273.116 378.1 280.033 371.374 286.754C352.792 305.317 326.195 315.113 302.626 322.248C289.865 326.112 277.867 328 266.021 328" fill="#00FFFF"/>
<path fill-rule="evenodd" clip-rule="evenodd" d="M199.974 60.2337C165.625 60.2337 133.12 71.0742 107.481 91.2583C91.8469 103.525 83.0074 120.242 83.2262 137.124C83.4451 153.837 94.8268 165.929 104.335 173.13C122.072 186.559 140.7 194.921 160.421 203.772C167.691 207.035 175.209 210.41 182.624 214.04C194.179 219.678 226.867 241.827 238.157 250.063C245.784 255.627 250.741 262.118 253.309 269.906C256.08 278.312 250.932 286.097 246.391 292.965C245.981 293.583 245.575 294.197 245.177 294.808C242.844 298.385 239.495 301.898 236.259 305.295C228.035 313.921 220.269 322.069 225.792 332.313C231.272 342.486 244.941 342.619 255.923 342.725C256.871 342.734 257.801 342.742 258.71 342.757C272.844 342.991 287.15 340.846 302.421 336.205C329.322 328.029 359.671 316.813 380.798 295.626C388.41 287.993 394.004 280.145 397.9 271.637C402.968 260.566 397.772 245.644 382.457 227.282C367.731 209.627 349.014 195.275 343.628 191.296C332.454 183.042 320.189 175.177 310.755 169.246C308.008 167.52 305.225 165.809 302.534 164.154C294.435 159.174 286.059 154.024 277.851 147.943C267.659 140.387 256.435 130.77 250.477 116.735C247.115 108.768 246.819 100.182 246.534 91.8796C246.434 88.9811 246.33 85.9844 246.1 83.0486C244.726 65.3257 223.323 61.3666 210.689 60.5831C207.101 60.3494 203.527 60.2337 199.974 60.2337M260.775 344C260.078 344 259.385 343.995 258.69 343.982C257.784 343.968 256.857 343.959 255.912 343.949C244.608 343.841 230.537 343.704 224.715 332.895C218.77 321.867 227.21 313.013 235.374 304.449C238.573 301.092 241.881 297.62 244.152 294.138C244.552 293.525 244.959 292.908 245.371 292.288C249.973 285.329 254.731 278.132 252.147 270.29C249.662 262.755 244.849 256.461 237.435 251.054C226.49 243.07 193.394 220.658 182.088 215.142C174.69 211.519 167.183 208.149 159.92 204.891C140.135 196.01 121.444 187.621 103.598 174.107C93.871 166.742 82.2292 154.35 82.0042 137.139C81.7781 119.873 90.7889 102.8 106.725 90.2939C121.381 78.7556 138.036 70.2544 156.225 65.029C173.582 60.0414 191.931 58.1342 210.766 59.3602C217.143 59.7561 226.338 61.0151 233.915 64.7696C242.193 68.8693 246.702 74.9867 247.319 82.9535C247.552 85.9141 247.656 88.9263 247.756 91.8372C248.051 100.406 248.33 108.501 251.603 116.258C257.447 130.02 268.518 139.499 278.579 146.958C286.744 153.009 295.096 158.143 303.174 163.11C305.867 164.766 308.653 166.478 311.405 168.209C320.858 174.15 333.147 182.032 344.354 190.31C349.767 194.31 368.584 208.737 383.395 226.496C399.04 245.252 404.293 260.611 399.012 272.148C395.054 280.791 389.38 288.753 381.664 296.492C360.346 317.871 329.823 329.157 302.775 337.377C288.131 341.827 274.366 344 260.775 344" fill="#00FFFF"/>
<path fill-rule="evenodd" clip-rule="evenodd" d="M195.45 45.2366C156.553 45.2366 119.747 57.5143 90.7113 80.3848C72.995 94.2927 62.9788 113.247 63.2288 132.387C63.4767 151.347 76.3761 165.058 87.1526 173.223C107.235 188.437 128.324 197.906 150.649 207.933C158.877 211.627 167.385 215.448 175.778 219.558C188.691 225.862 218.072 244.771 230.406 253.773C239.026 260.063 244.625 267.4 247.525 276.202C250.651 285.686 245.085 294.104 239.703 302.245C239.241 302.945 238.783 303.64 238.332 304.331C235.695 308.375 231.908 312.35 228.245 316.195C219.329 325.555 210.109 335.233 216.388 346.884C222.613 358.444 238.11 358.595 250.563 358.718C251.633 358.727 252.687 358.736 253.715 358.754C269.726 359.012 285.922 356.588 303.213 351.33C333.671 342.068 368.035 329.365 391.96 305.36C400.583 296.707 406.92 287.814 411.332 278.171C417.116 265.531 412.61 249.704 397.939 231.13C384.207 213.745 365.499 199.139 358.095 193.666C345.444 184.319 331.562 175.409 320.881 168.693C317.772 166.739 314.624 164.802 311.58 162.929C302.412 157.29 292.933 151.456 283.643 144.572C272.116 136.023 259.422 125.143 252.686 109.268C248.887 100.259 248.552 90.5438 248.23 81.1476C248.117 77.8665 247.999 74.4715 247.737 71.1459C247.078 62.6161 242.215 56.0477 233.289 51.6239C224.906 47.4692 214.682 46.0729 207.581 45.632C203.521 45.367 199.471 45.2366 195.45 45.2366M256.054 360C255.267 360 254.481 359.994 253.695 359.98C252.671 359.964 251.62 359.953 250.552 359.943C237.777 359.819 221.878 359.665 215.31 347.467C208.608 335.032 218.141 325.025 227.36 315.348C230.983 311.544 234.731 307.611 237.306 303.66C237.759 302.967 238.219 302.269 238.683 301.568C243.904 293.671 249.304 285.504 246.364 276.586C243.546 268.037 238.09 260.898 229.684 254.765C217.386 245.788 188.101 226.938 175.24 220.662C166.866 216.558 158.368 212.743 150.148 209.052C127.757 198.996 106.607 189.5 86.415 174.202C75.4195 165.871 62.2588 151.858 62.0047 132.403C61.7495 112.876 71.9372 93.5651 89.9541 79.4201C106.536 66.3599 125.378 56.7381 145.955 50.8217C165.592 45.1776 186.353 43.0206 207.659 44.4075C214.871 44.8557 225.268 46.2789 233.832 50.5236C243.173 55.1534 248.262 62.0592 248.959 71.0497C249.222 74.4012 249.339 77.8085 249.453 81.1062C249.787 90.817 250.102 99.9907 253.813 108.789C260.436 124.391 272.977 135.136 284.371 143.587C293.618 150.44 303.075 156.257 312.22 161.883C315.266 163.757 318.418 165.697 321.531 167.654C332.232 174.382 346.139 183.306 358.821 192.678C366.266 198.181 385.075 212.868 398.899 230.368C413.879 249.334 418.436 265.588 412.445 278.681C407.971 288.461 401.554 297.47 392.828 306.225C368.71 330.421 334.173 343.197 303.569 352.504C287.003 357.541 271.431 360 256.054 360" fill="#00FFFF"/>
<path fill-rule="evenodd" clip-rule="evenodd" d="M189.907 30.2354C146.468 30.2354 105.365 43.9156 72.9374 69.3966C53.1424 84.9003 41.9509 106.031 42.231 127.372C42.506 148.513 56.9222 163.804 68.9654 172.906C91.3919 189.856 114.938 200.404 139.865 211.572C149.051 215.686 158.548 219.94 167.916 224.518C182.684 231.711 208.283 247.105 221.622 256.818C231.232 263.816 237.477 271.976 240.709 281.766C244.188 292.295 237.984 301.657 231.987 310.708C231.469 311.488 230.956 312.263 230.453 313.033C227.513 317.532 223.288 321.957 219.2 326.236C209.229 336.679 198.919 347.476 205.953 360.497C212.921 373.41 230.247 373.577 244.166 373.714C245.362 373.725 246.537 373.736 247.685 373.755C265.57 374.048 283.654 371.341 302.964 365.482C336.976 355.165 375.347 341.012 402.067 314.265C411.7 304.625 418.778 294.713 423.709 283.966C439.154 250.292 392.356 210.924 371.52 195.562C357.394 185.147 341.896 175.225 329.971 167.746C326.501 165.568 322.988 163.412 319.587 161.325C309.356 155.045 298.773 148.551 288.405 140.884C275.545 131.368 261.384 119.257 253.868 101.593C249.633 91.5714 249.26 80.7573 248.899 70.2985C248.773 66.6421 248.644 62.8618 248.351 59.1568C247.611 49.631 242.171 42.2966 232.181 37.357C222.815 32.7243 211.389 31.1673 203.455 30.6766C198.922 30.3821 194.398 30.2354 189.907 30.2354M250.298 375C249.42 375 248.542 374.994 247.665 374.979C246.521 374.961 245.348 374.949 244.154 374.937C229.911 374.8 212.187 374.628 204.873 361.079C197.417 347.274 208.042 336.149 218.315 325.39C222.363 321.151 226.55 316.768 229.427 312.363C229.931 311.591 230.446 310.813 230.963 310.033C236.801 301.223 242.837 292.114 239.546 282.149C236.396 272.611 230.297 264.65 220.901 257.809C207.607 248.129 182.095 232.787 167.379 225.62C158.028 221.05 148.539 216.799 139.364 212.69C114.371 201.492 90.7645 190.916 68.2274 173.883C55.9651 164.616 41.2874 149.027 41.0052 127.387C40.721 105.662 52.0851 84.1729 72.1809 68.4336C90.6849 53.8939 111.71 43.182 134.674 36.5966C156.587 30.3108 179.755 27.9087 203.532 29.4543C211.578 29.9523 223.173 31.5362 232.724 36.2588C243.129 41.4029 248.797 49.0762 249.572 59.0608C249.867 62.7926 249.998 66.5863 250.124 70.2572C250.496 81.0806 250.849 91.3018 254.996 101.116C262.396 118.508 276.405 130.48 289.133 139.899C299.46 147.536 310.018 154.015 320.229 160.281C323.629 162.369 327.148 164.526 330.623 166.708C342.564 174.199 358.088 184.137 372.247 194.576C393.325 210.117 440.643 249.986 424.822 284.475C419.831 295.357 412.671 305.384 402.934 315.131C376.022 342.068 337.477 356.293 303.32 366.654C284.832 372.264 267.457 375 250.298 375" fill="#00FFFF"/>
<path fill-rule="evenodd" clip-rule="evenodd" d="M185.315 16.2383C137.349 16.2383 91.9612 31.3613 56.1527 59.525C34.2857 76.669 21.9216 100.036 22.2317 123.638C22.5366 147.027 38.464 163.938 51.7698 174.005C76.5311 192.737 102.527 204.394 130.047 216.737C140.187 221.283 150.67 225.985 161.011 231.043C168.758 234.819 195.467 248.183 213.773 261.525C224.37 269.25 231.256 278.256 234.82 289.058C238.65 300.664 231.812 310.995 225.198 320.986C224.627 321.847 224.061 322.704 223.505 323.554C220.264 328.521 215.602 333.408 211.091 338.134C200.068 349.691 188.669 361.638 196.456 376.068C204.168 390.371 223.314 390.555 238.696 390.706C240.017 390.718 241.313 390.731 242.58 390.751C262.333 391.076 282.298 388.083 303.622 381.608C341.175 370.205 383.542 354.561 413.048 324.997C423.686 314.337 431.506 303.379 436.952 291.497C452.471 257.628 417.72 222.467 385.834 198.935C370.238 187.427 353.13 176.463 339.964 168.197C336.134 165.791 332.252 163.406 328.5 161.1C317.205 154.163 305.527 146.987 294.083 138.518C279.895 128.007 264.271 114.632 255.98 95.1267C251.309 84.0635 250.897 72.1201 250.499 60.5718C250.36 56.5296 250.217 52.3509 249.895 48.255C249.076 37.7048 243.059 29.5832 232.008 24.1137C221.659 18.9917 209.039 17.2695 200.274 16.7255C195.268 16.4007 190.274 16.2383 185.315 16.2383M245.464 392C244.495 392 243.529 391.993 242.56 391.977C241.295 391.957 240.002 391.943 238.685 391.931C222.979 391.779 203.433 391.589 195.378 376.651C187.168 361.438 198.88 349.16 210.205 337.288C214.676 332.602 219.299 327.756 222.479 322.884C223.037 322.031 223.603 321.172 224.176 320.31C230.628 310.562 237.3 300.482 233.658 289.443C230.176 278.892 223.435 270.084 213.052 262.516C194.827 249.232 168.2 235.911 160.472 232.145C150.151 227.095 139.675 222.397 129.547 217.854C101.96 205.484 75.9027 193.8 51.0317 174.982C37.5057 164.749 21.3179 147.539 21.0057 123.653C20.6925 99.6663 33.2272 75.9409 55.396 58.561C75.8158 42.5 99.0183 30.6682 124.36 23.3928C148.542 16.4493 174.112 13.7942 200.351 15.5019C209.228 16.0521 222.019 17.8022 232.552 23.0142C244.016 28.6896 250.262 37.1494 251.115 48.1608C251.44 52.2816 251.585 56.4748 251.725 60.5304C252.117 71.968 252.525 83.7956 257.108 94.6488C265.282 113.882 280.755 127.121 294.813 137.532C306.213 145.97 317.868 153.131 329.141 160.057C332.896 162.362 336.779 164.747 340.617 167.158C353.798 175.435 370.933 186.416 386.562 197.949C418.812 221.75 453.928 257.389 438.065 292.007C432.558 304.025 424.659 315.1 413.917 325.864C384.219 355.62 341.676 371.334 303.979 382.782C283.576 388.978 264.399 392 245.464 392" fill="#00FFFF"/>
<path fill-rule="evenodd" clip-rule="evenodd" d="M179.817 1.23609C127.296 1.23609 77.5998 17.7581 38.391 48.5332C14.357 67.3335 0.815398 92.8757 1.23534 118.61C1.48876 144.284 18.9702 162.723 33.5917 173.672C60.5663 194.202 88.9911 206.877 119.083 220.296C130.254 225.278 141.804 230.429 153.187 235.985L156.191 237.445C172.669 245.449 189.708 253.724 205.024 264.564C217.021 273.529 224.334 283.076 228.05 294.623C232.357 307.303 224.419 319.164 217.417 329.628C216.828 330.508 216.242 331.382 215.668 332.251C212.121 337.73 206.976 343.116 202.001 348.324C189.976 360.911 177.543 373.927 186.058 389.67C194.574 405.432 215.717 405.584 232.705 405.705C234.025 405.713 235.324 405.722 236.594 405.738C257.645 406.16 279.511 402.892 303.44 395.75C344.819 383.022 391.416 365.723 423.248 333.897C434.21 322.937 443.018 310.616 449.429 297.276C466.627 258.028 429.09 223.429 399.355 200.816C383.704 189.657 366.807 178.357 349.139 167.235C345.238 164.801 341.287 162.382 337.467 160.042C324.816 152.295 311.736 144.285 298.918 134.819C283.392 123.34 266.295 108.738 257.226 87.4444C252.115 75.3694 251.665 62.3288 251.231 49.7168C251.079 45.3028 250.921 40.7359 250.567 36.2631C249.67 24.7168 243.072 15.8289 230.958 9.84618C219.619 4.24451 205.795 2.36179 196.196 1.76899C190.715 1.41476 185.246 1.23609 179.817 1.23609M240.201 407C238.988 407 237.782 406.986 236.574 406.963C235.311 406.947 234.013 406.938 232.695 406.928C215.384 406.805 193.838 406.651 184.978 390.252C176.041 373.727 188.788 360.382 201.114 347.479C206.05 342.312 211.154 336.97 214.642 331.582C215.22 330.706 215.808 329.829 216.397 328.947C223.578 318.219 231.001 307.123 226.887 295.006C223.248 283.704 216.073 274.349 204.301 265.554C189.081 254.781 172.088 246.528 155.655 238.546L152.648 237.085C141.283 231.538 129.743 226.392 118.584 221.415C88.4242 207.965 59.9364 195.26 32.8521 174.648C18.0145 163.538 0.268231 144.795 0.00964485 118.624C-0.416504 92.5091 13.2968 66.6086 37.6339 47.5697C59.9808 30.0314 85.374 17.1085 113.107 9.16353C139.571 1.58206 167.553 -1.31688 196.273 0.548274C205.984 1.14831 219.979 3.05787 231.501 8.74836C244.03 14.9377 250.855 24.1623 251.789 36.167C252.145 40.6678 252.303 45.248 252.457 49.6755C252.887 62.176 253.334 75.1009 258.354 86.9663C267.309 107.989 284.253 122.456 299.647 133.834C312.423 143.268 325.48 151.266 338.108 158.999C341.93 161.339 345.883 163.76 349.79 166.198C367.485 177.337 384.401 188.65 400.074 199.825L400.09 199.836C430.156 222.699 468.096 257.725 450.544 297.786C444.064 311.271 435.175 323.705 424.115 334.762C392.095 366.777 345.324 384.148 303.796 396.92C281.109 403.692 260.263 407 240.201 407" fill="#00FFFF"/>
<path fill-rule="evenodd" clip-rule="evenodd" d="M220.556 120.228C204.255 120.228 188.831 125.378 176.666 134.969C169.268 140.783 165.1 148.668 165.228 156.604C165.307 164.487 170.673 170.166 175.161 173.541C183.546 179.951 192.397 183.917 201.768 188.114C205.258 189.678 208.866 191.295 212.426 193.04C216.507 195.035 243.482 215.327 259.6 227.452C265.642 231.998 270.413 235.587 271.792 236.568C275.566 239.401 277.966 242.551 279.138 246.209C280.546 250.376 278.007 254.187 275.768 257.549C275.584 257.824 275.402 258.098 275.222 258.37C274.096 260.118 272.477 261.821 270.911 263.469C267.092 267.484 263.486 271.276 265.998 275.943C268.538 280.667 274.73 280.711 280.193 280.748C280.605 280.752 281.012 280.755 281.409 280.76C287.954 280.892 294.724 279.872 302.15 277.645C315.016 273.671 329.502 268.271 339.374 258.356C342.762 254.953 345.485 251.128 347.466 246.987C348.975 243.528 346.073 234.817 323.641 213.073C309.963 199.815 294.022 186.691 288.838 182.731C283.963 179.239 278.697 175.702 273.188 172.217C271.973 171.456 270.76 170.71 269.549 169.966C265.593 167.53 261.502 165.014 257.485 162.034C252.593 158.402 247.203 153.775 244.333 147.004C242.706 143.145 242.565 139.016 242.429 135.023C242.38 133.643 242.333 132.216 242.221 130.824C241.586 122.604 231.561 120.762 225.642 120.394C223.94 120.283 222.243 120.228 220.556 120.228M282.53 282C282.149 282 281.769 281.996 281.39 281.988C280.998 281.983 280.595 281.98 280.184 281.977C274.67 281.939 267.806 281.889 264.922 276.526C261.985 271.074 266.072 266.777 270.023 262.622C271.552 261.016 273.131 259.353 274.199 257.698C274.381 257.419 274.565 257.145 274.75 256.868C276.935 253.587 279.193 250.197 277.975 246.594C276.865 243.13 274.673 240.263 271.072 237.56C269.693 236.579 265.15 233.164 258.866 228.435C242.784 216.337 215.866 196.086 211.889 194.144C208.348 192.407 204.749 190.795 201.269 189.236C191.831 185.008 182.916 181.015 174.421 174.521C169.717 170.981 164.088 165 164.003 156.621C163.869 148.301 168.209 140.055 175.912 134.003C189.571 123.233 207.259 117.966 225.72 119.168C232.034 119.56 242.735 121.583 243.442 130.726C243.554 132.147 243.603 133.588 243.651 134.98C243.791 139.042 243.923 142.876 245.461 146.525C248.215 153.024 253.453 157.513 258.213 161.047C262.187 163.994 266.255 166.497 270.189 168.919C271.402 169.665 272.619 170.413 273.839 171.176C279.374 174.678 284.661 178.229 289.557 181.737L289.573 181.748C294.765 185.715 310.768 198.888 324.491 212.19C342.907 230.042 351.012 241.92 348.578 247.498C346.529 251.783 343.726 255.723 340.239 259.223C330.178 269.328 315.519 274.8 302.506 278.819C295.382 280.957 288.834 282 282.53 282" fill="white"/>
<path fill-rule="evenodd" clip-rule="evenodd" d="M216.105 106.228C195.236 106.228 175.487 112.785 159.912 124.994C150.448 132.387 145.098 142.457 145.232 152.62C145.363 162.66 152.244 169.935 157.993 174.27C168.776 182.398 180.11 187.465 192.11 192.827C196.541 194.807 201.121 196.855 205.643 199.058C211.707 202.004 244.764 226.307 258.881 236.686C261.368 238.514 263.233 239.886 264.204 240.592C268.893 243.997 271.942 247.972 273.522 252.745C275.247 257.955 272.076 262.728 269.279 266.939C269.031 267.314 268.784 267.685 268.541 268.055C267.108 270.243 265.06 272.382 263.081 274.45C258.135 279.617 253.462 284.499 256.744 290.558C260.015 296.602 267.917 296.678 274.89 296.747C275.466 296.752 276.034 296.757 276.587 296.766C285.173 296.908 293.861 295.609 303.138 292.801C319.496 287.852 337.95 281.064 350.781 268.251C355.398 263.641 358.789 258.905 361.149 253.771C364.097 247.362 356.596 234.758 339.459 217.327C325.564 203.192 309.209 189.897 303.466 185.674C296.669 180.674 289.201 175.905 283.457 172.308C281.784 171.264 280.089 170.226 278.451 169.222C273.513 166.199 268.408 163.073 263.398 159.378C257.163 154.776 250.298 148.916 246.645 140.351C244.58 135.478 244.4 130.248 244.225 125.19C244.165 123.435 244.102 121.62 243.962 119.844C243.14 109.276 230.235 106.91 222.615 106.44C220.436 106.3 218.264 106.228 216.105 106.228M277.843 298C277.417 298 276.992 297.997 276.568 297.99C276.016 297.98 275.452 297.975 274.877 297.969C267.927 297.904 259.279 297.818 255.664 291.139C251.959 284.297 257.161 278.862 262.193 273.605C264.135 271.577 266.142 269.48 267.513 267.386C267.758 267.014 268.007 266.64 268.256 266.263C271.027 262.09 273.895 257.775 272.356 253.13C270.859 248.608 267.956 244.83 263.482 241.581C262.509 240.874 260.642 239.501 258.152 237.67C244.062 227.313 211.071 203.056 205.105 200.158C200.602 197.962 196.03 195.919 191.609 193.944C179.543 188.552 168.146 183.458 157.253 175.246C151.285 170.746 144.142 163.171 144.003 152.636C143.865 142.087 149.388 131.662 159.156 124.031C168.107 117.014 178.28 111.843 189.39 108.665C199.99 105.634 211.194 104.474 222.693 105.219C230.708 105.713 244.29 108.258 245.186 119.749C245.326 121.549 245.389 123.378 245.452 125.147C245.631 130.322 245.8 135.21 247.775 139.873C251.313 148.168 258.028 153.891 264.128 158.393C269.094 162.057 274.178 165.17 279.093 168.178C280.736 169.184 282.432 170.223 284.11 171.273C289.872 174.879 297.363 179.664 304.195 184.688C309.964 188.932 326.389 202.282 340.336 216.47C358.11 234.55 365.487 247.272 362.264 254.281C359.843 259.549 356.371 264.401 351.65 269.115C338.626 282.119 319.999 288.979 303.495 293.973C294.553 296.678 286.146 297.999 277.843 298" fill="white"/>
<path fill-rule="evenodd" clip-rule="evenodd" d="M210.311 91.2335C184.972 91.2335 160.996 99.2274 142.083 114.117C130.574 123.149 124.065 135.452 124.228 147.872C124.388 160.155 132.762 169.048 139.757 174.347C152.846 184.257 166.599 190.43 181.159 196.966C186.531 199.377 192.085 201.869 197.565 204.553C205.889 208.615 243.662 236.014 255.039 244.314C260.703 248.445 264.383 253.266 266.291 259.052C268.363 265.337 264.537 271.122 261.161 276.225C260.86 276.683 260.56 277.136 260.267 277.587C258.535 280.242 256.057 282.841 253.659 285.355C247.626 291.687 241.929 297.664 245.953 305.13C249.957 312.561 259.582 312.655 268.073 312.738C268.774 312.744 269.462 312.75 270.132 312.762C280.571 312.936 291.109 311.351 302.373 307.928C322.227 301.893 344.624 293.617 360.205 277.99C365.816 272.365 369.937 266.583 372.807 260.315C376.427 252.407 369.656 238.872 353.23 221.174C339.453 206.332 323.073 192.999 316.338 188.024C308.087 181.928 299.03 176.121 292.063 171.741C290.035 170.468 287.98 169.203 285.994 167.983C280.006 164.301 273.816 160.493 267.746 155.995C260.199 150.401 251.89 143.279 247.473 132.876C244.976 126.962 244.758 120.604 244.546 114.457C244.473 112.317 244.396 110.105 244.225 107.939C243.221 94.9672 227.498 92.0653 218.216 91.4911C215.569 91.3183 212.933 91.2335 210.311 91.2335M271.655 314C271.14 314 270.625 313.996 270.111 313.988C269.443 313.976 268.758 313.97 268.062 313.963C259.668 313.882 249.222 313.78 244.876 305.712C240.429 297.463 246.704 290.878 252.774 284.509C255.132 282.034 257.571 279.476 259.241 276.916C259.537 276.463 259.837 276.007 260.141 275.55C263.519 270.439 267.013 265.156 265.128 259.437C263.303 253.902 259.768 249.28 254.319 245.306C246.234 239.407 205.476 209.776 197.028 205.655C191.566 202.979 186.021 200.491 180.658 198.085C166.033 191.52 152.218 185.319 139.019 175.325C131.805 169.861 123.171 160.666 123.003 147.889C122.837 135.083 129.515 122.422 141.328 113.152C152.171 104.615 164.492 98.3263 177.949 94.4582C190.788 90.769 204.361 89.3589 218.293 90.2672C227.97 90.8662 244.37 93.9471 245.446 107.844C245.619 110.035 245.696 112.262 245.77 114.415C245.987 120.728 246.193 126.694 248.599 132.397C252.902 142.529 261.061 149.514 268.473 155.01C274.501 159.475 280.669 163.268 286.635 166.937C288.623 168.161 290.68 169.425 292.714 170.701C299.7 175.093 308.781 180.919 317.064 187.038C323.832 192.037 340.288 205.431 354.126 220.338C371.158 238.689 377.818 252.31 373.919 260.826C370.989 267.227 366.787 273.126 361.072 278.856C345.301 294.674 322.728 303.022 302.728 309.101C291.896 312.393 281.712 314 271.655 314" fill="white"/>
<path fill-rule="evenodd" clip-rule="evenodd" d="M205.837 76.2311C175.938 76.2311 147.643 85.63 125.324 103.132C111.726 113.761 104.039 128.244 104.229 142.865C104.42 157.337 114.316 167.807 122.584 174.045C138.024 185.691 154.245 192.943 171.418 200.623C177.752 203.455 184.301 206.381 190.761 209.533C200.951 214.486 238.652 241.015 247.366 247.349C254.025 252.187 258.351 257.832 260.594 264.605C263.019 271.937 258.525 278.709 254.557 284.683C254.202 285.219 253.849 285.752 253.502 286.279C251.466 289.39 248.547 292.441 245.724 295.391C238.583 302.855 231.838 309.905 236.622 318.741C241.372 327.526 253.252 327.641 262.798 327.734C263.623 327.741 264.433 327.749 265.223 327.763C277.53 327.964 289.979 326.104 303.271 322.079C326.693 314.987 353.116 305.262 371.506 286.89C378.129 280.275 382.995 273.473 386.384 266.099C396.343 244.43 349.718 203.774 330.913 189.935C321.182 182.774 310.501 175.951 302.285 170.806C299.893 169.309 297.47 167.825 295.129 166.39C288.071 162.067 280.774 157.597 273.621 152.318C264.735 145.756 254.95 137.403 249.75 125.207C246.817 118.28 246.559 110.822 246.311 103.611C246.223 101.097 246.134 98.4975 245.932 95.9525C244.742 80.6349 226.143 77.2116 215.163 76.5335C212.041 76.3312 208.928 76.2311 205.837 76.2311M267.021 329C266.415 329 265.809 328.995 265.202 328.985C264.415 328.972 263.607 328.965 262.786 328.957C252.918 328.862 240.637 328.742 235.542 319.322C230.336 309.703 237.708 301.999 244.837 294.547C247.623 291.637 250.5 288.626 252.475 285.611C252.823 285.08 253.178 284.546 253.534 284.009C257.534 277.985 261.669 271.758 259.429 264.988C257.271 258.467 253.09 253.019 246.645 248.337C237.948 242.017 200.341 215.551 190.223 210.632C183.78 207.49 177.241 204.567 170.916 201.738C153.678 194.031 137.396 186.751 121.845 175.02C113.358 168.619 103.199 157.846 103.004 142.882C102.807 127.875 110.667 113.036 124.567 102.17C137.342 92.1525 151.856 84.7723 167.709 80.2334C182.836 75.9039 198.829 74.2485 215.241 75.3126C220.804 75.6552 228.824 76.7513 235.437 80.0136C242.674 83.5855 246.615 88.916 247.154 95.8575C247.359 98.4284 247.448 101.042 247.536 103.568C247.791 110.997 248.035 118.012 250.88 124.73C255.962 136.654 265.596 144.87 274.349 151.334C281.461 156.582 288.734 161.039 295.771 165.348C298.115 166.784 300.539 168.269 302.937 169.77C311.172 174.927 321.876 181.766 331.641 188.95C341.513 196.217 357.422 209.656 369.763 223.626C386.127 242.148 392.094 256.61 387.499 266.609C384.049 274.117 379.101 281.034 372.374 287.755C353.793 306.317 327.194 316.114 303.626 323.249C290.864 327.113 278.868 329 267.021 329" fill="white"/>
<path fill-rule="evenodd" clip-rule="evenodd" d="M200.974 61.2338C166.625 61.2338 134.12 72.0743 108.481 92.2574C92.8469 104.525 84.0064 121.243 84.2272 138.124C84.444 154.837 95.8257 166.929 105.335 174.129C123.072 187.559 141.699 195.92 161.422 204.772C168.692 208.035 176.209 211.409 183.624 215.04C195.178 220.678 227.866 242.827 239.156 251.063C246.785 256.627 251.74 263.118 254.309 270.905C257.08 279.312 251.932 287.097 247.39 293.964C246.982 294.583 246.575 295.197 246.177 295.808C243.845 299.385 240.496 302.898 237.258 306.294C229.035 314.921 221.268 323.069 226.793 333.312C232.271 343.486 245.941 343.619 256.924 343.725C257.87 343.734 258.801 343.742 259.709 343.757C273.844 343.99 288.15 341.846 303.42 337.205C330.322 329.029 360.672 317.813 381.798 296.626C389.411 288.993 395.004 281.145 398.9 272.637C403.968 261.565 398.772 246.643 383.457 228.28C368.732 210.627 350.014 196.275 344.628 192.297C333.454 184.041 321.191 176.177 311.755 170.247C309.007 168.519 306.225 166.809 303.533 165.154C295.435 160.173 287.059 155.024 278.85 148.942C268.657 141.387 257.437 131.77 251.477 117.735C248.114 109.767 247.82 101.182 247.533 92.8797C247.434 89.9812 247.331 86.9834 247.099 84.0487C245.727 66.3258 224.324 62.3667 211.688 61.5832C208.1 61.3495 204.527 61.2338 200.974 61.2338M261.775 345C261.078 345 260.385 344.994 259.69 344.982C258.784 344.968 257.857 344.959 256.912 344.949C245.607 344.841 231.537 344.703 225.715 333.895C219.77 322.866 228.21 314.013 236.373 305.448C239.572 302.092 242.881 298.62 245.153 295.137C245.551 294.525 245.961 293.908 246.37 293.288C250.973 286.329 255.73 279.131 253.146 271.29C250.661 263.754 245.85 257.461 238.435 252.054C227.49 244.07 194.393 221.658 183.088 216.142C175.689 212.519 168.182 209.149 160.921 205.89C141.135 197.01 122.444 188.62 104.598 175.107C94.8699 167.742 83.2281 155.35 83.0041 138.14C82.7791 120.874 91.7889 103.8 107.725 91.294C122.382 79.7547 139.038 71.2545 157.225 66.0291C174.581 61.0405 192.931 59.1343 211.766 60.3603C218.142 60.7562 227.339 62.0152 234.915 65.7686C243.192 69.8683 247.701 75.9868 248.32 83.9526C248.553 86.9142 248.656 89.9264 248.756 92.8373C249.051 101.405 249.33 109.499 252.603 117.258C258.447 131.02 269.519 140.5 279.578 147.957C287.744 154.007 296.097 159.143 304.174 164.109C306.868 165.766 309.652 167.478 312.405 169.208C321.858 175.149 334.146 183.032 345.355 191.31C350.769 195.309 369.583 209.736 384.396 227.496C400.04 246.251 405.293 261.611 400.012 273.147C396.055 281.791 390.38 289.753 382.664 297.492C361.346 318.871 330.822 330.157 303.775 338.377C289.13 342.827 275.366 345 261.775 345" fill="white"/>
<path fill-rule="evenodd" clip-rule="evenodd" d="M195.449 46.2363C156.553 46.2363 119.748 58.5151 90.7103 81.3855C72.9961 95.2923 62.9789 114.247 63.2288 133.387C63.4757 152.347 76.3751 166.057 87.1526 174.224C107.235 189.437 128.324 198.907 150.649 208.931C158.876 212.627 167.384 216.449 175.778 220.558C188.69 226.862 218.072 245.77 230.406 254.772C239.025 261.062 244.625 268.4 247.526 277.203C250.652 286.686 245.085 295.104 239.703 303.245C239.241 303.945 238.783 304.64 238.331 305.331C235.694 309.375 231.908 313.351 228.246 317.195C219.329 326.555 210.108 336.231 216.388 347.884C222.613 359.444 238.11 359.595 250.562 359.717C251.633 359.727 252.686 359.736 253.715 359.754C269.725 360.012 285.922 357.588 303.213 352.329C333.672 343.068 368.034 330.364 391.96 306.359C400.584 297.707 406.92 288.814 411.332 279.171C417.116 266.531 412.61 250.704 397.94 232.131C384.207 214.745 365.499 200.138 358.093 194.666C345.444 185.319 331.562 176.41 320.88 169.692C317.77 167.739 314.624 165.802 311.579 163.929C302.412 158.29 292.934 152.457 283.643 145.573C272.115 137.023 259.422 126.143 252.685 110.267C248.887 101.259 248.552 91.5444 248.229 82.1483C248.117 78.8662 247.998 75.4723 247.739 72.1467C247.077 63.6168 242.215 57.0484 233.289 52.6246C224.907 48.47 214.682 47.0737 207.581 46.6328C203.522 46.3678 199.471 46.2363 195.449 46.2363M256.054 361C255.268 361 254.48 360.994 253.694 360.98C252.669 360.964 251.619 360.953 250.551 360.943C237.776 360.819 221.877 360.665 215.31 348.467C208.607 336.032 218.141 326.025 227.36 316.348C230.983 312.544 234.731 308.609 237.306 304.66C237.758 303.967 238.219 303.269 238.682 302.569C243.904 294.671 249.303 286.505 246.364 277.586C243.545 269.037 238.09 261.898 229.685 255.764C217.385 246.788 188.102 227.939 175.24 221.661C166.866 217.558 158.367 213.743 150.148 210.051C127.757 199.997 106.606 190.499 86.415 175.202C75.4195 166.872 62.2578 152.858 62.0047 133.403C61.7485 113.877 71.9372 94.5657 89.9552 80.4198C106.535 67.3596 125.377 57.7388 145.955 51.8225C165.591 46.1784 186.352 44.0193 207.66 45.4083C214.871 45.8555 225.268 47.2797 233.831 51.5244C243.173 56.1542 248.262 63.06 248.959 72.0504C249.221 75.4019 249.34 78.8092 249.453 82.1048C249.786 91.8177 250.102 100.99 253.813 109.789C260.436 125.391 272.978 136.135 284.371 144.587C293.617 151.44 303.075 157.257 312.219 162.884C315.267 164.757 318.417 166.697 321.531 168.653C332.231 175.382 346.139 184.306 358.821 193.679C366.265 199.181 385.075 213.867 398.9 231.369C413.879 250.334 418.436 266.588 412.445 279.682C407.971 289.459 401.554 298.47 392.827 307.225C368.71 331.421 334.173 344.197 303.57 353.503C287.003 358.541 271.43 361 256.054 361" fill="white"/>
<path fill-rule="evenodd" clip-rule="evenodd" d="M190.907 32.2354C147.468 32.2354 106.366 45.9156 73.9365 71.3955C54.1435 86.9003 42.9509 108.031 43.23 129.371C43.508 150.513 57.9223 165.803 69.9665 174.906C92.392 191.856 115.937 202.404 140.865 213.572C150.05 217.686 159.549 221.94 168.916 226.518C183.685 233.711 209.283 249.105 222.622 258.818C232.233 265.816 238.476 273.976 241.711 283.766C245.188 294.295 238.985 303.657 232.986 312.708C232.469 313.488 231.957 314.262 231.453 315.033C228.513 319.532 224.289 323.956 220.203 328.235C210.23 338.678 199.918 349.476 206.952 362.497C213.922 375.41 231.247 375.577 245.167 375.714C246.363 375.725 247.537 375.736 248.685 375.754C266.57 376.047 284.656 373.341 303.965 367.482C337.976 357.165 376.347 343.012 403.067 316.265C412.701 306.624 419.779 296.713 424.709 285.965C440.156 252.291 393.358 212.924 372.521 197.562C358.394 187.146 342.897 177.225 330.972 169.745C327.501 167.568 323.987 165.411 320.589 163.325C310.355 157.045 299.775 150.551 289.406 142.884C276.545 133.367 262.384 121.256 254.87 103.593C250.632 93.5704 250.26 82.7573 249.9 72.2985C249.775 68.6421 249.643 64.8618 249.351 61.1568C248.612 51.63 243.171 44.2956 233.182 39.357C223.814 34.7243 212.39 33.1673 204.455 32.6766C199.922 32.3821 195.398 32.2354 190.907 32.2354M251.299 377C250.421 377 249.542 376.994 248.664 376.979C247.52 376.961 246.347 376.949 245.154 376.937C230.912 376.8 213.186 376.628 205.874 363.079C198.416 349.274 209.041 338.149 219.316 327.389C223.364 323.151 227.55 318.768 230.427 314.363C230.931 313.591 231.447 312.813 231.964 312.033C237.802 303.223 243.839 294.113 240.546 284.149C237.396 274.611 231.296 266.65 221.901 259.809C208.606 250.129 183.096 234.787 168.378 227.62C159.029 223.05 149.54 218.799 140.364 214.688C115.371 203.492 91.7636 192.916 69.2275 175.883C56.9652 166.616 42.2894 151.026 42.0052 129.385C41.721 107.661 53.0841 86.1729 73.1809 70.4336C91.684 55.8939 112.71 45.182 135.673 38.5966C157.586 32.3108 180.754 29.9087 204.533 31.4543C212.577 31.9523 224.174 33.5362 233.724 38.2588C244.129 43.4029 249.797 51.0752 250.572 61.0608C250.867 64.7915 250.997 68.5863 251.123 72.2572C251.499 83.0796 251.85 93.3018 255.998 103.114C263.397 120.508 277.406 132.48 290.134 141.899C300.461 149.534 311.019 156.015 321.23 162.281C324.631 164.369 328.148 166.526 331.623 168.707C343.565 176.199 359.088 186.137 373.247 196.575C394.325 212.116 441.643 251.986 425.822 286.475C420.831 297.357 413.672 307.384 403.934 317.13C377.023 344.068 338.477 358.293 304.32 368.654C285.833 374.263 268.457 377 251.299 377" fill="white"/>
<path fill-rule="evenodd" clip-rule="evenodd" d="M185.315 17.2384C137.347 17.2384 91.9605 32.3613 56.1519 60.5251C34.2838 77.6691 21.9217 101.036 22.2297 124.637C22.5347 148.027 38.462 164.937 51.77 175.004C76.5293 193.736 102.525 205.394 130.045 217.736C140.186 222.283 150.669 226.985 161.009 232.043C168.759 235.819 195.466 249.183 213.773 262.524C224.369 270.25 231.255 279.256 234.82 290.058C238.651 301.664 231.811 311.995 225.196 321.986C224.628 322.847 224.061 323.704 223.505 324.554C220.263 329.521 215.6 334.408 211.092 339.134C200.068 350.691 188.669 362.638 196.457 377.068C204.167 391.37 223.314 391.555 238.696 391.706C240.015 391.717 241.313 391.731 242.579 391.751C262.332 392.076 282.298 389.083 303.621 382.607C341.174 371.204 383.542 355.561 413.049 325.997C423.686 315.337 431.505 304.379 436.951 292.497C452.47 258.628 417.72 223.467 385.833 199.935C370.24 188.426 353.128 177.462 339.964 169.196C336.134 166.79 332.251 164.406 328.499 162.1C317.204 155.161 305.526 147.986 294.084 139.517C279.894 129.006 264.27 115.632 255.98 96.1267C251.308 85.0635 250.896 73.1201 250.498 61.5718C250.36 57.5297 250.217 53.351 249.893 49.255C249.076 38.7049 243.057 30.5833 232.008 25.1138C221.658 19.9918 209.037 18.2696 200.273 17.7256C195.267 17.3998 190.273 17.2384 185.315 17.2384M245.464 393C244.494 393 243.528 392.992 242.559 392.977C241.295 392.957 240.001 392.943 238.684 392.931C222.979 392.778 203.431 392.589 195.377 377.651C187.167 362.437 198.879 350.16 210.205 338.288C214.676 333.602 219.299 328.756 222.478 323.883C223.036 323.031 223.605 322.172 224.175 321.309C230.627 311.562 237.3 301.483 233.656 290.443C230.174 279.892 223.435 271.084 213.051 263.516C194.826 250.231 168.198 236.911 160.472 233.145C150.149 228.094 139.674 223.397 129.545 218.854C101.96 206.485 75.9019 194.799 51.0298 175.982C37.5048 165.75 21.3159 148.538 21.0058 124.654C20.6905 100.665 33.2253 76.9409 55.3952 59.5611C75.814 43.5 99.0176 31.6683 124.359 24.3929C148.54 17.4484 174.11 14.7943 200.351 16.502C209.225 17.0522 222.019 18.8023 232.551 24.0143C244.016 29.6897 250.26 38.1495 251.115 49.1599C251.44 53.2817 251.584 57.4749 251.724 61.5294C252.117 72.9671 252.525 84.7956 257.108 95.6478C265.283 114.881 280.756 128.121 294.812 138.532C306.213 146.97 317.869 154.131 329.139 161.056C332.896 163.362 336.779 165.747 340.616 168.157C353.799 176.435 370.933 187.416 386.561 198.949C418.813 222.75 453.928 258.389 438.065 293.007C432.558 305.025 424.658 316.1 413.916 326.864C384.218 356.62 341.676 372.333 303.977 383.781C283.576 389.976 264.398 393 245.464 393" fill="white"/>
<path fill-rule="evenodd" clip-rule="evenodd" d="M179.816 3.23672C127.296 3.23672 77.5996 19.7588 38.3919 50.5339C14.359 69.3343 0.816384 94.8764 1.23529 120.61C1.48871 146.285 18.9722 164.724 33.5926 175.673C60.5671 196.202 88.9908 208.877 119.083 222.297C130.254 227.279 141.803 232.429 153.186 237.985L156.191 239.445C172.67 247.45 189.709 255.725 205.023 266.565C217.023 275.529 224.335 285.077 228.051 296.623C232.357 309.304 224.419 321.165 217.418 331.629C216.827 332.509 216.243 333.383 215.669 334.251C212.121 339.731 206.976 345.117 202.002 350.325C189.978 362.912 177.544 375.928 186.057 391.671C194.574 407.433 215.717 407.584 232.704 407.705C234.025 407.714 235.324 407.724 236.594 407.739C257.644 408.161 279.51 404.893 303.44 397.75C344.818 385.024 391.417 367.724 423.247 335.897C434.209 324.938 443.017 312.617 449.43 299.277C466.625 260.029 429.09 225.428 399.355 202.817C383.703 191.657 366.806 180.358 349.138 169.236C345.237 166.802 341.288 164.383 337.467 162.042C324.816 154.295 311.736 146.286 298.919 136.82C283.391 125.342 266.295 110.739 257.226 89.4451C252.116 77.3701 251.667 64.3295 251.231 51.7175C251.078 47.3035 250.921 42.7366 250.568 38.2637C249.669 26.7175 243.072 17.8296 230.958 11.8458C219.619 6.24515 205.796 4.36243 196.195 3.76963C190.715 3.41436 185.247 3.23672 179.816 3.23672M240.201 409C238.988 409 237.782 408.987 236.575 408.964C235.312 408.947 234.014 408.939 232.695 408.929C215.384 408.806 193.84 408.652 184.98 392.253C176.041 375.728 188.788 362.383 201.113 349.48C206.05 344.312 211.156 338.971 214.641 333.583C215.221 332.707 215.807 331.83 216.397 330.948C223.577 320.219 231.001 309.124 226.886 297.007C223.249 285.705 216.074 276.349 204.302 267.555C189.081 256.782 172.089 248.529 155.655 240.547L152.647 239.085C141.283 233.539 129.743 228.391 118.583 223.414C88.424 209.966 59.9372 197.261 32.852 176.649C18.0144 165.539 0.268184 146.796 0.00959874 120.625C-0.415515 94.5088 13.2978 68.6082 37.6337 49.5704C59.9807 32.0321 85.3737 19.1092 113.108 11.1642C139.573 3.58166 167.552 0.683746 196.274 2.54787C205.984 3.14894 219.98 5.05851 231.501 10.748C244.03 16.9373 250.858 26.1619 251.79 38.1677C252.145 42.6684 252.304 47.2487 252.457 51.6762C252.888 64.1767 253.334 77.1016 258.355 88.967C267.308 109.989 284.255 124.457 299.648 135.834C312.423 145.269 325.479 153.266 338.108 161C341.93 163.34 345.884 165.761 349.79 168.199C367.484 179.337 384.402 190.651 400.076 201.825L400.09 201.836C430.156 224.7 468.096 259.726 450.544 299.787C444.063 313.272 435.174 325.705 424.114 336.763C392.094 368.777 345.324 386.149 303.795 398.921C281.109 405.693 260.262 409 240.201 409" fill="white"/>
</svg>
