<svg width="18" height="18" viewBox="0 0 18 18" fill="none" xmlns="http://www.w3.org/2000/svg">
<path fill-rule="evenodd" clip-rule="evenodd" d="M18 18H14.2724V12.1534C14.2724 10.7597 14.2459 8.96552 12.3345 8.96552C10.3926 8.96552 10.096 10.4839 10.096 12.0526V18H6.37108V5.9779H9.94646V7.61957H9.99809C10.4945 6.67408 11.7123 5.67688 13.5271 5.67688C17.3024 5.67688 18 8.16723 18 11.4042V18ZM2.16429 4.33225C0.966318 4.33225 0 3.36157 0 2.16546C0 0.970679 0.966318 0 2.16429 0C3.35696 0 4.32725 0.970679 4.32725 2.16546C4.32725 3.36157 3.35696 4.33225 2.16429 4.33225ZM0.296514 18H4.03074V5.9779H0.296514V18Z" fill="white"/>
</svg>
