<svg width="18" height="18" viewBox="0 0 18 18" fill="none" xmlns="http://www.w3.org/2000/svg">
<path fill-rule="evenodd" clip-rule="evenodd" d="M9 0C4.0302 0 0 4.0302 0 9C0 12.8133 2.3724 16.0695 5.7195 17.3817C5.6421 16.6689 5.5701 15.5772 5.7519 14.7996C5.9148 14.0967 6.8067 10.3266 6.8067 10.3266C6.8067 10.3266 6.5376 9.7866 6.5376 8.9892C6.5376 7.7382 7.263 6.804 8.1657 6.804C8.9343 6.804 9.3051 7.38 9.3051 8.0721C9.3051 8.8434 8.8128 9.9981 8.5599 11.0682C8.3466 11.9637 9.009 12.6945 9.8919 12.6945C11.4921 12.6945 12.7215 11.0079 12.7215 8.5725C12.7215 6.4188 11.1726 4.9113 8.9622 4.9113C6.4008 4.9113 4.8978 6.8328 4.8978 8.8173C4.8978 9.5904 5.1957 10.4202 5.5683 10.8711C5.6421 10.9611 5.652 11.0385 5.6304 11.1294C5.562 11.4138 5.4108 12.0249 5.3811 12.15C5.3415 12.3156 5.2497 12.3498 5.0796 12.2706C3.9555 11.7477 3.2526 10.1043 3.2526 8.784C3.2526 5.9445 5.3154 3.3372 9.1998 3.3372C12.321 3.3372 14.7474 5.5629 14.7474 8.5356C14.7474 11.6379 12.7917 14.1336 10.0773 14.1336C9.1656 14.1336 8.3079 13.6602 8.0145 13.1004C8.0145 13.1004 7.5627 14.8185 7.4538 15.2397C7.2513 16.0218 6.7014 17.0019 6.3351 17.5995C7.1775 17.8596 8.0721 18 9 18C13.9698 18 18 13.9707 18 9C18 4.0302 13.9698 0 9 0Z" fill="white"/>
</svg>
