<svg width="19" height="15" viewBox="0 0 19 15" fill="none" xmlns="http://www.w3.org/2000/svg">
<path fill-rule="evenodd" clip-rule="evenodd" d="M5.94829 15C13.0845 15 16.9881 9.23077 16.9881 4.22618C16.9881 4.06253 16.9852 3.89887 16.9768 3.73797C17.7349 3.20299 18.3945 2.53599 18.913 1.77684C18.2183 2.07802 17.47 2.28019 16.6851 2.37233C17.4855 1.90474 18.1013 1.16072 18.3916 0.277803C17.6405 0.711011 16.8105 1.02732 15.9269 1.19648C15.2195 0.460713 14.2105 0 13.0944 0C10.951 0 9.21343 1.6957 9.21343 3.78748C9.21343 4.08453 9.24866 4.37196 9.3149 4.65114C6.09062 4.49161 3.22992 2.9857 1.3162 0.694508C0.98363 1.25287 0.790568 1.90474 0.790568 2.5965C0.790568 3.91125 1.47685 5.0706 2.51826 5.7486C1.8813 5.73072 1.28238 5.56019 0.759566 5.27551C0.759566 5.29064 0.759566 5.30714 0.759566 5.32365C0.759566 7.15825 2.09691 8.68892 3.87252 9.03548C3.54699 9.1235 3.20314 9.17026 2.84943 9.17026C2.6 9.17026 2.3562 9.1455 2.12087 9.10149C2.61409 10.606 4.04585 11.7007 5.74536 11.731C4.41647 12.7459 2.74374 13.3524 0.925853 13.3524C0.613007 13.3524 0.30439 13.3346 0 13.3002C1.71783 14.3743 3.75696 15 5.94829 15Z" fill="white"/>
</svg>
