<svg width="403" height="410" viewBox="0 0 403 410" fill="none" xmlns="http://www.w3.org/2000/svg">
<path fill-rule="evenodd" clip-rule="evenodd" d="M167.556 121.228C151.255 121.228 135.831 126.378 123.665 135.969C116.267 141.783 112.099 149.669 112.227 157.605C112.306 165.487 117.672 171.166 122.16 174.541C130.545 180.951 139.398 184.917 148.767 189.116C152.258 190.677 155.867 192.296 159.425 194.041C163.507 196.035 190.483 216.327 206.601 228.453C212.641 232.998 217.413 236.588 218.791 237.568C222.567 240.401 224.965 243.551 226.138 247.209C227.546 251.375 225.009 255.188 222.767 258.55C222.583 258.825 222.402 259.099 222.222 259.37C221.096 261.119 219.476 262.822 217.91 264.47C214.092 268.484 210.486 272.276 212.998 276.942C215.538 281.666 221.729 281.71 227.192 281.75C227.604 281.753 228.012 281.756 228.409 281.76C234.954 281.894 241.724 280.872 249.15 278.646C262.016 274.672 276.502 269.272 286.374 259.356C289.763 255.954 292.484 252.128 294.466 247.987C295.975 244.529 293.073 235.818 270.641 214.074C256.962 200.816 241.021 187.691 235.838 183.732C230.963 180.239 225.698 176.702 220.189 173.218C218.972 172.457 217.759 171.711 216.549 170.965C212.593 168.53 208.501 166.015 204.484 163.034C199.592 159.402 194.203 154.776 191.333 148.004C189.706 144.145 189.564 140.016 189.428 136.023C189.379 134.644 189.331 133.216 189.22 131.824C188.585 123.605 178.56 121.762 172.643 121.394C170.939 121.284 169.242 121.228 167.556 121.228ZM229.53 283C229.149 283 228.769 282.997 228.389 282.988C227.998 282.983 227.594 282.981 227.184 282.978C221.669 282.938 214.806 282.889 211.921 277.527C208.985 272.075 213.071 267.778 217.023 263.621C218.552 262.016 220.13 260.354 221.198 258.699C221.381 258.419 221.565 258.145 221.75 257.868C223.933 254.588 226.192 251.198 224.976 247.594C223.864 244.131 221.672 241.264 218.071 238.561C216.692 237.579 212.151 234.164 205.865 229.435C189.783 217.336 162.866 197.086 158.888 195.144C155.348 193.407 151.749 191.795 148.268 190.236C138.83 186.009 129.915 182.014 121.42 175.52C116.716 171.982 111.087 166.001 111.003 157.622C110.868 149.301 115.208 141.056 122.911 135.004C136.57 124.234 154.258 118.966 172.719 120.168C179.034 120.561 189.736 122.584 190.441 131.727C190.554 133.147 190.605 134.589 190.651 135.981C190.789 140.041 190.923 143.876 192.461 147.526C195.215 154.025 200.453 158.513 205.213 162.047C209.186 164.995 213.255 167.498 217.189 169.918C218.402 170.664 219.618 171.413 220.839 172.177C226.373 175.678 231.66 179.23 236.557 182.738L236.572 182.749C241.766 186.716 257.767 199.888 271.491 213.191C289.908 231.04 298.012 242.921 295.578 248.499C293.529 252.784 290.726 256.723 287.239 260.223C277.178 270.328 262.52 275.801 249.506 279.82C242.382 281.957 235.835 283 229.53 283Z" fill="#FF00FF"/>
<path fill-rule="evenodd" clip-rule="evenodd" d="M163.105 107.228C142.235 107.228 122.487 113.783 106.912 125.992C97.449 133.387 92.097 143.456 92.2305 153.62C92.3631 163.66 99.2444 170.935 104.993 175.268C115.776 183.398 127.11 188.464 139.11 193.828C143.541 195.807 148.122 197.855 152.643 200.059C158.707 203.004 191.764 227.306 205.881 237.686C208.367 239.515 210.233 240.886 211.205 241.59C215.893 244.997 218.941 248.972 220.522 253.746C222.247 258.955 219.077 263.728 216.28 267.939C216.031 268.312 215.784 268.685 215.54 269.055C214.108 271.243 212.06 273.382 210.081 275.45C205.135 280.617 200.462 285.499 203.743 291.556C207.015 297.602 214.917 297.678 221.889 297.746C222.466 297.752 223.034 297.757 223.587 297.766C232.173 297.908 240.86 296.609 250.139 293.801C266.496 288.852 284.95 282.063 297.781 269.25C302.398 264.641 305.789 259.904 308.149 254.771C311.097 248.361 303.596 235.758 286.459 218.327C272.564 204.192 256.209 190.896 250.466 186.673C243.669 181.673 236.201 176.905 230.457 173.309C228.785 172.264 227.089 171.226 225.452 170.223C220.515 167.199 215.408 164.073 210.398 160.378C204.163 155.775 197.298 149.916 193.644 141.352C191.58 136.477 191.4 131.248 191.225 126.19C191.165 124.433 191.102 122.619 190.961 120.844C190.138 110.276 177.235 107.91 169.616 107.439C167.436 107.299 165.264 107.228 163.105 107.228ZM224.843 299C224.417 299 223.992 298.996 223.568 298.99C223.016 298.979 222.452 298.975 221.877 298.969C214.926 298.902 206.279 298.818 202.664 292.138C198.958 285.297 204.161 279.862 209.193 274.604C211.135 272.577 213.142 270.479 214.513 268.385C214.757 268.014 215.006 267.638 215.257 267.262C218.027 263.09 220.895 258.774 219.356 254.13C217.859 249.607 214.955 245.829 210.482 242.58C209.509 241.873 207.642 240.501 205.152 238.67C191.062 228.312 158.07 204.057 152.105 201.158C147.602 198.962 143.029 196.919 138.609 194.945C126.543 189.551 115.146 184.459 104.253 176.245C98.2846 171.747 91.1423 164.171 91.0025 153.637C90.8648 143.089 96.3877 132.662 106.156 125.03C115.106 118.013 125.279 112.844 136.39 109.664C146.989 106.633 158.195 105.474 169.693 106.219C177.708 106.714 191.29 109.259 192.184 120.748C192.327 122.549 192.389 124.379 192.451 126.147C192.631 131.322 192.8 136.209 194.775 140.874C198.313 149.168 205.028 154.89 211.129 159.394C216.094 163.057 221.178 166.169 226.094 169.179C227.734 170.183 229.432 171.223 231.109 172.273C236.872 175.879 244.363 180.664 251.194 185.687C256.964 189.932 273.389 203.282 287.336 217.47C305.11 235.55 312.487 248.271 309.264 255.28C306.843 260.549 303.371 265.4 298.65 270.115C285.626 283.119 267 289.978 250.494 294.972C241.552 297.678 233.145 298.999 224.843 299Z" fill="#FF00FF"/>
<path fill-rule="evenodd" clip-rule="evenodd" d="M158.312 92.2319C132.972 92.2319 108.996 100.227 90.0831 115.116C78.5737 124.149 72.0649 136.452 72.2292 148.873C72.3893 161.155 80.7616 170.047 87.7569 175.345C100.846 185.257 114.599 191.429 129.159 197.964C134.531 200.377 140.085 202.869 145.565 205.553C153.89 209.614 191.662 237.013 203.04 245.313C208.703 249.445 212.383 254.266 214.291 260.052C216.363 266.337 212.537 272.121 209.161 277.226C208.86 277.683 208.561 278.135 208.267 278.587C206.535 281.242 204.057 283.841 201.659 286.355C195.628 292.686 189.929 298.664 193.953 306.129C197.957 313.561 207.582 313.655 216.073 313.737C216.773 313.743 217.461 313.749 218.132 313.762C228.571 313.935 239.109 312.351 250.373 308.927C270.227 302.892 292.624 294.616 308.205 278.989C313.814 273.364 317.937 267.582 320.807 261.314C324.428 253.406 317.657 239.872 301.23 222.173C287.453 207.331 271.073 194 264.338 189.024C256.087 182.928 247.031 177.12 240.063 172.741C238.035 171.466 235.98 170.202 233.994 168.98C228.006 165.298 221.816 161.492 215.746 156.996C208.199 151.4 199.89 144.279 195.473 133.876C192.976 127.961 192.758 121.603 192.547 115.457C192.473 113.316 192.396 111.104 192.226 108.938C191.222 95.9667 175.499 93.0648 166.216 92.4895C163.569 92.3178 160.933 92.2319 158.312 92.2319ZM219.655 315C219.14 315 218.626 314.996 218.111 314.987C217.443 314.975 216.758 314.97 216.062 314.963C207.668 314.881 197.221 314.78 192.876 306.711C188.429 298.462 194.704 291.878 200.774 285.509C203.132 283.034 205.572 280.476 207.241 277.916C207.537 277.461 207.837 277.006 208.141 276.549C211.519 271.44 215.013 266.157 213.128 260.436C211.304 254.902 207.768 250.278 202.319 246.305C194.234 240.408 153.476 210.775 145.029 206.654C139.566 203.979 134.021 201.491 128.658 199.084C114.032 192.519 100.218 186.318 87.0204 176.323C79.805 170.861 71.1714 161.667 71.003 148.888C70.8367 136.081 77.5149 123.421 89.327 114.152C100.171 105.615 112.492 99.3259 125.949 95.4587C138.789 91.7695 152.36 90.3594 166.293 91.2667C175.971 91.8647 192.37 94.9466 193.446 108.844C193.619 111.033 193.696 113.26 193.77 115.413C193.987 121.728 194.193 127.693 196.599 133.397C200.902 143.528 209.061 150.512 216.474 156.009C222.501 160.475 228.669 164.269 234.635 167.936C236.623 169.159 238.68 170.424 240.714 171.702C247.7 176.093 256.781 181.917 265.064 188.037C271.832 193.036 288.287 206.43 302.125 221.338C319.158 239.689 325.818 253.311 321.919 261.825C318.989 268.228 314.787 274.126 309.072 279.856C293.301 295.674 270.728 304.021 250.728 310.1C239.896 313.393 229.713 315 219.655 315Z" fill="#FF00FF"/>
<path fill-rule="evenodd" clip-rule="evenodd" d="M152.838 77.2305C122.938 77.2305 94.6427 86.6303 72.3242 104.133C58.7262 114.762 51.0391 129.245 51.2294 143.865C51.4198 158.334 61.3165 168.807 69.5839 175.044C85.0243 186.691 101.245 193.943 118.419 201.622C124.752 204.454 131.301 207.383 137.761 210.533C147.951 215.484 185.652 242.015 194.366 248.347C201.025 253.187 205.351 258.831 207.594 265.606C210.02 272.936 205.525 279.708 201.558 285.683C201.202 286.219 200.849 286.75 200.502 287.28C198.466 290.39 195.547 293.441 192.723 296.39C185.584 303.854 178.838 310.903 183.622 319.74C188.372 328.526 200.252 328.64 209.798 328.733C210.623 328.741 211.433 328.748 212.223 328.762C224.53 328.964 236.979 327.103 250.27 323.078C273.693 315.987 300.116 306.261 318.506 287.89C325.129 281.273 329.995 274.473 333.383 267.099C343.343 245.43 296.718 204.773 277.913 190.935C268.182 183.775 257.501 176.95 249.285 171.806C246.893 170.309 244.471 168.826 242.129 167.39C235.071 163.068 227.774 158.597 220.62 153.318C211.735 146.754 201.95 138.402 196.75 126.207C193.817 119.28 193.559 111.823 193.312 104.611C193.223 102.097 193.134 99.4979 192.932 96.9529C191.741 81.6342 173.143 78.2109 162.163 77.5339C159.042 77.3316 155.928 77.2305 152.838 77.2305ZM214.021 330C213.415 330 212.809 329.994 212.203 329.985C211.415 329.971 210.607 329.963 209.786 329.956C199.918 329.861 187.637 329.742 182.542 320.321C177.337 310.703 184.708 302.998 191.837 295.546C194.623 292.636 197.501 289.626 199.475 286.611C199.823 286.079 200.178 285.546 200.536 285.008C204.535 278.984 208.67 272.756 206.43 265.987C204.27 259.466 200.09 254.019 193.646 249.336C184.948 243.016 147.341 216.55 137.223 211.633C130.78 208.489 124.241 205.566 117.916 202.739C100.678 195.031 84.3964 187.751 68.8453 176.019C60.3575 169.619 50.2012 158.847 50.0036 143.882C49.8071 128.875 57.6669 114.036 71.567 103.17C84.3416 93.1518 98.8572 85.7717 114.709 81.2338C129.837 76.9043 145.828 75.2479 162.241 76.313C167.804 76.6556 175.825 77.7506 182.437 81.0139C189.674 84.5859 193.615 89.9153 194.154 96.8569C194.359 99.4277 194.449 102.041 194.536 104.568C194.792 111.997 195.035 119.012 197.88 125.729C202.963 137.655 212.596 145.87 221.35 152.334C228.461 157.582 235.735 162.038 242.771 166.348C245.115 167.783 247.541 169.269 249.937 170.77C258.172 175.927 268.876 182.766 278.641 189.95C288.515 197.216 304.423 210.655 316.763 224.625C333.127 243.148 339.095 257.609 334.499 267.609C331.048 275.116 326.101 282.033 319.374 288.754C300.793 307.317 274.195 317.114 250.627 324.249C237.864 328.113 225.869 330 214.021 330Z" fill="#FF00FF"/>
<path fill-rule="evenodd" clip-rule="evenodd" d="M147.974 62.2327C113.625 62.2327 81.1203 73.0722 55.4801 93.2584C39.8469 105.525 31.0064 122.242 31.2272 139.124C31.444 155.837 42.8268 167.928 52.3351 175.129C70.0719 188.559 88.6995 196.921 108.422 205.772C115.692 209.035 123.209 212.41 130.625 216.04C142.178 221.677 174.866 243.827 186.156 252.062C193.785 257.627 198.74 264.117 201.309 271.906C204.08 280.312 198.932 288.097 194.39 294.964C193.982 295.581 193.575 296.196 193.178 296.807C190.845 300.385 187.495 303.897 184.258 307.294C176.036 315.921 168.268 324.069 173.793 334.312C179.271 344.486 192.941 344.618 203.924 344.724C204.87 344.734 205.801 344.742 206.709 344.757C220.844 344.99 235.15 342.845 250.42 338.204C277.321 330.028 307.671 318.812 328.798 297.626C336.411 289.992 342.005 282.146 345.9 273.637C350.968 262.565 345.772 247.643 330.457 229.281C315.733 211.627 297.014 197.273 291.629 193.296C280.454 185.041 268.191 177.175 258.754 171.245C256.007 169.519 253.225 167.807 250.533 166.154C242.435 161.173 234.06 156.024 225.85 149.942C215.657 142.386 204.437 132.769 198.477 118.735C195.114 110.767 194.82 102.182 194.534 93.8787C194.434 90.9812 194.331 87.9834 194.099 85.0477C192.727 67.3248 171.323 63.3657 158.688 62.5832C155.1 62.3495 151.527 62.2327 147.974 62.2327ZM208.775 346C208.078 346 207.385 345.994 206.69 345.982C205.784 345.968 204.857 345.958 203.912 345.949C192.607 345.84 178.538 345.703 172.715 334.894C166.771 323.866 175.211 315.012 183.373 306.447C186.572 303.09 189.881 299.62 192.153 296.137C192.552 295.524 192.961 294.908 193.37 294.287C197.973 287.328 202.732 280.132 200.146 272.29C197.662 264.754 192.85 258.461 185.437 253.053C174.49 245.07 141.393 222.657 130.088 217.141C122.689 213.519 115.182 210.149 107.922 206.889C88.1349 198.009 69.4454 189.62 51.5981 176.107C41.8699 168.741 30.2271 156.348 30.0041 139.14C29.7791 121.873 38.7889 104.798 54.7256 92.294C69.3824 80.7547 86.0365 72.2545 104.225 67.0281C121.581 62.0405 139.931 60.1343 158.765 61.3603C165.142 61.7552 174.339 63.0153 181.916 66.7676C190.192 70.8694 194.702 76.9868 195.319 84.9526C195.553 87.9142 195.656 90.9254 195.756 93.8373C196.051 102.406 196.33 110.5 199.603 118.257C205.447 132.019 216.519 141.498 226.579 148.957C234.745 155.007 243.097 160.143 251.174 165.109C253.868 166.766 256.652 168.477 259.405 170.209C268.859 176.15 281.147 184.031 292.355 192.31C297.769 196.31 316.583 210.735 331.396 228.496C347.039 247.251 352.293 262.61 347.012 274.147C343.055 282.791 337.38 290.753 329.664 298.492C308.346 319.87 277.822 331.155 250.776 339.377C236.132 343.827 222.367 346 208.775 346Z" fill="#FF00FF"/>
<path fill-rule="evenodd" clip-rule="evenodd" d="M142.449 48.2364C103.553 48.2364 66.7474 60.5152 37.7103 83.3836C19.9961 97.2926 9.97886 116.247 10.2288 135.387C10.4757 154.346 23.3751 168.058 34.1536 176.223C54.2345 191.437 75.3236 200.906 97.6492 210.932C105.876 214.627 114.385 218.447 122.777 222.557C135.691 228.863 165.071 247.77 177.406 256.772C186.025 263.063 191.625 270.399 194.527 279.202C197.651 288.687 192.087 297.105 186.705 305.245C186.241 305.945 185.781 306.641 185.332 307.331C182.694 311.376 178.908 315.352 175.246 319.196C166.33 328.555 157.108 338.232 163.388 349.884C169.612 361.445 185.11 361.595 197.562 361.717C198.634 361.728 199.686 361.737 200.715 361.755C216.724 362.013 232.922 359.587 250.213 354.33C280.671 345.069 315.035 332.363 338.96 308.359C347.583 299.707 353.92 290.814 358.332 281.171C364.115 268.532 359.61 252.704 344.939 234.131C331.207 216.744 312.499 202.139 305.093 196.666C292.444 187.318 278.562 178.41 267.881 171.693C264.771 169.738 261.624 167.802 258.579 165.929C249.412 160.289 239.933 154.457 230.642 147.573C219.115 139.023 206.422 128.141 199.685 112.268C195.886 103.26 195.552 93.5436 195.228 84.1475C195.117 80.8643 194.999 77.4714 194.739 74.1448C194.076 65.616 189.215 59.0486 180.288 54.6237C171.907 50.469 161.682 49.0717 154.581 48.6329C150.522 48.3679 146.471 48.2364 142.449 48.2364ZM203.053 363C202.267 363 201.481 362.995 200.694 362.98C199.669 362.965 198.619 362.953 197.551 362.944C184.776 362.819 168.877 362.665 162.31 350.467C155.608 338.031 165.141 328.025 174.36 318.348C177.984 314.543 181.732 310.61 184.306 306.66C184.758 305.968 185.218 305.269 185.682 304.568C190.903 296.672 196.303 288.504 193.364 279.586C190.546 271.037 185.09 263.899 176.685 257.763C164.385 248.789 135.101 229.938 122.241 223.661C113.867 219.559 105.367 215.743 97.1482 212.052C74.7564 201.996 53.6074 192.498 33.415 177.203C22.4185 168.872 9.25884 154.859 9.00472 135.403C8.74853 115.877 18.9372 96.5639 36.9551 82.4189C53.5361 69.3597 72.3774 59.7389 92.9552 53.8226C112.591 48.1774 133.351 46.0194 154.66 47.4084C161.871 47.8555 172.267 49.2787 180.832 53.5235C190.173 58.1532 195.261 65.0601 195.959 74.0495C196.222 77.401 196.34 80.8094 196.452 84.105C196.786 93.8179 197.102 102.99 200.813 111.788C207.436 127.391 219.977 138.135 231.372 146.586C240.617 153.441 250.074 159.258 259.22 164.884C262.267 166.758 265.417 168.695 268.53 170.654C279.23 177.383 293.139 186.307 305.82 195.678C313.265 201.18 332.074 215.867 345.899 233.369C360.878 252.335 365.437 268.589 359.444 281.682C354.97 291.459 348.554 300.47 339.826 309.225C315.709 333.422 281.172 346.198 250.569 355.504C234.003 360.541 218.43 363 203.053 363Z" fill="#FF00FF"/>
<path fill-rule="evenodd" clip-rule="evenodd" d="M137.908 33.2363C94.4681 33.2363 53.3649 46.9165 20.9375 72.3963C1.14248 87.9 -10.0501 109.03 -9.77001 130.37C-9.49301 151.514 4.92227 166.804 16.9665 175.906C39.392 192.855 62.9368 203.403 87.8646 214.572C97.049 218.686 106.549 222.941 115.916 227.519C130.685 234.709 156.283 250.106 169.622 259.817C179.233 266.815 185.475 274.975 188.71 284.766C192.188 295.294 185.985 304.656 179.985 313.708C179.469 314.488 178.957 315.262 178.453 316.033C175.513 320.531 171.289 324.955 167.202 329.235C157.229 339.677 146.918 350.474 153.952 363.496C160.922 376.41 178.247 376.577 192.168 376.713C193.363 376.723 194.537 376.736 195.684 376.754C213.57 377.046 231.656 374.341 250.965 368.482C284.976 358.164 323.347 344.011 350.067 317.265C359.701 307.624 366.779 297.713 371.709 286.964C387.156 253.29 340.358 213.923 319.52 198.561C305.394 188.146 289.897 178.225 277.972 170.745C274.502 168.568 270.987 166.41 267.588 164.324C257.355 158.046 246.775 151.551 236.406 143.883C223.545 134.368 209.384 122.257 201.87 104.592C197.632 94.5701 197.26 83.757 196.9 73.2983C196.773 69.643 196.643 65.8626 196.35 62.1567C195.612 52.6299 190.17 45.2965 180.181 40.3569C170.814 35.7242 159.39 34.1672 151.455 33.6775C146.922 33.382 142.398 33.2363 137.908 33.2363ZM198.299 378C197.421 378 196.542 377.993 195.664 377.978C194.519 377.96 193.347 377.948 192.154 377.937C177.912 377.8 160.187 377.627 152.874 364.079C145.416 350.274 156.041 339.149 166.316 328.389C170.365 324.149 174.55 319.768 177.428 315.363C177.932 314.59 178.446 313.814 178.964 313.033C184.802 304.223 190.839 295.113 187.546 285.149C184.396 275.611 178.297 267.65 168.901 260.808C155.607 251.13 130.096 235.787 115.378 228.62C106.029 224.049 96.5404 219.8 87.3644 215.688C62.3715 204.493 38.7636 193.916 16.2275 176.883C3.96518 167.616 -10.7116 152.025 -10.9948 130.386C-11.279 108.661 0.0830669 87.1727 20.1809 71.4334C38.684 56.8937 59.71 46.1829 82.673 39.5975C104.586 33.3118 127.754 30.9086 151.534 32.4542C159.577 32.9512 171.174 34.5361 180.725 39.2597C191.129 44.4028 196.796 52.075 197.572 62.0616C197.867 65.7924 197.998 69.5861 198.123 73.258C198.497 84.0794 198.85 94.3025 202.998 104.114C210.397 121.508 224.406 133.48 237.135 142.899C247.461 150.535 258.019 157.015 268.23 163.281C271.631 165.37 275.147 167.527 278.624 169.708C290.565 177.199 306.089 187.136 320.249 197.576C341.325 213.115 388.643 252.984 372.822 287.475C367.831 298.357 360.672 308.384 350.934 318.13C324.023 345.068 285.477 359.293 251.32 369.654C232.833 375.262 215.457 378 198.299 378Z" fill="#FF00FF"/>
<path fill-rule="evenodd" clip-rule="evenodd" d="M132.315 18.2384C84.3478 18.2384 38.9607 33.3593 3.15194 61.5252C-18.7152 78.6683 -31.0783 102.036 -30.7692 125.636C-30.4643 149.027 -14.5379 165.937 -1.231 176.004C23.5294 194.737 49.5252 206.395 77.0467 218.735C87.1863 223.282 97.6692 227.986 108.01 233.042C115.759 236.82 142.467 250.183 160.773 263.525C171.371 271.247 178.255 280.255 181.82 291.059C185.651 302.664 178.811 312.994 172.197 322.986C171.628 323.847 171.062 324.704 170.505 325.555C167.264 330.522 162.601 335.409 158.093 340.135C147.068 351.69 135.669 363.64 143.457 378.068C151.168 392.371 170.312 392.556 185.697 392.706C187.016 392.717 188.313 392.732 189.579 392.751C209.332 393.077 229.3 390.084 250.622 383.608C288.176 372.205 330.543 356.561 360.049 326.997C370.688 316.337 378.506 305.38 383.951 293.496C399.472 259.628 364.72 224.468 332.834 200.936C317.24 189.427 300.128 178.463 286.965 170.196C283.134 167.79 279.252 165.406 275.499 163.101C264.205 156.16 252.528 148.986 241.085 140.517C226.894 130.006 211.27 116.631 202.98 97.1259C198.308 86.0637 197.897 74.1203 197.499 62.5709C197.361 58.5298 197.217 54.3511 196.893 50.2552C196.076 39.705 190.058 31.5834 179.009 26.1138C168.658 20.9908 156.038 19.2686 147.274 18.7256C142.268 18.3998 137.274 18.2384 132.315 18.2384ZM192.464 394C191.495 394 190.527 393.993 189.56 393.977C188.296 393.957 187.001 393.943 185.685 393.932C169.979 393.779 150.433 393.589 142.377 378.652C134.167 363.438 145.879 351.161 157.206 339.288C161.676 334.602 166.299 329.757 169.48 324.884C170.036 324.032 170.606 323.173 171.175 322.308C177.629 312.563 184.3 302.483 180.656 291.443C177.175 280.893 170.435 272.084 160.051 264.515C141.826 251.232 115.199 237.912 107.472 234.145C97.1492 229.094 86.6757 224.397 76.5453 219.855C48.9597 207.484 22.902 195.798 -1.9701 176.983C-15.4941 166.75 -31.6841 149.539 -31.9942 125.653C-32.3095 101.666 -19.7747 77.9411 2.39526 60.5612C22.8141 44.4991 46.0178 32.6674 71.3592 25.3908C95.5418 18.4484 121.11 15.7943 147.352 17.502C156.226 18.0522 169.02 19.8003 179.552 25.0143C191.015 30.6887 197.261 39.1485 198.115 50.159C198.44 54.2808 198.584 58.474 198.724 62.5285C199.117 73.9672 199.526 85.7948 204.107 96.6481C212.284 115.881 227.756 129.12 241.814 139.531C253.215 147.971 264.87 155.131 276.14 162.054C279.897 164.362 283.78 166.748 287.616 169.158C300.799 177.436 317.935 188.416 333.562 199.949C365.813 223.751 400.928 259.39 385.065 294.008C379.559 306.026 371.659 317.1 360.917 327.865C331.219 357.62 288.677 373.334 250.978 384.781C230.576 390.977 211.4 394 192.464 394Z" fill="#FF00FF"/>
<mask id="mask0_0_105" style="mask-type:alpha" maskUnits="userSpaceOnUse" x="-52" y="3" width="455" height="407">
<path fill-rule="evenodd" clip-rule="evenodd" d="M-52 3H403V410H-52V3Z" fill="white"/>
</mask>
<g mask="url(#mask0_0_105)">
<path fill-rule="evenodd" clip-rule="evenodd" d="M127.816 4.23712C75.2966 4.23712 25.5996 20.7592 -13.6081 51.5344C-37.641 70.3348 -51.1836 95.8759 -50.7647 121.609C-50.5103 147.285 -33.0278 165.726 -18.4074 176.674C8.56714 197.202 36.9908 209.878 67.0839 223.298C78.2538 228.279 89.8042 233.429 101.186 238.985L104.191 240.446C120.67 248.45 137.709 256.725 153.023 267.565C165.023 276.529 172.335 286.077 176.051 297.623C180.357 310.304 172.419 322.164 165.418 332.628C164.828 333.509 164.243 334.384 163.669 335.252C160.122 340.732 154.976 346.117 150.001 351.326C137.978 363.912 125.543 376.928 134.057 392.672C142.574 408.434 163.716 408.585 180.705 408.705C182.025 408.716 183.324 408.725 184.594 408.74C205.644 409.161 227.51 405.894 251.44 398.749C292.818 386.025 339.417 368.724 371.247 336.898C382.209 325.939 391.018 313.618 397.43 300.278C414.625 261.03 377.091 226.428 347.355 203.817C331.703 192.658 314.806 181.358 297.139 170.236C293.237 167.802 289.288 165.383 285.467 163.042C272.816 155.296 259.736 147.286 246.919 137.818C231.391 126.341 214.295 111.739 205.226 90.4447C200.116 78.3696 199.667 65.329 199.231 52.718C199.078 48.3039 198.922 43.7381 198.568 39.2632C197.67 27.7179 191.072 18.83 178.958 12.8452C167.62 7.24555 153.796 5.36386 144.196 4.77002C138.715 4.41475 133.248 4.23712 127.816 4.23712ZM188.201 410C186.988 410 185.782 409.989 184.576 409.965C183.311 409.948 182.014 409.939 180.695 409.93C163.384 409.807 141.84 409.653 132.98 393.254C124.041 376.727 136.788 363.384 149.113 350.48C154.05 345.313 159.156 339.97 162.643 334.583C163.222 333.707 163.807 332.831 164.398 331.949C171.577 321.219 179.002 310.125 174.887 298.008C171.249 286.706 164.074 277.35 152.303 268.555C137.081 257.782 120.089 249.529 103.655 241.548L100.647 240.085C89.284 234.539 77.7438 229.392 66.5833 224.415C36.424 210.967 7.93826 198.262 -19.147 177.651C-33.9856 166.538 -51.7318 147.797 -51.9904 121.626C-52.4155 95.5083 -38.7022 69.6087 -14.3663 50.5698C7.98067 33.0315 33.3737 20.1096 61.1075 12.1646C87.5732 4.58206 115.552 1.6831 144.274 3.54827C153.984 4.1483 167.98 6.05787 179.501 11.7484C192.03 17.9367 198.858 27.1623 199.79 39.1681C200.145 43.6689 200.303 48.2482 200.457 52.6766C200.888 65.1761 201.334 78.1022 206.355 89.9675C215.308 110.989 232.255 125.456 247.649 136.834C260.423 146.269 273.479 154.266 286.108 161.999C289.931 164.341 293.884 166.761 297.79 169.199C315.484 180.338 332.402 191.651 348.076 202.826L348.09 202.837C378.156 225.7 416.096 260.727 398.544 300.787C392.063 314.273 383.174 326.705 372.114 337.763C340.094 369.777 293.324 387.15 251.795 399.921C229.11 406.693 208.262 410 188.201 410Z" fill="#FF00FF"/>
</g>
<path fill-rule="evenodd" clip-rule="evenodd" d="M167.556 118.228C151.254 118.228 135.83 123.378 123.665 132.969C116.267 138.783 112.098 146.669 112.227 154.604C112.305 162.487 117.671 168.166 122.159 171.541C130.544 177.951 139.396 181.917 148.768 186.115C152.258 187.678 155.866 189.295 159.426 191.04C163.507 193.035 190.482 213.328 206.599 225.453C212.641 229.998 217.413 233.587 218.792 234.568C222.566 237.402 224.966 240.551 226.137 244.209C227.546 248.375 225.007 252.187 222.767 255.549C222.584 255.825 222.401 256.098 222.223 256.37C221.097 258.118 219.477 259.821 217.91 261.469C214.092 265.484 210.485 269.276 212.999 273.943C215.538 278.667 221.73 278.71 227.193 278.75C227.606 278.752 228.012 278.755 228.41 278.76C234.955 278.894 241.724 277.873 249.15 275.645C262.015 271.671 276.502 266.271 286.375 256.356C289.764 252.953 292.484 249.128 294.466 244.987C295.974 241.528 293.074 232.818 270.642 211.073C256.963 197.815 241.022 184.69 235.838 180.731C230.963 177.239 225.697 173.702 220.188 170.217C218.973 169.456 217.758 168.71 216.548 167.966C212.592 165.531 208.501 163.014 204.485 160.035C199.593 156.402 194.202 151.775 191.331 145.004C189.706 141.145 189.564 137.017 189.426 133.023C189.379 131.644 189.331 130.217 189.221 128.824C188.586 120.604 178.56 118.762 172.641 118.394C170.94 118.283 169.242 118.228 167.556 118.228ZM229.53 280C229.149 280 228.768 279.996 228.389 279.989C227.999 279.983 227.594 279.98 227.184 279.977C221.668 279.939 214.805 279.889 211.921 274.527C208.985 269.074 213.072 264.777 217.024 260.622C218.551 259.016 220.132 257.354 221.198 255.699C221.382 255.42 221.566 255.145 221.749 254.868C223.934 251.587 226.192 248.197 224.974 244.594C223.865 241.13 221.673 238.263 218.071 235.56C216.691 234.58 212.149 231.164 205.865 226.435C189.783 214.336 162.865 194.086 158.888 192.144C155.346 190.407 151.749 188.795 148.267 187.237C138.829 183.008 129.915 179.015 121.421 172.521C116.716 168.981 111.086 163 111.003 154.622C110.867 146.3 115.207 138.056 122.909 132.003C136.571 121.233 154.258 115.966 172.72 117.168C179.033 117.56 189.734 119.583 190.441 128.727C190.553 130.147 190.603 131.588 190.65 132.98C190.791 137.041 190.922 140.877 192.46 144.525C195.215 151.024 200.452 155.513 205.213 159.047C209.187 161.995 213.254 164.497 217.19 166.917C218.402 167.663 219.618 168.412 220.838 169.176C226.373 172.678 231.662 176.23 236.558 179.737L236.573 179.748C241.766 183.715 257.767 196.888 271.492 210.19C289.907 228.042 298.012 239.92 295.578 245.498C293.53 249.784 290.726 253.723 287.24 257.223C277.179 267.328 262.519 272.8 249.507 276.82C242.382 278.957 235.834 280 229.53 280Z" fill="#00FFFF"/>
<path fill-rule="evenodd" clip-rule="evenodd" d="M162.104 104.229C141.235 104.229 121.488 110.785 105.912 122.994C96.448 130.388 91.097 140.457 91.2305 150.62C91.362 160.66 98.2444 167.934 103.993 172.27C114.775 180.399 126.11 185.465 138.11 190.827C142.541 192.807 147.12 194.855 151.641 197.06C157.708 200.005 190.764 224.308 204.88 234.686C207.368 236.514 209.232 237.886 210.204 238.592C214.893 241.997 217.94 245.973 219.521 250.745C221.246 255.956 218.076 260.729 215.278 264.939C215.03 265.314 214.784 265.685 214.542 266.055C213.108 268.242 211.061 270.382 209.081 272.45C204.134 277.617 199.462 282.498 202.743 288.558C206.014 294.602 213.915 294.678 220.889 294.747C221.465 294.752 222.032 294.757 222.586 294.765C231.171 294.908 239.861 293.61 249.138 290.802C265.496 285.852 283.95 279.064 296.781 266.251C301.398 261.641 304.788 256.905 307.149 251.771C310.096 245.362 302.596 232.758 285.46 215.327C271.564 201.193 255.209 187.898 249.466 183.674C242.667 178.674 235.201 173.906 229.457 170.309C227.784 169.264 226.09 168.225 224.452 167.223C219.513 164.198 214.407 161.072 209.399 157.378C203.163 152.776 196.299 146.917 192.646 138.351C190.58 133.478 190.4 128.248 190.224 123.19C190.163 121.434 190.101 119.62 189.961 117.844C189.138 107.276 176.234 104.911 168.615 104.44C166.436 104.3 164.263 104.229 162.104 104.229ZM223.842 296C223.416 296 222.993 295.997 222.566 295.991C222.015 295.981 221.451 295.975 220.876 295.969C213.927 295.903 205.278 295.818 201.663 289.139C197.957 282.297 203.16 276.863 208.193 271.605C210.135 269.577 212.141 267.481 213.513 265.386C213.757 265.015 214.005 264.64 214.256 264.263C217.028 260.09 219.894 255.775 218.355 251.13C216.859 246.608 213.957 242.83 209.482 239.581C208.509 238.874 206.641 237.501 204.152 235.67C190.062 225.313 157.069 201.056 151.104 198.158C146.601 195.962 142.028 193.92 137.608 191.944C125.542 186.552 114.145 181.458 103.253 173.246C97.2836 168.746 90.1413 161.171 90.0025 150.636C89.8648 140.088 95.3867 129.662 105.155 122.032C114.107 115.014 124.278 109.843 135.389 106.665C145.987 103.634 157.193 102.474 168.693 103.219C176.708 103.713 190.29 106.259 191.184 117.749C191.327 119.55 191.39 121.379 191.45 123.148C191.629 128.322 191.799 133.21 193.775 137.873C197.313 146.168 204.026 151.891 210.129 156.394C215.094 160.058 220.178 163.171 225.094 166.178C226.735 167.184 228.432 168.223 230.109 169.273C235.871 172.879 243.363 177.664 250.194 182.688C255.965 186.931 272.388 200.282 286.335 214.471C304.109 232.551 311.487 245.271 308.265 252.281C305.843 257.55 302.37 262.402 297.651 267.115C284.626 280.12 265.998 286.979 249.494 291.973C240.552 294.679 232.145 296 223.842 296Z" fill="#00FFFF"/>
<path fill-rule="evenodd" clip-rule="evenodd" d="M157.311 89.2333C131.973 89.2333 107.996 97.2272 89.0831 112.118C77.5737 121.149 71.066 133.452 71.2281 145.872C71.3893 158.155 79.7615 167.048 86.7579 172.347C99.8456 182.257 113.599 188.43 128.158 194.965C133.531 197.377 139.084 199.869 144.565 202.553C152.889 206.614 190.661 234.013 202.039 242.314C207.703 246.445 211.383 251.266 213.291 257.052C215.362 263.337 211.537 269.122 208.161 274.225C207.86 274.683 207.56 275.137 207.266 275.587C205.534 278.242 203.056 280.842 200.66 283.355C194.627 289.687 188.928 295.665 192.954 303.13C196.957 310.561 206.581 310.655 215.073 310.738C215.773 310.744 216.461 310.75 217.132 310.762C227.572 310.936 238.108 309.351 249.372 305.928C269.225 299.893 291.624 291.617 307.206 275.99C312.816 270.365 316.938 264.583 319.807 258.315C323.427 250.407 316.658 236.872 300.229 219.174C286.452 204.332 270.074 191 263.338 186.024C255.087 179.928 246.03 174.121 239.063 169.741C237.035 168.467 234.98 167.203 232.993 165.982C227.007 162.3 220.816 158.493 214.746 153.995C207.2 148.402 198.89 141.278 194.471 130.876C191.977 124.961 191.758 118.605 191.547 112.457C191.472 110.316 191.396 108.105 191.227 105.939C190.221 92.967 174.498 90.0651 165.215 89.4909C162.569 89.3181 159.933 89.2333 157.311 89.2333ZM218.655 312C218.14 312 217.626 311.996 217.112 311.989C216.444 311.978 215.759 311.97 215.061 311.963C206.669 311.882 196.222 311.781 191.876 303.712C187.427 295.463 193.705 288.878 199.775 282.509C202.133 280.035 204.571 277.476 206.242 274.915C206.536 274.463 206.839 274.008 207.141 273.55C210.52 268.439 214.014 263.156 212.129 257.438C210.303 251.902 206.768 247.28 201.319 243.306C193.235 237.407 152.476 207.776 144.028 203.655C138.566 200.98 133.021 198.491 127.658 196.085C113.033 189.52 99.2176 183.318 86.0203 173.325C78.805 167.862 70.1704 158.667 70.003 145.888C69.8367 133.083 76.5149 120.423 88.328 111.153C99.1711 102.615 111.493 96.3262 124.949 92.459C137.788 88.7708 151.361 87.3587 165.294 88.267C174.971 88.866 191.37 91.9469 192.447 105.844C192.619 108.035 192.696 110.262 192.77 112.414C192.988 118.728 193.192 124.694 195.599 130.398C199.901 140.528 208.06 147.514 215.474 153.01C221.502 157.476 227.669 161.268 233.633 164.938C235.623 166.16 237.681 167.425 239.714 168.701C246.699 173.094 255.78 178.918 264.064 185.038C270.832 190.037 287.288 203.431 301.127 218.339C318.158 236.689 324.817 250.31 320.92 258.826C317.989 265.228 313.786 271.127 308.073 276.856C292.299 292.675 269.727 301.022 249.728 307.101C238.895 310.393 228.712 312 218.655 312Z" fill="#00FFFF"/>
<path fill-rule="evenodd" clip-rule="evenodd" d="M151.836 75.2311C121.936 75.2311 93.6418 84.6299 71.3232 102.132C57.7262 112.761 50.037 127.244 50.2294 141.865C50.4187 156.336 60.3144 166.807 68.584 173.044C84.0254 184.691 100.246 191.944 117.418 199.622C123.751 202.454 130.3 205.381 136.76 208.533C146.95 213.486 184.652 240.014 193.367 246.348C200.024 251.186 204.351 256.831 206.593 263.605C209.02 270.937 204.523 277.709 200.556 283.682C200.201 284.218 199.848 284.751 199.502 285.279C197.466 288.389 194.547 291.44 191.725 294.391C184.583 301.854 177.838 308.904 182.621 317.74C187.372 326.525 199.251 326.64 208.797 326.733C209.622 326.74 210.432 326.748 211.223 326.762C223.53 326.965 235.979 325.103 249.269 321.078C272.693 313.988 299.116 304.261 317.505 285.89C324.129 279.274 328.996 272.473 332.385 265.098C342.343 243.429 295.718 202.773 276.913 188.934C267.182 181.774 256.502 174.951 248.284 169.805C245.893 168.309 243.471 166.825 241.129 165.389C234.071 161.067 226.774 156.596 219.62 151.317C210.735 144.756 200.949 136.402 195.751 124.207C192.817 117.281 192.559 109.822 192.31 102.611C192.223 100.097 192.133 97.4974 191.932 94.9534C190.742 79.6359 172.143 76.2115 161.162 75.5335C158.04 75.3312 154.93 75.2311 151.836 75.2311ZM213.021 328C212.414 328 211.808 327.994 211.203 327.985C210.415 327.971 209.607 327.964 208.784 327.956C198.918 327.861 186.636 327.742 181.541 318.322C176.335 308.703 183.709 300.998 190.837 293.546C193.621 290.636 196.501 287.626 198.476 284.61C198.823 284.079 199.178 283.545 199.535 283.008C203.534 276.984 207.669 270.757 205.428 263.988C203.271 257.466 199.088 252.018 192.644 247.337C183.949 241.017 146.341 214.551 136.222 209.632C129.78 206.49 123.241 203.567 116.917 200.738C99.6779 193.031 83.3965 185.75 67.8433 174.019C59.3565 167.619 49.2001 156.846 49.0036 141.881C48.8071 126.875 56.6659 112.037 70.566 101.169C83.3416 91.1524 97.8552 83.7713 113.709 79.2334C128.836 74.9039 144.827 73.2486 161.241 74.3126C166.802 74.6563 174.824 75.7513 181.436 79.0146C188.672 82.5854 192.614 87.9159 193.155 94.8575C193.358 97.4283 193.449 100.041 193.536 102.569C193.792 109.996 194.034 117.012 196.88 123.73C201.963 135.654 211.596 143.87 220.349 150.334C227.46 155.583 234.735 160.038 241.77 164.348C244.115 165.784 246.54 167.269 248.937 168.769C257.171 173.926 267.877 180.766 277.641 187.951C287.514 195.216 303.423 208.656 315.762 222.625C332.126 241.147 338.094 255.609 333.499 265.609C330.049 273.116 325.1 280.033 318.374 286.754C299.792 305.317 273.195 315.113 249.626 322.248C236.865 326.112 224.867 328 213.021 328Z" fill="#00FFFF"/>
<path fill-rule="evenodd" clip-rule="evenodd" d="M146.974 60.2337C112.625 60.2337 80.1202 71.0742 54.4812 91.2583C38.8469 103.525 30.0074 120.242 30.2262 137.124C30.4451 153.837 41.8268 165.929 51.3351 173.13C69.0719 186.559 87.7005 194.921 107.421 203.772C114.691 207.035 122.209 210.41 129.624 214.04C141.179 219.678 173.867 241.827 185.157 250.063C192.784 255.627 197.741 262.118 200.309 269.906C203.08 278.312 197.932 286.097 193.391 292.965C192.981 293.583 192.575 294.197 192.177 294.808C189.844 298.385 186.495 301.898 183.259 305.295C175.035 313.921 167.269 322.069 172.792 332.313C178.272 342.486 191.941 342.619 202.923 342.725C203.871 342.734 204.801 342.742 205.71 342.757C219.844 342.991 234.15 340.846 249.421 336.205C276.322 328.029 306.671 316.813 327.798 295.626C335.41 287.993 341.004 280.145 344.9 271.637C349.968 260.566 344.772 245.644 329.457 227.282C314.731 209.627 296.014 195.275 290.628 191.296C279.454 183.042 267.189 175.177 257.755 169.246C255.008 167.52 252.225 165.809 249.534 164.154C241.435 159.174 233.059 154.024 224.851 147.943C214.659 140.387 203.435 130.77 197.477 116.735C194.115 108.768 193.819 100.182 193.534 91.8796C193.434 88.9811 193.33 85.9844 193.1 83.0486C191.726 65.3257 170.323 61.3666 157.689 60.5831C154.101 60.3494 150.527 60.2337 146.974 60.2337ZM207.775 344C207.078 344 206.385 343.995 205.69 343.982C204.784 343.968 203.857 343.959 202.912 343.949C191.608 343.841 177.537 343.704 171.715 332.895C165.77 321.867 174.21 313.013 182.374 304.449C185.573 301.092 188.881 297.62 191.152 294.138C191.552 293.525 191.959 292.908 192.371 292.288C196.973 285.329 201.731 278.132 199.147 270.29C196.662 262.755 191.849 256.461 184.435 251.054C173.49 243.07 140.394 220.658 129.088 215.142C121.69 211.519 114.183 208.149 106.92 204.891C87.1348 196.01 68.4443 187.621 50.5981 174.107C40.871 166.742 29.2292 154.35 29.0042 137.139C28.7781 119.873 37.7889 102.8 53.7246 90.2939C68.3814 78.7556 85.0364 70.2544 103.225 65.029C120.582 60.0414 138.931 58.1342 157.766 59.3602C164.143 59.7561 173.338 61.0151 180.915 64.7696C189.193 68.8693 193.702 74.9867 194.319 82.9535C194.552 85.9141 194.656 88.9263 194.756 91.8372C195.051 100.406 195.33 108.501 198.603 116.258C204.447 130.02 215.518 139.499 225.579 146.958C233.744 153.009 242.096 158.143 250.174 163.11C252.867 164.766 255.653 166.478 258.405 168.209C267.858 174.15 280.147 182.032 291.354 190.31C296.767 194.31 315.584 208.737 330.395 226.496C346.04 245.252 351.293 260.611 346.012 272.148C342.053 280.791 336.38 288.753 328.664 296.492C307.346 317.871 276.823 329.157 249.775 337.377C235.131 341.827 221.366 344 207.775 344Z" fill="#00FFFF"/>
<path fill-rule="evenodd" clip-rule="evenodd" d="M142.45 45.2366C103.553 45.2366 66.7475 57.5143 37.7113 80.3848C19.995 94.2927 9.97882 113.247 10.2288 132.387C10.4767 151.347 23.3761 165.058 34.1526 173.223C54.2345 188.437 75.3236 197.906 97.6493 207.933C105.877 211.627 114.385 215.448 122.778 219.558C135.691 225.862 165.072 244.771 177.406 253.773C186.026 260.063 191.625 267.4 194.525 276.202C197.651 285.686 192.085 294.104 186.703 302.245C186.241 302.945 185.783 303.64 185.332 304.331C182.695 308.375 178.908 312.35 175.245 316.195C166.329 325.555 157.109 335.233 163.388 346.884C169.613 358.444 185.11 358.595 197.563 358.718C198.633 358.727 199.687 358.736 200.715 358.754C216.726 359.012 232.922 356.589 250.213 351.33C280.671 342.068 315.035 329.365 338.96 305.36C347.583 296.707 353.92 287.814 358.332 278.171C364.116 265.531 359.61 249.704 344.939 231.13C331.207 213.745 312.499 199.139 305.095 193.666C292.444 184.319 278.562 175.409 267.881 168.693C264.772 166.739 261.624 164.802 258.58 162.929C249.412 157.29 239.933 151.456 230.643 144.572C219.116 136.023 206.422 125.143 199.686 109.268C195.887 100.259 195.552 90.5438 195.23 81.1476C195.117 77.8665 194.999 74.4715 194.737 71.1459C194.078 62.6161 189.215 56.0477 180.289 51.6239C171.906 47.4692 161.682 46.0729 154.581 45.632C150.521 45.367 146.471 45.2366 142.45 45.2366ZM203.054 360C202.267 360 201.481 359.994 200.695 359.98C199.671 359.964 198.62 359.953 197.552 359.943C184.777 359.819 168.878 359.665 162.31 347.467C155.608 335.032 165.141 325.025 174.36 315.348C177.983 311.544 181.731 307.611 184.306 303.66C184.759 302.967 185.219 302.269 185.683 301.568C190.904 293.671 196.304 285.504 193.364 276.586C190.546 268.037 185.09 260.898 176.684 254.765C164.386 245.788 135.102 226.938 122.24 220.662C113.866 216.558 105.368 212.743 97.1483 209.052C74.7565 198.996 53.6075 189.5 33.415 174.202C22.4195 165.871 9.2588 151.858 9.00468 132.403C8.74952 112.876 18.9372 93.5651 36.9541 79.4201C53.5362 66.3599 72.3785 56.7381 92.9553 50.8217C112.592 45.1776 133.353 43.0206 154.659 44.4075C161.871 44.8557 172.268 46.2789 180.832 50.5236C190.173 55.1534 195.262 62.0592 195.959 71.0497C196.222 74.4012 196.339 77.8085 196.453 81.1062C196.787 90.817 197.102 99.9907 200.813 108.789C207.436 124.391 219.977 135.136 231.371 143.587C240.618 150.44 250.075 156.257 259.22 161.883C262.266 163.757 265.418 165.697 268.531 167.654C279.232 174.382 293.139 183.306 305.821 192.678C313.266 198.181 332.075 212.868 345.899 230.368C360.879 249.334 365.436 265.588 359.445 278.681C354.971 288.461 348.554 297.47 339.828 306.225C315.71 330.421 281.173 343.197 250.569 352.504C234.003 357.541 218.431 360 203.054 360Z" fill="#00FFFF"/>
<path fill-rule="evenodd" clip-rule="evenodd" d="M136.907 30.2354C93.4678 30.2354 52.3647 43.9156 19.9374 69.3966C0.142448 84.9003 -11.0491 106.031 -10.769 127.372C-10.494 148.513 3.92222 163.804 15.9654 172.906C38.3919 189.856 61.9377 200.404 86.8654 211.572C96.0507 215.686 105.548 219.94 114.916 224.518C129.684 231.711 155.283 247.105 168.622 256.818C178.232 263.816 184.477 271.976 187.709 281.766C191.188 292.295 184.984 301.657 178.987 310.708C178.469 311.488 177.956 312.263 177.453 313.033C174.513 317.532 170.288 321.957 166.2 326.236C156.229 336.679 145.919 347.476 152.953 360.497C159.921 373.41 177.247 373.577 191.166 373.714C192.362 373.725 193.537 373.736 194.685 373.755C212.57 374.048 230.654 371.341 249.964 365.482C283.976 355.165 322.347 341.012 349.067 314.265C358.7 304.625 365.778 294.713 370.709 283.966C386.154 250.292 339.356 210.924 318.52 195.562C304.394 185.147 288.896 175.225 276.971 167.746C273.501 165.568 269.988 163.412 266.587 161.325C256.356 155.045 245.773 148.551 235.405 140.884C222.545 131.368 208.384 119.257 200.868 101.593C196.633 91.5714 196.26 80.7573 195.899 70.2985C195.773 66.6421 195.644 62.8618 195.351 59.1568C194.611 49.631 189.171 42.2966 179.181 37.357C169.815 32.7243 158.389 31.1673 150.455 30.6766C145.922 30.3821 141.398 30.2354 136.907 30.2354ZM197.298 375C196.42 375 195.542 374.994 194.665 374.979C193.521 374.961 192.348 374.949 191.154 374.937C176.911 374.8 159.187 374.628 151.873 361.079C144.417 347.274 155.042 336.149 165.315 325.39C169.363 321.151 173.55 316.768 176.427 312.363C176.931 311.591 177.446 310.813 177.963 310.033C183.801 301.223 189.837 292.114 186.546 282.149C183.396 272.611 177.297 264.65 167.901 257.809C154.607 248.129 129.095 232.787 114.379 225.62C105.028 221.05 95.5391 216.799 86.3641 212.69C61.3713 201.492 37.7645 190.916 15.2274 173.883C2.96514 164.616 -11.7126 149.027 -11.9948 127.387C-12.279 105.662 -0.914896 84.1729 19.1809 68.4336C37.6849 53.8939 58.7098 43.182 81.6738 36.5966C103.587 30.3108 126.755 27.9087 150.532 29.4543C158.578 29.9523 170.173 31.5362 179.724 36.2588C190.129 41.4029 195.797 49.0762 196.572 59.0608C196.867 62.7926 196.998 66.5863 197.124 70.2572C197.496 81.0806 197.849 91.3018 201.996 101.116C209.396 118.508 223.405 130.48 236.133 139.899C246.46 147.536 257.018 154.015 267.229 160.281C270.629 162.369 274.148 164.526 277.623 166.708C289.564 174.199 305.088 184.137 319.247 194.576C340.325 210.117 387.643 249.986 371.822 284.475C366.831 295.357 359.671 305.384 349.934 315.131C323.022 342.068 284.477 356.293 250.32 366.654C231.832 372.264 214.457 375 197.298 375Z" fill="#00FFFF"/>
<path fill-rule="evenodd" clip-rule="evenodd" d="M132.315 16.2383C84.3491 16.2383 38.9612 31.3613 3.1527 59.525C-18.7143 76.669 -31.0784 100.036 -30.7683 123.638C-30.4634 147.027 -14.536 163.938 -1.2302 174.005C23.5311 192.737 49.5267 204.394 77.047 216.737C87.1866 221.283 97.6705 225.985 108.011 231.043C115.758 234.819 142.467 248.183 160.773 261.525C171.37 269.25 178.256 278.256 181.82 289.058C185.65 300.664 178.812 310.995 172.198 320.986C171.627 321.847 171.061 322.704 170.505 323.554C167.264 328.521 162.602 333.408 158.091 338.134C147.068 349.691 135.669 361.638 143.456 376.068C151.168 390.371 170.314 390.555 185.696 390.706C187.017 390.718 188.313 390.731 189.58 390.751C209.333 391.076 229.298 388.083 250.622 381.608C288.175 370.205 330.542 354.561 360.048 324.997C370.686 314.337 378.506 303.379 383.952 291.497C399.471 257.628 364.72 222.467 332.834 198.935C317.238 187.427 300.13 176.463 286.964 168.197C283.134 165.791 279.252 163.406 275.5 161.1C264.205 154.163 252.527 146.987 241.083 138.518C226.895 128.007 211.271 114.632 202.98 95.1266C198.309 84.0635 197.897 72.1201 197.499 60.5718C197.36 56.5296 197.217 52.3509 196.895 48.255C196.076 37.7048 190.059 29.5832 179.008 24.1137C168.659 18.9917 156.039 17.2695 147.274 16.7255C142.268 16.4007 137.274 16.2383 132.315 16.2383ZM192.464 392C191.495 392 190.529 391.993 189.56 391.977C188.295 391.957 187.002 391.943 185.685 391.931C169.979 391.779 150.433 391.589 142.378 376.651C134.168 361.438 145.88 349.16 157.205 337.288C161.676 332.602 166.299 327.756 169.479 322.884C170.037 322.031 170.603 321.172 171.176 320.31C177.628 310.562 184.3 300.482 180.658 289.443C177.176 278.892 170.435 270.084 160.052 262.516C141.827 249.232 115.2 235.911 107.472 232.145C97.1505 227.095 86.675 222.397 76.5467 217.854C48.9603 205.484 22.9026 193.8 -1.96827 174.982C-15.4943 164.749 -31.6821 147.539 -31.9943 123.653C-32.3075 99.6663 -19.7728 75.9409 2.39603 58.561C22.8158 42.5 46.0183 30.6682 71.3596 23.3928C95.5421 16.4493 121.112 13.7942 147.351 15.5019C156.228 16.0521 169.019 17.8022 179.552 23.0142C191.016 28.6896 197.262 37.1494 198.115 48.1608C198.44 52.2816 198.585 56.4748 198.725 60.5304C199.117 71.968 199.525 83.7956 204.108 94.6488C212.282 113.882 227.755 127.121 241.813 137.532C253.213 145.97 264.868 153.131 276.141 160.057C279.896 162.362 283.779 164.747 287.617 167.158C300.798 175.435 317.933 186.416 333.562 197.949C365.812 221.75 400.928 257.389 385.065 292.007C379.558 304.025 371.659 315.1 360.917 325.864C331.219 355.62 288.676 371.334 250.979 382.782C230.576 388.978 211.399 392 192.464 392Z" fill="#00FFFF"/>
<path fill-rule="evenodd" clip-rule="evenodd" d="M126.817 1.23609C74.2959 1.23609 24.5998 17.7581 -14.609 48.5332C-38.643 67.3335 -52.1846 92.8757 -51.7647 118.61C-51.5112 144.284 -34.0298 162.723 -19.4083 173.672C7.56628 194.202 35.9911 206.877 66.0832 220.296C77.2541 225.278 88.8036 230.429 100.187 235.985L103.191 237.445C119.669 245.449 136.708 253.724 152.024 264.564C164.021 273.529 171.334 283.076 175.05 294.623C179.357 307.303 171.419 319.164 164.417 329.628C163.828 330.508 163.242 331.382 162.668 332.251C159.121 337.73 153.976 343.116 149.001 348.324C136.976 360.911 124.543 373.927 133.058 389.67C141.574 405.432 162.717 405.584 179.705 405.705C181.025 405.713 182.324 405.723 183.594 405.738C204.645 406.16 226.511 402.892 250.44 395.75C291.819 383.022 338.416 365.723 370.248 333.897C381.21 322.937 390.018 310.616 396.429 297.276C413.627 258.028 376.09 223.429 346.355 200.816C330.704 189.657 313.807 178.357 296.139 167.235C292.238 164.801 288.287 162.382 284.467 160.042C271.816 152.295 258.736 144.285 245.918 134.819C230.392 123.34 213.295 108.738 204.226 87.4444C199.115 75.3694 198.665 62.3288 198.231 49.7168C198.079 45.3028 197.921 40.7359 197.567 36.2631C196.67 24.7168 190.072 15.8289 177.958 9.84618C166.619 4.24451 152.795 2.36179 143.196 1.76899C137.715 1.41476 132.246 1.23609 126.817 1.23609ZM187.201 407C185.988 407 184.782 406.986 183.574 406.963C182.311 406.947 181.013 406.938 179.695 406.928C162.384 406.805 140.838 406.651 131.978 390.252C123.041 373.727 135.788 360.382 148.114 347.479C153.05 342.312 158.154 336.97 161.642 331.582C162.22 330.706 162.808 329.829 163.397 328.947C170.578 318.219 178.001 307.123 173.887 295.006C170.248 283.704 163.072 274.349 151.301 265.554C136.081 254.781 119.088 246.528 102.655 238.546L99.6476 237.085C88.2833 231.538 76.7431 226.392 65.5836 221.415C35.4242 207.965 6.93637 195.26 -20.1479 174.648C-34.9855 163.538 -52.7318 144.795 -52.9904 118.624C-53.4165 92.5091 -39.7032 66.6086 -15.3661 47.5697C6.98084 30.0314 32.374 17.1085 60.1068 9.16353C86.5715 1.58206 114.553 -1.31688 143.273 0.548274C152.984 1.14831 166.979 3.05787 178.501 8.74836C191.03 14.9377 197.855 24.1623 198.789 36.167C199.145 40.6678 199.303 45.248 199.457 49.6755C199.887 62.176 200.334 75.1009 205.354 86.9663C214.309 107.989 231.253 122.456 246.647 133.834C259.423 143.268 272.48 151.266 285.108 158.999C288.93 161.339 292.883 163.76 296.79 166.198C314.485 177.337 331.401 188.65 347.074 199.825L347.09 199.836C377.156 222.699 415.096 257.725 397.544 297.786C391.064 311.271 382.175 323.705 371.115 334.762C339.095 366.777 292.324 384.148 250.796 396.92C228.109 403.692 207.263 407 187.201 407Z" fill="#00FFFF"/>
<path fill-rule="evenodd" clip-rule="evenodd" d="M167.556 120.228C151.255 120.228 135.831 125.378 123.666 134.969C116.268 140.783 112.1 148.668 112.228 156.604C112.307 164.487 117.673 170.166 122.161 173.541C130.546 179.951 139.397 183.917 148.768 188.114C152.258 189.678 155.866 191.295 159.426 193.04C163.507 195.035 190.482 215.327 206.6 227.452C212.642 231.998 217.413 235.587 218.792 236.568C222.566 239.401 224.966 242.551 226.138 246.209C227.546 250.376 225.007 254.187 222.768 257.549C222.584 257.824 222.402 258.098 222.222 258.37C221.096 260.118 219.477 261.821 217.911 263.469C214.092 267.484 210.486 271.276 212.998 275.943C215.538 280.667 221.73 280.711 227.193 280.748C227.605 280.752 228.012 280.755 228.41 280.76C234.954 280.892 241.724 279.872 249.15 277.645C262.016 273.671 276.502 268.271 286.374 258.356C289.762 254.953 292.485 251.128 294.466 246.987C295.975 243.528 293.073 234.817 270.641 213.073C256.963 199.815 241.022 186.691 235.838 182.731C230.963 179.239 225.697 175.702 220.188 172.217C218.973 171.456 217.76 170.71 216.549 169.966C212.593 167.53 208.502 165.014 204.485 162.034C199.593 158.402 194.203 153.775 191.333 147.004C189.706 143.145 189.565 139.016 189.429 135.023C189.38 133.643 189.333 132.216 189.221 130.824C188.586 122.604 178.561 120.762 172.642 120.394C170.94 120.283 169.243 120.228 167.556 120.228ZM229.53 282C229.149 282 228.769 281.996 228.39 281.988C227.998 281.983 227.595 281.98 227.184 281.977C221.67 281.939 214.806 281.889 211.922 276.526C208.985 271.074 213.072 266.777 217.023 262.622C218.552 261.016 220.131 259.353 221.199 257.698C221.381 257.419 221.565 257.145 221.75 256.868C223.935 253.587 226.193 250.197 224.975 246.594C223.865 243.13 221.673 240.263 218.072 237.56C216.693 236.579 212.15 233.164 205.866 228.435C189.784 216.337 162.866 196.086 158.889 194.144C155.348 192.407 151.749 190.795 148.269 189.236C138.831 185.008 129.916 181.015 121.421 174.521C116.717 170.981 111.088 165 111.003 156.621C110.869 148.301 115.209 140.055 122.912 134.003C136.571 123.233 154.259 117.966 172.72 119.168C179.034 119.56 189.735 121.583 190.442 130.726C190.554 132.147 190.603 133.588 190.651 134.98C190.791 139.042 190.923 142.876 192.461 146.525C195.215 153.024 200.453 157.513 205.213 161.047C209.187 163.994 213.255 166.497 217.189 168.919C218.402 169.665 219.619 170.413 220.839 171.176C226.374 174.678 231.661 178.229 236.557 181.737L236.573 181.748C241.765 185.715 257.768 198.888 271.491 212.19C289.907 230.042 298.012 241.92 295.578 247.498C293.529 251.783 290.726 255.723 287.239 259.223C277.178 269.328 262.519 274.8 249.506 278.819C242.382 280.957 235.834 282 229.53 282Z" fill="white"/>
<path fill-rule="evenodd" clip-rule="evenodd" d="M163.105 106.228C142.236 106.228 122.487 112.785 106.912 124.994C97.448 132.387 92.098 142.457 92.2316 152.62C92.3631 162.66 99.2444 169.935 104.993 174.27C115.776 182.398 127.11 187.465 139.11 192.827C143.541 194.807 148.121 196.855 152.643 199.058C158.707 202.004 191.764 226.307 205.881 236.686C208.368 238.514 210.233 239.886 211.204 240.592C215.893 243.997 218.942 247.972 220.522 252.745C222.247 257.955 219.076 262.728 216.279 266.939C216.031 267.314 215.784 267.685 215.541 268.055C214.108 270.243 212.06 272.382 210.081 274.45C205.135 279.617 200.462 284.499 203.744 290.558C207.015 296.602 214.917 296.678 221.89 296.747C222.466 296.752 223.034 296.757 223.587 296.766C232.173 296.908 240.861 295.609 250.138 292.801C266.496 287.852 284.95 281.064 297.781 268.251C302.398 263.641 305.789 258.905 308.149 253.771C311.097 247.362 303.596 234.758 286.459 217.327C272.564 203.192 256.209 189.897 250.466 185.674C243.669 180.674 236.201 175.905 230.457 172.308C228.784 171.264 227.089 170.226 225.451 169.222C220.513 166.199 215.408 163.073 210.398 159.378C204.163 154.776 197.298 148.916 193.645 140.351C191.58 135.478 191.4 130.248 191.225 125.19C191.165 123.435 191.102 121.62 190.962 119.844C190.14 109.276 177.235 106.91 169.615 106.44C167.436 106.3 165.264 106.228 163.105 106.228ZM224.843 298C224.417 298 223.992 297.997 223.568 297.99C223.016 297.98 222.452 297.975 221.877 297.969C214.927 297.904 206.279 297.818 202.664 291.139C198.959 284.297 204.161 278.862 209.193 273.605C211.135 271.577 213.142 269.48 214.513 267.386C214.758 267.014 215.007 266.64 215.256 266.263C218.027 262.09 220.895 257.775 219.356 253.13C217.859 248.608 214.956 244.83 210.482 241.581C209.509 240.874 207.642 239.501 205.152 237.67C191.062 227.313 158.071 203.056 152.105 200.158C147.602 197.962 143.03 195.919 138.609 193.944C126.543 188.552 115.146 183.458 104.253 175.246C98.2846 170.746 91.1423 163.171 91.0025 152.636C90.8648 142.087 96.3877 131.662 106.156 124.031C115.107 117.014 125.28 111.843 136.39 108.665C146.99 105.634 158.194 104.474 169.693 105.219C177.708 105.713 191.29 108.258 192.186 119.749C192.326 121.549 192.389 123.378 192.452 125.147C192.631 130.322 192.8 135.21 194.775 139.873C198.313 148.168 205.028 153.891 211.128 158.393C216.094 162.057 221.178 165.17 226.093 168.178C227.736 169.184 229.432 170.223 231.11 171.273C236.872 174.879 244.363 179.664 251.195 184.688C256.964 188.932 273.389 202.282 287.336 216.47C305.11 234.55 312.487 247.272 309.264 254.281C306.843 259.549 303.371 264.401 298.65 269.115C285.626 282.119 266.999 288.979 250.495 293.973C241.553 296.678 233.146 297.999 224.843 298Z" fill="white"/>
<path fill-rule="evenodd" clip-rule="evenodd" d="M157.311 91.2335C131.972 91.2335 107.996 99.2274 89.0831 114.117C77.5737 123.149 71.0649 135.452 71.2281 147.872C71.3883 160.155 79.7616 169.048 86.7569 174.347C99.8457 184.257 113.599 190.43 128.159 196.966C133.531 199.377 139.085 201.869 144.565 204.553C152.889 208.615 190.662 236.014 202.039 244.314C207.703 248.445 211.383 253.266 213.291 259.052C215.363 265.337 211.537 271.122 208.161 276.225C207.86 276.683 207.56 277.136 207.267 277.587C205.535 280.242 203.057 282.841 200.659 285.355C194.626 291.687 188.929 297.664 192.953 305.13C196.957 312.561 206.582 312.655 215.073 312.738C215.774 312.744 216.462 312.75 217.132 312.762C227.571 312.936 238.109 311.351 249.373 307.928C269.227 301.893 291.624 293.617 307.205 277.99C312.816 272.365 316.937 266.583 319.807 260.315C323.427 252.407 316.656 238.872 300.23 221.174C286.453 206.332 270.073 192.999 263.338 188.024C255.087 181.928 246.03 176.121 239.063 171.741C237.035 170.468 234.98 169.203 232.994 167.983C227.006 164.301 220.816 160.493 214.746 155.995C207.199 150.401 198.89 143.279 194.473 132.876C191.976 126.962 191.758 120.604 191.546 114.457C191.473 112.317 191.396 110.105 191.225 107.939C190.221 94.9672 174.498 92.0653 165.216 91.4911C162.569 91.3183 159.933 91.2335 157.311 91.2335ZM218.655 314C218.14 314 217.625 313.996 217.111 313.988C216.443 313.976 215.758 313.97 215.062 313.963C206.668 313.882 196.222 313.78 191.876 305.712C187.429 297.463 193.704 290.878 199.774 284.509C202.132 282.034 204.571 279.476 206.241 276.916C206.537 276.463 206.837 276.007 207.141 275.55C210.519 270.439 214.013 265.156 212.128 259.437C210.303 253.902 206.768 249.28 201.319 245.306C193.234 239.407 152.476 209.776 144.028 205.655C138.566 202.979 133.021 200.491 127.658 198.085C113.033 191.52 99.2177 185.319 86.0193 175.325C78.805 169.861 70.1714 160.666 70.003 147.889C69.8367 135.083 76.5149 122.422 88.328 113.152C99.1712 104.615 111.492 98.3263 124.949 94.4582C137.788 90.769 151.361 89.3589 165.293 90.2672C174.97 90.8662 191.37 93.9471 192.446 107.844C192.619 110.035 192.696 112.262 192.77 114.415C192.987 120.728 193.193 126.694 195.599 132.397C199.902 142.529 208.061 149.514 215.473 155.01C221.501 159.475 227.669 163.268 233.635 166.937C235.623 168.161 237.68 169.425 239.714 170.701C246.7 175.093 255.781 180.919 264.064 187.038C270.832 192.037 287.288 205.431 301.126 220.338C318.158 238.689 324.818 252.31 320.919 260.826C317.989 267.227 313.787 273.126 308.072 278.856C292.301 294.674 269.728 303.022 249.728 309.101C238.896 312.393 228.712 314 218.655 314Z" fill="white"/>
<path fill-rule="evenodd" clip-rule="evenodd" d="M152.837 76.2311C122.938 76.2311 94.6427 85.63 72.3242 103.132C58.7262 113.761 51.0391 128.244 51.2294 142.865C51.4198 157.337 61.3165 167.807 69.5839 174.045C85.0243 185.691 101.245 192.943 118.418 200.623C124.752 203.455 131.301 206.382 137.761 209.533C147.951 214.486 185.652 241.015 194.366 247.349C201.025 252.187 205.351 257.832 207.594 264.605C210.019 271.937 205.525 278.709 201.557 284.683C201.202 285.219 200.849 285.752 200.502 286.279C198.466 289.39 195.547 292.441 192.724 295.391C185.583 302.855 178.838 309.905 183.622 318.741C188.372 327.526 200.252 327.641 209.798 327.734C210.623 327.741 211.433 327.749 212.223 327.763C224.53 327.964 236.979 326.104 250.271 322.079C273.693 314.987 300.116 305.262 318.506 286.89C325.129 280.275 329.995 273.473 333.384 266.099C343.343 244.43 296.718 203.774 277.913 189.935C268.182 182.774 257.501 175.951 249.285 170.806C246.893 169.309 244.47 167.825 242.129 166.39C235.071 162.067 227.774 157.597 220.621 152.318C211.735 145.756 201.95 137.403 196.75 125.207C193.817 118.28 193.559 110.822 193.311 103.611C193.223 101.097 193.134 98.4975 192.932 95.9525C191.742 80.6349 173.143 77.2116 162.163 76.5335C159.041 76.3312 155.928 76.2311 152.837 76.2311ZM214.021 329C213.415 329 212.809 328.995 212.202 328.985C211.415 328.972 210.607 328.965 209.786 328.957C199.918 328.862 187.637 328.742 182.542 319.322C177.336 309.703 184.708 301.999 191.837 294.547C194.623 291.637 197.5 288.626 199.475 285.611C199.823 285.08 200.178 284.546 200.534 284.009C204.534 277.985 208.669 271.758 206.429 264.988C204.271 258.467 200.09 253.019 193.645 248.337C184.948 242.017 147.341 215.551 137.223 210.632C130.78 207.49 124.241 204.567 117.916 201.738C100.678 194.031 84.3964 186.751 68.8453 175.02C60.3575 168.619 50.1991 157.846 50.0036 142.882C49.8071 127.875 57.6669 113.036 71.567 102.17C84.3416 92.1525 98.8561 84.7723 114.709 80.2334C129.836 75.9039 145.829 74.2485 162.241 75.3126C167.804 75.6552 175.824 76.7513 182.437 80.0136C189.674 83.5855 193.615 88.916 194.154 95.8575C194.359 98.4284 194.448 101.042 194.536 103.568C194.791 110.997 195.035 118.012 197.88 124.73C202.962 136.654 212.596 144.87 221.349 151.334C228.461 156.582 235.734 161.039 242.771 165.348C245.115 166.784 247.539 168.269 249.937 169.77C258.172 174.927 268.876 181.766 278.641 188.95C288.513 196.217 304.422 209.656 316.763 223.626C333.127 242.148 339.094 256.61 334.499 266.609C331.049 274.117 326.101 281.034 319.374 287.755C300.793 306.317 274.194 316.114 250.626 323.249C237.864 327.113 225.868 329 214.021 329Z" fill="white"/>
<path fill-rule="evenodd" clip-rule="evenodd" d="M147.974 61.2338C113.625 61.2338 81.1203 72.0743 55.4812 92.2574C39.8469 104.525 31.0064 121.243 31.2272 138.124C31.444 154.837 42.8257 166.929 52.3351 174.129C70.0719 187.559 88.6995 195.92 108.422 204.772C115.692 208.035 123.209 211.409 130.624 215.04C142.178 220.678 174.866 242.827 186.156 251.063C193.785 256.627 198.74 263.118 201.309 270.905C204.08 279.312 198.932 287.097 194.39 293.964C193.982 294.583 193.575 295.197 193.177 295.808C190.845 299.385 187.496 302.898 184.258 306.294C176.035 314.921 168.268 323.069 173.793 333.312C179.271 343.486 192.941 343.619 203.924 343.725C204.87 343.734 205.801 343.742 206.709 343.757C220.844 343.99 235.15 341.846 250.42 337.205C277.322 329.029 307.672 317.813 328.798 296.626C336.411 288.993 342.004 281.145 345.9 272.637C350.968 261.565 345.772 246.643 330.457 228.28C315.732 210.627 297.014 196.275 291.628 192.297C280.454 184.041 268.191 176.177 258.755 170.247C256.007 168.519 253.225 166.809 250.533 165.154C242.435 160.173 234.059 155.024 225.85 148.942C215.657 141.387 204.437 131.77 198.477 117.735C195.114 109.767 194.82 101.182 194.533 92.8797C194.434 89.9812 194.331 86.9834 194.099 84.0487C192.727 66.3258 171.324 62.3667 158.688 61.5832C155.1 61.3495 151.527 61.2338 147.974 61.2338ZM208.775 345C208.078 345 207.385 344.994 206.69 344.982C205.784 344.968 204.857 344.959 203.912 344.949C192.607 344.841 178.537 344.703 172.715 333.895C166.77 322.866 175.21 314.013 183.373 305.448C186.572 302.092 189.881 298.62 192.153 295.137C192.551 294.525 192.961 293.908 193.37 293.288C197.973 286.329 202.73 279.131 200.146 271.29C197.661 263.754 192.85 257.461 185.435 252.054C174.49 244.07 141.393 221.658 130.088 216.142C122.689 212.519 115.182 209.149 107.921 205.89C88.1349 197.01 69.4444 188.62 51.5981 175.107C41.8699 167.742 30.2281 155.35 30.0041 138.14C29.7791 120.874 38.7889 103.8 54.7246 91.294C69.3824 79.7547 86.0375 71.2545 104.225 66.0291C121.581 61.0405 139.931 59.1343 158.766 60.3603C165.142 60.7562 174.339 62.0152 181.915 65.7686C190.192 69.8683 194.701 75.9868 195.32 83.9526C195.553 86.9142 195.656 89.9264 195.756 92.8373C196.051 101.405 196.33 109.499 199.603 117.258C205.447 131.02 216.519 140.5 226.578 147.957C234.744 154.007 243.097 159.143 251.174 164.109C253.868 165.766 256.652 167.478 259.405 169.208C268.858 175.149 281.146 183.032 292.355 191.31C297.769 195.309 316.583 209.736 331.396 227.496C347.04 246.251 352.293 261.611 347.012 273.147C343.055 281.791 337.38 289.753 329.664 297.492C308.346 318.871 277.822 330.157 250.775 338.377C236.13 342.827 222.366 345 208.775 345Z" fill="white"/>
<path fill-rule="evenodd" clip-rule="evenodd" d="M142.449 46.2363C103.553 46.2363 66.7475 58.5151 37.7103 81.3855C19.9961 95.2923 9.97886 114.247 10.2288 133.387C10.4757 152.347 23.3751 166.057 34.1526 174.224C54.2345 189.437 75.3237 198.907 97.6493 208.931C105.876 212.627 114.384 216.449 122.778 220.558C135.69 226.862 165.072 245.77 177.406 254.772C186.025 261.062 191.625 268.4 194.526 277.203C197.652 286.686 192.085 295.104 186.703 303.245C186.241 303.945 185.783 304.64 185.331 305.331C182.694 309.375 178.908 313.351 175.246 317.195C166.329 326.555 157.108 336.231 163.388 347.884C169.613 359.444 185.11 359.595 197.562 359.717C198.633 359.727 199.686 359.736 200.715 359.754C216.725 360.012 232.922 357.589 250.213 352.329C280.672 343.068 315.034 330.364 338.96 306.359C347.584 297.707 353.92 288.814 358.332 279.171C364.116 266.531 359.61 250.704 344.94 232.131C331.207 214.745 312.499 200.138 305.093 194.666C292.444 185.319 278.562 176.41 267.88 169.692C264.77 167.739 261.624 165.802 258.579 163.929C249.412 158.29 239.934 152.457 230.643 145.573C219.115 137.023 206.422 126.143 199.685 110.267C195.887 101.259 195.552 91.5444 195.229 82.1483C195.117 78.8662 194.998 75.4723 194.739 72.1467C194.077 63.6168 189.215 57.0484 180.289 52.6247C171.907 48.47 161.682 47.0737 154.581 46.6328C150.522 46.3678 146.471 46.2363 142.449 46.2363ZM203.054 361C202.268 361 201.48 360.994 200.694 360.98C199.669 360.964 198.619 360.953 197.551 360.943C184.776 360.819 168.877 360.665 162.31 348.467C155.607 336.032 165.141 326.025 174.36 316.348C177.983 312.544 181.731 308.609 184.306 304.66C184.758 303.967 185.219 303.269 185.682 302.569C190.904 294.671 196.303 286.505 193.364 277.586C190.545 269.037 185.09 261.898 176.685 255.764C164.385 246.788 135.102 227.939 122.24 221.661C113.866 217.558 105.367 213.743 97.1483 210.051C74.7565 199.997 53.6065 190.499 33.415 175.202C22.4195 166.872 9.25781 152.858 9.00472 133.403C8.74853 113.877 18.9372 94.5657 36.9552 80.4198C53.5352 67.3596 72.3775 57.7388 92.9553 51.8225C112.591 46.1784 133.352 44.0193 154.66 45.4083C161.871 45.8555 172.268 47.2797 180.831 51.5244C190.173 56.1542 195.262 63.06 195.959 72.0504C196.221 75.4019 196.34 78.8092 196.453 82.1048C196.786 91.8177 197.102 100.99 200.813 109.789C207.436 125.391 219.978 136.135 231.371 144.587C240.617 151.44 250.075 157.257 259.219 162.884C262.267 164.757 265.417 166.697 268.531 168.653C279.231 175.382 293.139 184.306 305.821 193.679C313.265 199.181 332.075 213.867 345.9 231.369C360.879 250.334 365.436 266.588 359.445 279.682C354.971 289.459 348.554 298.47 339.827 307.225C315.71 331.421 281.173 344.197 250.57 353.503C234.003 358.541 218.43 361 203.054 361Z" fill="white"/>
<path fill-rule="evenodd" clip-rule="evenodd" d="M137.907 32.2354C94.4681 32.2354 53.3659 45.9156 20.9365 71.3955C1.14351 86.9003 -10.0491 108.031 -9.77001 129.371C-9.49197 150.513 4.92227 165.803 16.9665 174.906C39.392 191.856 62.9368 202.404 87.8646 213.572C97.05 217.686 106.549 221.94 115.916 226.518C130.685 233.711 156.283 249.105 169.622 258.818C179.233 265.816 185.477 273.976 188.711 283.766C192.188 294.295 185.985 303.657 179.986 312.708C179.469 313.488 178.957 314.262 178.453 315.033C175.513 319.532 171.289 323.956 167.203 328.235C157.23 338.678 146.918 349.476 153.952 362.497C160.922 375.41 178.247 375.577 192.167 375.714C193.363 375.725 194.537 375.736 195.685 375.754C213.57 376.047 231.656 373.341 250.965 367.482C284.976 357.165 323.347 343.012 350.067 316.265C359.701 306.624 366.779 296.713 371.709 285.965C387.156 252.291 340.358 212.924 319.521 197.562C305.394 187.146 289.897 177.225 277.972 169.745C274.501 167.568 270.987 165.411 267.589 163.325C257.355 157.045 246.775 150.551 236.406 142.884C223.545 133.367 209.384 121.256 201.87 103.593C197.632 93.5704 197.26 82.7573 196.9 72.2985C196.775 68.6421 196.643 64.8618 196.351 61.1568C195.612 51.63 190.171 44.2956 180.182 39.357C170.814 34.7243 159.39 33.1673 151.455 32.6766C146.922 32.3821 142.398 32.2354 137.907 32.2354ZM198.299 377C197.421 377 196.542 376.994 195.664 376.979C194.52 376.961 193.347 376.949 192.154 376.937C177.912 376.8 160.186 376.628 152.874 363.079C145.416 349.274 156.041 338.149 166.316 327.389C170.364 323.151 174.55 318.768 177.427 314.363C177.931 313.591 178.447 312.813 178.964 312.033C184.802 303.223 190.839 294.113 187.546 284.149C184.396 274.611 178.296 266.65 168.901 259.809C155.606 250.129 130.096 234.787 115.378 227.62C106.029 223.05 96.5404 218.799 87.3644 214.688C62.3715 203.492 38.7636 192.916 16.2275 175.883C3.96518 166.616 -10.7106 151.026 -10.9948 129.385C-11.279 107.661 0.0841007 86.1729 20.1809 70.4336C38.684 55.8939 59.71 45.182 82.673 38.5966C104.586 32.3108 127.754 29.9087 151.533 31.4543C159.577 31.9523 171.174 33.5362 180.724 38.2588C191.129 43.4029 196.797 51.0752 197.572 61.0608C197.867 64.7915 197.997 68.5863 198.123 72.2572C198.499 83.0796 198.85 93.3018 202.998 103.114C210.397 120.508 224.406 132.48 237.134 141.899C247.461 149.534 258.019 156.015 268.23 162.281C271.631 164.369 275.148 166.526 278.623 168.707C290.565 176.199 306.088 186.137 320.247 196.575C341.325 212.116 388.643 251.986 372.822 286.475C367.831 297.357 360.672 307.384 350.934 317.13C324.023 344.068 285.477 358.293 251.32 368.654C232.833 374.263 215.457 377 198.299 377Z" fill="white"/>
<path fill-rule="evenodd" clip-rule="evenodd" d="M132.315 17.2384C84.3475 17.2384 38.9605 32.3613 3.15186 60.5251C-18.7162 77.6691 -31.0783 101.036 -30.7703 124.637C-30.4653 148.027 -14.538 164.937 -1.23003 175.004C23.5293 193.736 49.525 205.394 77.0454 217.736C87.1861 222.283 97.6689 226.985 108.009 232.043C115.759 235.819 142.466 249.183 160.773 262.524C171.369 270.25 178.255 279.256 181.82 290.058C185.651 301.664 178.811 311.995 172.196 321.986C171.628 322.847 171.061 323.704 170.505 324.554C167.263 329.521 162.6 334.408 158.092 339.134C147.068 350.691 135.669 362.638 143.457 377.068C151.167 391.37 170.314 391.555 185.696 391.706C187.015 391.717 188.313 391.731 189.579 391.751C209.332 392.076 229.298 389.083 250.621 382.607C288.174 371.204 330.542 355.561 360.049 325.997C370.686 315.337 378.505 304.379 383.951 292.497C399.47 258.628 364.72 223.467 332.833 199.935C317.24 188.426 300.128 177.462 286.964 169.196C283.134 166.79 279.251 164.406 275.499 162.1C264.204 155.161 252.526 147.986 241.084 139.517C226.894 129.006 211.27 115.632 202.98 96.1267C198.308 85.0635 197.896 73.1201 197.498 61.5718C197.36 57.5297 197.217 53.351 196.893 49.255C196.076 38.7049 190.057 30.5833 179.008 25.1138C168.658 19.9918 156.037 18.2696 147.273 17.7256C142.267 17.3998 137.273 17.2384 132.315 17.2384ZM192.464 393C191.494 393 190.528 392.992 189.559 392.977C188.295 392.957 187.001 392.943 185.684 392.931C169.979 392.778 150.431 392.589 142.377 377.651C134.167 362.437 145.879 350.16 157.205 338.288C161.676 333.602 166.299 328.756 169.478 323.883C170.036 323.031 170.605 322.172 171.175 321.309C177.627 311.562 184.3 301.483 180.656 290.443C177.174 279.892 170.435 271.084 160.051 263.516C141.826 250.231 115.198 236.911 107.472 233.145C97.1489 228.094 86.6744 223.397 76.5451 218.854C48.9596 206.485 22.9019 194.799 -1.97017 175.982C-15.4952 165.75 -31.6841 148.538 -31.9942 124.654C-32.3095 100.665 -19.7747 76.9409 2.39518 59.5611C22.814 43.5 46.0176 31.6683 71.359 24.3929C95.5405 17.4484 121.11 14.7943 147.351 16.502C156.225 17.0522 169.02 18.8023 179.551 24.0143C191.016 29.6897 197.26 38.1495 198.115 49.1599C198.44 53.2817 198.584 57.4749 198.724 61.5294C199.117 72.9671 199.525 84.7956 204.108 95.6478C212.283 114.881 227.756 128.121 241.812 138.532C253.213 146.97 264.869 154.131 276.139 161.056C279.896 163.362 283.779 165.747 287.616 168.157C300.799 176.435 317.933 187.416 333.561 198.949C365.813 222.75 400.928 258.389 385.065 293.007C379.558 305.025 371.658 316.1 360.916 326.864C331.218 356.62 288.676 372.333 250.977 383.781C230.576 389.976 211.398 393 192.464 393Z" fill="white"/>
<path fill-rule="evenodd" clip-rule="evenodd" d="M126.816 3.23672C74.2956 3.23672 24.5996 19.7588 -14.6081 50.5339C-38.641 69.3343 -52.1836 94.8764 -51.7647 120.61C-51.5113 146.285 -34.0278 164.724 -19.4074 175.673C7.56714 196.202 35.9908 208.877 66.0829 222.297C77.2538 227.279 88.8032 232.429 100.186 237.985L103.191 239.445C119.67 247.45 136.709 255.725 152.023 266.565C164.023 275.529 171.335 285.077 175.051 296.623C179.357 309.304 171.419 321.165 164.418 331.629C163.827 332.509 163.243 333.383 162.669 334.251C159.121 339.731 153.976 345.117 149.002 350.325C136.978 362.912 124.544 375.928 133.057 391.671C141.574 407.433 162.717 407.584 179.704 407.705C181.025 407.714 182.324 407.724 183.594 407.739C204.644 408.161 226.51 404.893 250.44 397.75C291.818 385.023 338.417 367.724 370.247 335.897C381.209 324.938 390.017 312.617 396.43 299.277C413.625 260.029 376.09 225.428 346.355 202.817C330.703 191.657 313.806 180.358 296.138 169.236C292.237 166.802 288.288 164.383 284.467 162.042C271.816 154.295 258.736 146.286 245.919 136.82C230.391 125.342 213.295 110.739 204.226 89.4451C199.116 77.3701 198.667 64.3295 198.231 51.7175C198.078 47.3035 197.921 42.7366 197.568 38.2637C196.669 26.7175 190.072 17.8296 177.958 11.8458C166.619 6.24515 152.796 4.36243 143.195 3.76963C137.715 3.41436 132.247 3.23672 126.816 3.23672ZM187.201 409C185.988 409 184.782 408.987 183.575 408.964C182.312 408.947 181.014 408.939 179.695 408.929C162.384 408.806 140.84 408.652 131.98 392.253C123.041 375.728 135.788 362.383 148.113 349.48C153.05 344.312 158.156 338.971 161.641 333.583C162.221 332.707 162.807 331.83 163.397 330.948C170.577 320.219 178.001 309.124 173.886 297.007C170.249 285.705 163.074 276.349 151.302 267.555C136.081 256.782 119.089 248.529 102.655 240.547L99.6472 239.085C88.2829 233.539 76.7428 228.391 65.5833 223.414C35.424 209.966 6.93723 197.261 -20.148 176.649C-34.9856 165.539 -52.7318 146.796 -52.9904 120.625C-53.4155 94.5088 -39.7022 68.6082 -15.3663 49.5704C6.98067 32.0321 32.3737 19.1092 60.1075 11.1642C86.5732 3.58166 114.552 0.683746 143.274 2.54787C152.984 3.14894 166.98 5.05851 178.501 10.748C191.03 16.9373 197.858 26.1619 198.79 38.1677C199.145 42.6684 199.304 47.2487 199.457 51.6762C199.888 64.1767 200.334 77.1016 205.355 88.967C214.308 109.989 231.255 124.457 246.648 135.834C259.423 145.269 272.479 153.266 285.108 161C288.93 163.34 292.884 165.761 296.79 168.199C314.484 179.337 331.402 190.651 347.076 201.825L347.09 201.836C377.156 224.7 415.096 259.726 397.544 299.787C391.063 313.272 382.174 325.705 371.114 336.763C339.094 368.777 292.324 386.149 250.795 398.921C228.109 405.693 207.262 409 187.201 409Z" fill="white"/>
</svg>
