<svg width="58" height="57" viewBox="0 0 58 57" fill="none" xmlns="http://www.w3.org/2000/svg">
<path fill-rule="evenodd" clip-rule="evenodd" d="M44.1428 14.1669C42.9678 13.7549 41.7848 13.5479 40.5928 13.5479C39.4008 13.5479 38.2178 13.7549 37.0428 14.1669C35.8688 14.5799 34.9018 15.1519 34.1448 15.8849C33.3868 16.6169 33.0078 17.4379 33.0078 18.3479C33.0078 19.2569 33.3868 20.0779 34.1448 20.8099C34.9018 21.5429 35.8688 22.1199 37.0428 22.5409C38.2178 22.9619 39.4008 23.1719 40.5928 23.1719C41.7848 23.1719 42.9678 22.9659 44.1428 22.5529C45.3178 22.1409 46.2838 21.5639 47.0418 20.8229C47.7988 20.0819 48.1778 19.2569 48.1778 18.3479C48.1778 17.4379 47.7988 16.6169 47.0418 15.8849C46.2838 15.1519 45.3178 14.5799 44.1428 14.1669Z" fill="#0C121C"/>
<mask id="mask0_33_148" style="mask-type:alpha" maskUnits="userSpaceOnUse" x="0" y="0" width="58" height="57">
<path fill-rule="evenodd" clip-rule="evenodd" d="M0 0H57.5437V56.9158H0V0Z" fill="white"/>
</mask>
<g mask="url(#mask0_33_148)">
<path fill-rule="evenodd" clip-rule="evenodd" d="M48.764 18.878C48.764 20.983 48.317 22.688 47.423 23.993C46.529 25.298 45.452 26.22 44.193 26.759C42.932 27.298 41.732 27.567 40.592 27.567C39.451 27.567 38.251 27.298 36.991 26.759C35.731 26.22 34.654 25.298 33.76 23.993C32.866 22.688 32.419 20.983 32.419 18.878V17.842C32.419 15.737 32.866 14.032 33.76 12.727C34.654 11.422 35.731 10.5 36.991 9.961C38.251 9.422 39.451 9.153 40.592 9.153C41.749 9.153 42.954 9.422 44.205 9.961C45.457 10.5 46.529 11.418 47.423 12.715C48.317 14.011 48.764 15.72 48.764 17.842V18.878ZM48.47 47.763H32.713V44.201C32.713 42.584 33.058 41.401 33.747 40.652C34.437 39.903 35.301 39.44 36.34 39.263C37.378 39.086 38.808 38.997 40.63 38.997H44.129C45.201 38.997 46.031 38.905 46.619 38.72C47.206 38.534 47.5 38.147 47.5 37.558C47.5 37.019 47.244 36.484 46.734 35.954C46.223 35.423 45.457 34.986 44.435 34.64C43.414 34.295 42.179 34.122 40.732 34.122C38.995 34.122 37.629 34.358 36.633 34.83C35.637 35.301 34.841 35.991 34.245 36.901L33.377 36.674C33.377 35.546 33.709 34.442 34.373 33.365C35.037 32.287 35.952 31.407 37.118 30.725C38.284 30.043 39.591 29.702 41.039 29.702C42.622 29.702 43.958 30.085 45.048 30.851C46.137 31.618 46.946 32.552 47.474 33.655C48.002 34.758 48.266 35.806 48.266 36.8C48.266 37.676 48.083 38.328 47.717 38.757C47.351 39.187 46.87 39.457 46.274 39.566C45.678 39.676 44.878 39.73 43.873 39.73H40.732C39.183 39.73 37.88 39.802 36.825 39.945C35.769 40.088 34.994 40.395 34.501 40.867C34.194 41.17 33.96 41.566 33.798 42.054C33.636 42.542 33.556 42.963 33.556 43.317L48.47 43.342V47.763ZM27.039 47.763H23.438C21.804 47.763 20.608 47.422 19.85 46.74C19.093 46.058 18.625 45.203 18.446 44.176C18.267 43.149 18.178 41.734 18.178 39.932V36.472C18.178 35.411 18.084 34.59 17.897 34.009C17.709 33.428 17.318 33.137 16.722 33.137C16.177 33.137 15.637 33.39 15.1 33.895C14.564 34.4 14.121 35.158 13.772 36.168C13.423 37.179 13.249 38.4 13.249 39.831C13.249 41.549 13.487 42.9 13.964 43.885C14.441 44.87 15.138 45.658 16.058 46.247L15.828 47.106C14.688 47.106 13.572 46.778 12.482 46.121C11.393 45.464 10.503 44.559 9.814 43.405C9.124 42.252 8.78 40.959 8.78 39.528C8.78 37.962 9.167 36.64 9.941 35.562C10.716 34.485 11.661 33.685 12.776 33.162C13.891 32.641 14.951 32.379 15.956 32.379C16.841 32.379 17.501 32.561 17.935 32.923C18.369 33.285 18.642 33.76 18.752 34.35C18.863 34.939 18.918 35.731 18.918 36.724V39.831C18.918 41.364 18.991 42.652 19.135 43.696C19.28 44.74 19.591 45.506 20.067 45.994C20.374 46.298 20.774 46.529 21.268 46.689C21.762 46.849 22.187 46.929 22.545 46.929L22.57 32.177H27.039V47.763ZM10.031 23.652C10.031 22.035 10.376 20.852 11.065 20.103C11.755 19.354 12.619 18.891 13.657 18.714C14.696 18.537 16.126 18.449 17.948 18.449H21.447C22.519 18.449 23.349 18.356 23.937 18.171C24.524 17.985 24.818 17.598 24.818 17.009C24.818 16.47 24.562 15.935 24.051 15.405C23.541 14.874 22.775 14.437 21.753 14.091C20.731 13.746 19.497 13.573 18.05 13.573C16.313 13.573 14.947 13.809 13.951 14.281C12.955 14.752 12.159 15.443 11.563 16.352L10.695 16.125C10.695 14.997 11.027 13.893 11.691 12.816C12.355 11.738 13.27 10.858 14.436 10.176C15.602 9.494 16.909 9.153 18.356 9.153C19.94 9.153 21.276 9.536 22.366 10.302C23.455 11.069 24.264 12.003 24.792 13.106C25.32 14.209 25.584 15.257 25.584 16.251C25.584 17.127 25.401 17.779 25.035 18.209C24.668 18.638 24.188 18.908 23.592 19.017C22.996 19.127 22.196 19.181 21.191 19.181H18.05C16.5 19.181 15.198 19.253 14.143 19.396C13.087 19.539 12.312 19.847 11.819 20.318C11.512 20.621 11.278 21.017 11.116 21.505C10.954 21.993 10.874 22.414 10.874 22.768L25.788 22.793V27.214H10.031V23.652ZM0 56.916H57.544V0H0V56.916Z" fill="#0C121C"/>
</g>
</svg>
