<svg width="565" height="120" viewBox="0 0 565 120" fill="none" xmlns="http://www.w3.org/2000/svg">
<path fill-rule="evenodd" clip-rule="evenodd" d="M467.977 2.03735H465.108L405.256 2.03735H402.831C402.351 2.32683 401.905 2.62763 401.496 2.94298C400.705 3.55104 400.071 4.206 399.672 4.90301C397.711 8.32659 394.516 10.9108 390.313 12.5167C389.401 12.8644 388.439 13.1684 387.433 13.4207H390.902L451.049 13.4207L453.624 13.4207C454.159 13.1361 454.674 12.8369 455.168 12.5167C457.618 10.9351 459.557 8.93627 460.919 6.56062C461.715 5.16822 463.628 3.94887 465.808 2.94298C466.513 2.61792 467.246 2.31551 467.977 2.03735" fill="#E0C071"/>
<path fill-rule="evenodd" clip-rule="evenodd" d="M564.977 2.03735H562.108L502.256 2.03735H499.831C499.351 2.32683 498.905 2.62763 498.496 2.94298C497.705 3.55104 497.071 4.206 496.672 4.90301C494.711 8.32659 491.516 10.9108 487.313 12.5167C486.401 12.8644 485.439 13.1684 484.433 13.4207H487.902L548.049 13.4207L550.624 13.4207C551.159 13.1361 551.674 12.8369 552.168 12.5167C554.618 10.9351 556.557 8.93627 557.919 6.56062C558.715 5.16822 560.628 3.94887 562.808 2.94298C563.513 2.61792 564.246 2.31551 564.977 2.03735" fill="#E0C071"/>
<path fill-rule="evenodd" clip-rule="evenodd" d="M399.672 25.507C400.071 26.2072 400.707 26.8606 401.496 27.4686C401.905 27.7824 402.351 28.0864 402.831 28.3726H405.256L465.108 28.3726H467.977C467.246 28.0961 466.513 27.7921 465.808 27.4686C463.628 26.4627 461.715 25.2434 460.919 23.851C459.557 21.4753 457.618 19.4749 455.168 17.8949C454.675 17.5747 454.159 17.2739 453.624 16.9893H451.049L390.902 16.9893H387.434C388.44 17.2432 389.401 17.5456 390.313 17.8949C394.516 19.4991 397.711 22.085 399.672 25.507" fill="#E0C071"/>
<path fill-rule="evenodd" clip-rule="evenodd" d="M496.672 25.507C497.071 26.2072 497.707 26.8606 498.496 27.4686C498.905 27.7824 499.351 28.0864 499.831 28.3726H502.256L562.108 28.3726H564.977C564.246 28.0961 563.513 27.7921 562.808 27.4686C560.628 26.4627 558.715 25.2434 557.919 23.851C556.557 21.4753 554.618 19.4749 552.168 17.8949C551.675 17.5747 551.159 17.2739 550.624 16.9893H548.049L487.902 16.9893H484.434C485.44 17.2432 486.401 17.5456 487.313 17.8949C491.516 19.4991 494.711 22.085 496.672 25.507" fill="#E0C071"/>
<path fill-rule="evenodd" clip-rule="evenodd" d="M467.977 47.8491H465.108L405.256 47.8491H402.831C402.351 48.1402 401.905 48.4394 401.496 48.7564C400.705 49.3628 400.071 50.0178 399.672 50.7148C397.711 54.1384 394.516 56.7242 390.313 58.3285C389.401 58.6762 388.439 58.9802 387.433 59.2357H390.902L451.049 59.2357H453.624C454.159 58.9495 454.674 58.6487 455.168 58.3285C457.618 56.7469 459.557 54.748 460.919 52.3724C461.715 50.98 463.628 49.7606 465.808 48.7564C466.513 48.4297 467.246 48.1273 467.977 47.8491" fill="#E0C071"/>
<path fill-rule="evenodd" clip-rule="evenodd" d="M564.977 47.8491H562.108L502.256 47.8491H499.831C499.351 48.1402 498.905 48.4394 498.496 48.7564C497.705 49.3628 497.071 50.0178 496.672 50.7148C494.711 54.1384 491.516 56.7242 487.313 58.3285C486.401 58.6762 485.439 58.9802 484.433 59.2357H487.902L548.049 59.2357H550.624C551.159 58.9495 551.674 58.6487 552.168 58.3285C554.618 56.7469 556.557 54.748 557.919 52.3724C558.715 50.98 560.628 49.7606 562.808 48.7564C563.513 48.4297 564.246 48.1273 564.977 47.8491" fill="#E0C071"/>
<path fill-rule="evenodd" clip-rule="evenodd" d="M453.624 62.8018H451.049L390.902 62.8018H387.433C388.439 63.0557 389.401 63.3581 390.313 63.7074C394.516 65.3132 397.711 67.8975 399.672 71.3211C400.071 72.0181 400.705 72.6731 401.496 73.2811C401.905 73.5949 402.351 73.8973 402.831 74.1867H405.256H465.108H467.977C467.246 73.907 466.513 73.6078 465.808 73.2811C463.628 72.2752 461.715 71.0559 460.919 69.6651C459.557 67.2878 457.618 65.2874 455.168 63.7074C454.674 63.3872 454.159 63.0864 453.624 62.8018" fill="#E0C071"/>
<path fill-rule="evenodd" clip-rule="evenodd" d="M550.624 62.8018H548.049L487.902 62.8018H484.433C485.439 63.0557 486.401 63.3581 487.313 63.7074C491.516 65.3132 494.711 67.8975 496.672 71.3211C497.071 72.0181 497.705 72.6731 498.496 73.2811C498.905 73.5949 499.351 73.8973 499.831 74.1867H502.256H562.108H564.977C564.246 73.907 563.513 73.6078 562.808 73.2811C560.628 72.2752 558.715 71.0559 557.919 69.6651C556.557 67.2878 554.618 65.2874 552.168 63.7074C551.674 63.3872 551.159 63.0864 550.624 62.8018" fill="#E0C071"/>
<path fill-rule="evenodd" clip-rule="evenodd" d="M460.919 98.184C461.715 96.7948 463.628 95.5739 465.808 94.568C466.513 94.2429 467.246 93.9421 467.977 93.6624H465.108H405.256H402.831C402.351 93.9518 401.905 94.2542 401.496 94.568C400.707 95.1777 400.071 95.831 399.672 96.5296C397.711 99.9532 394.516 102.536 390.313 104.142C389.401 104.489 388.44 104.793 387.434 105.047H390.902H451.049H453.624C454.159 104.763 454.675 104.462 455.168 104.142C457.618 102.562 459.557 100.561 460.919 98.184" fill="#E0C071"/>
<path fill-rule="evenodd" clip-rule="evenodd" d="M557.919 98.184C558.715 96.7948 560.628 95.5739 562.808 94.568C563.513 94.2429 564.246 93.9421 564.977 93.6624H562.108H502.256H499.831C499.351 93.9518 498.905 94.2542 498.496 94.568C497.707 95.1777 497.071 95.831 496.672 96.5296C494.711 99.9532 491.516 102.536 487.313 104.142C486.401 104.489 485.44 104.793 484.434 105.047H487.902H548.049H550.624C551.159 104.763 551.675 104.462 552.168 104.142C554.618 102.562 556.557 100.561 557.919 98.184" fill="#E0C071"/>
<mask id="mask0_1_188" style="mask-type:alpha" maskUnits="userSpaceOnUse" x="387" y="108" width="81" height="12">
<path fill-rule="evenodd" clip-rule="evenodd" d="M467.977 108.615V120H387.434V108.615H467.977Z" fill="white"/>
</mask>
<g mask="url(#mask0_1_188)">
<path fill-rule="evenodd" clip-rule="evenodd" d="M460.919 115.477C459.557 113.102 457.618 111.101 455.168 109.519C454.675 109.201 454.159 108.9 453.624 108.615H451.049H390.902H387.434C388.44 108.869 389.401 109.172 390.313 109.519C394.516 111.125 397.711 113.71 399.672 117.132C400.071 117.83 400.707 118.485 401.496 119.093C401.905 119.41 402.351 119.709 402.831 120H405.256H465.108H467.977C467.246 119.721 466.513 119.42 465.808 119.093C463.628 118.089 461.715 116.868 460.919 115.477" fill="#E0C071"/>
</g>
<mask id="mask1_1_188" style="mask-type:alpha" maskUnits="userSpaceOnUse" x="484" y="108" width="81" height="12">
<path fill-rule="evenodd" clip-rule="evenodd" d="M564.977 108.615V120H484.434V108.615H564.977Z" fill="white"/>
</mask>
<g mask="url(#mask1_1_188)">
<path fill-rule="evenodd" clip-rule="evenodd" d="M557.919 115.477C556.557 113.102 554.618 111.101 552.168 109.519C551.675 109.201 551.159 108.9 550.624 108.615H548.049H487.902H484.434C485.44 108.869 486.401 109.172 487.313 109.519C491.516 111.125 494.711 113.71 496.672 117.132C497.071 117.83 497.707 118.485 498.496 119.093C498.905 119.41 499.351 119.709 499.831 120H502.256H562.108H564.977C564.246 119.721 563.513 119.42 562.808 119.093C560.628 118.089 558.715 116.868 557.919 115.477" fill="#E0C071"/>
</g>
<path fill-rule="evenodd" clip-rule="evenodd" d="M368.393 1.01855L308.541 1.01855L306.115 1.01855C305.636 1.30803 305.187 1.61044 304.779 1.92418C303.99 2.53386 303.356 3.1872 302.957 3.88582C300.997 7.30941 297.799 9.89205 293.598 11.4979C292.684 11.8472 291.724 12.1496 290.718 12.4035H294.185L354.335 12.4035L356.908 12.4035C357.443 12.1189 357.957 11.8181 358.454 11.4979C360.902 9.91793 362.843 7.91747 364.203 5.54182C365 4.15104 366.913 2.93007 369.093 1.92418C369.798 1.59912 370.529 1.29833 371.262 1.01855L368.393 1.01855Z" fill="#E0C071" stroke="#E0C071"/>
<path fill-rule="evenodd" clip-rule="evenodd" d="M356.908 15.9714L354.335 15.9714L294.185 15.9714H290.718C291.724 16.2253 292.684 16.5294 293.598 16.8771C297.799 18.4813 300.997 21.0656 302.957 24.4892C303.356 25.1878 303.99 25.8427 304.779 26.4492C305.187 26.7661 305.636 27.0653 306.115 27.3564H308.541L368.393 27.3564H371.262C370.529 27.0766 369.798 26.7759 369.093 26.4492C366.913 25.4449 365 24.2255 364.203 22.8332C362.843 20.4575 360.902 18.4587 358.454 16.8771C357.957 16.5569 357.443 16.2561 356.908 15.9714" fill="#E0C071"/>
<path fill-rule="evenodd" clip-rule="evenodd" d="M371.262 46.832H368.393L308.541 46.832H306.115C305.636 47.1215 305.187 47.4223 304.779 47.7377C303.99 48.3457 303.356 48.9991 302.957 49.6993C300.997 53.1213 297.799 55.7055 293.598 57.3114C292.684 57.6591 291.724 57.9631 290.718 58.2154H294.185L354.335 58.2154H356.908C357.443 57.9308 357.957 57.6316 358.454 57.3114C360.902 55.7298 362.843 53.7309 364.203 51.3537C365 49.9629 366.913 48.7435 369.093 47.7377C369.798 47.4126 370.529 47.1102 371.262 46.832" fill="#E0C071"/>
<path fill-rule="evenodd" clip-rule="evenodd" d="M356.908 61.7832H354.335L294.185 61.7832H290.718C291.724 62.0371 292.684 62.3411 293.598 62.6904C297.799 64.2947 300.997 66.879 302.957 70.3042C303.356 71.0012 303.99 71.6561 304.779 72.2626C305.187 72.5779 305.636 72.8787 306.115 73.1682H308.541H368.393H371.262C370.529 72.89 369.798 72.5876 369.093 72.2626C366.913 71.2567 365 70.0389 364.203 68.6449C362.843 66.2693 360.902 64.2704 358.454 62.6904C357.957 62.3686 357.443 62.0694 356.908 61.7832" fill="#E0C071"/>
<path fill-rule="evenodd" clip-rule="evenodd" d="M364.203 97.1671C365 95.7763 366.913 94.5553 369.093 93.551C369.798 93.2244 370.529 92.9236 371.262 92.6438H368.393H308.541H306.115C305.636 92.9349 305.187 93.2341 304.779 93.551C303.992 94.1591 303.356 94.8141 302.957 95.5127C300.997 98.933 297.799 101.519 293.598 103.125C292.684 103.472 291.725 103.775 290.719 104.029H294.185H354.335H356.908C357.443 103.744 357.959 103.443 358.454 103.125C360.902 101.543 362.843 99.5427 364.203 97.1671" fill="#E0C071"/>
<path fill-rule="evenodd" clip-rule="evenodd" d="M364.203 114.46C362.843 112.081 360.902 110.083 358.454 108.503C357.959 108.182 357.443 107.882 356.908 107.597H354.335H294.185H290.719C291.725 107.851 292.684 108.153 293.598 108.503C297.799 110.108 300.997 112.691 302.957 116.115C303.356 116.813 303.992 117.467 304.779 118.076C305.187 118.39 305.636 118.692 306.115 118.982H308.541H368.393H371.262C370.529 118.702 369.798 118.4 369.093 118.076C366.913 117.07 365 115.849 364.203 114.46" fill="#E0C071"/>
<mask id="mask2_1_188" style="mask-type:alpha" maskUnits="userSpaceOnUse" x="194" y="0" width="81" height="12">
<path fill-rule="evenodd" clip-rule="evenodd" d="M274.543 0V11.3866L194 11.3866V0L274.543 0Z" fill="white"/>
</mask>
<g mask="url(#mask2_1_188)">
<path fill-rule="evenodd" clip-rule="evenodd" d="M274.543 0L271.674 0L211.824 0L209.396 0C208.918 0.291093 208.471 0.59189 208.062 0.907241C207.271 1.51369 206.637 2.17026 206.238 2.86727C204.278 6.28923 201.082 8.87511 196.881 10.4794C195.967 10.8287 195.005 11.1311 193.999 11.3866H197.468L257.616 11.3866L260.19 11.3866C260.724 11.1004 261.242 10.7996 261.736 10.4794C264.185 8.89937 266.124 6.89891 267.486 4.52327C268.283 3.13087 270.194 1.91151 272.374 0.907241C273.079 0.58057 273.81 0.279773 274.543 0" fill="#E0C071"/>
</g>
<mask id="mask3_1_188" style="mask-type:alpha" maskUnits="userSpaceOnUse" x="97" y="0" width="81" height="12">
<path fill-rule="evenodd" clip-rule="evenodd" d="M177.543 0V11.3866L96.9997 11.3866V0L177.543 0Z" fill="white"/>
</mask>
<g mask="url(#mask3_1_188)">
<path fill-rule="evenodd" clip-rule="evenodd" d="M177.543 0L174.674 0L114.824 0L112.396 0C111.918 0.291093 111.471 0.59189 111.062 0.907241C110.271 1.51369 109.637 2.17026 109.238 2.86727C107.278 6.28923 104.082 8.87511 99.8809 10.4794C98.9672 10.8287 98.0049 11.1311 96.9991 11.3866H100.468L160.616 11.3866L163.19 11.3866C163.724 11.1004 164.242 10.7996 164.736 10.4794C167.185 8.89937 169.124 6.89891 170.486 4.52327C171.283 3.13087 173.194 1.91151 175.374 0.907241C176.079 0.58057 176.81 0.279773 177.543 0" fill="#E0C071"/>
</g>
<mask id="mask4_1_188" style="mask-type:alpha" maskUnits="userSpaceOnUse" x="0" y="0" width="81" height="12">
<path fill-rule="evenodd" clip-rule="evenodd" d="M80.543 0V11.3866L-0.000297546 11.3866V0L80.543 0Z" fill="white"/>
</mask>
<g mask="url(#mask4_1_188)">
<path fill-rule="evenodd" clip-rule="evenodd" d="M80.543 0L77.6741 0L17.8237 0L15.3963 0C14.9176 0.291093 14.4712 0.59189 14.0621 0.907241C13.2713 1.51369 12.6374 2.17026 12.2379 2.86727C10.2779 6.28923 7.08233 8.87511 2.88088 10.4794C1.96717 10.8287 1.00494 11.1311 -0.000946045 11.3866H3.46792L63.6159 11.3866L66.1904 11.3866C66.7241 11.1004 67.2416 10.7996 67.7365 10.4794C70.1849 8.89937 72.1239 6.89891 73.4856 4.52327C74.2828 3.13087 76.1944 1.91151 78.3743 0.907241C79.0794 0.58057 79.8104 0.279773 80.543 0" fill="#E0C071"/>
</g>
<mask id="mask5_1_188" style="mask-type:alpha" maskUnits="userSpaceOnUse" x="194" y="14" width="81" height="13">
<path fill-rule="evenodd" clip-rule="evenodd" d="M274.543 14.9526V26.3376L194 26.3376V14.9526L274.543 14.9526Z" fill="white"/>
</mask>
<g mask="url(#mask5_1_188)">
<path fill-rule="evenodd" clip-rule="evenodd" d="M260.19 14.9526L257.616 14.9526L197.468 14.9526H193.999C195.005 15.2065 195.967 15.5089 196.881 15.8599C201.082 17.4641 204.278 20.0484 206.238 23.472C206.637 24.169 207.271 24.8239 208.062 25.432C208.471 25.7457 208.918 26.0481 209.396 26.3376H211.824L271.674 26.3376H274.543C273.81 26.0595 273.079 25.7587 272.374 25.432C270.194 24.4261 268.283 23.2068 267.486 21.816C266.124 19.4387 264.185 17.4383 261.736 15.8599C261.242 15.5397 260.724 15.2373 260.19 14.9526" fill="#E0C071"/>
</g>
<mask id="mask6_1_188" style="mask-type:alpha" maskUnits="userSpaceOnUse" x="97" y="14" width="81" height="13">
<path fill-rule="evenodd" clip-rule="evenodd" d="M177.543 14.9526V26.3376L96.9997 26.3376V14.9526L177.543 14.9526Z" fill="white"/>
</mask>
<g mask="url(#mask6_1_188)">
<path fill-rule="evenodd" clip-rule="evenodd" d="M163.19 14.9526L160.616 14.9526L100.468 14.9526H96.9991C98.0049 15.2065 98.9672 15.5089 99.8809 15.8599C104.082 17.4641 107.278 20.0484 109.238 23.472C109.637 24.169 110.271 24.8239 111.062 25.432C111.471 25.7457 111.918 26.0481 112.396 26.3376H114.824L174.674 26.3376H177.543C176.81 26.0595 176.079 25.7587 175.374 25.432C173.194 24.4261 171.283 23.2068 170.486 21.816C169.124 19.4387 167.185 17.4383 164.736 15.8599C164.242 15.5397 163.724 15.2373 163.19 14.9526" fill="#E0C071"/>
</g>
<mask id="mask7_1_188" style="mask-type:alpha" maskUnits="userSpaceOnUse" x="0" y="14" width="81" height="13">
<path fill-rule="evenodd" clip-rule="evenodd" d="M80.543 14.9526V26.3376L-0.000297546 26.3376V14.9526L80.543 14.9526Z" fill="white"/>
</mask>
<g mask="url(#mask7_1_188)">
<path fill-rule="evenodd" clip-rule="evenodd" d="M66.1904 14.9526L63.6159 14.9526L3.46792 14.9526H-0.000946045C1.00494 15.2065 1.96717 15.5089 2.88088 15.8599C7.08233 17.4641 10.2779 20.0484 12.2379 23.472C12.6374 24.169 13.2713 24.8239 14.0621 25.432C14.4712 25.7457 14.9176 26.0481 15.3963 26.3376H17.8237L77.6741 26.3376H80.543C79.8104 26.0595 79.0794 25.7587 78.3743 25.432C76.1944 24.4261 74.2828 23.2068 73.4856 21.816C72.1239 19.4387 70.1849 17.4383 67.7365 15.8599C67.2416 15.5397 66.7241 15.2373 66.1904 14.9526" fill="#E0C071"/>
</g>
<mask id="mask8_1_188" style="mask-type:alpha" maskUnits="userSpaceOnUse" x="194" y="45" width="81" height="13">
<path fill-rule="evenodd" clip-rule="evenodd" d="M274.543 45.8135V57.1985L194 57.1985V45.8135L274.543 45.8135Z" fill="white"/>
</mask>
<g mask="url(#mask8_1_188)">
<path fill-rule="evenodd" clip-rule="evenodd" d="M274.543 45.8135H271.674L211.824 45.8135H209.396C208.918 46.103 208.471 46.4054 208.062 46.7191C207.271 47.3272 206.637 47.9821 206.238 48.6807C204.278 52.1043 201.082 54.687 196.881 56.2928C195.967 56.6421 195.005 56.9446 193.999 57.1985H197.468L257.616 57.1985H260.19C260.724 56.9138 261.242 56.613 261.736 56.2928C264.185 54.7128 266.124 52.714 267.486 50.3367C268.283 48.9443 270.194 47.725 272.374 46.7191C273.079 46.394 273.81 46.0932 274.543 45.8135" fill="#E0C071"/>
</g>
<mask id="mask9_1_188" style="mask-type:alpha" maskUnits="userSpaceOnUse" x="97" y="45" width="81" height="13">
<path fill-rule="evenodd" clip-rule="evenodd" d="M177.543 45.8135V57.1985L96.9997 57.1985V45.8135L177.543 45.8135Z" fill="white"/>
</mask>
<g mask="url(#mask9_1_188)">
<path fill-rule="evenodd" clip-rule="evenodd" d="M177.543 45.8135H174.674L114.824 45.8135H112.396C111.918 46.103 111.471 46.4054 111.062 46.7191C110.271 47.3272 109.637 47.9821 109.238 48.6807C107.278 52.1043 104.082 54.687 99.8809 56.2928C98.9672 56.6421 98.0049 56.9446 96.9991 57.1985H100.468L160.616 57.1985H163.19C163.724 56.9138 164.242 56.613 164.736 56.2928C167.185 54.7128 169.124 52.714 170.486 50.3367C171.283 48.9443 173.194 47.725 175.374 46.7191C176.079 46.394 176.81 46.0932 177.543 45.8135" fill="#E0C071"/>
</g>
<mask id="mask10_1_188" style="mask-type:alpha" maskUnits="userSpaceOnUse" x="0" y="45" width="81" height="13">
<path fill-rule="evenodd" clip-rule="evenodd" d="M80.543 45.8135V57.1985L-0.000297546 57.1985V45.8135L80.543 45.8135Z" fill="white"/>
</mask>
<g mask="url(#mask10_1_188)">
<path fill-rule="evenodd" clip-rule="evenodd" d="M80.543 45.8135H77.6741L17.8237 45.8135H15.3963C14.9176 46.103 14.4712 46.4054 14.0621 46.7191C13.2713 47.3272 12.6374 47.9821 12.2379 48.6807C10.2779 52.1043 7.08233 54.687 2.88088 56.2928C1.96717 56.6421 1.00494 56.9446 -0.000946045 57.1985H3.46792L63.6159 57.1985H66.1904C66.7241 56.9138 67.2416 56.613 67.7365 56.2928C70.1849 54.7128 72.1239 52.714 73.4856 50.3367C74.2828 48.9443 76.1944 47.725 78.3743 46.7191C79.0794 46.394 79.8104 46.0932 80.543 45.8135" fill="#E0C071"/>
</g>
<mask id="mask11_1_188" style="mask-type:alpha" maskUnits="userSpaceOnUse" x="194" y="60" width="81" height="13">
<path fill-rule="evenodd" clip-rule="evenodd" d="M274.543 60.7661V72.1511H194V60.7661L274.543 60.7661Z" fill="white"/>
</mask>
<g mask="url(#mask11_1_188)">
<path fill-rule="evenodd" clip-rule="evenodd" d="M260.19 60.7661H257.616L197.468 60.7661H193.999C195.005 61.02 195.967 61.324 196.881 61.6717C201.082 63.276 204.278 65.8619 206.238 69.2838C206.637 69.9808 207.271 70.6374 208.062 71.2455C208.471 71.5608 208.918 71.86 209.396 72.1511H211.824H271.674H274.543C273.81 71.8729 273.079 71.5705 272.374 71.2455C270.194 70.2396 268.283 69.0202 267.486 67.6278C266.124 65.2522 264.185 63.2517 261.736 61.6717C261.242 61.3515 260.724 61.0507 260.19 60.7661" fill="#E0C071"/>
</g>
<mask id="mask12_1_188" style="mask-type:alpha" maskUnits="userSpaceOnUse" x="97" y="60" width="81" height="13">
<path fill-rule="evenodd" clip-rule="evenodd" d="M177.543 60.7661V72.1511H96.9997V60.7661L177.543 60.7661Z" fill="white"/>
</mask>
<g mask="url(#mask12_1_188)">
<path fill-rule="evenodd" clip-rule="evenodd" d="M163.19 60.7661H160.616L100.468 60.7661H96.9991C98.0049 61.02 98.9672 61.324 99.8809 61.6717C104.082 63.276 107.278 65.8619 109.238 69.2838C109.637 69.9808 110.271 70.6374 111.062 71.2455C111.471 71.5608 111.918 71.86 112.396 72.1511H114.824H174.674H177.543C176.81 71.8729 176.079 71.5705 175.374 71.2455C173.194 70.2396 171.283 69.0202 170.486 67.6278C169.124 65.2522 167.185 63.2517 164.736 61.6717C164.242 61.3515 163.724 61.0507 163.19 60.7661" fill="#E0C071"/>
</g>
<mask id="mask13_1_188" style="mask-type:alpha" maskUnits="userSpaceOnUse" x="0" y="60" width="81" height="13">
<path fill-rule="evenodd" clip-rule="evenodd" d="M80.543 60.7661V72.1511H-0.000297546V60.7661L80.543 60.7661Z" fill="white"/>
</mask>
<g mask="url(#mask13_1_188)">
<path fill-rule="evenodd" clip-rule="evenodd" d="M66.1904 60.7661H63.6159L3.46792 60.7661H-0.000946045C1.00494 61.02 1.96717 61.324 2.88088 61.6717C7.08233 63.276 10.2779 65.8619 12.2379 69.2838C12.6374 69.9808 13.2713 70.6374 14.0621 71.2455C14.4712 71.5608 14.9176 71.86 15.3963 72.1511H17.8237H77.6741H80.543C79.8104 71.8729 79.0794 71.5705 78.3743 71.2455C76.1944 70.2396 74.2828 69.0202 73.4856 67.6278C72.1239 65.2522 70.1849 63.2517 67.7365 61.6717C67.2416 61.3515 66.7241 61.0507 66.1904 60.7661" fill="#E0C071"/>
</g>
<path fill-rule="evenodd" clip-rule="evenodd" d="M267.486 96.15C268.283 94.7576 270.194 93.5382 272.374 92.5323C273.079 92.2073 273.81 91.9049 274.543 91.6267H271.674H211.824H209.396C208.918 91.9162 208.471 92.217 208.062 92.5323C207.273 93.1404 206.637 93.7937 206.238 94.4924C204.278 97.9159 201.082 100.5 196.881 102.106C195.967 102.454 195.007 102.758 194.001 103.012H197.468H257.616H260.19C260.724 102.725 261.242 102.425 261.736 102.106C264.185 100.524 266.124 98.5256 267.486 96.15" fill="#E0C071"/>
<path fill-rule="evenodd" clip-rule="evenodd" d="M170.486 96.15C171.283 94.7576 173.194 93.5382 175.374 92.5323C176.079 92.2073 176.81 91.9049 177.543 91.6267H174.674H114.824H112.396C111.918 91.9162 111.471 92.217 111.062 92.5323C110.273 93.1404 109.637 93.7937 109.238 94.4924C107.278 97.9159 104.082 100.5 99.8809 102.106C98.9672 102.454 98.0066 102.758 97.0007 103.012H100.468H160.616H163.19C163.724 102.725 164.242 102.425 164.736 102.106C167.185 100.524 169.124 98.5256 170.486 96.15" fill="#E0C071"/>
<path fill-rule="evenodd" clip-rule="evenodd" d="M73.4856 96.15C74.2828 94.7576 76.1944 93.5382 78.3743 92.5323C79.0794 92.2073 79.8104 91.9049 80.543 91.6267H77.6741H17.8237H15.3963C14.9176 91.9162 14.4712 92.217 14.0621 92.5323C13.2729 93.1404 12.6374 93.7937 12.2379 94.4924C10.2779 97.9159 7.08233 100.5 2.88088 102.106C1.96717 102.454 1.00656 102.758 0.000671387 103.012H3.46792H63.6159H66.1904C66.7241 102.725 67.2416 102.425 67.7365 102.106C70.1849 100.524 72.1239 98.5256 73.4856 96.15" fill="#E0C071"/>
<path fill-rule="evenodd" clip-rule="evenodd" d="M267.486 113.44C266.124 111.064 264.185 109.065 261.736 107.484C261.242 107.165 260.724 106.864 260.19 106.578H257.616H197.468H194.001C195.007 106.832 195.967 107.136 196.881 107.484C201.082 109.09 204.278 111.674 206.238 115.097C206.637 115.796 207.273 116.449 208.062 117.056C208.471 117.373 208.918 117.674 209.396 117.963H211.824H271.674H274.543C273.81 117.685 273.079 117.383 272.374 117.056C270.194 116.052 268.283 114.832 267.486 113.44" fill="#E0C071"/>
<path fill-rule="evenodd" clip-rule="evenodd" d="M170.486 113.44C169.124 111.064 167.185 109.065 164.736 107.484C164.242 107.165 163.724 106.864 163.19 106.578H160.616H100.468H97.0007C98.0066 106.832 98.9672 107.136 99.8809 107.484C104.082 109.09 107.278 111.674 109.238 115.097C109.637 115.796 110.273 116.449 111.062 117.056C111.471 117.373 111.918 117.674 112.396 117.963H114.824H174.674H177.543C176.81 117.685 176.079 117.383 175.374 117.056C173.194 116.052 171.283 114.832 170.486 113.44" fill="#E0C071"/>
<path fill-rule="evenodd" clip-rule="evenodd" d="M73.4856 113.44C72.1239 111.064 70.1849 109.065 67.7365 107.484C67.2416 107.165 66.7241 106.864 66.1904 106.578H63.6159H3.46792H0.000671387C1.00656 106.832 1.96717 107.136 2.88088 107.484C7.08233 109.09 10.2779 111.674 12.2379 115.097C12.6374 115.796 13.2729 116.449 14.0621 117.056C14.4712 117.373 14.9176 117.674 15.3963 117.963H17.8237H77.6741H80.543C79.8104 117.685 79.0794 117.383 78.3743 117.056C76.1944 116.052 74.2828 114.832 73.4856 113.44" fill="#E0C071"/>
</svg>
