<svg width="633" height="198" viewBox="0 0 633 198" fill="none" xmlns="http://www.w3.org/2000/svg">
<path fill-rule="evenodd" clip-rule="evenodd" d="M96.0014 0L49 27.082V82.915L96.0014 110L143 82.915V27.082L96.0014 0ZM52.7822 80.7181V29.2795L96.0013 4.37626L139.218 29.2792V80.7181L96.0013 105.623L52.7822 80.7181Z" fill="#AC854F"/>
<path fill-rule="evenodd" clip-rule="evenodd" d="M63.4821 73.8263L96.0009 92.5184L128.518 73.8263V35.1713L96.0009 16.4816L63.4821 35.1715V73.8263ZM96.0009 100L57 77.5824V31.4152L96.0009 9L135 31.4155V77.5824L96.0009 100Z" fill="#AC854F"/>
<path fill-rule="evenodd" clip-rule="evenodd" d="M104.818 42.9382C103.994 44.4997 97.5059 51.385 97.5059 51.385L97.3233 45.4167C97.3233 45.4167 97.0495 43.2133 95.726 43.2133C94.3999 43.2133 94.1261 45.4167 94.1261 45.4167L93.9435 51.385C93.9435 51.385 87.4552 44.4997 86.631 42.9382C85.8096 41.3767 87.0901 36.5115 91.6591 37.5201C90.8349 31.4628 95.726 32.013 95.726 32.013C95.726 32.013 100.614 31.4628 99.7904 37.5201C104.359 36.5115 105.64 41.3767 104.818 42.9382" fill="#AC854F"/>
<path fill-rule="evenodd" clip-rule="evenodd" d="M104.818 66.0617C103.994 64.5002 97.5059 57.615 97.5059 57.615L97.3233 63.5833C97.3233 63.5833 97.0495 65.7867 95.726 65.7867C94.3999 65.7867 94.1261 63.5833 94.1261 63.5833L93.9435 57.615C93.9435 57.615 87.4552 64.5002 86.631 66.0617C85.8096 67.6233 87.0901 72.4885 91.6591 71.4799C90.8349 77.5371 95.726 76.987 95.726 76.987C95.726 76.987 100.614 77.5371 99.7904 71.4799C104.359 72.4885 105.64 67.6233 104.818 66.0617" fill="#AC854F"/>
<path fill-rule="evenodd" clip-rule="evenodd" d="M82.2763 63.6195C84.0287 62.7916 91.7562 56.2731 91.7562 56.2731L85.0579 56.0897C85.0579 56.0897 82.585 55.8147 82.585 54.4851C82.585 53.1528 85.0579 52.8777 85.0579 52.8777L91.7562 52.6943C91.7562 52.6943 84.0287 46.1759 82.2763 45.3479C80.5238 44.5227 75.0633 45.8091 76.1954 50.3992C69.3969 49.5713 70.0146 54.4851 70.0146 54.4851C70.0146 54.4851 69.3969 59.3962 76.1954 58.5682C75.0633 63.1584 80.5238 64.4448 82.2763 63.6195" fill="#AC854F"/>
<path fill-rule="evenodd" clip-rule="evenodd" d="M108.722 45.3479C106.969 46.1759 99.2422 52.6943 99.2422 52.6943L105.941 52.8777C105.941 52.8777 108.413 53.1528 108.413 54.4824C108.413 55.8147 105.941 56.0897 105.941 56.0897L99.2422 56.2731C99.2422 56.2731 106.969 62.7916 108.722 63.6195C110.475 64.4448 115.935 63.1584 114.803 58.5682C121.602 59.3962 120.984 54.4824 120.984 54.4824C120.984 54.4824 121.602 49.5713 114.803 50.3992C115.935 45.8091 110.475 44.5227 108.722 45.3479" fill="#AC854F"/>
<path fill-rule="evenodd" clip-rule="evenodd" d="M488.001 0L441 27.082V82.915L488.001 110L535 82.915V27.082L488.001 0ZM444.782 80.7181V29.2795L488.001 4.37626L531.218 29.2792V80.7181L488.001 105.623L444.782 80.7181Z" fill="#AC854F"/>
<path fill-rule="evenodd" clip-rule="evenodd" d="M455.482 73.8263L488.001 92.5184L520.518 73.8263V35.1713L488.001 16.4816L455.482 35.1715V73.8263ZM488.001 100L449 77.5824V31.4152L488.001 9L527 31.4155V77.5824L488.001 100Z" fill="#AC854F"/>
<path fill-rule="evenodd" clip-rule="evenodd" d="M496.818 42.9382C495.994 44.4997 489.506 51.385 489.506 51.385L489.323 45.4167C489.323 45.4167 489.049 43.2133 487.726 43.2133C486.4 43.2133 486.126 45.4167 486.126 45.4167L485.944 51.385C485.944 51.385 479.455 44.4997 478.631 42.9382C477.81 41.3767 479.09 36.5115 483.659 37.5201C482.835 31.4628 487.726 32.013 487.726 32.013C487.726 32.013 492.614 31.4628 491.79 37.5201C496.359 36.5115 497.64 41.3767 496.818 42.9382" fill="#AC854F"/>
<path fill-rule="evenodd" clip-rule="evenodd" d="M496.818 66.0617C495.994 64.5002 489.506 57.615 489.506 57.615L489.323 63.5833C489.323 63.5833 489.049 65.7867 487.726 65.7867C486.4 65.7867 486.126 63.5833 486.126 63.5833L485.944 57.615C485.944 57.615 479.455 64.5002 478.631 66.0617C477.81 67.6233 479.09 72.4885 483.659 71.4799C482.835 77.5371 487.726 76.987 487.726 76.987C487.726 76.987 492.614 77.5371 491.79 71.4799C496.359 72.4885 497.64 67.6233 496.818 66.0617" fill="#AC854F"/>
<path fill-rule="evenodd" clip-rule="evenodd" d="M474.276 63.6195C476.029 62.7916 483.756 56.2731 483.756 56.2731L477.058 56.0897C477.058 56.0897 474.585 55.8147 474.585 54.4851C474.585 53.1528 477.058 52.8777 477.058 52.8777L483.756 52.6943C483.756 52.6943 476.029 46.1759 474.276 45.3479C472.524 44.5227 467.063 45.8091 468.195 50.3992C461.397 49.5713 462.015 54.4851 462.015 54.4851C462.015 54.4851 461.397 59.3962 468.195 58.5682C467.063 63.1584 472.524 64.4448 474.276 63.6195" fill="#AC854F"/>
<path fill-rule="evenodd" clip-rule="evenodd" d="M500.722 45.3479C498.969 46.1759 491.242 52.6943 491.242 52.6943L497.941 52.8777C497.941 52.8777 500.413 53.1528 500.413 54.4824C500.413 55.8147 497.941 56.0897 497.941 56.0897L491.242 56.2731C491.242 56.2731 498.969 62.7916 500.722 63.6195C502.475 64.4448 507.935 63.1584 506.803 58.5682C513.602 59.3962 512.984 54.4824 512.984 54.4824C512.984 54.4824 513.602 49.5713 506.803 50.3992C507.935 45.8091 502.475 44.5227 500.722 45.3479" fill="#AC854F"/>
<path fill-rule="evenodd" clip-rule="evenodd" d="M47.0014 88L0 115.082V170.915L47.0014 198L94 170.915V115.082L47.0014 88ZM3.78215 168.718V117.279L47.0013 92.3763L90.2178 117.279V168.718L47.0013 193.623L3.78215 168.718Z" fill="#AC854F"/>
<path fill-rule="evenodd" clip-rule="evenodd" d="M14.4821 161.826L47.0009 180.518L79.5179 161.826V123.171L47.0009 104.482L14.4821 123.172V161.826ZM47.0009 188L8 165.582V119.415L47.0009 97L86 119.415V165.582L47.0009 188Z" fill="#AC854F"/>
<path fill-rule="evenodd" clip-rule="evenodd" d="M55.8184 130.938C54.9943 132.5 48.5059 139.385 48.5059 139.385L48.3233 133.417C48.3233 133.417 48.0495 131.213 46.726 131.213C45.3999 131.213 45.1261 133.417 45.1261 133.417L44.9435 139.385C44.9435 139.385 38.4552 132.5 37.631 130.938C36.8096 129.377 38.0901 124.511 42.6591 125.52C41.8349 119.463 46.726 120.013 46.726 120.013C46.726 120.013 51.6145 119.463 50.7904 125.52C55.3593 124.511 56.6398 129.377 55.8184 130.938" fill="#AC854F"/>
<path fill-rule="evenodd" clip-rule="evenodd" d="M55.8184 154.062C54.9943 152.5 48.5059 145.615 48.5059 145.615L48.3233 151.583C48.3233 151.583 48.0495 153.787 46.726 153.787C45.3999 153.787 45.1261 151.583 45.1261 151.583L44.9435 145.615C44.9435 145.615 38.4552 152.5 37.631 154.062C36.8096 155.623 38.0901 160.489 42.6591 159.48C41.8349 165.537 46.726 164.987 46.726 164.987C46.726 164.987 51.6145 165.537 50.7904 159.48C55.3593 160.489 56.6398 155.623 55.8184 154.062" fill="#AC854F"/>
<path fill-rule="evenodd" clip-rule="evenodd" d="M33.2763 151.62C35.0287 150.792 42.7562 144.273 42.7562 144.273L36.0579 144.09C36.0579 144.09 33.585 143.815 33.585 142.485C33.585 141.153 36.0579 140.878 36.0579 140.878L42.7562 140.694C42.7562 140.694 35.0287 134.176 33.2763 133.348C31.5238 132.523 26.0633 133.809 27.1954 138.399C20.3969 137.571 21.0146 142.485 21.0146 142.485C21.0146 142.485 20.3969 147.396 27.1954 146.568C26.0633 151.158 31.5238 152.445 33.2763 151.62" fill="#AC854F"/>
<path fill-rule="evenodd" clip-rule="evenodd" d="M59.7222 133.348C57.9695 134.176 50.2422 140.694 50.2422 140.694L56.9405 140.878C56.9405 140.878 59.4135 141.153 59.4135 142.482C59.4135 143.815 56.9405 144.09 56.9405 144.09L50.2422 144.273C50.2422 144.273 57.9695 150.792 59.7222 151.62C61.4746 152.445 66.9351 151.158 65.8031 146.568C72.6015 147.396 71.9838 142.482 71.9838 142.482C71.9838 142.482 72.6015 137.571 65.8031 138.399C66.9351 133.809 61.4746 132.523 59.7222 133.348" fill="#AC854F"/>
<path fill-rule="evenodd" clip-rule="evenodd" d="M292.001 0L245 27.082V82.915L292.001 110L339 82.915V27.082L292.001 0ZM248.782 80.7181V29.2795L292.001 4.37626L335.218 29.2792V80.7181L292.001 105.623L248.782 80.7181Z" fill="#AC854F"/>
<path fill-rule="evenodd" clip-rule="evenodd" d="M259.482 73.8263L292.001 92.5184L324.518 73.8263V35.1713L292.001 16.4816L259.482 35.1715V73.8263ZM292.001 100L253 77.5824V31.4152L292.001 9L331 31.4155V77.5824L292.001 100Z" fill="#AC854F"/>
<path fill-rule="evenodd" clip-rule="evenodd" d="M300.818 42.9382C299.994 44.4997 293.506 51.385 293.506 51.385L293.323 45.4167C293.323 45.4167 293.049 43.2133 291.726 43.2133C290.4 43.2133 290.126 45.4167 290.126 45.4167L289.944 51.385C289.944 51.385 283.455 44.4997 282.631 42.9382C281.81 41.3767 283.09 36.5115 287.659 37.5201C286.835 31.4628 291.726 32.013 291.726 32.013C291.726 32.013 296.614 31.4628 295.79 37.5201C300.359 36.5115 301.64 41.3767 300.818 42.9382" fill="#AC854F"/>
<path fill-rule="evenodd" clip-rule="evenodd" d="M300.818 66.0617C299.994 64.5002 293.506 57.615 293.506 57.615L293.323 63.5833C293.323 63.5833 293.049 65.7867 291.726 65.7867C290.4 65.7867 290.126 63.5833 290.126 63.5833L289.944 57.615C289.944 57.615 283.455 64.5002 282.631 66.0617C281.81 67.6233 283.09 72.4885 287.659 71.4799C286.835 77.5371 291.726 76.987 291.726 76.987C291.726 76.987 296.614 77.5371 295.79 71.4799C300.359 72.4885 301.64 67.6233 300.818 66.0617" fill="#AC854F"/>
<path fill-rule="evenodd" clip-rule="evenodd" d="M278.276 63.6195C280.029 62.7916 287.756 56.2731 287.756 56.2731L281.058 56.0897C281.058 56.0897 278.585 55.8147 278.585 54.4851C278.585 53.1528 281.058 52.8777 281.058 52.8777L287.756 52.6943C287.756 52.6943 280.029 46.1759 278.276 45.3479C276.524 44.5227 271.063 45.8091 272.195 50.3992C265.397 49.5713 266.015 54.4851 266.015 54.4851C266.015 54.4851 265.397 59.3962 272.195 58.5682C271.063 63.1584 276.524 64.4448 278.276 63.6195" fill="#AC854F"/>
<path fill-rule="evenodd" clip-rule="evenodd" d="M304.722 45.3479C302.969 46.1759 295.242 52.6943 295.242 52.6943L301.941 52.8777C301.941 52.8777 304.413 53.1528 304.413 54.4824C304.413 55.8147 301.941 56.0897 301.941 56.0897L295.242 56.2731C295.242 56.2731 302.969 62.7916 304.722 63.6195C306.475 64.4448 311.935 63.1584 310.803 58.5682C317.602 59.3962 316.984 54.4824 316.984 54.4824C316.984 54.4824 317.602 49.5713 310.803 50.3992C311.935 45.8091 306.475 44.5227 304.722 45.3479" fill="#AC854F"/>
<path fill-rule="evenodd" clip-rule="evenodd" d="M439.001 88L392 115.082V170.915L439.001 198L486 170.915V115.082L439.001 88ZM395.782 168.718V117.279L439.001 92.3763L482.218 117.279V168.718L439.001 193.623L395.782 168.718Z" fill="#AC854F"/>
<path fill-rule="evenodd" clip-rule="evenodd" d="M406.482 161.826L439.001 180.518L471.518 161.826V123.171L439.001 104.482L406.482 123.172V161.826ZM439.001 188L400 165.582V119.415L439.001 97L478 119.415V165.582L439.001 188Z" fill="#AC854F"/>
<path fill-rule="evenodd" clip-rule="evenodd" d="M447.818 130.938C446.994 132.5 440.506 139.385 440.506 139.385L440.323 133.417C440.323 133.417 440.049 131.213 438.726 131.213C437.4 131.213 437.126 133.417 437.126 133.417L436.944 139.385C436.944 139.385 430.455 132.5 429.631 130.938C428.81 129.377 430.09 124.511 434.659 125.52C433.835 119.463 438.726 120.013 438.726 120.013C438.726 120.013 443.614 119.463 442.79 125.52C447.359 124.511 448.64 129.377 447.818 130.938" fill="#AC854F"/>
<path fill-rule="evenodd" clip-rule="evenodd" d="M447.818 154.062C446.994 152.5 440.506 145.615 440.506 145.615L440.323 151.583C440.323 151.583 440.049 153.787 438.726 153.787C437.4 153.787 437.126 151.583 437.126 151.583L436.944 145.615C436.944 145.615 430.455 152.5 429.631 154.062C428.81 155.623 430.09 160.489 434.659 159.48C433.835 165.537 438.726 164.987 438.726 164.987C438.726 164.987 443.614 165.537 442.79 159.48C447.359 160.489 448.64 155.623 447.818 154.062" fill="#AC854F"/>
<path fill-rule="evenodd" clip-rule="evenodd" d="M425.276 151.62C427.029 150.792 434.756 144.273 434.756 144.273L428.058 144.09C428.058 144.09 425.585 143.815 425.585 142.485C425.585 141.153 428.058 140.878 428.058 140.878L434.756 140.694C434.756 140.694 427.029 134.176 425.276 133.348C423.524 132.523 418.063 133.809 419.195 138.399C412.397 137.571 413.015 142.485 413.015 142.485C413.015 142.485 412.397 147.396 419.195 146.568C418.063 151.158 423.524 152.445 425.276 151.62" fill="#AC854F"/>
<path fill-rule="evenodd" clip-rule="evenodd" d="M451.722 133.348C449.969 134.176 442.242 140.694 442.242 140.694L448.941 140.878C448.941 140.878 451.413 141.153 451.413 142.482C451.413 143.815 448.941 144.09 448.941 144.09L442.242 144.273C442.242 144.273 449.969 150.792 451.722 151.62C453.475 152.445 458.935 151.158 457.803 146.568C464.602 147.396 463.984 142.482 463.984 142.482C463.984 142.482 464.602 137.571 457.803 138.399C458.935 133.809 453.475 132.523 451.722 133.348" fill="#AC854F"/>
<path fill-rule="evenodd" clip-rule="evenodd" d="M243.001 88L196 115.082V170.915L243.001 198L290 170.915V115.082L243.001 88ZM199.782 168.718V117.279L243.001 92.3763L286.218 117.279V168.718L243.001 193.623L199.782 168.718Z" fill="#AC854F"/>
<path fill-rule="evenodd" clip-rule="evenodd" d="M210.482 161.826L243.001 180.518L275.518 161.826V123.171L243.001 104.482L210.482 123.172V161.826ZM243.001 188L204 165.582V119.415L243.001 97L282 119.415V165.582L243.001 188Z" fill="#AC854F"/>
<path fill-rule="evenodd" clip-rule="evenodd" d="M251.818 130.938C250.994 132.5 244.506 139.385 244.506 139.385L244.323 133.417C244.323 133.417 244.049 131.213 242.726 131.213C241.4 131.213 241.126 133.417 241.126 133.417L240.944 139.385C240.944 139.385 234.455 132.5 233.631 130.938C232.81 129.377 234.09 124.511 238.659 125.52C237.835 119.463 242.726 120.013 242.726 120.013C242.726 120.013 247.614 119.463 246.79 125.52C251.359 124.511 252.64 129.377 251.818 130.938" fill="#AC854F"/>
<path fill-rule="evenodd" clip-rule="evenodd" d="M251.818 154.062C250.994 152.5 244.506 145.615 244.506 145.615L244.323 151.583C244.323 151.583 244.049 153.787 242.726 153.787C241.4 153.787 241.126 151.583 241.126 151.583L240.944 145.615C240.944 145.615 234.455 152.5 233.631 154.062C232.81 155.623 234.09 160.489 238.659 159.48C237.835 165.537 242.726 164.987 242.726 164.987C242.726 164.987 247.614 165.537 246.79 159.48C251.359 160.489 252.64 155.623 251.818 154.062" fill="#AC854F"/>
<path fill-rule="evenodd" clip-rule="evenodd" d="M229.276 151.62C231.029 150.792 238.756 144.273 238.756 144.273L232.058 144.09C232.058 144.09 229.585 143.815 229.585 142.485C229.585 141.153 232.058 140.878 232.058 140.878L238.756 140.694C238.756 140.694 231.029 134.176 229.276 133.348C227.524 132.523 222.063 133.809 223.195 138.399C216.397 137.571 217.015 142.485 217.015 142.485C217.015 142.485 216.397 147.396 223.195 146.568C222.063 151.158 227.524 152.445 229.276 151.62" fill="#AC854F"/>
<path fill-rule="evenodd" clip-rule="evenodd" d="M255.722 133.348C253.969 134.176 246.242 140.694 246.242 140.694L252.941 140.878C252.941 140.878 255.413 141.153 255.413 142.482C255.413 143.815 252.941 144.09 252.941 144.09L246.242 144.273C246.242 144.273 253.969 150.792 255.722 151.62C257.475 152.445 262.935 151.158 261.803 146.568C268.602 147.396 267.984 142.482 267.984 142.482C267.984 142.482 268.602 137.571 261.803 138.399C262.935 133.809 257.475 132.523 255.722 133.348" fill="#AC854F"/>
<path fill-rule="evenodd" clip-rule="evenodd" d="M390.001 0L343 27.082V82.915L390.001 110L437 82.915V27.082L390.001 0ZM346.782 80.7181V29.2795L390.001 4.37626L433.218 29.2792V80.7181L390.001 105.623L346.782 80.7181Z" fill="#AC854F"/>
<path fill-rule="evenodd" clip-rule="evenodd" d="M357.482 73.8263L390.001 92.5184L422.518 73.8263V35.1713L390.001 16.4816L357.482 35.1715V73.8263ZM390.001 100L351 77.5824V31.4152L390.001 9L429 31.4155V77.5824L390.001 100Z" fill="#AC854F"/>
<path fill-rule="evenodd" clip-rule="evenodd" d="M398.818 42.9382C397.994 44.4997 391.506 51.385 391.506 51.385L391.323 45.4167C391.323 45.4167 391.049 43.2133 389.726 43.2133C388.4 43.2133 388.126 45.4167 388.126 45.4167L387.944 51.385C387.944 51.385 381.455 44.4997 380.631 42.9382C379.81 41.3767 381.09 36.5115 385.659 37.5201C384.835 31.4628 389.726 32.013 389.726 32.013C389.726 32.013 394.614 31.4628 393.79 37.5201C398.359 36.5115 399.64 41.3767 398.818 42.9382" fill="#AC854F"/>
<path fill-rule="evenodd" clip-rule="evenodd" d="M398.818 66.0617C397.994 64.5002 391.506 57.615 391.506 57.615L391.323 63.5833C391.323 63.5833 391.049 65.7867 389.726 65.7867C388.4 65.7867 388.126 63.5833 388.126 63.5833L387.944 57.615C387.944 57.615 381.455 64.5002 380.631 66.0617C379.81 67.6233 381.09 72.4885 385.659 71.4799C384.835 77.5371 389.726 76.987 389.726 76.987C389.726 76.987 394.614 77.5371 393.79 71.4799C398.359 72.4885 399.64 67.6233 398.818 66.0617" fill="#AC854F"/>
<path fill-rule="evenodd" clip-rule="evenodd" d="M376.276 63.6195C378.029 62.7916 385.756 56.2731 385.756 56.2731L379.058 56.0897C379.058 56.0897 376.585 55.8147 376.585 54.4851C376.585 53.1528 379.058 52.8777 379.058 52.8777L385.756 52.6943C385.756 52.6943 378.029 46.1759 376.276 45.3479C374.524 44.5227 369.063 45.8091 370.195 50.3992C363.397 49.5713 364.015 54.4851 364.015 54.4851C364.015 54.4851 363.397 59.3962 370.195 58.5682C369.063 63.1584 374.524 64.4448 376.276 63.6195" fill="#AC854F"/>
<path fill-rule="evenodd" clip-rule="evenodd" d="M402.722 45.3479C400.969 46.1759 393.242 52.6943 393.242 52.6943L399.941 52.8777C399.941 52.8777 402.413 53.1528 402.413 54.4824C402.413 55.8147 399.941 56.0897 399.941 56.0897L393.242 56.2731C393.242 56.2731 400.969 62.7916 402.722 63.6195C404.475 64.4448 409.935 63.1584 408.803 58.5682C415.602 59.3962 414.984 54.4824 414.984 54.4824C414.984 54.4824 415.602 49.5713 408.803 50.3992C409.935 45.8091 404.475 44.5227 402.722 45.3479" fill="#AC854F"/>
<path fill-rule="evenodd" clip-rule="evenodd" d="M537.001 88L490 115.082V170.915L537.001 198L584 170.915V115.082L537.001 88ZM493.782 168.718V117.279L537.001 92.3763L580.218 117.279V168.718L537.001 193.623L493.782 168.718Z" fill="#AC854F"/>
<path fill-rule="evenodd" clip-rule="evenodd" d="M504.482 161.826L537.001 180.518L569.518 161.826V123.171L537.001 104.482L504.482 123.172V161.826ZM537.001 188L498 165.582V119.415L537.001 97L576 119.415V165.582L537.001 188Z" fill="#AC854F"/>
<path fill-rule="evenodd" clip-rule="evenodd" d="M545.818 130.938C544.994 132.5 538.506 139.385 538.506 139.385L538.323 133.417C538.323 133.417 538.049 131.213 536.726 131.213C535.4 131.213 535.126 133.417 535.126 133.417L534.944 139.385C534.944 139.385 528.455 132.5 527.631 130.938C526.81 129.377 528.09 124.511 532.659 125.52C531.835 119.463 536.726 120.013 536.726 120.013C536.726 120.013 541.614 119.463 540.79 125.52C545.359 124.511 546.64 129.377 545.818 130.938" fill="#AC854F"/>
<path fill-rule="evenodd" clip-rule="evenodd" d="M545.818 154.062C544.994 152.5 538.506 145.615 538.506 145.615L538.323 151.583C538.323 151.583 538.049 153.787 536.726 153.787C535.4 153.787 535.126 151.583 535.126 151.583L534.944 145.615C534.944 145.615 528.455 152.5 527.631 154.062C526.81 155.623 528.09 160.489 532.659 159.48C531.835 165.537 536.726 164.987 536.726 164.987C536.726 164.987 541.614 165.537 540.79 159.48C545.359 160.489 546.64 155.623 545.818 154.062" fill="#AC854F"/>
<path fill-rule="evenodd" clip-rule="evenodd" d="M523.276 151.62C525.029 150.792 532.756 144.273 532.756 144.273L526.058 144.09C526.058 144.09 523.585 143.815 523.585 142.485C523.585 141.153 526.058 140.878 526.058 140.878L532.756 140.694C532.756 140.694 525.029 134.176 523.276 133.348C521.524 132.523 516.063 133.809 517.195 138.399C510.397 137.571 511.015 142.485 511.015 142.485C511.015 142.485 510.397 147.396 517.195 146.568C516.063 151.158 521.524 152.445 523.276 151.62" fill="#AC854F"/>
<path fill-rule="evenodd" clip-rule="evenodd" d="M549.722 133.348C547.969 134.176 540.242 140.694 540.242 140.694L546.941 140.878C546.941 140.878 549.413 141.153 549.413 142.482C549.413 143.815 546.941 144.09 546.941 144.09L540.242 144.273C540.242 144.273 547.969 150.792 549.722 151.62C551.475 152.445 556.935 151.158 555.803 146.568C562.602 147.396 561.984 142.482 561.984 142.482C561.984 142.482 562.602 137.571 555.803 138.399C556.935 133.809 551.475 132.523 549.722 133.348" fill="#AC854F"/>
<path fill-rule="evenodd" clip-rule="evenodd" d="M341.001 88L294 115.082V170.915L341.001 198L388 170.915V115.082L341.001 88ZM297.782 168.718V117.279L341.001 92.3763L384.218 117.279V168.718L341.001 193.623L297.782 168.718Z" fill="#AC854F"/>
<path fill-rule="evenodd" clip-rule="evenodd" d="M308.482 161.826L341.001 180.518L373.518 161.826V123.171L341.001 104.482L308.482 123.172V161.826ZM341.001 188L302 165.582V119.415L341.001 97L380 119.415V165.582L341.001 188Z" fill="#AC854F"/>
<path fill-rule="evenodd" clip-rule="evenodd" d="M349.818 130.938C348.994 132.5 342.506 139.385 342.506 139.385L342.323 133.417C342.323 133.417 342.049 131.213 340.726 131.213C339.4 131.213 339.126 133.417 339.126 133.417L338.944 139.385C338.944 139.385 332.455 132.5 331.631 130.938C330.81 129.377 332.09 124.511 336.659 125.52C335.835 119.463 340.726 120.013 340.726 120.013C340.726 120.013 345.614 119.463 344.79 125.52C349.359 124.511 350.64 129.377 349.818 130.938" fill="#AC854F"/>
<path fill-rule="evenodd" clip-rule="evenodd" d="M349.818 154.062C348.994 152.5 342.506 145.615 342.506 145.615L342.323 151.583C342.323 151.583 342.049 153.787 340.726 153.787C339.4 153.787 339.126 151.583 339.126 151.583L338.944 145.615C338.944 145.615 332.455 152.5 331.631 154.062C330.81 155.623 332.09 160.489 336.659 159.48C335.835 165.537 340.726 164.987 340.726 164.987C340.726 164.987 345.614 165.537 344.79 159.48C349.359 160.489 350.64 155.623 349.818 154.062" fill="#AC854F"/>
<path fill-rule="evenodd" clip-rule="evenodd" d="M327.276 151.62C329.029 150.792 336.756 144.273 336.756 144.273L330.058 144.09C330.058 144.09 327.585 143.815 327.585 142.485C327.585 141.153 330.058 140.878 330.058 140.878L336.756 140.694C336.756 140.694 329.029 134.176 327.276 133.348C325.524 132.523 320.063 133.809 321.195 138.399C314.397 137.571 315.015 142.485 315.015 142.485C315.015 142.485 314.397 147.396 321.195 146.568C320.063 151.158 325.524 152.445 327.276 151.62" fill="#AC854F"/>
<path fill-rule="evenodd" clip-rule="evenodd" d="M353.722 133.348C351.969 134.176 344.242 140.694 344.242 140.694L350.941 140.878C350.941 140.878 353.413 141.153 353.413 142.482C353.413 143.815 350.941 144.09 350.941 144.09L344.242 144.273C344.242 144.273 351.969 150.792 353.722 151.62C355.475 152.445 360.935 151.158 359.803 146.568C366.602 147.396 365.984 142.482 365.984 142.482C365.984 142.482 366.602 137.571 359.803 138.399C360.935 133.809 355.475 132.523 353.722 133.348" fill="#AC854F"/>
<path fill-rule="evenodd" clip-rule="evenodd" d="M194.001 0L147 27.082V82.915L194.001 110L241 82.915V27.082L194.001 0ZM150.782 80.7181V29.2795L194.001 4.37626L237.218 29.2792V80.7181L194.001 105.623L150.782 80.7181Z" fill="#AC854F"/>
<path fill-rule="evenodd" clip-rule="evenodd" d="M161.482 73.8263L194.001 92.5184L226.518 73.8263V35.1713L194.001 16.4816L161.482 35.1715V73.8263ZM194.001 100L155 77.5824V31.4152L194.001 9L233 31.4155V77.5824L194.001 100Z" fill="#AC854F"/>
<path fill-rule="evenodd" clip-rule="evenodd" d="M202.818 42.9382C201.994 44.4997 195.506 51.385 195.506 51.385L195.323 45.4167C195.323 45.4167 195.049 43.2133 193.726 43.2133C192.4 43.2133 192.126 45.4167 192.126 45.4167L191.944 51.385C191.944 51.385 185.455 44.4997 184.631 42.9382C183.81 41.3767 185.09 36.5115 189.659 37.5201C188.835 31.4628 193.726 32.013 193.726 32.013C193.726 32.013 198.614 31.4628 197.79 37.5201C202.359 36.5115 203.64 41.3767 202.818 42.9382" fill="#AC854F"/>
<path fill-rule="evenodd" clip-rule="evenodd" d="M202.818 66.0617C201.994 64.5002 195.506 57.615 195.506 57.615L195.323 63.5833C195.323 63.5833 195.049 65.7867 193.726 65.7867C192.4 65.7867 192.126 63.5833 192.126 63.5833L191.944 57.615C191.944 57.615 185.455 64.5002 184.631 66.0617C183.81 67.6233 185.09 72.4885 189.659 71.4799C188.835 77.5371 193.726 76.987 193.726 76.987C193.726 76.987 198.614 77.5371 197.79 71.4799C202.359 72.4885 203.64 67.6233 202.818 66.0617" fill="#AC854F"/>
<path fill-rule="evenodd" clip-rule="evenodd" d="M180.276 63.6195C182.029 62.7916 189.756 56.2731 189.756 56.2731L183.058 56.0897C183.058 56.0897 180.585 55.8147 180.585 54.4851C180.585 53.1528 183.058 52.8777 183.058 52.8777L189.756 52.6943C189.756 52.6943 182.029 46.1759 180.276 45.3479C178.524 44.5227 173.063 45.8091 174.195 50.3992C167.397 49.5713 168.015 54.4851 168.015 54.4851C168.015 54.4851 167.397 59.3962 174.195 58.5682C173.063 63.1584 178.524 64.4448 180.276 63.6195" fill="#AC854F"/>
<path fill-rule="evenodd" clip-rule="evenodd" d="M206.722 45.3479C204.969 46.1759 197.242 52.6943 197.242 52.6943L203.941 52.8777C203.941 52.8777 206.413 53.1528 206.413 54.4824C206.413 55.8147 203.941 56.0897 203.941 56.0897L197.242 56.2731C197.242 56.2731 204.969 62.7916 206.722 63.6195C208.475 64.4448 213.935 63.1584 212.803 58.5682C219.602 59.3962 218.984 54.4824 218.984 54.4824C218.984 54.4824 219.602 49.5713 212.803 50.3992C213.935 45.8091 208.475 44.5227 206.722 45.3479" fill="#AC854F"/>
<path fill-rule="evenodd" clip-rule="evenodd" d="M586.001 0L539 27.082V82.915L586.001 110L633 82.915V27.082L586.001 0ZM542.782 80.7181V29.2795L586.001 4.37626L629.218 29.2792V80.7181L586.001 105.623L542.782 80.7181Z" fill="#AC854F"/>
<path fill-rule="evenodd" clip-rule="evenodd" d="M553.482 73.8263L586.001 92.5184L618.518 73.8263V35.1713L586.001 16.4816L553.482 35.1715V73.8263ZM586.001 100L547 77.5824V31.4152L586.001 9L625 31.4155V77.5824L586.001 100Z" fill="#AC854F"/>
<path fill-rule="evenodd" clip-rule="evenodd" d="M594.818 42.9382C593.994 44.4997 587.506 51.385 587.506 51.385L587.323 45.4167C587.323 45.4167 587.049 43.2133 585.726 43.2133C584.4 43.2133 584.126 45.4167 584.126 45.4167L583.944 51.385C583.944 51.385 577.455 44.4997 576.631 42.9382C575.81 41.3767 577.09 36.5115 581.659 37.5201C580.835 31.4628 585.726 32.013 585.726 32.013C585.726 32.013 590.614 31.4628 589.79 37.5201C594.359 36.5115 595.64 41.3767 594.818 42.9382" fill="#AC854F"/>
<path fill-rule="evenodd" clip-rule="evenodd" d="M594.818 66.0617C593.994 64.5002 587.506 57.615 587.506 57.615L587.323 63.5833C587.323 63.5833 587.049 65.7867 585.726 65.7867C584.4 65.7867 584.126 63.5833 584.126 63.5833L583.944 57.615C583.944 57.615 577.455 64.5002 576.631 66.0617C575.81 67.6233 577.09 72.4885 581.659 71.4799C580.835 77.5371 585.726 76.987 585.726 76.987C585.726 76.987 590.614 77.5371 589.79 71.4799C594.359 72.4885 595.64 67.6233 594.818 66.0617" fill="#AC854F"/>
<path fill-rule="evenodd" clip-rule="evenodd" d="M572.276 63.6195C574.029 62.7916 581.756 56.2731 581.756 56.2731L575.058 56.0897C575.058 56.0897 572.585 55.8147 572.585 54.4851C572.585 53.1528 575.058 52.8777 575.058 52.8777L581.756 52.6943C581.756 52.6943 574.029 46.1759 572.276 45.3479C570.524 44.5227 565.063 45.8091 566.195 50.3992C559.397 49.5713 560.015 54.4851 560.015 54.4851C560.015 54.4851 559.397 59.3962 566.195 58.5682C565.063 63.1584 570.524 64.4448 572.276 63.6195" fill="#AC854F"/>
<path fill-rule="evenodd" clip-rule="evenodd" d="M598.722 45.3479C596.969 46.1759 589.242 52.6943 589.242 52.6943L595.941 52.8777C595.941 52.8777 598.413 53.1528 598.413 54.4824C598.413 55.8147 595.941 56.0897 595.941 56.0897L589.242 56.2731C589.242 56.2731 596.969 62.7916 598.722 63.6195C600.475 64.4448 605.935 63.1584 604.803 58.5682C611.602 59.3962 610.984 54.4824 610.984 54.4824C610.984 54.4824 611.602 49.5713 604.803 50.3992C605.935 45.8091 600.475 44.5227 598.722 45.3479" fill="#AC854F"/>
<path fill-rule="evenodd" clip-rule="evenodd" d="M145.001 88L98 115.082V170.915L145.001 198L192 170.915V115.082L145.001 88ZM101.782 168.718V117.279L145.001 92.3763L188.218 117.279V168.718L145.001 193.623L101.782 168.718Z" fill="#AC854F"/>
<path fill-rule="evenodd" clip-rule="evenodd" d="M112.482 161.826L145.001 180.518L177.518 161.826V123.171L145.001 104.482L112.482 123.172V161.826ZM145.001 188L106 165.582V119.415L145.001 97L184 119.415V165.582L145.001 188Z" fill="#AC854F"/>
<path fill-rule="evenodd" clip-rule="evenodd" d="M153.818 130.938C152.994 132.5 146.506 139.385 146.506 139.385L146.323 133.417C146.323 133.417 146.049 131.213 144.726 131.213C143.4 131.213 143.126 133.417 143.126 133.417L142.944 139.385C142.944 139.385 136.455 132.5 135.631 130.938C134.81 129.377 136.09 124.511 140.659 125.52C139.835 119.463 144.726 120.013 144.726 120.013C144.726 120.013 149.614 119.463 148.79 125.52C153.359 124.511 154.64 129.377 153.818 130.938" fill="#AC854F"/>
<path fill-rule="evenodd" clip-rule="evenodd" d="M153.818 154.062C152.994 152.5 146.506 145.615 146.506 145.615L146.323 151.583C146.323 151.583 146.049 153.787 144.726 153.787C143.4 153.787 143.126 151.583 143.126 151.583L142.944 145.615C142.944 145.615 136.455 152.5 135.631 154.062C134.81 155.623 136.09 160.489 140.659 159.48C139.835 165.537 144.726 164.987 144.726 164.987C144.726 164.987 149.614 165.537 148.79 159.48C153.359 160.489 154.64 155.623 153.818 154.062" fill="#AC854F"/>
<path fill-rule="evenodd" clip-rule="evenodd" d="M131.276 151.62C133.029 150.792 140.756 144.273 140.756 144.273L134.058 144.09C134.058 144.09 131.585 143.815 131.585 142.485C131.585 141.153 134.058 140.878 134.058 140.878L140.756 140.694C140.756 140.694 133.029 134.176 131.276 133.348C129.524 132.523 124.063 133.809 125.195 138.399C118.397 137.571 119.015 142.485 119.015 142.485C119.015 142.485 118.397 147.396 125.195 146.568C124.063 151.158 129.524 152.445 131.276 151.62" fill="#AC854F"/>
<path fill-rule="evenodd" clip-rule="evenodd" d="M157.722 133.348C155.969 134.176 148.242 140.694 148.242 140.694L154.941 140.878C154.941 140.878 157.413 141.153 157.413 142.482C157.413 143.815 154.941 144.09 154.941 144.09L148.242 144.273C148.242 144.273 155.969 150.792 157.722 151.62C159.475 152.445 164.935 151.158 163.803 146.568C170.602 147.396 169.984 142.482 169.984 142.482C169.984 142.482 170.602 137.571 163.803 138.399C164.935 133.809 159.475 132.523 157.722 133.348" fill="#AC854F"/>
</svg>
