<svg width="109" height="423" viewBox="0 0 109 423" fill="none" xmlns="http://www.w3.org/2000/svg">
<mask id="mask0_1_92" style="mask-type:alpha" maskUnits="userSpaceOnUse" x="0" y="32" width="45" height="45">
<path fill-rule="evenodd" clip-rule="evenodd" d="M0 32H45V77H0V32Z" fill="white"/>
</mask>
<g mask="url(#mask0_1_92)">
<path fill-rule="evenodd" clip-rule="evenodd" d="M27.2724 59.2724C24.6367 61.9081 20.3633 61.9081 17.7276 59.2724C15.092 56.6367 15.092 52.3633 17.7276 49.7276C20.3634 47.092 24.6367 47.092 27.2724 49.7276C29.908 52.3633 29.908 56.6366 27.2724 59.2724M41.6267 46.356L30.644 35.3733C26.1462 30.8756 18.8538 30.8756 14.356 35.3733L3.37335 46.356C-1.12445 50.8538 -1.12445 58.1462 3.37335 62.644L14.356 73.6267C18.8538 78.1245 26.1462 78.1245 30.644 73.6267L41.6267 62.644C46.1245 58.1462 46.1245 50.8538 41.6267 46.356" fill="#E0C071"/>
</g>
<mask id="mask1_1_92" style="mask-type:alpha" maskUnits="userSpaceOnUse" x="0" y="158" width="45" height="45">
<path fill-rule="evenodd" clip-rule="evenodd" d="M0 158H45V203H0V158Z" fill="white"/>
</mask>
<g mask="url(#mask1_1_92)">
<path fill-rule="evenodd" clip-rule="evenodd" d="M27.2724 185.272C24.6367 187.908 20.3633 187.908 17.7276 185.272C15.092 182.637 15.092 178.363 17.7276 175.728C20.3634 173.092 24.6367 173.092 27.2724 175.728C29.908 178.363 29.908 182.637 27.2724 185.272M41.6267 172.356L30.644 161.373C26.1462 156.876 18.8538 156.876 14.356 161.373L3.37335 172.356C-1.12445 176.854 -1.12445 184.146 3.37335 188.644L14.356 199.627C18.8538 204.124 26.1462 204.124 30.644 199.627L41.6267 188.644C46.1245 184.146 46.1245 176.854 41.6267 172.356" fill="#E0C071"/>
</g>
<mask id="mask2_1_92" style="mask-type:alpha" maskUnits="userSpaceOnUse" x="0" y="284" width="45" height="45">
<path fill-rule="evenodd" clip-rule="evenodd" d="M0 284H45V329H0V284Z" fill="white"/>
</mask>
<g mask="url(#mask2_1_92)">
<path fill-rule="evenodd" clip-rule="evenodd" d="M27.2724 311.272C24.6367 313.908 20.3633 313.908 17.7276 311.272C15.092 308.637 15.092 304.363 17.7276 301.728C20.3634 299.092 24.6367 299.092 27.2724 301.728C29.908 304.363 29.908 308.637 27.2724 311.272M41.6267 298.356L30.644 287.373C26.1462 282.876 18.8538 282.876 14.356 287.373L3.37335 298.356C-1.12445 302.854 -1.12445 310.146 3.37335 314.644L14.356 325.627C18.8538 330.124 26.1462 330.124 30.644 325.627L41.6267 314.644C46.1245 310.146 46.1245 302.854 41.6267 298.356" fill="#E0C071"/>
</g>
<mask id="mask3_1_92" style="mask-type:alpha" maskUnits="userSpaceOnUse" x="0" y="95" width="45" height="45">
<path fill-rule="evenodd" clip-rule="evenodd" d="M0 95H45V140H0V95Z" fill="white"/>
</mask>
<g mask="url(#mask3_1_92)">
<path fill-rule="evenodd" clip-rule="evenodd" d="M27.2724 122.272C24.6367 124.908 20.3633 124.908 17.7276 122.272C15.092 119.637 15.092 115.363 17.7276 112.728C20.3634 110.092 24.6367 110.092 27.2724 112.728C29.908 115.363 29.908 119.637 27.2724 122.272M41.6267 109.356L30.644 98.3733C26.1462 93.8756 18.8538 93.8756 14.356 98.3733L3.37335 109.356C-1.12445 113.854 -1.12445 121.146 3.37335 125.644L14.356 136.627C18.8538 141.124 26.1462 141.124 30.644 136.627L41.6267 125.644C46.1245 121.146 46.1245 113.854 41.6267 109.356" fill="#E0C071"/>
</g>
<mask id="mask4_1_92" style="mask-type:alpha" maskUnits="userSpaceOnUse" x="0" y="221" width="45" height="45">
<path fill-rule="evenodd" clip-rule="evenodd" d="M0 221H45V266H0V221Z" fill="white"/>
</mask>
<g mask="url(#mask4_1_92)">
<path fill-rule="evenodd" clip-rule="evenodd" d="M27.2724 248.272C24.6367 250.908 20.3633 250.908 17.7276 248.272C15.092 245.637 15.092 241.363 17.7276 238.728C20.3634 236.092 24.6367 236.092 27.2724 238.728C29.908 241.363 29.908 245.637 27.2724 248.272M41.6267 235.356L30.644 224.373C26.1462 219.876 18.8538 219.876 14.356 224.373L3.37335 235.356C-1.12445 239.854 -1.12445 247.146 3.37335 251.644L14.356 262.627C18.8538 267.124 26.1462 267.124 30.644 262.627L41.6267 251.644C46.1245 247.146 46.1245 239.854 41.6267 235.356" fill="#E0C071"/>
</g>
<mask id="mask5_1_92" style="mask-type:alpha" maskUnits="userSpaceOnUse" x="0" y="347" width="45" height="45">
<path fill-rule="evenodd" clip-rule="evenodd" d="M0 347H45V392H0V347Z" fill="white"/>
</mask>
<g mask="url(#mask5_1_92)">
<path fill-rule="evenodd" clip-rule="evenodd" d="M27.2724 374.272C24.6367 376.908 20.3633 376.908 17.7276 374.272C15.092 371.637 15.092 367.363 17.7276 364.728C20.3634 362.092 24.6367 362.092 27.2724 364.728C29.908 367.363 29.908 371.637 27.2724 374.272M41.6267 361.356L30.644 350.373C26.1462 345.876 18.8538 345.876 14.356 350.373L3.37335 361.356C-1.12445 365.854 -1.12445 373.146 3.37335 377.644L14.356 388.627C18.8538 393.124 26.1462 393.124 30.644 388.627L41.6267 377.644C46.1245 373.146 46.1245 365.854 41.6267 361.356" fill="#E0C071"/>
</g>
<mask id="mask6_1_92" style="mask-type:alpha" maskUnits="userSpaceOnUse" x="32" y="0" width="45" height="45">
<path fill-rule="evenodd" clip-rule="evenodd" d="M32 0H77V45H32V0Z" fill="white"/>
</mask>
<g mask="url(#mask6_1_92)">
<path fill-rule="evenodd" clip-rule="evenodd" d="M59.2724 27.2724C56.6367 29.9081 52.3633 29.9081 49.7276 27.2724C47.092 24.6367 47.092 20.3633 49.7276 17.7276C52.3634 15.092 56.6367 15.092 59.2724 17.7276C61.908 20.3633 61.908 24.6366 59.2724 27.2724M73.6267 14.356L62.644 3.37335C58.1462 -1.12445 50.8538 -1.12445 46.356 3.37335L35.3733 14.356C30.8756 18.8538 30.8756 26.1462 35.3733 30.644L46.356 41.6267C50.8538 46.1245 58.1462 46.1245 62.644 41.6267L73.6267 30.644C78.1245 26.1462 78.1245 18.8538 73.6267 14.356" fill="#E0C071"/>
</g>
<mask id="mask7_1_92" style="mask-type:alpha" maskUnits="userSpaceOnUse" x="32" y="126" width="45" height="45">
<path fill-rule="evenodd" clip-rule="evenodd" d="M32 126H77V171H32V126Z" fill="white"/>
</mask>
<g mask="url(#mask7_1_92)">
<path fill-rule="evenodd" clip-rule="evenodd" d="M59.2724 153.272C56.6367 155.908 52.3633 155.908 49.7276 153.272C47.092 150.637 47.092 146.363 49.7276 143.728C52.3634 141.092 56.6367 141.092 59.2724 143.728C61.908 146.363 61.908 150.637 59.2724 153.272M73.6267 140.356L62.644 129.373C58.1462 124.876 50.8538 124.876 46.356 129.373L35.3733 140.356C30.8756 144.854 30.8756 152.146 35.3733 156.644L46.356 167.627C50.8538 172.124 58.1462 172.124 62.644 167.627L73.6267 156.644C78.1245 152.146 78.1245 144.854 73.6267 140.356" fill="#E0C071"/>
</g>
<mask id="mask8_1_92" style="mask-type:alpha" maskUnits="userSpaceOnUse" x="32" y="63" width="45" height="45">
<path fill-rule="evenodd" clip-rule="evenodd" d="M32 63H77V108H32V63Z" fill="white"/>
</mask>
<g mask="url(#mask8_1_92)">
<path fill-rule="evenodd" clip-rule="evenodd" d="M59.2724 90.2724C56.6367 92.9081 52.3633 92.9081 49.7276 90.2724C47.092 87.6367 47.092 83.3633 49.7276 80.7276C52.3634 78.092 56.6367 78.092 59.2724 80.7276C61.908 83.3633 61.908 87.6366 59.2724 90.2724M73.6267 77.356L62.644 66.3733C58.1462 61.8756 50.8538 61.8756 46.356 66.3733L35.3733 77.356C30.8756 81.8538 30.8756 89.1462 35.3733 93.644L46.356 104.627C50.8538 109.124 58.1462 109.124 62.644 104.627L73.6267 93.644C78.1245 89.1462 78.1245 81.8538 73.6267 77.356" fill="#E0C071"/>
</g>
<mask id="mask9_1_92" style="mask-type:alpha" maskUnits="userSpaceOnUse" x="32" y="189" width="45" height="45">
<path fill-rule="evenodd" clip-rule="evenodd" d="M32 189H77V234H32V189Z" fill="white"/>
</mask>
<g mask="url(#mask9_1_92)">
<path fill-rule="evenodd" clip-rule="evenodd" d="M59.2724 216.272C56.6367 218.908 52.3633 218.908 49.7276 216.272C47.092 213.637 47.092 209.363 49.7276 206.728C52.3634 204.092 56.6367 204.092 59.2724 206.728C61.908 209.363 61.908 213.637 59.2724 216.272M73.6267 203.356L62.644 192.373C58.1462 187.876 50.8538 187.876 46.356 192.373L35.3733 203.356C30.8756 207.854 30.8756 215.146 35.3733 219.644L46.356 230.627C50.8538 235.124 58.1462 235.124 62.644 230.627L73.6267 219.644C78.1245 215.146 78.1245 207.854 73.6267 203.356" fill="#E0C071"/>
</g>
<mask id="mask10_1_92" style="mask-type:alpha" maskUnits="userSpaceOnUse" x="32" y="315" width="45" height="45">
<path fill-rule="evenodd" clip-rule="evenodd" d="M32 315H77V360H32V315Z" fill="white"/>
</mask>
<g mask="url(#mask10_1_92)">
<path fill-rule="evenodd" clip-rule="evenodd" d="M59.2724 342.272C56.6367 344.908 52.3633 344.908 49.7276 342.272C47.092 339.637 47.092 335.363 49.7276 332.728C52.3634 330.092 56.6367 330.092 59.2724 332.728C61.908 335.363 61.908 339.637 59.2724 342.272M73.6267 329.356L62.644 318.373C58.1462 313.876 50.8538 313.876 46.356 318.373L35.3733 329.356C30.8756 333.854 30.8756 341.146 35.3733 345.644L46.356 356.627C50.8538 361.124 58.1462 361.124 62.644 356.627L73.6267 345.644C78.1245 341.146 78.1245 333.854 73.6267 329.356" fill="#E0C071"/>
</g>
<mask id="mask11_1_92" style="mask-type:alpha" maskUnits="userSpaceOnUse" x="32" y="252" width="45" height="45">
<path fill-rule="evenodd" clip-rule="evenodd" d="M32 252H77V297H32V252Z" fill="white"/>
</mask>
<g mask="url(#mask11_1_92)">
<path fill-rule="evenodd" clip-rule="evenodd" d="M59.2724 279.272C56.6367 281.908 52.3633 281.908 49.7276 279.272C47.092 276.637 47.092 272.363 49.7276 269.728C52.3634 267.092 56.6367 267.092 59.2724 269.728C61.908 272.363 61.908 276.637 59.2724 279.272M73.6267 266.356L62.644 255.373C58.1462 250.876 50.8538 250.876 46.356 255.373L35.3733 266.356C30.8756 270.854 30.8756 278.146 35.3733 282.644L46.356 293.627C50.8538 298.124 58.1462 298.124 62.644 293.627L73.6267 282.644C78.1245 278.146 78.1245 270.854 73.6267 266.356" fill="#E0C071"/>
</g>
<mask id="mask12_1_92" style="mask-type:alpha" maskUnits="userSpaceOnUse" x="32" y="378" width="45" height="45">
<path fill-rule="evenodd" clip-rule="evenodd" d="M32 378H77V423H32V378Z" fill="white"/>
</mask>
<g mask="url(#mask12_1_92)">
<path fill-rule="evenodd" clip-rule="evenodd" d="M59.2724 405.272C56.6367 407.908 52.3633 407.908 49.7276 405.272C47.092 402.637 47.092 398.363 49.7276 395.728C52.3634 393.092 56.6367 393.092 59.2724 395.728C61.908 398.363 61.908 402.637 59.2724 405.272M73.6267 392.356L62.644 381.373C58.1462 376.876 50.8538 376.876 46.356 381.373L35.3733 392.356C30.8756 396.854 30.8756 404.146 35.3733 408.644L46.356 419.627C50.8538 424.124 58.1462 424.124 62.644 419.627L73.6267 408.644C78.1245 404.146 78.1245 396.854 73.6267 392.356" fill="#E0C071"/>
</g>
<mask id="mask13_1_92" style="mask-type:alpha" maskUnits="userSpaceOnUse" x="64" y="32" width="45" height="45">
<path fill-rule="evenodd" clip-rule="evenodd" d="M64 32H109V77H64V32Z" fill="white"/>
</mask>
<g mask="url(#mask13_1_92)">
<path fill-rule="evenodd" clip-rule="evenodd" d="M91.2724 59.2724C88.6367 61.9081 84.3633 61.9081 81.7276 59.2724C79.092 56.6367 79.092 52.3633 81.7276 49.7276C84.3634 47.092 88.6367 47.092 91.2724 49.7276C93.908 52.3633 93.908 56.6366 91.2724 59.2724M105.627 46.356L94.644 35.3733C90.1462 30.8756 82.8538 30.8756 78.356 35.3733L67.3733 46.356C62.8756 50.8538 62.8756 58.1462 67.3733 62.644L78.356 73.6267C82.8538 78.1245 90.1462 78.1245 94.644 73.6267L105.627 62.644C110.124 58.1462 110.124 50.8538 105.627 46.356" fill="#E0C071"/>
</g>
<mask id="mask14_1_92" style="mask-type:alpha" maskUnits="userSpaceOnUse" x="64" y="158" width="45" height="45">
<path fill-rule="evenodd" clip-rule="evenodd" d="M64 158H109V203H64V158Z" fill="white"/>
</mask>
<g mask="url(#mask14_1_92)">
<path fill-rule="evenodd" clip-rule="evenodd" d="M91.2724 185.272C88.6367 187.908 84.3633 187.908 81.7276 185.272C79.092 182.637 79.092 178.363 81.7276 175.728C84.3634 173.092 88.6367 173.092 91.2724 175.728C93.908 178.363 93.908 182.637 91.2724 185.272M105.627 172.356L94.644 161.373C90.1462 156.876 82.8538 156.876 78.356 161.373L67.3733 172.356C62.8756 176.854 62.8756 184.146 67.3733 188.644L78.356 199.627C82.8538 204.124 90.1462 204.124 94.644 199.627L105.627 188.644C110.124 184.146 110.124 176.854 105.627 172.356" fill="#E0C071"/>
</g>
<mask id="mask15_1_92" style="mask-type:alpha" maskUnits="userSpaceOnUse" x="64" y="284" width="45" height="45">
<path fill-rule="evenodd" clip-rule="evenodd" d="M64 284H109V329H64V284Z" fill="white"/>
</mask>
<g mask="url(#mask15_1_92)">
<path fill-rule="evenodd" clip-rule="evenodd" d="M91.2724 311.272C88.6367 313.908 84.3633 313.908 81.7276 311.272C79.092 308.637 79.092 304.363 81.7276 301.728C84.3634 299.092 88.6367 299.092 91.2724 301.728C93.908 304.363 93.908 308.637 91.2724 311.272M105.627 298.356L94.644 287.373C90.1462 282.876 82.8538 282.876 78.356 287.373L67.3733 298.356C62.8756 302.854 62.8756 310.146 67.3733 314.644L78.356 325.627C82.8538 330.124 90.1462 330.124 94.644 325.627L105.627 314.644C110.124 310.146 110.124 302.854 105.627 298.356" fill="#E0C071"/>
</g>
<mask id="mask16_1_92" style="mask-type:alpha" maskUnits="userSpaceOnUse" x="64" y="95" width="45" height="45">
<path fill-rule="evenodd" clip-rule="evenodd" d="M64 95H109V140H64V95Z" fill="white"/>
</mask>
<g mask="url(#mask16_1_92)">
<path fill-rule="evenodd" clip-rule="evenodd" d="M91.2724 122.272C88.6367 124.908 84.3633 124.908 81.7276 122.272C79.092 119.637 79.092 115.363 81.7276 112.728C84.3634 110.092 88.6367 110.092 91.2724 112.728C93.908 115.363 93.908 119.637 91.2724 122.272M105.627 109.356L94.644 98.3733C90.1462 93.8756 82.8538 93.8756 78.356 98.3733L67.3733 109.356C62.8756 113.854 62.8756 121.146 67.3733 125.644L78.356 136.627C82.8538 141.124 90.1462 141.124 94.644 136.627L105.627 125.644C110.124 121.146 110.124 113.854 105.627 109.356" fill="#E0C071"/>
</g>
<mask id="mask17_1_92" style="mask-type:alpha" maskUnits="userSpaceOnUse" x="64" y="221" width="45" height="45">
<path fill-rule="evenodd" clip-rule="evenodd" d="M64 221H109V266H64V221Z" fill="white"/>
</mask>
<g mask="url(#mask17_1_92)">
<path fill-rule="evenodd" clip-rule="evenodd" d="M91.2724 248.272C88.6367 250.908 84.3633 250.908 81.7276 248.272C79.092 245.637 79.092 241.363 81.7276 238.728C84.3634 236.092 88.6367 236.092 91.2724 238.728C93.908 241.363 93.908 245.637 91.2724 248.272M105.627 235.356L94.644 224.373C90.1462 219.876 82.8538 219.876 78.356 224.373L67.3733 235.356C62.8756 239.854 62.8756 247.146 67.3733 251.644L78.356 262.627C82.8538 267.124 90.1462 267.124 94.644 262.627L105.627 251.644C110.124 247.146 110.124 239.854 105.627 235.356" fill="#E0C071"/>
</g>
<mask id="mask18_1_92" style="mask-type:alpha" maskUnits="userSpaceOnUse" x="64" y="347" width="45" height="45">
<path fill-rule="evenodd" clip-rule="evenodd" d="M64 347H109V392H64V347Z" fill="white"/>
</mask>
<g mask="url(#mask18_1_92)">
<path fill-rule="evenodd" clip-rule="evenodd" d="M91.2724 374.272C88.6367 376.908 84.3633 376.908 81.7276 374.272C79.092 371.637 79.092 367.363 81.7276 364.728C84.3634 362.092 88.6367 362.092 91.2724 364.728C93.908 367.363 93.908 371.637 91.2724 374.272M105.627 361.356L94.644 350.373C90.1462 345.876 82.8538 345.876 78.356 350.373L67.3733 361.356C62.8756 365.854 62.8756 373.146 67.3733 377.644L78.356 388.627C82.8538 393.124 90.1462 393.124 94.644 388.627L105.627 377.644C110.124 373.146 110.124 365.854 105.627 361.356" fill="#E0C071"/>
</g>
</svg>
