<svg width="495" height="127" viewBox="0 0 495 127" fill="none" xmlns="http://www.w3.org/2000/svg">
<path fill-rule="evenodd" clip-rule="evenodd" d="M7.24141 31.9037C8.663 31.9289 10.0671 32.0334 11.4445 32.2147C15.4525 18.3824 28.204 8.17941 43.3667 8.04709C58.8301 7.91214 71.9642 18.2889 75.9447 32.4693C76.1438 32.4662 76.3389 32.4528 76.5354 32.4511C77.7888 32.4402 79.0284 32.4929 80.2503 32.6029C76.2165 16.0396 61.1499 3.76853 43.3307 3.92404C25.9944 4.07533 11.4652 15.943 7.24141 31.9037" fill="#E0C071"/>
<path fill-rule="evenodd" clip-rule="evenodd" d="M43.0701 13.9267C30.8974 14.0329 20.637 22.3376 17.2562 33.6623C18.5808 34.074 19.8661 34.5666 21.1247 35.119C23.9235 25.385 32.688 18.2201 43.1068 18.1292C53.3756 18.0396 62.1522 24.8517 65.2478 34.3174C66.5536 33.9039 67.8911 33.5669 69.255 33.2998C65.7077 21.9879 55.2776 13.8201 43.0701 13.9267" fill="#E0C071"/>
<path fill-rule="evenodd" clip-rule="evenodd" d="M55.5937 37.9417C56.7787 37.1769 58.0043 36.4719 59.2758 35.8408C57.102 28.8951 50.531 23.8619 42.8244 23.9291C34.6913 24.0001 27.9325 29.7261 26.2873 37.2956C27.6 38.1335 28.854 39.0512 30.0452 40.0413C30.4666 33.3817 36.0244 28.0607 42.8599 28.001C49.0376 27.9471 54.2486 32.2096 55.5937 37.9417" fill="#E0C071"/>
<path fill-rule="evenodd" clip-rule="evenodd" d="M154.827 98.6196C156.25 98.6461 157.653 98.7506 159.033 98.9306C163.038 85.0983 175.79 74.8966 190.953 74.7643C206.416 74.6293 219.553 85.0061 223.531 99.1864C223.73 99.1821 223.925 99.1674 224.121 99.1657C225.376 99.1548 226.616 99.2101 227.836 99.3175C223.802 82.7555 208.737 70.4831 190.917 70.6386C173.58 70.7899 159.051 82.6601 154.827 98.6196" fill="#E0C071"/>
<path fill-rule="evenodd" clip-rule="evenodd" d="M213.835 101.025C215.142 100.61 216.48 100.272 217.845 100.004C214.295 88.6946 203.867 80.526 191.658 80.6325C179.486 80.7387 169.225 89.0443 165.846 100.37C167.169 100.78 168.456 101.271 169.713 101.825C172.513 92.0914 181.278 84.9283 191.695 84.8374C201.965 84.7478 210.741 91.5568 213.835 101.025" fill="#E0C071"/>
<path fill-rule="evenodd" clip-rule="evenodd" d="M174.885 105.003C176.198 105.842 177.45 106.76 178.643 107.747C179.067 101.089 184.622 95.7655 191.457 95.7059C197.633 95.652 202.845 99.916 204.19 105.649C205.375 104.882 206.601 104.179 207.873 103.549C205.696 96.6001 199.13 91.5677 191.421 91.635C183.291 91.7059 176.53 97.4337 174.885 105.003" fill="#E0C071"/>
<path fill-rule="evenodd" clip-rule="evenodd" d="M306.651 39.6274C289.312 39.7787 274.785 51.6476 270.562 67.6084C271.983 67.6349 273.385 67.7394 274.765 67.9181C278.772 54.0871 291.522 43.8841 306.687 43.7518C322.148 43.6168 335.285 53.9948 339.265 68.1752C339.462 68.1709 339.657 68.1562 339.854 68.1545C341.108 68.1436 342.347 68.1989 343.571 68.3063C339.534 51.7443 324.468 39.4719 306.651 39.6274" fill="#E0C071"/>
<path fill-rule="evenodd" clip-rule="evenodd" d="M307.427 53.8249C317.696 53.7353 326.471 60.5457 329.566 70.0134C330.871 69.5987 332.209 69.2604 333.575 68.9933C330.025 57.6835 319.595 49.5149 307.39 49.6214C295.215 49.7276 284.955 58.0332 281.577 69.3571C282.899 69.7688 284.188 70.26 285.442 70.8137C288.243 61.0803 297.006 53.9159 307.427 53.8249" fill="#E0C071"/>
<path fill-rule="evenodd" clip-rule="evenodd" d="M319.92 73.6364C321.105 72.8715 322.331 72.1678 323.6 71.5368C321.427 64.5898 314.859 59.5566 307.149 59.6238C299.014 59.6948 292.252 65.4221 290.611 72.9916C291.922 73.8295 293.175 74.7472 294.367 75.736C294.789 69.0777 300.348 63.7541 307.184 63.6945C313.364 63.6405 318.577 67.9042 319.92 73.6364" fill="#E0C071"/>
<path fill-rule="evenodd" clip-rule="evenodd" d="M414.864 68.5001C416.117 68.4891 417.353 68.5432 418.578 68.6519C414.542 52.0899 399.477 39.8175 381.658 39.973C364.318 40.1243 349.792 51.9932 345.57 67.9526C346.99 67.9805 348.395 68.0837 349.774 68.2637C353.782 54.4314 366.53 44.2297 381.694 44.0973C397.157 43.9624 410.291 54.3391 414.272 68.5208C414.467 68.5165 414.663 68.5018 414.864 68.5001" fill="#E0C071"/>
<path fill-rule="evenodd" clip-rule="evenodd" d="M489.86 67.8455C491.113 67.8346 492.349 67.8887 493.575 67.9974C489.538 51.4353 474.473 39.1629 456.654 39.3185C439.314 39.4698 424.788 51.3387 420.566 67.2981C421.986 67.3259 423.391 67.4291 424.77 67.6091C428.778 53.7768 441.527 43.5751 456.69 43.4428C472.153 43.3079 485.287 53.6846 489.268 67.8663C489.463 67.862 489.659 67.8473 489.86 67.8455" fill="#E0C071"/>
<path fill-rule="evenodd" clip-rule="evenodd" d="M403.576 70.3676C404.883 69.9542 406.22 69.6146 407.583 69.3487C404.033 58.0369 393.607 49.8691 381.398 49.9756C369.223 50.0819 358.964 58.3853 355.584 69.7126C356.906 70.1243 358.196 70.6142 359.452 71.168C362.253 61.4339 371.017 54.2704 381.434 54.1794C391.705 54.0898 400.481 60.9006 403.576 70.3676" fill="#E0C071"/>
<path fill-rule="evenodd" clip-rule="evenodd" d="M478.572 69.7131C479.879 69.2997 481.217 68.96 482.579 68.6942C479.029 57.3824 468.603 49.2145 456.394 49.3211C444.219 49.4273 433.96 57.7307 430.58 69.0581C431.902 69.4697 433.192 69.9597 434.448 70.5134C437.249 60.7794 446.013 53.6158 456.43 53.5249C466.701 53.4353 475.478 60.2461 478.572 69.7131" fill="#E0C071"/>
<path fill-rule="evenodd" clip-rule="evenodd" d="M365.623 74.3369C366.936 75.176 368.189 76.0913 369.379 77.0815C369.803 70.4213 375.359 65.0999 382.195 65.0403C388.374 64.9863 393.587 69.2491 394.929 74.983C396.114 74.2168 397.343 73.5117 398.612 72.8806C396.436 65.9344 389.869 60.902 382.159 60.9693C374.028 61.0403 367.266 66.7655 365.623 74.3369" fill="#E0C071"/>
<path fill-rule="evenodd" clip-rule="evenodd" d="M440.623 73.6824C441.936 74.5216 443.189 75.4369 444.379 76.427C444.803 69.7669 450.359 64.4455 457.195 64.3858C463.374 64.3319 468.587 68.5947 469.929 74.3286C471.114 73.5624 472.343 72.8573 473.612 72.2262C471.436 65.28 464.869 60.2476 457.159 60.3149C449.028 60.3859 442.266 66.1111 440.623 73.6824" fill="#E0C071"/>
<path fill-rule="evenodd" clip-rule="evenodd" d="M79.6061 35.6086C62.2701 35.7599 47.7411 47.6288 43.5188 63.5883C44.9416 63.6148 46.3431 63.7193 47.7217 63.8993C51.7284 50.0683 64.4809 39.8653 79.6421 39.733C95.1052 39.598 108.242 49.976 112.22 64.1564C112.419 64.1521 112.614 64.1374 112.812 64.1357C114.065 64.1248 115.303 64.1801 116.528 64.2875C112.493 47.7268 97.4262 35.4531 79.6061 35.6086" fill="#E0C071"/>
<path fill-rule="evenodd" clip-rule="evenodd" d="M79.3461 45.6113C67.1741 45.7175 56.9142 54.0235 53.5335 65.3482C54.8581 65.7599 56.1446 66.2512 57.4018 66.8036C60.2005 57.0709 68.9646 49.906 79.3828 49.8151C89.6511 49.7255 98.4273 56.5363 101.523 66.0033C102.829 65.5899 104.167 65.2515 105.532 64.9844C101.983 53.6739 91.5544 45.5047 79.3461 45.6113" fill="#E0C071"/>
<path fill-rule="evenodd" clip-rule="evenodd" d="M92.8814 70.6163C94.0664 69.8528 95.2946 69.1478 96.5649 68.5167C94.3896 61.5698 87.821 56.5378 80.1115 56.6051C71.9807 56.676 65.219 62.402 63.5763 69.9715C64.8878 70.8094 66.1418 71.7271 67.3319 72.7172C67.7559 66.0588 73.3113 60.7366 80.1471 60.677C86.3262 60.623 91.5375 64.8842 92.8814 70.6163" fill="#E0C071"/>
<path fill-rule="evenodd" clip-rule="evenodd" d="M157.633 37.9278C140.296 38.0791 125.766 49.948 121.542 65.9075C122.966 65.9353 124.369 66.0385 125.748 66.2185C129.754 52.3862 142.504 42.1845 157.669 42.0522C173.13 41.9172 186.264 52.2927 190.243 66.4757C190.443 66.4713 190.639 66.4566 190.835 66.4549C192.088 66.444 193.327 66.4993 194.551 66.6067C190.516 50.0447 175.45 37.7723 157.633 37.9278" fill="#E0C071"/>
<path fill-rule="evenodd" clip-rule="evenodd" d="M179.547 68.3225C180.854 67.9077 182.191 67.5694 183.556 67.3023C180.007 55.9917 169.577 47.8239 157.371 47.9305C145.197 48.0367 134.938 56.3414 131.557 67.6674C132.879 68.0791 134.167 68.5691 135.425 69.1228C138.224 59.3888 146.989 52.2252 157.408 52.1343C167.675 52.0447 176.452 58.8542 179.547 68.3225" fill="#E0C071"/>
<path fill-rule="evenodd" clip-rule="evenodd" d="M158.173 62.9949C164.35 62.941 169.562 67.2047 170.907 72.9368C172.091 72.1707 173.317 71.4683 174.588 70.8372C172.414 63.889 165.844 58.857 158.138 58.9243C150.004 58.9952 143.242 64.72 141.6 72.292C142.911 73.1299 144.165 74.0451 145.358 75.0364C145.779 68.3781 151.337 63.0545 158.173 62.9949" fill="#E0C071"/>
<path fill-rule="evenodd" clip-rule="evenodd" d="M196.558 67.2542C197.979 67.2807 199.381 67.384 200.763 67.5653C204.77 53.733 217.52 43.5287 232.682 43.3963C248.145 43.2614 261.278 53.6394 265.259 67.8211C265.458 67.8168 265.65 67.8021 265.848 67.8004C267.101 67.7895 268.342 67.8435 269.567 67.9522C265.53 51.3901 250.464 39.1178 232.646 39.2733C215.31 39.4246 200.781 51.2948 196.558 67.2542" fill="#E0C071"/>
<path fill-rule="evenodd" clip-rule="evenodd" d="M254.564 69.668C255.869 69.2519 257.209 68.9149 258.571 68.6478C255.024 57.3367 244.595 49.1694 232.386 49.2759C220.212 49.3822 209.951 57.6864 206.573 69.013C207.893 69.422 209.184 69.9146 210.439 70.4683C213.241 60.7348 222.005 53.5704 232.423 53.4795C242.693 53.3898 251.47 60.2002 254.564 69.668" fill="#E0C071"/>
<path fill-rule="evenodd" clip-rule="evenodd" d="M233.175 63.3416C239.354 63.2877 244.567 67.5501 245.912 73.2835C247.095 72.5174 248.321 71.8125 249.592 71.1814C247.417 64.2357 240.849 59.2024 233.14 59.2697C225.008 59.3407 218.245 65.0667 216.604 72.6375C217.915 73.4741 219.167 74.3918 220.362 75.3818C220.783 68.7235 226.339 63.4013 233.175 63.3416" fill="#E0C071"/>
<path fill-rule="evenodd" clip-rule="evenodd" d="M96.4154 32.5126C97.7478 32.912 99.0471 33.3901 100.309 33.9263C102.246 34.7469 104.098 35.7224 105.852 36.8388C107.171 37.679 108.434 38.5993 109.634 39.5921C114.008 43.2072 117.544 47.7828 119.9 52.9943C120.45 53.1116 121.016 53.1978 121.591 53.2429C124.577 46.7927 129.384 41.3273 135.364 37.4856C136.555 36.7186 137.791 36.0116 139.07 35.3787C140.88 34.4856 142.777 33.7342 144.739 33.1339C146.056 32.7319 147.402 32.4042 148.776 32.1442C150.777 31.7658 152.837 31.5449 154.937 31.4932C155.135 31.4914 155.33 31.4769 155.529 31.4751C156.782 31.4642 158.019 31.5176 159.244 31.6251C155.209 15.2268 140.145 3.07908 122.327 3.23458C104.99 3.38588 90.4627 15.1367 86.2351 30.9392C87.6579 30.964 89.0606 31.0674 90.4419 31.2467C92.4864 31.514 94.4854 31.9346 96.4154 32.5126" fill="#E0C071"/>
<path fill-rule="evenodd" clip-rule="evenodd" d="M79.7937 94.9976C81.2153 95.0238 82.6167 95.1271 83.9979 95.3052C86.0438 95.5725 88.0402 95.9931 89.9742 96.5722C91.304 96.9717 92.602 97.4484 93.8653 97.9846C95.8015 98.8065 97.653 99.7807 99.4082 100.897C100.729 101.738 101.99 102.659 103.191 103.65C107.568 107.266 111.1 111.842 113.457 117.052C114.007 117.169 114.571 117.255 115.147 117.302C118.137 110.852 122.941 105.387 128.92 101.544C130.112 100.777 131.347 100.07 132.628 99.4382C134.438 98.5438 136.335 97.7938 138.296 97.1935C139.611 96.7916 140.958 96.4625 142.334 96.2039C144.337 95.8255 146.394 95.6046 148.496 95.5528C148.692 95.5498 148.887 95.5366 149.085 95.5349C150.338 95.5239 151.577 95.5761 152.802 95.6822C148.768 79.2874 133.702 67.1377 115.885 67.2932C98.5462 67.4445 84.0188 79.1973 79.7937 94.9976" fill="#E0C071"/>
<path fill-rule="evenodd" clip-rule="evenodd" d="M267.196 121.975C270.185 115.526 274.987 110.06 280.97 106.218C282.159 105.45 283.395 104.743 284.675 104.111C286.487 103.218 288.382 102.467 290.345 101.868C291.661 101.465 293.008 101.137 294.383 100.877C296.385 100.498 298.44 100.278 300.543 100.228C300.74 100.223 300.936 100.21 301.132 100.208C302.388 100.197 303.626 100.249 304.849 100.357C300.815 83.9591 285.751 71.811 267.934 71.9665C250.595 72.1178 236.066 83.869 231.841 99.6718C233.262 99.6966 234.666 99.8 236.046 99.9794C238.092 100.247 240.091 100.667 242.021 101.245C243.353 101.645 244.65 102.123 245.915 102.659C247.852 103.48 249.703 104.455 251.457 105.57C252.775 106.411 254.037 107.332 255.24 108.325C259.614 111.94 263.15 116.516 265.503 121.728C266.059 121.845 266.622 121.931 267.196 121.975" fill="#E0C071"/>
<path fill-rule="evenodd" clip-rule="evenodd" d="M308.848 99.9985C310.273 100.025 311.674 100.128 313.055 100.306C315.1 100.573 317.099 100.995 319.029 101.573C320.361 101.973 321.659 102.449 322.922 102.986C324.858 103.807 326.71 104.782 328.464 105.899C329.783 106.739 331.047 107.66 332.248 108.652C336.622 112.268 340.156 116.843 342.513 122.052C343.064 122.17 343.628 122.257 344.204 122.303C347.191 115.853 351.998 110.388 357.976 106.545C359.167 105.779 360.404 105.072 361.684 104.439C363.495 103.545 365.39 102.795 367.353 102.194C368.668 101.793 370.014 101.463 371.39 101.204C373.393 100.826 375.45 100.605 377.552 100.555C377.748 100.549 377.943 100.536 378.141 100.534C379.394 100.524 380.633 100.578 381.857 100.683C377.825 84.2866 362.757 72.1392 344.939 72.2947C327.603 72.4459 313.076 84.1978 308.848 99.9985" fill="#E0C071"/>
<mask id="mask0_1_37" style="mask-type:alpha" maskUnits="userSpaceOnUse" x="384" y="72" width="75" height="51">
<path fill-rule="evenodd" clip-rule="evenodd" d="M384.613 72.9484L457.611 72.3113L458.047 122.309L385.05 122.946L384.613 72.9484Z" fill="white"/>
</mask>
<g mask="url(#mask0_1_37)">
<path fill-rule="evenodd" clip-rule="evenodd" d="M420.944 72.6313C403.608 72.7826 389.077 84.5345 384.852 100.335C386.274 100.363 387.678 100.465 389.058 100.643C391.104 100.91 393.103 101.332 395.033 101.91C396.365 102.309 397.661 102.786 398.927 103.324C400.863 104.144 402.715 105.118 404.466 106.236C405.788 107.076 407.049 107.996 408.25 108.989C412.627 112.604 416.162 117.18 418.516 122.39C419.069 122.508 419.631 122.593 420.206 122.64C423.199 116.19 428.003 110.724 433.979 106.881C435.173 106.116 436.407 105.409 437.69 104.776C439.501 103.881 441.396 103.131 443.359 102.532C444.674 102.13 446.021 101.8 447.397 101.54C449.397 101.163 451.454 100.943 453.556 100.892C453.755 100.887 453.95 100.873 454.148 100.871C455.401 100.86 456.639 100.915 457.861 101.021C453.829 84.6245 438.763 72.4758 420.944 72.6313" fill="#E0C071"/>
</g>
<path fill-rule="evenodd" clip-rule="evenodd" d="M63.355 98.8929C65.3562 98.5158 67.4147 98.2935 69.5164 98.2444C69.7129 98.2388 69.908 98.2255 70.1072 98.2238C71.3605 98.2129 72.5975 98.265 73.822 98.3738C69.7897 81.9763 54.7241 69.827 36.9036 69.9825C19.566 70.1338 5.03837 81.8863 0.813232 97.6878C2.23484 97.7152 3.63628 97.8173 5.01755 97.9954C7.06213 98.2627 9.06119 98.6833 10.9926 99.2625C12.3238 99.6607 13.6218 100.139 14.8877 100.676C16.8213 101.496 18.6742 102.471 20.4281 103.589C21.7488 104.429 23.0116 105.348 24.2112 106.341C28.5876 109.956 32.1224 114.532 34.4769 119.744C35.0298 119.861 35.5916 119.947 36.1673 119.991C39.1568 113.542 43.9629 108.076 49.9402 104.234C51.1323 103.467 52.3679 102.76 53.6484 102.127C55.4589 101.234 57.3567 100.483 59.3169 99.8852C60.6319 99.4819 61.9814 99.1528 63.355 98.8929" fill="#E0C071"/>
<path fill-rule="evenodd" clip-rule="evenodd" d="M171.431 33.8585C172.764 34.258 174.059 34.7348 175.326 35.2709C177.261 36.0916 179.114 37.0671 180.867 38.1847C182.186 39.0249 183.449 39.9451 184.65 40.9366C189.023 44.5517 192.559 49.1284 194.914 54.3385C195.468 54.4557 196.031 54.542 196.605 54.5884C199.595 48.137 204.401 42.6718 210.379 38.8302C211.571 38.0619 212.806 37.3575 214.088 36.7246C215.897 35.8302 217.792 35.0789 219.755 34.4799C221.071 34.0779 222.42 33.7488 223.793 33.4889C225.796 33.1118 227.851 32.8896 229.953 32.8404C230.15 32.8362 230.347 32.8216 230.545 32.8199C231.798 32.8089 233.036 32.8636 234.259 32.9686C230.225 16.572 215.161 4.42454 197.344 4.58002C180.005 4.73135 165.477 16.4832 161.251 32.2839C162.672 32.31 164.076 32.4134 165.456 32.5915C167.502 32.8588 169.501 33.2794 171.431 33.8585" fill="#E0C071"/>
<path fill-rule="evenodd" clip-rule="evenodd" d="M245.434 34.2127C246.765 34.6121 248.063 35.0889 249.329 35.6251C251.263 36.447 253.115 37.4212 254.871 38.5389C256.191 39.379 257.451 40.2993 258.653 41.292C263.028 44.9071 266.562 49.4826 268.918 54.6939C269.471 54.8099 270.034 54.8961 270.608 54.9425C273.6 48.4924 278.404 43.0272 284.382 39.1843C285.576 38.4186 286.81 37.7116 288.091 37.0787C289.903 36.1843 291.795 35.4343 293.758 34.834C295.074 34.432 296.424 34.103 297.797 33.8443C299.799 33.4659 301.857 33.245 303.959 33.1946C304.157 33.1915 304.351 33.177 304.548 33.1753C305.802 33.1643 307.043 33.2177 308.263 33.3227C304.228 16.9274 289.164 4.77868 271.347 4.93416C254.006 5.08549 239.479 16.8373 235.255 32.638C236.675 32.6642 238.078 32.7675 239.456 32.9456C241.505 33.2129 243.503 33.6348 245.434 34.2127" fill="#E0C071"/>
<path fill-rule="evenodd" clip-rule="evenodd" d="M309.27 33.9937C310.689 34.0186 312.093 34.1219 313.473 34.3013C315.519 34.5686 317.516 34.988 319.448 35.5672C320.778 35.9666 322.076 36.4447 323.342 36.9809C325.276 37.8016 327.13 38.7771 328.884 39.8949C330.206 40.7337 331.467 41.654 332.666 42.6469C337.042 46.2621 340.577 50.8378 342.934 56.0482C343.484 56.1667 344.046 56.2517 344.622 56.2968C347.614 49.8477 352.419 44.3821 358.395 40.5404C359.588 39.7721 360.825 39.065 362.104 38.4321C363.916 37.5402 365.811 36.7889 367.774 36.1898C369.089 35.7865 370.436 35.4588 371.809 35.1988C373.812 34.8217 375.872 34.5994 377.971 34.5503C378.167 34.5447 378.362 34.5315 378.563 34.5297C379.816 34.5188 381.053 34.5709 382.279 34.6784C378.244 18.281 363.179 6.13293 345.359 6.28844C328.02 6.43975 313.493 18.1909 309.27 33.9937" fill="#E0C071"/>
<path fill-rule="evenodd" clip-rule="evenodd" d="M394.456 35.9131C395.79 36.3126 397.085 36.7894 398.35 37.3256C400.287 38.1449 402.139 39.1218 403.893 40.2394C405.214 41.0796 406.475 41.9999 407.673 42.9914C412.05 46.6065 415.589 51.1834 417.942 56.3923C418.495 56.5108 419.058 56.5958 419.63 56.6422C422.622 50.192 427.428 44.7279 433.404 40.885C434.597 40.1166 435.834 39.4122 437.115 38.7793C438.924 37.8848 440.819 37.1348 442.782 36.5345C444.098 36.1325 445.448 35.8034 446.82 35.5435C448.821 35.1664 450.88 34.9455 452.98 34.8937C453.178 34.8894 453.374 34.8762 453.572 34.8744C454.825 34.8635 456.064 34.9169 457.287 35.0231C453.254 18.6261 438.19 6.47836 420.368 6.63389C403.031 6.78519 388.501 18.5374 384.278 34.3385C385.7 34.3646 387.101 34.468 388.481 34.646C390.527 34.9134 392.527 35.3339 394.456 35.9131" fill="#E0C071"/>
</svg>
