<svg width="150" height="515" viewBox="0 0 150 515" fill="none" xmlns="http://www.w3.org/2000/svg">
<mask id="mask0_6_68" style="mask-type:alpha" maskUnits="userSpaceOnUse" x="0" y="0" width="150" height="515">
<rect width="150" height="515" fill="white"/>
</mask>
<g mask="url(#mask0_6_68)">
<mask id="mask1_6_68" style="mask-type:alpha" maskUnits="userSpaceOnUse" x="0" y="0" width="20" height="721">
<path fill-rule="evenodd" clip-rule="evenodd" d="M0 0H19.7674V720.93H0V0Z" fill="white"/>
</mask>
<g mask="url(#mask1_6_68)">
<path fill-rule="evenodd" clip-rule="evenodd" d="M19.7675 0H13.7849C13.7849 8.73575 10.5502 16.4394 7.12465 24.5941C3.62216 32.9343 0 41.559 0 51.4951C0 61.4319 3.62216 70.0569 7.12465 78.3971C10.5502 86.5525 13.7849 94.2544 13.7849 102.99C13.7849 111.726 10.5502 119.429 7.12465 127.584C3.62216 135.924 0 144.549 0 154.485C0 164.422 3.62216 173.047 7.12465 181.387C10.5502 189.543 13.7849 197.244 13.7849 205.98C13.7849 214.716 10.5502 222.419 7.12465 230.574C3.62216 238.914 0 247.539 0 257.475C0 267.412 3.62216 276.037 7.12465 284.377C10.5502 292.533 13.7849 300.234 13.7849 308.97C13.7849 317.706 10.5502 325.41 7.12465 333.564C3.62216 341.904 0 350.529 0 360.465C0 370.402 3.62216 379.027 7.12465 387.367C10.5502 395.523 13.7849 403.224 13.7849 411.96C13.7849 420.696 10.5502 428.4 7.12465 436.554C3.62216 444.894 0 453.519 0 463.455C0 473.392 3.62216 482.017 7.12465 490.357C10.5502 498.513 13.7849 506.214 13.7849 514.95C13.7849 523.686 10.5502 531.39 7.12465 539.544C3.62216 547.884 0 556.509 0 566.445C0 576.382 3.62216 585.007 7.12465 593.347C10.5502 601.503 13.7849 609.205 13.7849 617.94C13.7849 626.676 10.5502 634.38 7.12465 642.534C3.62216 650.874 0 659.499 0 669.435C0 679.372 3.62216 687.997 7.12465 696.337C10.5502 704.493 13.7849 712.194 13.7849 720.93H19.7675C19.7675 710.994 16.1453 702.369 12.6428 694.029C9.21727 685.875 5.98257 678.171 5.98257 669.435C5.98257 660.7 9.21727 652.998 12.6428 644.842C16.1453 636.502 19.7675 627.877 19.7675 617.94C19.7675 608.004 16.1453 599.379 12.6428 591.039C9.21727 582.885 5.98257 575.181 5.98257 566.445C5.98257 557.709 9.21727 550.008 12.6428 541.852C16.1453 533.512 19.7675 524.887 19.7675 514.95C19.7675 505.014 16.1453 496.389 12.6428 488.049C9.21727 479.894 5.98257 472.191 5.98257 463.455C5.98257 454.72 9.21727 447.018 12.6428 438.862C16.1453 430.522 19.7675 421.897 19.7675 411.96C19.7675 402.024 16.1453 393.399 12.6428 385.059C9.21727 376.904 5.98257 369.201 5.98257 360.465C5.98257 351.729 9.21727 344.028 12.6428 335.872C16.1453 327.532 19.7675 318.907 19.7675 308.97C19.7675 299.034 16.1453 290.409 12.6428 282.069C9.21727 273.915 5.98257 266.211 5.98257 257.475C5.98257 248.739 9.21727 241.038 12.6428 232.882C16.1453 224.542 19.7675 215.917 19.7675 205.98C19.7675 196.044 16.1453 187.419 12.6428 179.079C9.21727 170.924 5.98257 163.221 5.98257 154.485C5.98257 145.749 9.21727 138.048 12.6428 129.892C16.1453 121.552 19.7675 112.927 19.7675 102.99C19.7675 93.0541 16.1453 84.4291 12.6428 76.0889C9.21727 67.9345 5.98257 60.2308 5.98257 51.4951C5.98257 42.7593 9.21727 35.0576 12.6428 26.902C16.1453 18.5618 19.7675 9.93706 19.7675 0" fill="#E0C071"/>
</g>
<mask id="mask2_6_68" style="mask-type:alpha" maskUnits="userSpaceOnUse" x="27" y="0" width="21" height="721">
<path fill-rule="evenodd" clip-rule="evenodd" d="M27.9062 0H47.6737V720.93H27.9062V0Z" fill="white"/>
</mask>
<g mask="url(#mask2_6_68)">
<path fill-rule="evenodd" clip-rule="evenodd" d="M47.6737 51.495C47.6737 41.5591 44.0515 32.9341 40.549 24.5939C37.1235 16.4395 33.8888 8.73563 33.8888 -0.00012207H27.9062C27.9062 9.93694 31.5284 18.5619 35.0309 26.9021C38.4564 35.0575 41.6911 42.7592 41.6911 51.495C41.6911 60.2307 38.4564 67.9343 35.0309 76.089C31.5284 84.4292 27.9062 93.054 27.9062 102.99C27.9062 112.927 31.5284 121.552 35.0309 129.892C38.4564 138.048 41.6911 145.749 41.6911 154.485C41.6911 163.221 38.4564 170.924 35.0309 179.079C31.5284 187.419 27.9062 196.044 27.9062 205.98C27.9062 215.917 31.5284 224.542 35.0309 232.882C38.4564 241.038 41.6911 248.739 41.6911 257.475C41.6911 266.211 38.4564 273.914 35.0309 282.069C31.5284 290.409 27.9062 299.034 27.9062 308.97C27.9062 318.907 31.5284 327.532 35.0309 335.872C38.4564 344.028 41.6911 351.729 41.6911 360.465C41.6911 369.201 38.4564 376.905 35.0309 385.059C31.5284 393.399 27.9062 402.024 27.9062 411.96C27.9062 421.897 31.5284 430.522 35.0309 438.862C38.4564 447.018 41.6911 454.719 41.6911 463.455C41.6911 472.191 38.4564 479.895 35.0309 488.049C31.5284 496.389 27.9062 505.014 27.9062 514.95C27.9062 524.887 31.5284 533.512 35.0309 541.852C38.4564 550.008 41.6911 557.709 41.6911 566.445C41.6911 575.181 38.4564 582.885 35.0309 591.039C31.5284 599.379 27.9062 608.004 27.9062 617.94C27.9062 627.877 31.5284 636.502 35.0309 644.842C38.4564 652.998 41.6911 660.7 41.6911 669.435C41.6911 678.171 38.4564 685.875 35.0309 694.029C31.5284 702.369 27.9062 710.994 27.9062 720.93H33.8888C33.8888 712.195 37.1235 704.493 40.549 696.337C44.0515 687.997 47.6737 679.372 47.6737 669.435C47.6737 659.5 44.0515 650.875 40.549 642.534C37.1235 634.38 33.8888 626.676 33.8888 617.94C33.8888 609.204 37.1235 601.503 40.549 593.347C44.0515 585.007 47.6737 576.382 47.6737 566.445C47.6737 556.509 44.0515 547.884 40.549 539.544C37.1235 531.389 33.8888 523.686 33.8888 514.95C33.8888 506.215 37.1235 498.513 40.549 490.357C44.0515 482.017 47.6737 473.392 47.6737 463.455C47.6737 453.519 44.0515 444.894 40.549 436.554C37.1235 428.4 33.8888 420.696 33.8888 411.96C33.8888 403.224 37.1235 395.523 40.549 387.367C44.0515 379.027 47.6737 370.402 47.6737 360.465C47.6737 350.529 44.0515 341.904 40.549 333.564C37.1235 325.41 33.8888 317.706 33.8888 308.97C33.8888 300.234 37.1235 292.533 40.549 284.377C44.0515 276.037 47.6737 267.412 47.6737 257.475C47.6737 247.539 44.0515 238.914 40.549 230.574C37.1235 222.42 33.8888 214.716 33.8888 205.98C33.8888 197.244 37.1235 189.543 40.549 181.387C44.0515 173.047 47.6737 164.422 47.6737 154.485C47.6737 144.549 44.0515 135.924 40.549 127.584C37.1235 119.429 33.8888 111.726 33.8888 102.99C33.8888 94.2543 37.1235 86.5526 40.549 78.397C44.0515 70.0568 47.6737 61.432 47.6737 51.495" fill="#E0C071"/>
</g>
<path fill-rule="evenodd" clip-rule="evenodd" d="M70.9315 0H64.9489C64.9489 8.73575 61.7142 16.4394 58.2887 24.5941C54.7862 32.9343 51.1641 41.559 51.1641 51.4951C51.1641 61.4319 54.7862 70.0569 58.2887 78.3971C61.7142 86.5525 64.9489 94.2544 64.9489 102.99C64.9489 111.726 61.7142 119.429 58.2887 127.584C54.7862 135.924 51.1641 144.549 51.1641 154.485C51.1641 164.422 54.7862 173.047 58.2887 181.387C61.7142 189.543 64.9489 197.244 64.9489 205.98C64.9489 214.716 61.7142 222.419 58.2887 230.574C54.7862 238.914 51.1641 247.539 51.1641 257.475C51.1641 267.412 54.7862 276.037 58.2887 284.377C61.7142 292.533 64.9489 300.234 64.9489 308.97C64.9489 317.706 61.7142 325.41 58.2887 333.564C54.7862 341.904 51.1641 350.529 51.1641 360.465C51.1641 370.402 54.7862 379.027 58.2887 387.367C61.7142 395.523 64.9489 403.224 64.9489 411.96C64.9489 420.696 61.7142 428.4 58.2887 436.554C54.7862 444.894 51.1641 453.519 51.1641 463.455C51.1641 473.392 54.7862 482.017 58.2887 490.357C61.7142 498.513 64.9489 506.214 64.9489 514.95C64.9489 523.686 61.7142 531.39 58.2887 539.544C54.7862 547.884 51.1641 556.509 51.1641 566.445C51.1641 576.382 54.7862 585.007 58.2887 593.347C61.7142 601.503 64.9489 609.205 64.9489 617.94C64.9489 626.676 61.7142 634.38 58.2887 642.534C54.7862 650.874 51.1641 659.499 51.1641 669.435C51.1641 679.372 54.7862 687.997 58.2887 696.337C61.7142 704.493 64.9489 712.194 64.9489 720.93H70.9315C70.9315 710.994 67.3094 702.369 63.8069 694.029C60.3813 685.875 57.1466 678.171 57.1466 669.435C57.1466 660.7 60.3813 652.998 63.8069 644.842C67.3094 636.502 70.9315 627.877 70.9315 617.94C70.9315 608.004 67.3094 599.379 63.8069 591.039C60.3813 582.885 57.1466 575.181 57.1466 566.445C57.1466 557.709 60.3813 550.008 63.8069 541.852C67.3094 533.512 70.9315 524.887 70.9315 514.95C70.9315 505.014 67.3094 496.389 63.8069 488.049C60.3813 479.894 57.1466 472.191 57.1466 463.455C57.1466 454.72 60.3813 447.018 63.8069 438.862C67.3094 430.522 70.9315 421.897 70.9315 411.96C70.9315 402.024 67.3094 393.399 63.8069 385.059C60.3813 376.904 57.1466 369.201 57.1466 360.465C57.1466 351.729 60.3813 344.028 63.8069 335.872C67.3094 327.532 70.9315 318.907 70.9315 308.97C70.9315 299.034 67.3094 290.409 63.8069 282.069C60.3813 273.915 57.1466 266.211 57.1466 257.475C57.1466 248.739 60.3813 241.038 63.8069 232.882C67.3094 224.542 70.9315 215.917 70.9315 205.98C70.9315 196.044 67.3094 187.419 63.8069 179.079C60.3813 170.924 57.1466 163.221 57.1466 154.485C57.1466 145.749 60.3813 138.048 63.8069 129.892C67.3094 121.552 70.9315 112.927 70.9315 102.99C70.9315 93.0541 67.3094 84.4291 63.8069 76.0889C60.3813 67.9345 57.1466 60.2308 57.1466 51.4951C57.1466 42.7593 60.3813 35.0576 63.8069 26.902C67.3094 18.5618 70.9315 9.93706 70.9315 0" fill="#E0C071"/>
<mask id="mask3_6_68" style="mask-type:alpha" maskUnits="userSpaceOnUse" x="79" y="0" width="20" height="721">
<path fill-rule="evenodd" clip-rule="evenodd" d="M79.0703 0H98.8378V720.93H79.0703V0Z" fill="white"/>
</mask>
<g mask="url(#mask3_6_68)">
<path fill-rule="evenodd" clip-rule="evenodd" d="M98.8378 51.495C98.8378 41.5591 95.2156 32.9341 91.7131 24.5939C88.2876 16.4395 85.0529 8.73563 85.0529 -0.00012207H79.0703C79.0703 9.93694 82.6925 18.5619 86.195 26.9021C89.6205 35.0575 92.8552 42.7592 92.8552 51.495C92.8552 60.2307 89.6205 67.9343 86.195 76.089C82.6925 84.4292 79.0703 93.054 79.0703 102.99C79.0703 112.927 82.6925 121.552 86.195 129.892C89.6205 138.048 92.8552 145.749 92.8552 154.485C92.8552 163.221 89.6205 170.924 86.195 179.079C82.6925 187.419 79.0703 196.044 79.0703 205.98C79.0703 215.917 82.6925 224.542 86.195 232.882C89.6205 241.038 92.8552 248.739 92.8552 257.475C92.8552 266.211 89.6205 273.914 86.195 282.069C82.6925 290.409 79.0703 299.034 79.0703 308.97C79.0703 318.907 82.6925 327.532 86.195 335.872C89.6205 344.028 92.8552 351.729 92.8552 360.465C92.8552 369.201 89.6205 376.905 86.195 385.059C82.6925 393.399 79.0703 402.024 79.0703 411.96C79.0703 421.897 82.6925 430.522 86.195 438.862C89.6205 447.018 92.8552 454.719 92.8552 463.455C92.8552 472.191 89.6205 479.895 86.195 488.049C82.6925 496.389 79.0703 505.014 79.0703 514.95C79.0703 524.887 82.6925 533.512 86.195 541.852C89.6205 550.008 92.8552 557.709 92.8552 566.445C92.8552 575.181 89.6205 582.885 86.195 591.039C82.6925 599.379 79.0703 608.004 79.0703 617.94C79.0703 627.877 82.6925 636.502 86.195 644.842C89.6205 652.998 92.8552 660.7 92.8552 669.435C92.8552 678.171 89.6205 685.875 86.195 694.029C82.6925 702.369 79.0703 710.994 79.0703 720.93H85.0529C85.0529 712.195 88.2876 704.493 91.7131 696.337C95.2156 687.997 98.8378 679.372 98.8378 669.435C98.8378 659.5 95.2156 650.875 91.7131 642.534C88.2876 634.38 85.0529 626.676 85.0529 617.94C85.0529 609.204 88.2876 601.503 91.7131 593.347C95.2156 585.007 98.8378 576.382 98.8378 566.445C98.8378 556.509 95.2156 547.884 91.7131 539.544C88.2876 531.389 85.0529 523.686 85.0529 514.95C85.0529 506.215 88.2876 498.513 91.7131 490.357C95.2156 482.017 98.8378 473.392 98.8378 463.455C98.8378 453.519 95.2156 444.894 91.7131 436.554C88.2876 428.4 85.0529 420.696 85.0529 411.96C85.0529 403.224 88.2876 395.523 91.7131 387.367C95.2156 379.027 98.8378 370.402 98.8378 360.465C98.8378 350.529 95.2156 341.904 91.7131 333.564C88.2876 325.41 85.0529 317.706 85.0529 308.97C85.0529 300.234 88.2876 292.533 91.7131 284.377C95.2156 276.037 98.8378 267.412 98.8378 257.475C98.8378 247.539 95.2156 238.914 91.7131 230.574C88.2876 222.42 85.0529 214.716 85.0529 205.98C85.0529 197.244 88.2876 189.543 91.7131 181.387C95.2156 173.047 98.8378 164.422 98.8378 154.485C98.8378 144.549 95.2156 135.924 91.7131 127.584C88.2876 119.429 85.0529 111.726 85.0529 102.99C85.0529 94.2543 88.2876 86.5526 91.7131 78.397C95.2156 70.0568 98.8378 61.432 98.8378 51.495" fill="#E0C071"/>
</g>
<path fill-rule="evenodd" clip-rule="evenodd" d="M122.092 0H116.109C116.109 8.73575 112.874 16.4394 109.449 24.5941C105.946 32.9343 102.324 41.559 102.324 51.4951C102.324 61.4319 105.946 70.0569 109.449 78.3971C112.874 86.5525 116.109 94.2544 116.109 102.99C116.109 111.726 112.874 119.429 109.449 127.584C105.946 135.924 102.324 144.549 102.324 154.485C102.324 164.422 105.946 173.047 109.449 181.387C112.874 189.543 116.109 197.244 116.109 205.98C116.109 214.716 112.874 222.419 109.449 230.574C105.946 238.914 102.324 247.539 102.324 257.475C102.324 267.412 105.946 276.037 109.449 284.377C112.874 292.533 116.109 300.234 116.109 308.97C116.109 317.706 112.874 325.41 109.449 333.564C105.946 341.904 102.324 350.529 102.324 360.465C102.324 370.402 105.946 379.027 109.449 387.367C112.874 395.523 116.109 403.224 116.109 411.96C116.109 420.696 112.874 428.4 109.449 436.554C105.946 444.894 102.324 453.519 102.324 463.455C102.324 473.392 105.946 482.017 109.449 490.357C112.874 498.513 116.109 506.214 116.109 514.95C116.109 523.686 112.874 531.39 109.449 539.544C105.946 547.884 102.324 556.509 102.324 566.445C102.324 576.382 105.946 585.007 109.449 593.347C112.874 601.503 116.109 609.205 116.109 617.94C116.109 626.676 112.874 634.38 109.449 642.534C105.946 650.874 102.324 659.499 102.324 669.435C102.324 679.372 105.946 687.997 109.449 696.337C112.874 704.493 116.109 712.194 116.109 720.93H122.092C122.092 710.994 118.47 702.369 114.967 694.029C111.541 685.875 108.307 678.171 108.307 669.435C108.307 660.7 111.541 652.998 114.967 644.842C118.47 636.502 122.092 627.877 122.092 617.94C122.092 608.004 118.47 599.379 114.967 591.039C111.541 582.885 108.307 575.181 108.307 566.445C108.307 557.709 111.541 550.008 114.967 541.852C118.47 533.512 122.092 524.887 122.092 514.95C122.092 505.014 118.47 496.389 114.967 488.049C111.541 479.894 108.307 472.191 108.307 463.455C108.307 454.72 111.541 447.018 114.967 438.862C118.47 430.522 122.092 421.897 122.092 411.96C122.092 402.024 118.47 393.399 114.967 385.059C111.541 376.904 108.307 369.201 108.307 360.465C108.307 351.729 111.541 344.028 114.967 335.872C118.47 327.532 122.092 318.907 122.092 308.97C122.092 299.034 118.47 290.409 114.967 282.069C111.541 273.915 108.307 266.211 108.307 257.475C108.307 248.739 111.541 241.038 114.967 232.882C118.47 224.542 122.092 215.917 122.092 205.98C122.092 196.044 118.47 187.419 114.967 179.079C111.541 170.924 108.307 163.221 108.307 154.485C108.307 145.749 111.541 138.048 114.967 129.892C118.47 121.552 122.092 112.927 122.092 102.99C122.092 93.0541 118.47 84.4291 114.967 76.0889C111.541 67.9345 108.307 60.2308 108.307 51.4951C108.307 42.7593 111.541 35.0576 114.967 26.902C118.47 18.5618 122.092 9.93706 122.092 0" fill="#E0C071"/>
<mask id="mask4_6_68" style="mask-type:alpha" maskUnits="userSpaceOnUse" x="130" y="0" width="20" height="721">
<path fill-rule="evenodd" clip-rule="evenodd" d="M130.234 0H150.002V720.93H130.234V0Z" fill="white"/>
</mask>
<g mask="url(#mask4_6_68)">
<path fill-rule="evenodd" clip-rule="evenodd" d="M150.002 51.495C150.002 41.5591 146.38 32.9341 142.877 24.5939C139.452 16.4395 136.217 8.73563 136.217 -0.00012207H130.234C130.234 9.93694 133.857 18.5619 137.359 26.9021C140.785 35.0575 144.019 42.7592 144.019 51.495C144.019 60.2307 140.785 67.9343 137.359 76.089C133.857 84.4292 130.234 93.054 130.234 102.99C130.234 112.927 133.857 121.552 137.359 129.892C140.785 138.048 144.019 145.749 144.019 154.485C144.019 163.221 140.785 170.924 137.359 179.079C133.857 187.419 130.234 196.044 130.234 205.98C130.234 215.917 133.857 224.542 137.359 232.882C140.785 241.038 144.019 248.739 144.019 257.475C144.019 266.211 140.785 273.914 137.359 282.069C133.857 290.409 130.234 299.034 130.234 308.97C130.234 318.907 133.857 327.532 137.359 335.872C140.785 344.028 144.019 351.729 144.019 360.465C144.019 369.201 140.785 376.905 137.359 385.059C133.857 393.399 130.234 402.024 130.234 411.96C130.234 421.897 133.857 430.522 137.359 438.862C140.785 447.018 144.019 454.719 144.019 463.455C144.019 472.191 140.785 479.895 137.359 488.049C133.857 496.389 130.234 505.014 130.234 514.95C130.234 524.887 133.857 533.512 137.359 541.852C140.785 550.008 144.019 557.709 144.019 566.445C144.019 575.181 140.785 582.885 137.359 591.039C133.857 599.379 130.234 608.004 130.234 617.94C130.234 627.877 133.857 636.502 137.359 644.842C140.785 652.998 144.019 660.7 144.019 669.435C144.019 678.171 140.785 685.875 137.359 694.029C133.857 702.369 130.234 710.994 130.234 720.93H136.217C136.217 712.195 139.452 704.493 142.877 696.337C146.38 687.997 150.002 679.372 150.002 669.435C150.002 659.5 146.38 650.875 142.877 642.534C139.452 634.38 136.217 626.676 136.217 617.94C136.217 609.204 139.452 601.503 142.877 593.347C146.38 585.007 150.002 576.382 150.002 566.445C150.002 556.509 146.38 547.884 142.877 539.544C139.452 531.389 136.217 523.686 136.217 514.95C136.217 506.215 139.452 498.513 142.877 490.357C146.38 482.017 150.002 473.392 150.002 463.455C150.002 453.519 146.38 444.894 142.877 436.554C139.452 428.4 136.217 420.696 136.217 411.96C136.217 403.224 139.452 395.523 142.877 387.367C146.38 379.027 150.002 370.402 150.002 360.465C150.002 350.529 146.38 341.904 142.877 333.564C139.452 325.41 136.217 317.706 136.217 308.97C136.217 300.234 139.452 292.533 142.877 284.377C146.38 276.037 150.002 267.412 150.002 257.475C150.002 247.539 146.38 238.914 142.877 230.574C139.452 222.42 136.217 214.716 136.217 205.98C136.217 197.244 139.452 189.543 142.877 181.387C146.38 173.047 150.002 164.422 150.002 154.485C150.002 144.549 146.38 135.924 142.877 127.584C139.452 119.429 136.217 111.726 136.217 102.99C136.217 94.2543 139.452 86.5526 142.877 78.397C146.38 70.0568 150.002 61.432 150.002 51.495" fill="#E0C071"/>
</g>
</g>
</svg>
