<svg width="254" height="412" viewBox="0 0 254 412" fill="none" xmlns="http://www.w3.org/2000/svg">
<path fill-rule="evenodd" clip-rule="evenodd" d="M239.39 101.252L231.335 110.148L225.603 110.984L230.654 103.616L231.962 96.8047V90.299L225.603 78.5144L229.628 78.8118L237.04 83.865L240.208 91.2841L239.39 101.252ZM212.935 110.984L215.221 108.459L218.394 102.538L219.686 95.7478L217.965 85.8353L212.935 78.5144L217.767 78.5941L225.182 85.0573L227.704 92.3755L226.939 100.615L221.662 108.409L212.935 110.984ZM51.6035 121.229L49.2086 129.941L49.9575 137.897L52.5615 143.131L55.917 147.945L46.4353 144.737L40.3726 133.736L42.8548 123.494L46.0966 117.031L50.7779 115.475H55.917L51.6035 121.229ZM37.123 147.945L31.0603 141.497L28.414 129.939L29.4487 123.425L32.1823 118.074L36.6017 115.475L43.1883 115.53L39.203 120.716L36.5461 129.814V136.736L39.3776 143.016L43.7546 147.958L37.123 147.945ZM168.104 153.866L172.537 157.666L175.289 162.993L175.109 170.797L173.619 178.224L168.996 184.108L161.247 184.974L163.981 178.235L166.397 173.144L167.045 169.493L165.614 160.879L160.917 152.488L168.104 153.866ZM177.58 152.488L186.684 157.485L188.822 163.489V169.238C188.822 169.238 188.375 175.887 188.375 176.278C188.375 176.671 183.953 183.455 183.953 183.455L173.915 184.974L176.281 180.975L179.856 174.99L180.052 168.739L179.271 160.653L173.915 152.504L173.418 152.488H177.58ZM86.5452 200.054V206.945L87.7492 215.763L92.5099 222.455L90.3135 223.257L82.1444 218.381L76.918 207.208C76.918 207.208 77.1799 200.248 77.4393 199.095C77.6986 197.94 79.5193 192.46 79.5193 192.46L81.7316 189.985L84.7139 189.52L92.5099 189.985L86.5452 200.054ZM73.0649 221.693L64.9541 215.763L64.3031 207.338V200.29L68.2064 193.896L74.4992 190.672L79.1911 189.648L79.2599 189.52H79.7812L79.1911 189.648L74.1552 199.095L73.0649 206.22L74.1208 213.235L76.918 219.056L79.2599 222.455L73.0649 221.693ZM75.9944 73.6205L68.3148 67.5477L65.7268 59.847L67.4072 49.7406L73.1311 43.2509L80.5354 41.5807L75.5181 48.867L73.7794 58.6946L74.5151 63.769L80.5354 74.048L75.9944 73.6205ZM63.8056 73.7453L54.5806 65.5508L53.2495 54.4141L59.7091 43.7342L67.4919 41.9338L64.6444 45.4389L61.0984 57.2634L64.2951 67.9619L67.8676 74.048L63.8056 73.7453ZM167.212 26.9362L167.58 16.2085L161.247 4.54602L170.123 7.24123L175.643 16.3147L171.518 33.0436L168.054 35.6777L161.247 37.016L167.212 26.9362ZM180.483 5.75953L186.866 12.3422L188.79 19.5383L187.758 27.1274L181.836 35.0219L173.915 37.016L174.836 36.1026L179.517 28.155L180.65 22.1459L179.533 13.4575L173.915 4.54602L180.483 5.75953ZM243.148 85.4582L237.736 78.0338L231.464 74.5977L225.441 73.9684H212.953L175.63 74.6189L141.427 73.9684H123.347L101.108 74.048L90.9698 74.0215L85.4152 72.1388L79.2096 63.7133L78.8127 53.3307L81.287 47.6137L87.6249 42.3587L96.4264 41.5621L115.154 40.5583L153.78 41.5621L178.75 40.4282L183.844 39.1111L190.206 32.5258L193.191 23.609L192.188 13.3991L185.546 3.65115L178.525 0.318646L164.314 0.624015L129.719 0H106.44H67.1664V0.624015V4.54602L103.45 3.88748L136.875 4.54602L153.708 5.15941L160.554 10.6667L163.491 20.781L160.369 31.1689L155.915 35.383L148.839 37.0346L95.5161 37.6879L74.5786 37.0346L60.2013 38.3066L55.6047 41.2089L49.4124 51.0179L49.0101 63.0919L55.1072 73.9684L66.3989 78.594L81.8612 78.5144L135.703 79.1862L199.56 78.5144L204.845 78.9552L210.424 82.3753L214.856 91.2231V98.2758L213.512 102.57L210.744 108.419L204.893 110.929L179.012 111.55L147.278 110.984H113.723L94.7355 110.929H48.4227L39.7111 111.067L34.265 112.833L29.97 115.53L25.6725 122.493L24 134.777L26.1038 141.872L29.3667 146.726L34.8789 150.897L40.2297 152.411L85.7619 152.504L129.33 152.488L150.959 152.544L158.315 155.948L162.065 161.471L163.491 168.739L160.917 178.28L155.997 183.293L151.819 184.833H104.49H75.3566L68.9791 188.508L64.0464 193.681L60.3971 206.22L61.4927 213.368L64.4962 219.414L69.8682 224.523L76.7883 226.918L84.3329 227.001H107.221H148.447V222.996L136.743 222.455H116.586H105.011L98.9087 221.382L93.198 216.329L90.5887 209.767L90.4776 203.339L94.0898 194.892L98.4932 191.257L101.997 190.115L117.496 189.985L130.111 189.52L141.556 189.985L152.869 190.633L167.567 189.985L179.12 189.069L184.141 186.881L192.064 176.485L193.36 168.739L192.582 162.695L187.919 153.861L181.222 150.308L171.989 147.958H143.115L113.074 148.741L83.2902 147.945H67.1161L60.3971 145.765L55.0093 138.768L53.8502 129.065L56.7691 121.356L63.2631 115.53L75.3566 114.944L105.4 115.475L135.832 114.29L160.917 114.944L183.564 115.475L209.182 114.813L228.331 115.477L236.495 113.502L242.957 104.465L245 93.2757L243.148 85.4582Z" fill="#AC854F"/>
<path fill-rule="evenodd" clip-rule="evenodd" d="M248.574 238.065L242.659 245.938L234.749 247.927L235.668 247.016L240.344 239.09L241.475 233.095L240.36 224.427L234.749 215.536L241.308 216.747L247.683 223.314L249.605 230.493L248.574 238.065ZM228.894 246.595L222.094 247.927L228.054 237.874L228.419 227.169L222.094 215.536L230.961 218.223L236.472 227.275L232.351 243.964L228.894 246.595ZM136.475 259.753L134.738 269.555L135.47 274.62L141.486 284.875L136.95 284.448L129.281 278.39L126.696 270.707L128.371 260.622L134.091 254.148L141.486 252.481L136.475 259.753ZM124.774 284.57L115.563 276.395L114.234 265.287L120.686 254.632L128.459 252.836L125.612 256.33L122.073 268.127L125.266 278.803L128.831 284.875L124.774 284.57ZM252.996 224.369L246.364 214.641L239.35 211.319L225.16 211.624L190.608 211.001H167.358H128.131V211.624V215.536L164.371 214.877L197.752 215.536L214.564 216.146L221.404 221.643L224.335 231.733L221.219 242.094L216.771 246.301L209.704 247.949L156.448 248.598L135.534 247.949L121.175 249.217L116.584 252.113L110.399 261.896L110 273.942L116.087 284.795L127.364 289.41L142.81 289.331L196.584 290.001L205.24 289.908L204.716 284.84L202.298 284.795H184.244L162.032 284.875L151.907 284.848L146.359 282.97L140.162 274.564L139.765 264.204L142.236 258.5L148.564 253.257L157.357 252.463L176.061 251.461L214.638 252.463L239.577 251.331L244.665 250.018L251.016 243.448L254 234.554L252.996 224.369Z" fill="#AC854F"/>
<path fill-rule="evenodd" clip-rule="evenodd" d="M56.1783 354.25V348.502L58.3165 342.502L67.4224 337.505H71.5824L71.0849 337.521L65.7287 345.666L64.9507 353.753L65.1439 360.003L68.7217 365.987L71.0849 369.982L61.0474 368.464C61.0474 368.464 56.6255 361.681 56.6255 361.29C56.6255 360.897 56.1783 354.25 56.1783 354.25V354.25ZM71.3812 363.236L69.8914 355.808L69.7114 348.005L72.4636 342.68L76.8988 338.883L84.0835 337.505L79.3863 345.892L77.9546 354.505L78.6056 358.158L81.019 363.247L83.7553 369.982L76.0043 369.117L71.3812 363.236ZM152.493 374.995L160.286 374.528L163.271 374.995L165.481 377.466C165.481 377.466 167.302 382.949 167.564 384.101C167.823 385.253 168.082 392.212 168.082 392.212L162.856 403.386L154.687 408.26L152.493 407.456L157.254 400.766L158.455 391.951V385.059L152.493 374.995ZM165.74 407.456L168.082 404.058L170.879 398.241L171.935 391.227L170.845 384.101L165.809 374.658L165.222 374.528H165.74L165.809 374.658L170.504 375.68L176.797 378.903L180.697 385.296V392.342L180.046 400.766L171.935 406.694L165.74 407.456ZM189.086 332.96L192.439 328.15L195.043 322.917L195.794 314.96L193.397 306.252L189.086 300.497H194.222L198.904 302.055L202.148 308.517L204.628 318.754L198.568 329.753L189.086 332.96ZM201.246 332.976L205.625 328.033L208.454 321.754V314.835L205.8 305.737L201.815 300.552L208.399 300.497L212.821 303.098L215.552 308.448L216.589 314.958L213.943 326.514L207.88 332.96L201.246 332.976ZM32.0678 296.007L23.3403 293.432L18.061 285.643L17.2988 277.402L19.8208 270.088L27.2331 263.623L32.0678 263.546L27.0372 270.866L25.3171 280.774L26.6059 287.562L29.7814 293.485L32.0678 296.007ZM19.3974 263.546L13.041 275.328V281.83L14.3482 288.643L19.3974 296.007L13.6681 295.171L5.6128 286.277L4.79509 276.313L7.96271 268.896L15.3723 263.841L19.3974 263.546ZM51.6425 353.753L52.9365 361.495L60.8596 371.891L65.8822 374.076L77.436 374.995L92.1309 375.643L103.446 374.995L114.892 374.528L127.507 374.995L143.003 375.125L146.507 376.266L150.913 379.901L154.523 388.343L154.411 394.771L151.805 401.331L146.092 406.386L139.992 407.456H128.417H108.257L96.5528 408V412.001H137.779H160.67L168.212 411.919L175.132 409.527L180.507 404.416L183.51 398.371L184.606 391.227L180.954 378.688L176.021 373.516L169.644 369.842H140.51H93.1814L89.0029 368.302L84.0835 363.292L81.5113 353.753L82.935 346.484L86.6848 340.965L94.0441 337.559L115.67 337.505L159.238 337.521L204.773 337.426L210.121 335.912L215.634 331.744L218.896 326.889L221 319.797L219.33 307.513L215.033 300.552L210.738 297.855L205.289 296.089L196.578 295.951H150.265L131.278 296.007H97.7225L65.9907 296.573L40.1099 295.951L34.2563 293.443L31.4909 287.597L30.144 283.301V276.252L34.5765 267.404L40.1576 263.984L45.4422 263.546L100.631 264.125L101.157 259.046L69.3727 259.649L32.0467 259.001H19.5614L13.5358 259.628L7.26673 263.063L1.85505 270.489L0 278.305L2.04294 289.489L8.5052 298.524L16.669 300.502L35.8176 299.835L61.4391 300.497L84.0835 299.966L109.168 299.312L139.6 300.497L169.644 299.966L181.737 300.552L188.231 306.377L191.15 314.087L189.991 323.785L184.606 330.783L177.884 332.96H161.71L131.929 333.759L101.885 332.976H73.014L63.7784 335.326L57.0806 338.875L52.4179 347.708L51.6425 353.753Z" fill="#AC854F"/>
</svg>
