<svg width="249" height="75" viewBox="0 0 249 75" fill="none" xmlns="http://www.w3.org/2000/svg">
<path d="M115.156 24.3711C115.065 26.3503 114.531 28.1016 113.555 29.625C112.578 31.1354 111.204 32.3073 109.434 33.1406C107.676 33.974 105.664 34.3906 103.398 34.3906C99.6615 34.3906 96.7188 33.1732 94.5703 30.7383C92.4219 28.3034 91.3477 24.8659 91.3477 20.4258V19.0195C91.3477 16.2331 91.8294 13.7982 92.793 11.7148C93.7695 9.61849 95.1693 8.00391 96.9922 6.87109C98.8151 5.72526 100.924 5.15234 103.32 5.15234C106.771 5.15234 109.544 6.0638 111.641 7.88672C113.737 9.69661 114.928 12.1966 115.215 15.3867H108.379C108.327 13.6549 107.891 12.4115 107.07 11.6562C106.25 10.901 105 10.5234 103.32 10.5234C101.615 10.5234 100.365 11.1615 99.5703 12.4375C98.776 13.7135 98.3594 15.7513 98.3203 18.5508V20.5625C98.3203 23.5964 98.6979 25.7643 99.4531 27.0664C100.221 28.3685 101.536 29.0195 103.398 29.0195C104.974 29.0195 106.178 28.6484 107.012 27.9062C107.845 27.1641 108.288 25.9857 108.34 24.3711H115.156ZM130.571 18.8242L128.403 18.668C126.333 18.668 125.005 19.319 124.419 20.6211V34H117.837V12.8672H124.009L124.224 15.582C125.33 13.5117 126.873 12.4766 128.852 12.4766C129.556 12.4766 130.168 12.5547 130.688 12.7109L130.571 18.8242ZM142.471 34.3906C139.228 34.3906 136.605 33.4271 134.599 31.5C132.594 29.5599 131.592 27.0404 131.592 23.9414V23.3945C131.592 21.2331 131.989 19.3255 132.783 17.6719C133.59 16.0182 134.762 14.7422 136.299 13.8438C137.835 12.9323 139.658 12.4766 141.767 12.4766C144.736 12.4766 147.08 13.401 148.799 15.25C150.517 17.0859 151.377 19.651 151.377 22.9453V25.5039H138.291C138.525 26.6888 139.04 27.6198 139.834 28.2969C140.628 28.974 141.657 29.3125 142.92 29.3125C145.003 29.3125 146.631 28.5833 147.803 27.125L150.81 30.6797C149.99 31.8125 148.825 32.7174 147.314 33.3945C145.817 34.0586 144.202 34.3906 142.471 34.3906ZM141.728 17.5547C139.801 17.5547 138.655 18.8307 138.291 21.3828H144.931V20.875C144.958 19.8203 144.691 19.0065 144.131 18.4336C143.571 17.8477 142.77 17.5547 141.728 17.5547ZM165.639 34C165.405 33.5703 165.197 32.9388 165.014 32.1055C163.803 33.6289 162.111 34.3906 159.936 34.3906C157.944 34.3906 156.251 33.7917 154.858 32.5938C153.465 31.3828 152.768 29.8659 152.768 28.043C152.768 25.7513 153.615 24.0195 155.307 22.8477C157 21.6758 159.461 21.0898 162.69 21.0898H164.721V19.9766C164.721 18.0365 163.882 17.0664 162.202 17.0664C160.639 17.0664 159.858 17.8346 159.858 19.3711H153.276C153.276 17.3268 154.142 15.6667 155.874 14.3906C157.619 13.1146 159.839 12.4766 162.534 12.4766C165.229 12.4766 167.358 13.1341 168.921 14.4492C170.483 15.7643 171.284 17.5677 171.323 19.8594V29.2148C171.349 31.1549 171.649 32.6393 172.221 33.668V34H165.639ZM161.518 29.7031C162.339 29.7031 163.016 29.5273 163.55 29.1758C164.096 28.8242 164.487 28.4271 164.721 27.9844V24.6055H162.807C160.516 24.6055 159.37 25.6341 159.37 27.6914C159.37 28.2904 159.572 28.7786 159.975 29.1562C160.379 29.5208 160.893 29.7031 161.518 29.7031ZM182.343 7.61328V12.8672H185.82V17.4375H182.343V27.1055C182.343 27.8997 182.487 28.4531 182.773 28.7656C183.06 29.0781 183.626 29.2344 184.472 29.2344C185.123 29.2344 185.67 29.1953 186.113 29.1172V33.8242C184.928 34.2018 183.691 34.3906 182.402 34.3906C180.136 34.3906 178.463 33.8568 177.383 32.7891C176.302 31.7214 175.761 30.1003 175.761 27.9258V17.4375H173.066V12.8672H175.761V7.61328H182.343ZM195.063 34H188.462V12.8672H195.063V34ZM188.071 7.41797C188.071 6.48047 188.409 5.71224 189.087 5.11328C189.764 4.51432 190.643 4.21484 191.723 4.21484C192.804 4.21484 193.683 4.51432 194.36 5.11328C195.037 5.71224 195.376 6.48047 195.376 7.41797C195.376 8.35547 195.037 9.1237 194.36 9.72266C193.683 10.3216 192.804 10.6211 191.723 10.6211C190.643 10.6211 189.764 10.3216 189.087 9.72266C188.409 9.1237 188.071 8.35547 188.071 7.41797ZM207.255 26.168L210.595 12.8672H217.529L210.634 34H203.916L197.021 12.8672H203.974L207.255 26.168ZM229.135 34.3906C225.893 34.3906 223.269 33.4271 221.264 31.5C219.259 29.5599 218.256 27.0404 218.256 23.9414V23.3945C218.256 21.2331 218.653 19.3255 219.448 17.6719C220.255 16.0182 221.427 14.7422 222.963 13.8438C224.5 12.9323 226.323 12.4766 228.432 12.4766C231.401 12.4766 233.745 13.401 235.463 15.25C237.182 17.0859 238.041 19.651 238.041 22.9453V25.5039H224.956C225.19 26.6888 225.704 27.6198 226.498 28.2969C227.293 28.974 228.321 29.3125 229.584 29.3125C231.668 29.3125 233.295 28.5833 234.467 27.125L237.475 30.6797C236.655 31.8125 235.489 32.7174 233.979 33.3945C232.482 34.0586 230.867 34.3906 229.135 34.3906ZM228.393 17.5547C226.466 17.5547 225.32 18.8307 224.956 21.3828H231.596V20.875C231.622 19.8203 231.355 19.0065 230.795 18.4336C230.235 17.8477 229.435 17.5547 228.393 17.5547ZM114.473 50.8555H105.938V74H99.082V50.8555H90.7031V45.5625H114.473V50.8555ZM128.267 58.8242L126.099 58.668C124.028 58.668 122.7 59.319 122.114 60.6211V74H115.532V52.8672H121.704L121.919 55.582C123.026 53.5117 124.569 52.4766 126.548 52.4766C127.251 52.4766 127.863 52.5547 128.384 52.7109L128.267 58.8242ZM140.166 74.3906C136.924 74.3906 134.3 73.4271 132.295 71.5C130.29 69.5599 129.287 67.0404 129.287 63.9414V63.3945C129.287 61.2331 129.684 59.3255 130.478 57.6719C131.286 56.0182 132.458 54.7422 133.994 53.8438C135.53 52.9323 137.353 52.4766 139.463 52.4766C142.431 52.4766 144.775 53.401 146.494 55.25C148.213 57.0859 149.072 59.651 149.072 62.9453V65.5039H135.986C136.221 66.6888 136.735 67.6198 137.529 68.2969C138.323 68.974 139.352 69.3125 140.615 69.3125C142.698 69.3125 144.326 68.5833 145.498 67.125L148.506 70.6797C147.685 71.8125 146.52 72.7174 145.01 73.3945C143.512 74.0586 141.898 74.3906 140.166 74.3906ZM139.424 57.5547C137.497 57.5547 136.351 58.8307 135.986 61.3828H142.627V60.875C142.653 59.8203 142.386 59.0065 141.826 58.4336C141.266 57.8477 140.465 57.5547 139.424 57.5547ZM157.475 52.8672L157.69 55.3477C159.149 53.4336 161.16 52.4766 163.725 52.4766C165.926 52.4766 167.567 53.1341 168.647 54.4492C169.741 55.7643 170.307 57.7435 170.346 60.3867V74H163.745V60.6602C163.745 59.5924 163.53 58.8112 163.1 58.3164C162.671 57.8086 161.889 57.5547 160.757 57.5547C159.468 57.5547 158.511 58.0625 157.886 59.0781V74H151.303V52.8672H157.475ZM172.871 63.2773C172.871 59.931 173.593 57.2943 175.039 55.3672C176.484 53.4401 178.502 52.4766 181.093 52.4766C182.981 52.4766 184.57 53.2188 185.859 54.7031V44H192.461V74H186.543L186.211 71.7344C184.856 73.5052 183.138 74.3906 181.054 74.3906C178.541 74.3906 176.549 73.4271 175.078 71.5C173.606 69.5729 172.871 66.832 172.871 63.2773ZM179.453 63.6875C179.453 67.4375 180.547 69.3125 182.734 69.3125C184.192 69.3125 185.234 68.7005 185.859 67.4766V59.4297C185.26 58.1797 184.231 57.5547 182.773 57.5547C180.742 57.5547 179.642 59.1953 179.472 62.4766L179.453 63.6875ZM206.958 68.0625C206.958 67.5026 206.665 67.0534 206.079 66.7148C205.493 66.3763 204.38 66.0247 202.739 65.6602C201.098 65.2956 199.744 64.8203 198.676 64.2344C197.609 63.6354 196.795 62.9128 196.235 62.0664C195.675 61.2201 195.395 60.25 195.395 59.1562C195.395 57.2161 196.196 55.6211 197.797 54.3711C199.399 53.1081 201.495 52.4766 204.087 52.4766C206.873 52.4766 209.113 53.1081 210.805 54.3711C212.498 55.6341 213.344 57.2943 213.344 59.3516H206.743C206.743 57.6589 205.851 56.8125 204.067 56.8125C203.377 56.8125 202.797 57.0078 202.329 57.3984C201.86 57.776 201.626 58.2513 201.626 58.8242C201.626 59.4102 201.912 59.8854 202.485 60.25C203.058 60.6146 203.969 60.9141 205.219 61.1484C206.482 61.3828 207.589 61.6628 208.54 61.9883C211.717 63.082 213.305 65.0417 213.305 67.8672C213.305 69.7943 212.446 71.3633 210.727 72.5742C209.021 73.7852 206.808 74.3906 204.087 74.3906C202.277 74.3906 200.662 74.0651 199.243 73.4141C197.824 72.763 196.717 71.8776 195.922 70.7578C195.128 69.638 194.731 68.4596 194.731 67.2227H200.883C200.909 68.1992 201.235 68.9154 201.86 69.3711C202.485 69.8138 203.286 70.0352 204.262 70.0352C205.161 70.0352 205.831 69.8529 206.274 69.4883C206.73 69.1237 206.958 68.6484 206.958 68.0625Z" fill="#0C121C" fill-opacity="0.87"/>
<path fill-rule="evenodd" clip-rule="evenodd" d="M44.1428 19.167C42.9678 18.755 41.7848 18.548 40.5928 18.548C39.4008 18.548 38.2178 18.755 37.0428 19.167C35.8688 19.58 34.9018 20.152 34.1448 20.885C33.3868 21.617 33.0078 22.438 33.0078 23.348C33.0078 24.257 33.3868 25.078 34.1448 25.81C34.9018 26.543 35.8688 27.12 37.0428 27.541C38.2178 27.962 39.4008 28.172 40.5928 28.172C41.7848 28.172 42.9678 27.966 44.1428 27.553C45.3178 27.141 46.2838 26.564 47.0418 25.823C47.7988 25.082 48.1778 24.257 48.1778 23.348C48.1778 22.438 47.7988 21.617 47.0418 20.885C46.2838 20.152 45.3178 19.58 44.1428 19.167" fill="#0C121C" fill-opacity="0.87"/>
<mask id="mask0_1_464" style="mask-type:alpha" maskUnits="userSpaceOnUse" x="0" y="5" width="58" height="57">
<path fill-rule="evenodd" clip-rule="evenodd" d="M0 5H57.5437V61.9158H0V5Z" fill="white"/>
</mask>
<g mask="url(#mask0_1_464)">
<path fill-rule="evenodd" clip-rule="evenodd" d="M48.764 23.878C48.764 25.983 48.317 27.688 47.423 28.993C46.529 30.298 45.452 31.22 44.193 31.759C42.932 32.298 41.732 32.567 40.592 32.567C39.451 32.567 38.251 32.298 36.991 31.759C35.731 31.22 34.654 30.298 33.76 28.993C32.866 27.688 32.419 25.983 32.419 23.878V22.842C32.419 20.737 32.866 19.032 33.76 17.727C34.654 16.422 35.731 15.5 36.991 14.961C38.251 14.422 39.451 14.153 40.592 14.153C41.749 14.153 42.954 14.422 44.205 14.961C45.457 15.5 46.529 16.418 47.423 17.715C48.317 19.011 48.764 20.72 48.764 22.842V23.878ZM48.47 52.763H32.713V49.201C32.713 47.584 33.058 46.401 33.747 45.652C34.437 44.903 35.301 44.44 36.34 44.263C37.378 44.086 38.808 43.997 40.63 43.997H44.129C45.201 43.997 46.031 43.905 46.619 43.72C47.206 43.534 47.5 43.147 47.5 42.558C47.5 42.019 47.244 41.484 46.734 40.954C46.223 40.423 45.457 39.986 44.435 39.64C43.414 39.295 42.179 39.122 40.732 39.122C38.995 39.122 37.629 39.358 36.633 39.83C35.637 40.301 34.841 40.991 34.245 41.901L33.377 41.674C33.377 40.546 33.709 39.442 34.373 38.365C35.037 37.287 35.952 36.407 37.118 35.725C38.284 35.043 39.591 34.702 41.039 34.702C42.622 34.702 43.958 35.085 45.048 35.851C46.137 36.618 46.946 37.552 47.474 38.655C48.002 39.758 48.266 40.806 48.266 41.8C48.266 42.676 48.083 43.328 47.717 43.757C47.351 44.187 46.87 44.457 46.274 44.566C45.678 44.676 44.878 44.73 43.873 44.73H40.732C39.183 44.73 37.88 44.802 36.825 44.945C35.769 45.088 34.994 45.395 34.501 45.867C34.194 46.17 33.96 46.566 33.798 47.054C33.636 47.542 33.556 47.963 33.556 48.317L48.47 48.342V52.763ZM27.039 52.763H23.438C21.804 52.763 20.608 52.422 19.85 51.74C19.093 51.058 18.625 50.203 18.446 49.176C18.267 48.149 18.178 46.734 18.178 44.932V41.472C18.178 40.411 18.084 39.59 17.897 39.009C17.709 38.428 17.318 38.137 16.722 38.137C16.177 38.137 15.637 38.39 15.1 38.895C14.564 39.4 14.121 40.158 13.772 41.168C13.423 42.179 13.249 43.4 13.249 44.831C13.249 46.549 13.487 47.9 13.964 48.885C14.441 49.87 15.138 50.658 16.058 51.247L15.828 52.106C14.688 52.106 13.572 51.778 12.482 51.121C11.393 50.464 10.503 49.559 9.814 48.405C9.124 47.252 8.78 45.959 8.78 44.528C8.78 42.962 9.167 41.64 9.941 40.562C10.716 39.485 11.661 38.685 12.776 38.162C13.891 37.641 14.951 37.379 15.956 37.379C16.841 37.379 17.501 37.561 17.935 37.923C18.369 38.285 18.642 38.76 18.752 39.35C18.863 39.939 18.918 40.731 18.918 41.724V44.831C18.918 46.364 18.991 47.652 19.135 48.696C19.28 49.74 19.591 50.506 20.067 50.994C20.374 51.298 20.774 51.529 21.268 51.689C21.762 51.849 22.187 51.929 22.545 51.929L22.57 37.177H27.039V52.763ZM10.031 28.652C10.031 27.035 10.376 25.852 11.065 25.103C11.755 24.354 12.619 23.891 13.657 23.714C14.696 23.537 16.126 23.449 17.948 23.449H21.447C22.519 23.449 23.349 23.356 23.937 23.171C24.524 22.985 24.818 22.598 24.818 22.009C24.818 21.47 24.562 20.935 24.051 20.405C23.541 19.874 22.775 19.437 21.753 19.091C20.731 18.746 19.497 18.573 18.05 18.573C16.313 18.573 14.947 18.809 13.951 19.281C12.955 19.752 12.159 20.443 11.563 21.352L10.695 21.125C10.695 19.997 11.027 18.893 11.691 17.816C12.355 16.738 13.27 15.858 14.436 15.176C15.602 14.494 16.909 14.153 18.356 14.153C19.94 14.153 21.276 14.536 22.366 15.302C23.455 16.069 24.264 17.003 24.792 18.106C25.32 19.209 25.584 20.257 25.584 21.251C25.584 22.127 25.401 22.779 25.035 23.209C24.668 23.638 24.188 23.908 23.592 24.017C22.996 24.127 22.196 24.181 21.191 24.181H18.05C16.5 24.181 15.198 24.253 14.143 24.396C13.087 24.539 12.312 24.847 11.819 25.318C11.512 25.621 11.278 26.017 11.116 26.505C10.954 26.993 10.874 27.414 10.874 27.768L25.788 27.793V32.214H10.031V28.652ZM0 61.916H57.544V5H0V61.916Z" fill="#0C121C" fill-opacity="0.87"/>
</g>
</svg>
