<svg width="30" height="30" viewBox="0 0 30 30" fill="none" xmlns="http://www.w3.org/2000/svg">
<path fill-rule="evenodd" clip-rule="evenodd" d="M3.10345 11.8966C3.10345 7.04715 7.04715 3.10345 11.8966 3.10345C16.7459 3.10345 20.6897 7.04715 20.6897 11.8966C20.6897 16.7459 16.7459 20.6897 11.8966 20.6897C7.04715 20.6897 3.10345 16.7459 3.10345 11.8966V11.8966ZM30 27.879L21.468 19.347C23.049 17.313 24 14.769 24 12C24 5.3835 18.6165 0 12 0C5.3835 0 0 5.3835 0 12C0 18.6165 5.3835 24 12 24C14.769 24 17.313 23.049 19.347 21.468L27.879 30L30 27.879Z" fill="black"/>
</svg>
