<svg width="218" height="25" viewBox="0 0 218 25" fill="none" xmlns="http://www.w3.org/2000/svg">
<path fill-rule="evenodd" clip-rule="evenodd" d="M105.618 13.9639C105.35 13.9168 104.452 13.7674 104.189 13.7194C102.77 13.464 101.555 13.1325 101.555 11.7043C101.555 10.4781 102.84 9.90666 104.439 9.90666C106.819 9.90666 108.907 10.9853 109.145 11.1039L110.45 7.6625C109.947 7.40167 107.825 6.26782 104.48 6.26782C101.417 6.26782 97.676 7.87532 97.676 11.8773C97.676 15.4582 100.234 16.6074 102.7 17.0412C103.041 17.1046 104.111 17.2876 104.418 17.3401C106.077 17.6208 106.988 18.2385 106.988 19.3243C106.988 20.7018 105.694 21.3475 103.735 21.3475C100.598 21.3475 98.7582 20.4129 98.2266 20.1937L96.7812 23.5609C97.2304 23.7927 99.3714 24.9999 103.549 24.9999C107.604 24.9999 110.857 22.9921 110.857 19.2546C110.825 15.7761 108.487 14.4566 105.618 13.9639" fill="white"/>
<mask id="mask0_0_2091" style="mask-type:alpha" maskUnits="userSpaceOnUse" x="112" y="0" width="11" height="25">
<path fill-rule="evenodd" clip-rule="evenodd" d="M112.141 0H122.404V24.6503H112.141V0Z" fill="white"/>
</mask>
<g mask="url(#mask0_0_2091)">
<path fill-rule="evenodd" clip-rule="evenodd" d="M117.997 0L114.16 2.1219V6.61746H112.141V10.2862H114.16V18.2195C114.16 21.6075 115.553 24.6504 120.466 24.6504H122.002V20.9781H121.426C119.012 20.9781 117.997 19.5843 117.997 17.6915V10.2862H122.404V6.61746H117.997V0Z" fill="white"/>
</g>
<path fill-rule="evenodd" clip-rule="evenodd" d="M147.976 9.99764C149.474 9.99764 151.007 10.6787 151.467 12.3269L154.949 11.002C153.974 7.55605 150.772 6.26733 147.949 6.26733C142.888 6.26733 140.848 9.40988 140.848 12.4637V18.8013C140.848 21.8542 142.888 24.9994 147.949 24.9994C150.772 24.9994 153.974 23.7089 154.949 20.263L151.467 18.939C151.007 20.5845 149.474 21.2701 147.976 21.2701C145.369 21.2701 144.678 19.8428 144.678 18.2154V13.0487C144.678 11.4231 145.369 9.99764 147.976 9.99764" fill="white"/>
<path fill-rule="evenodd" clip-rule="evenodd" d="M164.379 14.7166L171.552 6.61663H166.833L160.664 13.6769V0.000976562H156.824V24.6505H160.664V18.9106L161.924 17.4878L167.417 24.6505H172.023L164.379 14.7166Z" fill="white"/>
<path fill-rule="evenodd" clip-rule="evenodd" d="M133.137 10.5522H129.148C128.513 10.5522 127.998 11.0675 127.998 11.6996V16.0285H124.062V11.6996C124.062 8.89123 126.337 6.61719 129.148 6.61719H133.137V10.5522Z" fill="white"/>
<path fill-rule="evenodd" clip-rule="evenodd" d="M129.891 20.7149H133.883C134.515 20.7149 135.031 20.2005 135.031 19.5665V15.2385H138.966V19.5665C138.966 22.374 136.69 24.6508 133.883 24.6508H129.891V20.7149Z" fill="white"/>
<mask id="mask1_0_2091" style="mask-type:alpha" maskUnits="userSpaceOnUse" x="48" y="0" width="22" height="25">
<path fill-rule="evenodd" clip-rule="evenodd" d="M48.7461 0H69.2306V24.6501H48.7461V0Z" fill="white"/>
</mask>
<g mask="url(#mask1_0_2091)">
<path fill-rule="evenodd" clip-rule="evenodd" d="M64.8256 6.61722H69.2306V10.2868H64.8256V17.6913C64.8256 19.5841 65.839 20.9778 68.2516 20.9778H68.8276V24.6502H67.2907C62.3768 24.6502 60.9884 21.6082 60.9884 18.2193V10.2868H54.5304V17.6913C54.5304 19.5841 55.5456 20.9778 57.9591 20.9778H58.5324V24.6502H56.9955C52.0834 24.6502 50.6914 21.6082 50.6914 18.2193V10.2868H48.7461V6.61722H50.6914V2.12256L54.5304 -0.000244141V6.61722H60.9884V2.12256L64.8256 -0.000244141V6.61722Z" fill="white"/>
</g>
<path fill-rule="evenodd" clip-rule="evenodd" d="M23.4026 6.26722C22.189 6.26722 20.9574 6.50178 19.8489 6.97181V0.000244141H16.0117V24.6507H19.8489V10.559C20.6205 10.0745 21.7299 9.7847 22.8148 9.7847C25.2265 9.7847 26.3622 11.1259 26.3622 13.1038V24.6507H30.1957V12.5795C30.1957 8.93975 27.5594 6.26722 23.4026 6.26722" fill="white"/>
<path fill-rule="evenodd" clip-rule="evenodd" d="M42.8526 21.0641C42.1235 21.458 41.1998 21.6835 40.2815 21.6835C37.4179 21.6835 36.3411 20.2246 36.3411 18.2123V6.61743H32.5039V18.2829C32.5039 22.8174 35.1248 25 39.8087 25C42.0529 25 44.5371 24.4321 46.6879 23.5011V6.61743H42.8526V21.0641Z" fill="white"/>
<path fill-rule="evenodd" clip-rule="evenodd" d="M8.83626 13.9639C8.57091 13.9168 7.67071 13.7674 7.40717 13.7194C5.99076 13.464 4.77269 13.1325 4.77269 11.7043C4.77269 10.4781 6.05687 9.90666 7.65803 9.90666C10.0371 9.90666 12.1246 10.9853 12.3628 11.1039L13.6669 7.6625C13.1679 7.40167 11.0424 6.26782 7.69607 6.26782C4.63503 6.26782 0.89386 7.87532 0.89386 11.8773C0.89386 15.4582 3.44956 16.6074 5.91922 17.0412C6.25883 17.1046 7.33019 17.2876 7.63811 17.3401C9.29632 17.6208 10.2038 18.2385 10.2038 19.3243C10.2038 20.7018 8.91324 21.3475 6.95526 21.3475C3.81634 21.3475 1.97609 20.4129 1.44358 20.1937L0 23.5609C0.4501 23.7927 2.59011 24.9999 6.7687 24.9999C10.8223 24.9999 14.0763 22.9921 14.0763 19.2546C14.0409 15.7761 11.7035 14.4566 8.83626 13.9639" fill="white"/>
<mask id="mask2_0_2091" style="mask-type:alpha" maskUnits="userSpaceOnUse" x="70" y="6" width="16" height="19">
<path fill-rule="evenodd" clip-rule="evenodd" d="M70.9609 6.26611H85.097V24.9999H70.9609V6.26611Z" fill="white"/>
</mask>
<g mask="url(#mask2_0_2091)">
<path fill-rule="evenodd" clip-rule="evenodd" d="M81.2598 14.2665H74.79V12.9542C74.79 11.4907 75.5244 9.92125 78.0448 9.92125C80.4737 9.92125 81.2598 11.45 81.2598 12.8827V14.2665ZM85.097 12.4634C85.097 9.16504 82.5829 6.26611 78.0629 6.26611C72.9316 6.26611 70.9609 9.47024 70.9609 12.4634V18.4532C70.9609 22.5965 73.609 25 78.0629 25C81.9915 25 84.031 22.7278 84.6369 21.363L81.3975 19.4177C81.1212 20.2192 79.8389 21.3431 78.0883 21.3431C75.7155 21.3431 74.8035 20.02 74.8035 18.3608L74.79 17.3728H85.097V12.4634Z" fill="white"/>
</g>
<path fill-rule="evenodd" clip-rule="evenodd" d="M87.5508 12.4706V24.6505H91.3852V12.7984C91.3852 11.7633 91.9721 9.9946 94.7886 9.9946C95.2305 9.9946 96.2295 10.1205 96.5492 10.1803V6.45992C96.2032 6.3766 95.4108 6.26611 94.5921 6.26611C89.7143 6.26611 87.5508 9.32444 87.5508 12.4706" fill="white"/>
<path fill-rule="evenodd" clip-rule="evenodd" d="M175.42 7.64061C175.42 7.49752 175.329 7.36439 175.088 7.36439H174.847V7.97207H175.088C175.348 7.97207 175.42 7.85524 175.42 7.66777V7.64061ZM175.384 8.92842C175.366 8.92842 175.348 8.91936 175.339 8.90215L175.052 8.27545H174.847V8.8931C174.847 8.91121 174.837 8.92842 174.821 8.92842H174.463C174.444 8.92842 174.426 8.91121 174.426 8.8931V7.04198H175.143C175.625 7.04198 175.84 7.34627 175.84 7.63155V7.66777C175.84 7.91864 175.706 8.15048 175.464 8.25825L175.822 8.8931C175.831 8.91121 175.822 8.92842 175.804 8.92842H175.384ZM175.088 6.56743C174.275 6.56743 173.685 7.20318 173.685 8.01644C173.685 8.77718 174.284 9.42108 175.088 9.42108C175.902 9.42108 176.484 8.77718 176.484 8.01644C176.484 7.21134 175.849 6.56743 175.088 6.56743V6.56743ZM175.088 9.84129C174.051 9.84129 173.211 9.0543 173.211 8.01644C173.211 6.97949 174.051 6.14722 175.088 6.14722C176.117 6.14722 176.958 6.98764 176.958 8.01644C176.958 9.0543 176.126 9.84129 175.088 9.84129V9.84129Z" fill="white"/>
<mask id="mask3_0_2091" style="mask-type:alpha" maskUnits="userSpaceOnUse" x="179" y="4" width="39" height="21">
<path fill-rule="evenodd" clip-rule="evenodd" d="M179.059 4.62988H217.879V25.0001H179.059V4.62988Z" fill="white"/>
</mask>
<g mask="url(#mask3_0_2091)">
<path fill-rule="evenodd" clip-rule="evenodd" d="M198.984 4.62989C200.901 4.64347 202.791 5.52556 204.02 7.02348C204.412 7.49984 204.734 8.03326 204.977 8.59475C206.538 12.2481 208.074 15.9123 209.635 19.5656C209.966 20.3299 210.779 20.8534 211.641 20.8081C212.722 20.752 213.694 19.8047 213.695 18.6427V12.5623C213.71 12.3296 213.703 12.2689 213.76 12.0425C213.914 11.4475 214.342 10.9304 214.896 10.6696C215.606 10.3354 216.505 10.4422 217.12 10.9503C217.524 11.2863 217.796 11.7781 217.862 12.2997C217.872 12.3875 217.872 12.4745 217.878 12.5623C217.878 14.5955 217.88 16.6304 217.878 18.6645C217.866 20.9639 216.542 23.1981 214.45 24.2821C212.856 25.109 210.903 25.2195 209.229 24.5565C207.725 23.9606 206.47 22.7543 205.816 21.2718C205.809 21.2546 205.8 21.2365 205.793 21.2193C204.231 17.566 202.696 13.9009 201.134 10.2475C200.817 9.51578 200.119 8.9724 199.339 8.8438C198.302 8.67445 197.194 9.26945 196.769 10.262L191.067 23.7188C191.028 23.7967 190.994 23.8782 190.95 23.9543C190.598 24.5593 189.927 24.965 189.223 24.993C188.61 25.0166 187.994 24.7567 187.583 24.2975C187.174 23.8411 186.982 23.2008 187.073 22.5913C187.108 22.3604 187.139 22.306 187.216 22.0869L192.921 8.62464C193.688 6.82877 195.277 5.41779 197.159 4.87984C197.751 4.7123 198.361 4.62898 198.984 4.62989M181.137 20.8443C182.284 20.8443 183.215 21.7753 183.215 22.9228C183.215 24.0684 182.284 25.0003 181.137 25.0003C179.99 25.0003 179.059 24.0684 179.059 22.9228C179.059 21.7753 179.99 20.8443 181.137 20.8443M215.784 4.6308C216.93 4.6308 217.86 5.56269 217.86 6.71013C217.86 7.85576 216.93 8.78675 215.784 8.78675C214.636 8.78675 213.704 7.85576 213.704 6.71013C213.704 5.56269 214.636 4.6308 215.784 4.6308" fill="white"/>
</g>
</svg>
