<svg width="230" height="33" viewBox="0 0 230 33" fill="none" xmlns="http://www.w3.org/2000/svg">
<path d="M141.154 18.0708L139.28 17.7414C137.405 17.4119 135.809 16.98 135.809 15.0894C135.809 13.4779 137.506 12.7293 139.609 12.7293C141.758 12.7945 143.867 13.3314 145.79 14.3028L147.513 9.77287C145.082 8.5225 142.386 7.89094 139.659 7.933C135.632 7.933 130.717 10.0519 130.717 15.3178C130.717 20.0379 134.074 21.5478 137.316 22.1189L139.571 22.5122C141.762 22.8803 142.953 23.6924 142.953 25.1261C142.953 26.9405 141.255 27.7907 138.684 27.7907C136.187 27.8356 133.712 27.3154 131.439 26.268L129.539 30.6963C132.298 32.0757 135.357 32.7261 138.431 32.5869C143.764 32.5869 148.045 29.9476 148.045 25.0244C148.007 20.4564 144.929 18.7181 141.154 18.071" fill="black"/>
<path d="M157.858 0L152.589 2.80528V8.76013H149.809V13.6057H152.589V24.1001C152.589 28.5891 154.495 32.6054 161.247 32.6054H163.365V27.7469H162.571C159.248 27.7469 157.858 25.9107 157.858 23.3987V13.6057H163.908V8.76013H157.858V0" fill="black"/>
<path d="M197.929 12.846C199.976 12.673 201.874 13.9428 202.521 15.9187L207.088 14.1662C205.81 9.63261 201.61 7.93103 197.905 7.93103C191.251 7.93103 188.582 12.071 188.582 16.0966V24.4526C188.582 28.4655 191.251 32.6054 197.905 32.6054C201.611 32.6054 205.81 30.9164 207.088 26.3702L202.521 24.6304C201.874 26.6062 199.976 27.8761 197.929 27.703C194.514 27.703 193.603 25.8236 193.603 23.6774V16.8716C193.603 14.7255 194.514 12.846 197.929 12.846" fill="black"/>
<path d="M219.801 19.4721L229.37 8.7608H223.076L214.856 18.095V0H209.73V32.6054H214.856V25.0191L216.525 23.1308L223.86 32.6054H229.999L219.801 19.4721" fill="black"/>
<path d="M178.89 13.9679H172.562C171.708 13.966 171.012 14.6381 171.006 15.4718V22.0306H165.672V15.4723C165.691 11.7766 168.775 8.79518 172.562 8.81233H178.89V13.9684" fill="black"/>
<path d="M172.719 27.4489H179.047C179.901 27.4508 180.597 26.7788 180.603 25.9451V19.387H185.937V25.9456C185.918 29.6411 182.834 32.6224 179.047 32.6053H172.719V27.4489" fill="black"/>
<path d="M86.6567 8.76003H92.5289V13.6056H86.6567V23.399C86.6567 25.9109 88.0058 27.7471 91.2183 27.7471H91.9892V32.6054H89.9462C83.393 32.6054 81.5297 28.5888 81.5297 24.1002V13.6056H72.9206V23.399C72.9206 25.9109 74.2697 27.7471 77.495 27.7471H78.2656V32.6054H76.21C69.6569 32.6054 67.8065 28.5888 67.8065 24.1002V13.6056H65.2109V8.76003H67.8065V2.80525L72.9206 0V8.76003H81.5301V2.80525L86.6571 0V8.76003" fill="black"/>
<path d="M31.2502 8.28833C29.5838 8.28761 27.9332 8.60378 26.3903 9.21923V0H21.1484V32.6054H26.3903V13.9627C27.6269 13.2794 29.0263 12.9277 30.4468 12.9431C33.7522 12.9431 35.2936 14.7155 35.2936 17.3296V32.6052H40.5354V16.6405C40.5354 11.8337 36.9398 8.28833 31.2501 8.28833" fill="black"/>
<path d="M57.3249 27.3235C56.2364 27.875 55.0305 28.1592 53.8084 28.1521C49.8967 28.1521 48.4216 26.1972 48.4216 23.4916V7.93103H43.1797V23.5953C43.1797 29.6797 46.762 32.6054 53.1629 32.6054C56.3999 32.5566 59.5955 31.8748 62.5667 30.5988V7.93103H57.3249V27.3235" fill="black"/>
<path d="M11.6151 18.0714L9.74046 17.742C7.87844 17.4126 6.26981 16.9807 6.26981 15.0901C6.26981 13.4786 7.96716 12.73 10.0698 12.73C12.2189 12.793 14.3285 13.33 16.251 14.3034L17.9737 9.77356C15.5437 8.52099 12.8475 7.88913 10.1205 7.93319C6.0925 7.93319 1.1779 10.0521 1.1779 15.3179C1.1779 20.038 4.53455 21.5479 7.77721 22.119L10.0442 22.5123C12.2228 22.8804 13.4134 23.6924 13.4134 25.1262C13.4134 26.9406 11.7161 27.7908 9.1448 27.7908C6.64769 27.8357 4.17223 27.3154 1.89955 26.2681L0 30.6966C2.76346 32.075 5.82633 32.7253 8.90456 32.5872C14.2245 32.5872 18.5057 29.9479 18.5057 25.0247C18.4677 20.4568 15.3897 18.7185 11.6151 18.0714" fill="black"/>
<path fill-rule="evenodd" clip-rule="evenodd" d="M104.475 7.93103C110.387 7.93103 113.678 11.7536 113.678 16.0966V22.5607H100.189L100.202 23.8688C100.202 26.053 101.399 27.7928 104.5 27.7928C106.306 27.8645 107.992 26.8771 108.837 25.2531L113.073 27.8183C112.278 29.621 109.606 32.6054 104.475 32.6054C98.6385 32.6054 95.1719 29.4433 95.1719 23.9827V16.0966C95.1719 12.1471 97.7562 7.93103 104.475 7.93103ZM100.189 18.4718H108.648V18.4713V16.6553C108.648 14.7632 107.627 12.7441 104.45 12.7441C101.147 12.7441 100.189 14.814 100.189 16.7442V18.4718Z" fill="black"/>
<path d="M117.203 16.2637V32.6054H122.46V16.7036C122.46 15.3062 123.266 12.9384 127.123 12.9384C127.933 12.9738 128.74 13.0559 129.54 13.1843V8.18982C128.652 8.01909 127.75 7.93243 126.846 7.93103C120.162 7.93103 117.203 12.0326 117.203 16.2637" fill="black"/>
</svg>
