<svg width="35" height="20" viewBox="0 0 35 20" fill="none" xmlns="http://www.w3.org/2000/svg">
<path fill-rule="evenodd" clip-rule="evenodd" d="M0.667969 20.0002H34.9553V18.4619H0.667969V20.0002Z" fill="#CB001C"/>
<path fill-rule="evenodd" clip-rule="evenodd" d="M0.667969 18.4621H34.9553V16.9238H0.667969V18.4621Z" fill="white"/>
<path fill-rule="evenodd" clip-rule="evenodd" d="M0.667969 16.9238H34.9553V15.3867H0.667969V16.9238Z" fill="#CB001C"/>
<path fill-rule="evenodd" clip-rule="evenodd" d="M0.667969 15.386H34.9553V13.8477H0.667969V15.386Z" fill="white"/>
<path fill-rule="evenodd" clip-rule="evenodd" d="M0.667969 13.8479H34.9553V12.3086H0.667969V13.8479Z" fill="#CB001C"/>
<path fill-rule="evenodd" clip-rule="evenodd" d="M0.667969 12.3089H34.9553V10.7715H0.667969V12.3089Z" fill="white"/>
<path fill-rule="evenodd" clip-rule="evenodd" d="M0.667969 10.7716H34.9553V9.23145H0.667969V10.7716Z" fill="#CB001C"/>
<path fill-rule="evenodd" clip-rule="evenodd" d="M0.667969 9.23042H34.9553V7.69336H0.667969V9.23042Z" fill="white"/>
<path fill-rule="evenodd" clip-rule="evenodd" d="M0.667969 7.69359H34.9553V6.15527H0.667969V7.69359Z" fill="#CB001C"/>
<path fill-rule="evenodd" clip-rule="evenodd" d="M0.667969 6.15547H34.9553V4.61621H0.667969V6.15547Z" fill="white"/>
<path fill-rule="evenodd" clip-rule="evenodd" d="M0.667969 4.61644H34.9553V3.07812H0.667969V4.61644Z" fill="#CB001C"/>
<path fill-rule="evenodd" clip-rule="evenodd" d="M0.667969 3.07836H34.9553V1.54004H0.667969V3.07836Z" fill="white"/>
<path fill-rule="evenodd" clip-rule="evenodd" d="M0.667969 1.53957H34.9553V0H0.667969V1.53957Z" fill="#CB001C"/>
<path fill-rule="evenodd" clip-rule="evenodd" d="M0.667969 10.771H16.3265V0H0.667969V10.771Z" fill="#2A3560"/>
<path fill-rule="evenodd" clip-rule="evenodd" d="M2.082 1.1875L2.2156 1.59552H2.64464L2.29746 1.84673L2.42918 2.25382L2.082 2.0026L1.73482 2.25382L1.87062 1.84673L1.52344 1.59552H1.9484L2.082 1.1875Z" fill="white"/>
<path fill-rule="evenodd" clip-rule="evenodd" d="M2.082 2.98633L2.2156 3.39216H2.64464L2.29746 3.64274L2.42918 4.0517L2.082 3.79924L1.73482 4.0517L1.87062 3.64274L1.52344 3.39216H1.9484L2.082 2.98633Z" fill="white"/>
<path fill-rule="evenodd" clip-rule="evenodd" d="M2.082 4.7832L2.2156 5.18934H2.64464L2.29746 5.44056L2.42918 5.84858L2.082 5.59611L1.73482 5.84858L1.87062 5.44056L1.52344 5.18934H1.9484L2.082 4.7832Z" fill="white"/>
<path fill-rule="evenodd" clip-rule="evenodd" d="M2.082 6.58008L2.2156 6.9881H2.64464L2.29746 7.23931L2.42918 7.64545L2.082 7.39518L1.73482 7.64545L1.87062 7.23931L1.52344 6.9881H1.9484L2.082 6.58008Z" fill="white"/>
<path fill-rule="evenodd" clip-rule="evenodd" d="M2.082 8.37793L2.2156 8.78689H2.64464L2.29746 9.03622L2.42918 9.4433L2.082 9.19209L1.73482 9.4433L1.87062 9.03622L1.52344 8.78689H1.9484L2.082 8.37793Z" fill="white"/>
<path fill-rule="evenodd" clip-rule="evenodd" d="M3.33419 2.13379L3.46184 2.54181H3.89276L3.54777 2.79428L3.6773 3.2001L3.33419 2.94983L2.9889 3.2001L3.11874 2.79428L2.77344 2.54181H3.20247L3.33419 2.13379Z" fill="white"/>
<path fill-rule="evenodd" clip-rule="evenodd" d="M3.33419 3.93262L3.46184 4.33876H3.89276L3.54777 4.59122L3.6773 4.99705L3.33419 4.74772L2.9889 4.99705L3.11874 4.59122L2.77344 4.33876H3.20247L3.33419 3.93262Z" fill="white"/>
<path fill-rule="evenodd" clip-rule="evenodd" d="M3.33419 5.73047L3.46184 6.13755H3.89276L3.54777 6.38908L3.6773 6.79616L3.33419 6.54463L2.9889 6.79616L3.11874 6.38908L2.77344 6.13755H3.20247L3.33419 5.73047Z" fill="white"/>
<path fill-rule="evenodd" clip-rule="evenodd" d="M3.33419 7.5293L3.46184 7.93544H3.89276L3.54777 8.18696L3.6773 8.59279L3.33419 8.34032L2.9889 8.59279L3.11874 8.18696L2.77344 7.93544H3.20247L3.33419 7.5293Z" fill="white"/>
<path fill-rule="evenodd" clip-rule="evenodd" d="M4.60184 1.1875L4.73545 1.59552H5.16448L4.8173 1.84673L4.9509 2.25382L4.60184 2.0026L4.25874 2.25382L4.39015 1.84673L4.04297 1.59552H4.47012L4.60184 1.1875Z" fill="white"/>
<path fill-rule="evenodd" clip-rule="evenodd" d="M4.60184 2.98633L4.73545 3.39216H5.16448L4.8173 3.64274L4.9509 4.0517L4.60184 3.79924L4.25874 4.0517L4.39015 3.64274L4.04297 3.39216H4.47012L4.60184 2.98633Z" fill="white"/>
<path fill-rule="evenodd" clip-rule="evenodd" d="M4.60184 4.7832L4.73545 5.18934H5.16448L4.8173 5.44056L4.9509 5.84858L4.60184 5.59611L4.25874 5.84858L4.39015 5.44056L4.04297 5.18934H4.47012L4.60184 4.7832Z" fill="white"/>
<path fill-rule="evenodd" clip-rule="evenodd" d="M4.60184 6.58008L4.73545 6.9881H5.16448L4.8173 7.23931L4.9509 7.64545L4.60184 7.39518L4.25874 7.64545L4.39015 7.23931L4.04297 6.9881H4.47012L4.60184 6.58008Z" fill="white"/>
<path fill-rule="evenodd" clip-rule="evenodd" d="M4.60184 8.37793L4.73545 8.78689H5.16448L4.8173 9.03622L4.9509 9.4433L4.60184 9.19209L4.25874 9.4433L4.39015 9.03622L4.04297 8.78689H4.47012L4.60184 8.37793Z" fill="white"/>
<path fill-rule="evenodd" clip-rule="evenodd" d="M5.85373 2.13379L5.98545 2.54181H6.41636L6.0673 2.79428L6.2009 3.2001L5.85373 2.94983L5.50843 3.2001L5.64234 2.79428L5.29297 2.54181H5.722L5.85373 2.13379Z" fill="white"/>
<path fill-rule="evenodd" clip-rule="evenodd" d="M5.85373 3.93262L5.98545 4.33876H6.41636L6.0673 4.59122L6.2009 4.99705L5.85373 4.74772L5.50843 4.99705L5.64234 4.59122L5.29297 4.33876H5.722L5.85373 3.93262Z" fill="white"/>
<path fill-rule="evenodd" clip-rule="evenodd" d="M5.85373 5.73047L5.98545 6.13755H6.41636L6.0673 6.38908L6.2009 6.79616L5.85373 6.54463L5.50843 6.79616L5.64234 6.38908L5.29297 6.13755H5.722L5.85373 5.73047Z" fill="white"/>
<path fill-rule="evenodd" clip-rule="evenodd" d="M5.85373 7.5293L5.98545 7.93544H6.41636L6.0673 8.18696L6.2009 8.59279L5.85373 8.34032L5.50843 8.59279L5.64234 8.18696L5.29297 7.93544H5.722L5.85373 7.5293Z" fill="white"/>
<path fill-rule="evenodd" clip-rule="evenodd" d="M7.12137 1.1875L7.25498 1.59552H7.67994L7.33276 1.84673L7.47044 2.25382L7.12137 2.0026L6.77419 2.25382L6.90592 1.84673L6.5625 1.59552H6.98965L7.12137 1.1875Z" fill="white"/>
<path fill-rule="evenodd" clip-rule="evenodd" d="M7.12137 2.98633L7.25498 3.39216H7.67994L7.33276 3.64274L7.47044 4.0517L7.12137 3.79924L6.77419 4.0517L6.90592 3.64274L6.5625 3.39216H6.98965L7.12137 2.98633Z" fill="white"/>
<path fill-rule="evenodd" clip-rule="evenodd" d="M7.12137 4.7832L7.25498 5.18934H7.67994L7.33276 5.44056L7.47044 5.84858L7.12137 5.59611L6.77419 5.84858L6.90592 5.44056L6.5625 5.18934H6.98965L7.12137 4.7832Z" fill="white"/>
<path fill-rule="evenodd" clip-rule="evenodd" d="M7.12137 6.58008L7.25498 6.9881H7.67994L7.33276 7.23931L7.47044 7.64545L7.12137 7.39518L6.77419 7.64545L6.90592 7.23931L6.5625 6.9881H6.98965L7.12137 6.58008Z" fill="white"/>
<path fill-rule="evenodd" clip-rule="evenodd" d="M7.12137 8.37793L7.25498 8.78689H7.67994L7.33276 9.03622L7.47044 9.4433L7.12137 9.19209L6.77419 9.4433L6.90592 9.03622L6.5625 8.78689H6.98965L7.12137 8.37793Z" fill="white"/>
<path fill-rule="evenodd" clip-rule="evenodd" d="M8.37716 2.13379L8.50888 2.54181H8.93572L8.59074 2.79428L8.72027 3.2001L8.37716 2.94983L8.03218 3.2001L8.1617 2.79428L7.81641 2.54181H8.24356L8.37716 2.13379Z" fill="white"/>
<path fill-rule="evenodd" clip-rule="evenodd" d="M8.37716 3.93262L8.50888 4.33876H8.93572L8.59074 4.59122L8.72027 4.99705L8.37716 4.74772L8.03218 4.99705L8.1617 4.59122L7.81641 4.33876H8.24356L8.37716 3.93262Z" fill="white"/>
<path fill-rule="evenodd" clip-rule="evenodd" d="M8.37716 5.73047L8.50888 6.13755H8.93572L8.59074 6.38908L8.72027 6.79616L8.37716 6.54463L8.03218 6.79616L8.1617 6.38908L7.81641 6.13755H8.24356L8.37716 5.73047Z" fill="white"/>
<path fill-rule="evenodd" clip-rule="evenodd" d="M8.37716 7.5293L8.50888 7.93544H8.93572L8.59074 8.18696L8.72027 8.59279L8.37716 8.34032L8.03218 8.59279L8.1617 8.18696L7.81641 7.93544H8.24356L8.37716 7.5293Z" fill="white"/>
<path fill-rule="evenodd" clip-rule="evenodd" d="M9.64059 1.1875L9.7742 1.59552H10.2013L9.85605 1.84673L9.98965 2.25382L9.64059 2.0026L9.29749 2.25382L9.42733 1.84673L9.08203 1.59552H9.50887L9.64059 1.1875Z" fill="white"/>
<path fill-rule="evenodd" clip-rule="evenodd" d="M9.64059 2.98633L9.7742 3.39216H10.2013L9.85605 3.64274L9.98965 4.0517L9.64059 3.79924L9.29749 4.0517L9.42733 3.64274L9.08203 3.39216H9.50887L9.64059 2.98633Z" fill="white"/>
<path fill-rule="evenodd" clip-rule="evenodd" d="M9.64059 4.7832L9.7742 5.18934H10.2013L9.85605 5.44056L9.98965 5.84858L9.64059 5.59611L9.29749 5.84858L9.42733 5.44056L9.08203 5.18934H9.50887L9.64059 4.7832Z" fill="white"/>
<path fill-rule="evenodd" clip-rule="evenodd" d="M9.64059 6.58008L9.7742 6.9881H10.2013L9.85605 7.23931L9.98965 7.64545L9.64059 7.39518L9.29749 7.64545L9.42733 7.23931L9.08203 6.9881H9.50887L9.64059 6.58008Z" fill="white"/>
<path fill-rule="evenodd" clip-rule="evenodd" d="M9.64059 8.37793L9.7742 8.78689H10.2013L9.85605 9.03622L9.98965 9.4433L9.64059 9.19209L9.29749 9.4433L9.42733 9.03622L9.08203 8.78689H9.50887L9.64059 8.37793Z" fill="white"/>
<path fill-rule="evenodd" clip-rule="evenodd" d="M10.8948 2.13379L11.0265 2.54181H11.4575L11.1103 2.79428L11.242 3.2001L10.8948 2.94983L10.5495 3.2001L10.6834 2.79428L10.3359 2.54181H10.765L10.8948 2.13379Z" fill="white"/>
<path fill-rule="evenodd" clip-rule="evenodd" d="M10.8948 3.93262L11.0265 4.33876H11.4575L11.1103 4.59122L11.242 4.99705L10.8948 4.74772L10.5495 4.99705L10.6834 4.59122L10.3359 4.33876H10.765L10.8948 3.93262Z" fill="white"/>
<path fill-rule="evenodd" clip-rule="evenodd" d="M10.8948 5.73047L11.0265 6.13755H11.4575L11.1103 6.38908L11.242 6.79616L10.8948 6.54463L10.5495 6.79616L10.6834 6.38908L10.3359 6.13755H10.765L10.8948 5.73047Z" fill="white"/>
<path fill-rule="evenodd" clip-rule="evenodd" d="M10.8948 7.5293L11.0265 7.93544H11.4575L11.1103 8.18696L11.242 8.59279L10.8948 8.34032L10.5495 8.59279L10.6834 8.18696L10.3359 7.93544H10.765L10.8948 7.5293Z" fill="white"/>
<path fill-rule="evenodd" clip-rule="evenodd" d="M12.164 1.1875L12.2976 1.59552H12.7248L12.3795 1.84673L12.5093 2.25382L12.164 2.0026L11.8209 2.25382L11.9505 1.84673L11.6055 1.59552H12.0323L12.164 1.1875Z" fill="white"/>
<path fill-rule="evenodd" clip-rule="evenodd" d="M12.164 2.98633L12.2976 3.39216H12.7248L12.3795 3.64274L12.5093 4.0517L12.164 3.79924L11.8209 4.0517L11.9505 3.64274L11.6055 3.39216H12.0323L12.164 2.98633Z" fill="white"/>
<path fill-rule="evenodd" clip-rule="evenodd" d="M12.164 4.7832L12.2976 5.18934H12.7248L12.3795 5.44056L12.5093 5.84858L12.164 5.59611L11.8209 5.84858L11.9505 5.44056L11.6055 5.18934H12.0323L12.164 4.7832Z" fill="white"/>
<path fill-rule="evenodd" clip-rule="evenodd" d="M12.164 6.58008L12.2976 6.9881H12.7248L12.3795 7.23931L12.5093 7.64545L12.164 7.39518L11.8209 7.64545L11.9505 7.23931L11.6055 6.9881H12.0323L12.164 6.58008Z" fill="white"/>
<path fill-rule="evenodd" clip-rule="evenodd" d="M12.164 8.37793L12.2976 8.78689H12.7248L12.3795 9.03622L12.5093 9.4433L12.164 9.19209L11.8209 9.4433L11.9505 9.03622L11.6055 8.78689H12.0323L12.164 8.37793Z" fill="white"/>
<path fill-rule="evenodd" clip-rule="evenodd" d="M13.414 2.13379L13.5436 2.54181H13.9726L13.6295 2.79428L13.7571 3.2001L13.414 2.94983L13.065 3.2001L13.1986 2.79428L12.8555 2.54181H13.2804L13.414 2.13379Z" fill="white"/>
<path fill-rule="evenodd" clip-rule="evenodd" d="M13.414 3.93262L13.5436 4.33876H13.9726L13.6295 4.59122L13.7571 4.99705L13.414 4.74772L13.065 4.99705L13.1986 4.59122L12.8555 4.33876H13.2804L13.414 3.93262Z" fill="white"/>
<path fill-rule="evenodd" clip-rule="evenodd" d="M13.414 5.73047L13.5436 6.13755H13.9726L13.6295 6.38908L13.7571 6.79616L13.414 6.54463L13.065 6.79616L13.1986 6.38908L12.8555 6.13755H13.2804L13.414 5.73047Z" fill="white"/>
<path fill-rule="evenodd" clip-rule="evenodd" d="M13.414 7.5293L13.5436 7.93544H13.9726L13.6295 8.18696L13.7571 8.59279L13.414 8.34032L13.065 8.59279L13.1986 8.18696L12.8555 7.93544H13.2804L13.414 7.5293Z" fill="white"/>
<path fill-rule="evenodd" clip-rule="evenodd" d="M14.6797 1.1875L14.8155 1.59552H15.2404L14.8951 1.84673L15.0287 2.25382L14.6797 2.0026L14.3366 2.25382L14.4664 1.84673L14.1211 1.59552H14.5479L14.6797 1.1875Z" fill="white"/>
<path fill-rule="evenodd" clip-rule="evenodd" d="M14.6797 2.98633L14.8155 3.39216H15.2404L14.8951 3.64274L15.0287 4.0517L14.6797 3.79924L14.3366 4.0517L14.4664 3.64274L14.1211 3.39216H14.5479L14.6797 2.98633Z" fill="white"/>
<path fill-rule="evenodd" clip-rule="evenodd" d="M14.6797 4.7832L14.8155 5.18934H15.2404L14.8951 5.44056L15.0287 5.84858L14.6797 5.59611L14.3366 5.84858L14.4664 5.44056L14.1211 5.18934H14.5479L14.6797 4.7832Z" fill="white"/>
<path fill-rule="evenodd" clip-rule="evenodd" d="M14.6797 6.58008L14.8155 6.9881H15.2404L14.8951 7.23931L15.0287 7.64545L14.6797 7.39518L14.3366 7.64545L14.4664 7.23931L14.1211 6.9881H14.5479L14.6797 6.58008Z" fill="white"/>
<path fill-rule="evenodd" clip-rule="evenodd" d="M14.6797 8.37793L14.8155 8.78689H15.2404L14.8951 9.03622L15.0287 9.4433L14.6797 9.19209L14.3366 9.4433L14.4664 9.03622L14.1211 8.78689H14.5479L14.6797 8.37793Z" fill="white"/>
</svg>
