<svg width="400" height="385" viewBox="0 0 400 385" fill="none" xmlns="http://www.w3.org/2000/svg">
<mask id="mask0_24_104" style="mask-type:alpha" maskUnits="userSpaceOnUse" x="0" y="0" width="400" height="385">
<path fill-rule="evenodd" clip-rule="evenodd" d="M208.742 384.439C223.976 384.413 239.113 382.573 253.928 378.938V378.938C275.141 373.732 295.219 364.949 313.605 352.833V352.833C347.895 330.234 373.578 297.931 387.873 259.418V259.418C394.752 240.888 398.747 221.48 399.75 201.737V201.737C400.765 181.754 398.688 161.868 393.576 142.63V142.63C392.252 137.645 390.735 132.778 389.079 128.194V128.194C386.276 119.478 379.176 111.988 369.602 107.644V107.644C364.27 105.193 358.028 104.289 351.991 103.414V103.414C341.08 101.833 330.771 100.34 327.493 89.9898V89.9898C325.545 83.4128 326.064 75.6716 326.567 68.1853V68.1853C327.484 54.5385 328.432 40.4256 314.723 32.3876V32.3876C310.731 29.6852 306.466 27.0606 302.048 24.5848V24.5848C271.801 7.64204 237.47 -0.835725 202.769 0.065094V0.065094C167.082 0.992116 132.414 11.899 102.513 31.6037V31.6037C72.6127 51.3091 48.8964 78.8811 33.9271 111.34V111.34C19.3736 142.899 13.5677 177.828 17.1403 212.352V212.352C17.2782 213.68 17.4289 215.01 17.5816 216.347V216.347C17.9882 219.911 18.409 223.596 18.5731 227.458V227.458L18.5851 227.567C18.9945 230.003 18.6219 232.28 18.2273 234.691V234.691C18.0773 235.604 17.9225 236.549 17.8192 237.469V237.469C16.5527 245.9 12.6738 253.836 8.92374 261.511V261.511C4.37453 270.817 0.00707172 279.756 4.05428e-08 289.329V289.329V289.345C-0.000707127 293.161 0.691608 297.078 2.34143 301.16V301.16C7.53275 314.527 21.3416 315.273 34.6965 315.996V315.996C39.2096 316.239 43.8762 316.493 47.9743 317.258V317.258C54.0107 318.505 60.4254 320.074 66.4356 323.087V323.087C69.2685 325.461 71.9268 327.974 74.4973 330.406V330.406C75.5581 331.407 76.6146 332.406 77.6781 333.391V333.391C93.2874 347.847 111.117 359.533 130.673 368.124V368.124C149.892 376.568 170.252 381.799 191.185 383.67V383.67C196.824 384.174 202.458 384.43 208.081 384.439V384.439H208.742ZM301.201 26.1003C305.587 28.5563 309.816 31.1611 313.775 33.843V33.843L313.823 33.8734C326.629 41.3661 325.76 54.3359 324.838 68.0678V68.0678C324.324 75.7084 323.793 83.6083 325.835 90.499V90.499C329.446 101.902 340.782 103.545 351.742 105.133V105.133C357.659 105.99 363.774 106.877 368.882 109.224V109.224C378.016 113.369 384.774 120.475 387.438 128.755V128.755C389.088 133.321 390.589 138.14 391.901 143.077V143.077C413.009 222.519 381.161 306.231 312.652 351.382V351.382C239.383 399.668 143.242 391.747 78.8563 332.115V332.115C77.7955 331.135 76.7447 330.14 75.6875 329.142V329.142C73.0752 326.672 70.3724 324.117 67.4695 321.689V321.689L67.3931 321.625L67.304 321.58C61.0873 318.447 54.5078 316.834 48.3081 315.553V315.553C44.0834 314.765 39.3589 314.508 34.7898 314.262V314.262C21.9844 313.569 8.74343 312.853 3.95378 300.519V300.519C-1.55293 286.899 4.29252 274.937 10.4809 262.274V262.274C14.2897 254.481 18.2273 246.422 19.5383 237.694V237.694C19.6409 236.788 19.7915 235.864 19.9386 234.971V234.971C20.3353 232.543 20.7469 230.032 20.3042 227.331V227.331C20.1352 223.426 19.7123 219.727 19.305 216.151V216.151C19.1529 214.819 19.0023 213.496 18.8651 212.172V212.172C11.4936 140.938 43.9109 72.3041 103.466 33.0548V33.0548C135.174 12.1582 171.473 1.63162 207.909 1.63233V1.63233C239.91 1.63304 272.018 9.75385 301.201 26.1003V26.1003Z" fill="white"/>
</mask>
<g mask="url(#mask0_24_104)">
<path fill-rule="evenodd" clip-rule="evenodd" d="M208.742 384.439C223.976 384.413 239.113 382.573 253.928 378.938V378.938C275.141 373.732 295.219 364.949 313.605 352.833V352.833C347.895 330.234 373.578 297.931 387.873 259.418V259.418C394.752 240.888 398.747 221.48 399.75 201.737V201.737C400.765 181.754 398.688 161.868 393.576 142.63V142.63C392.252 137.645 390.735 132.778 389.079 128.194V128.194C386.276 119.478 379.176 111.988 369.602 107.644V107.644C364.27 105.193 358.028 104.289 351.991 103.414V103.414C341.08 101.833 330.771 100.34 327.493 89.9898V89.9898C325.545 83.4128 326.064 75.6716 326.567 68.1853V68.1853C327.484 54.5385 328.432 40.4256 314.723 32.3876V32.3876C310.731 29.6852 306.466 27.0606 302.048 24.5848V24.5848C271.801 7.64204 237.47 -0.835725 202.769 0.065094V0.065094C167.082 0.992116 132.414 11.899 102.513 31.6037V31.6037C72.6127 51.3091 48.8964 78.8811 33.9271 111.34V111.34C19.3736 142.899 13.5677 177.828 17.1403 212.352V212.352C17.2782 213.68 17.4289 215.01 17.5816 216.347V216.347C17.9882 219.911 18.409 223.596 18.5731 227.458V227.458L18.5851 227.567C18.9945 230.003 18.6219 232.28 18.2273 234.691V234.691C18.0773 235.604 17.9225 236.549 17.8192 237.469V237.469C16.5527 245.9 12.6738 253.836 8.92374 261.511V261.511C4.37453 270.817 0.00707172 279.756 4.05428e-08 289.329V289.329V289.345C-0.000707127 293.161 0.691608 297.078 2.34143 301.16V301.16C7.53275 314.527 21.3416 315.273 34.6965 315.996V315.996C39.2096 316.239 43.8762 316.493 47.9743 317.258V317.258C54.0107 318.505 60.4254 320.074 66.4356 323.087V323.087C69.2685 325.461 71.9268 327.974 74.4973 330.406V330.406C75.5581 331.407 76.6146 332.406 77.6781 333.391V333.391C93.2874 347.847 111.117 359.533 130.673 368.124V368.124C149.892 376.568 170.252 381.799 191.185 383.67V383.67C196.824 384.174 202.458 384.43 208.081 384.439V384.439H208.742ZM301.201 26.1003C305.587 28.5563 309.816 31.1611 313.775 33.843V33.843L313.823 33.8734C326.629 41.3661 325.76 54.3359 324.838 68.0678V68.0678C324.324 75.7084 323.793 83.6083 325.835 90.499V90.499C329.446 101.902 340.782 103.545 351.742 105.133V105.133C357.659 105.99 363.774 106.877 368.882 109.224V109.224C378.016 113.369 384.774 120.475 387.438 128.755V128.755C389.088 133.321 390.589 138.14 391.901 143.077V143.077C413.009 222.519 381.161 306.231 312.652 351.382V351.382C239.383 399.668 143.242 391.747 78.8563 332.115V332.115C77.7955 331.135 76.7447 330.14 75.6875 329.142V329.142C73.0752 326.672 70.3724 324.117 67.4695 321.689V321.689L67.3931 321.625L67.304 321.58C61.0873 318.447 54.5078 316.834 48.3081 315.553V315.553C44.0834 314.765 39.3589 314.508 34.7898 314.262V314.262C21.9844 313.569 8.74343 312.853 3.95378 300.519V300.519C-1.55293 286.899 4.29252 274.937 10.4809 262.274V262.274C14.2897 254.481 18.2273 246.422 19.5383 237.694V237.694C19.6409 236.788 19.7915 235.864 19.9386 234.971V234.971C20.3353 232.543 20.7469 230.032 20.3042 227.331V227.331C20.1352 223.426 19.7123 219.727 19.305 216.151V216.151C19.1529 214.819 19.0023 213.496 18.8651 212.172V212.172C11.4936 140.938 43.9109 72.3041 103.466 33.0548V33.0548C135.174 12.1582 171.473 1.63162 207.909 1.63233V1.63233C239.91 1.63304 272.018 9.75385 301.201 26.1003V26.1003Z" fill="url(#paint0_linear_24_104)"/>
</g>
<mask id="mask1_24_104" style="mask-type:alpha" maskUnits="userSpaceOnUse" x="5" y="11" width="384" height="361">
<path fill-rule="evenodd" clip-rule="evenodd" d="M252.279 366.096C271.75 361.193 290.195 353.069 307.099 341.953V341.953C338.334 321.413 362.037 292.182 375.647 257.42V257.42C382.198 240.683 386.217 223.106 387.589 205.175V205.175C388.974 187.069 387.632 168.958 383.599 151.346V151.346C382.41 146.156 380.995 141.068 379.396 136.222V136.222C372.805 115.92 353.662 114.411 335.149 112.952V112.952C327.694 112.363 319.986 111.756 313.462 109.867V109.867C307.512 108.066 306.269 101.64 307.636 96.4143V96.4143C308.307 93.6149 309.121 90.6917 309.983 87.5964V87.5964C312.412 78.8754 315.166 68.9906 314.884 60.1847V60.1847C314.557 49.9268 310.204 42.6444 301.611 37.9442V37.9442C297.297 35.3083 292.733 32.7992 288.042 30.4863V30.4863C260.337 16.8265 229.385 10.4489 198.532 12.0419V12.0419C166.739 13.6844 135.831 23.8284 109.149 41.3743V41.3743C82.4661 58.921 60.9165 83.2749 46.8302 111.804V111.804C33.1605 139.489 26.777 170.418 28.3718 201.249V201.249C28.6269 206.166 29.086 211.207 29.7746 216.655V216.655C30.532 232.336 23.6582 245.394 16.3798 259.22V259.22C13.3786 264.921 10.2747 270.815 7.70148 276.979V276.979C4.50262 285.029 4.81576 293.146 8.55945 299.248V299.248C11.973 304.81 18.0207 308.26 25.5988 308.964V308.964C30.8104 309.409 36.1114 309.402 41.2388 309.396V309.396C54.3303 309.381 66.6986 309.366 77.6391 316.3V316.3C79.5315 317.977 81.397 319.688 83.2022 321.346V321.346C85.22 323.197 87.3051 325.11 89.3881 326.937V326.937C104.052 339.78 120.657 350.105 138.747 357.624V357.624C156.558 365.029 175.35 369.528 194.602 370.999V370.999C199.22 371.352 203.836 371.528 208.441 371.528V371.528C223.236 371.528 237.928 369.71 252.279 366.096M287.274 32.0431C291.917 34.3341 296.436 36.8163 300.741 39.4465V39.4465C318.836 49.3483 313.243 69.4203 308.309 87.1305V87.1305C307.443 90.2428 306.623 93.1802 305.951 95.9931V95.9931C304.383 101.979 305.908 109.395 312.969 111.531V111.531C319.672 113.472 327.471 114.087 335.013 114.682V114.682C352.957 116.097 371.511 117.559 377.745 136.763V136.763C379.33 141.561 380.729 146.597 381.904 151.733V151.733C398.446 223.966 367.999 299.826 306.145 340.503V340.503C239.343 384.432 150.681 378.316 90.5337 325.631V325.631C88.4663 323.818 86.3883 321.911 84.3776 320.067V320.067C82.5511 318.39 80.6623 316.656 78.7394 314.955V314.955L78.631 314.872C67.2476 307.63 54.0236 307.644 41.2367 307.661V307.661C36.1468 307.667 30.8827 307.673 25.7525 307.235V307.235C18.6392 306.573 13.2065 303.499 10.0416 298.342V298.342C6.58559 292.708 6.3206 285.155 9.31116 277.634V277.634C11.8497 271.555 14.9338 265.694 17.918 260.028V260.028C25.3147 245.977 32.2997 232.707 31.5076 216.538V216.538L31.5019 216.47C30.8168 211.053 30.3605 206.044 30.1076 201.159V201.159C26.845 138.089 57.498 77.4191 110.104 42.8243V42.8243C139.54 23.4666 173.753 13.6476 208.118 13.649V13.649C235.166 13.6504 262.311 19.7362 287.274 32.0431" fill="white"/>
</mask>
<g mask="url(#mask1_24_104)">
<path fill-rule="evenodd" clip-rule="evenodd" d="M252.279 366.096C271.75 361.193 290.195 353.069 307.099 341.953V341.953C338.334 321.413 362.037 292.182 375.647 257.42V257.42C382.198 240.683 386.217 223.106 387.589 205.175V205.175C388.974 187.069 387.632 168.958 383.599 151.346V151.346C382.41 146.156 380.995 141.068 379.396 136.222V136.222C372.805 115.92 353.662 114.411 335.149 112.952V112.952C327.694 112.363 319.986 111.756 313.462 109.867V109.867C307.512 108.066 306.269 101.64 307.636 96.4143V96.4143C308.307 93.6149 309.121 90.6917 309.983 87.5964V87.5964C312.412 78.8754 315.166 68.9906 314.884 60.1847V60.1847C314.557 49.9268 310.204 42.6444 301.611 37.9442V37.9442C297.297 35.3083 292.733 32.7992 288.042 30.4863V30.4863C260.337 16.8265 229.385 10.4489 198.532 12.0419V12.0419C166.739 13.6844 135.831 23.8284 109.149 41.3743V41.3743C82.4661 58.921 60.9165 83.2749 46.8302 111.804V111.804C33.1605 139.489 26.777 170.418 28.3718 201.249V201.249C28.6269 206.166 29.086 211.207 29.7746 216.655V216.655C30.532 232.336 23.6582 245.394 16.3798 259.22V259.22C13.3786 264.921 10.2747 270.815 7.70148 276.979V276.979C4.50262 285.029 4.81576 293.146 8.55945 299.248V299.248C11.973 304.81 18.0207 308.26 25.5988 308.964V308.964C30.8104 309.409 36.1114 309.402 41.2388 309.396V309.396C54.3303 309.381 66.6986 309.366 77.6391 316.3V316.3C79.5315 317.977 81.397 319.688 83.2022 321.346V321.346C85.22 323.197 87.3051 325.11 89.3881 326.937V326.937C104.052 339.78 120.657 350.105 138.747 357.624V357.624C156.558 365.029 175.35 369.528 194.602 370.999V370.999C199.22 371.352 203.836 371.528 208.441 371.528V371.528C223.236 371.528 237.928 369.71 252.279 366.096M287.274 32.0431C291.917 34.3341 296.436 36.8163 300.741 39.4465V39.4465C318.836 49.3483 313.243 69.4203 308.309 87.1305V87.1305C307.443 90.2428 306.623 93.1802 305.951 95.9931V95.9931C304.383 101.979 305.908 109.395 312.969 111.531V111.531C319.672 113.472 327.471 114.087 335.013 114.682V114.682C352.957 116.097 371.511 117.559 377.745 136.763V136.763C379.33 141.561 380.729 146.597 381.904 151.733V151.733C398.446 223.966 367.999 299.826 306.145 340.503V340.503C239.343 384.432 150.681 378.316 90.5337 325.631V325.631C88.4663 323.818 86.3883 321.911 84.3776 320.067V320.067C82.5511 318.39 80.6623 316.656 78.7394 314.955V314.955L78.631 314.872C67.2476 307.63 54.0236 307.644 41.2367 307.661V307.661C36.1468 307.667 30.8827 307.673 25.7525 307.235V307.235C18.6392 306.573 13.2065 303.499 10.0416 298.342V298.342C6.58559 292.708 6.3206 285.155 9.31116 277.634V277.634C11.8497 271.555 14.9338 265.694 17.918 260.028V260.028C25.3147 245.977 32.2997 232.707 31.5076 216.538V216.538L31.5019 216.47C30.8168 211.053 30.3605 206.044 30.1076 201.159V201.159C26.845 138.089 57.498 77.4191 110.104 42.8243V42.8243C139.54 23.4666 173.753 13.6476 208.118 13.649V13.649C235.166 13.6504 262.311 19.7362 287.274 32.0431" fill="url(#paint1_linear_24_104)"/>
</g>
<mask id="mask2_24_104" style="mask-type:alpha" maskUnits="userSpaceOnUse" x="12" y="24" width="364" height="337">
<path fill-rule="evenodd" clip-rule="evenodd" d="M300.141 332.465C330.524 312.399 353.107 283.649 365.448 249.325V249.325C371.386 232.815 374.718 215.553 375.357 198.019V198.019C376.002 180.25 373.861 162.618 368.989 145.609V145.609C367.579 140.824 365.538 135.364 361.083 131.131V131.131L361.012 131.07C348.289 121.354 332.793 122.115 317.808 122.849V122.849C312.556 123.106 307.125 123.373 301.89 123.185V123.185C297.042 122.998 293.257 121.178 291.233 118.06V118.06C289.114 114.792 288.985 110.368 290.877 105.586V105.586C292.144 102.205 293.688 98.7168 295.182 95.3417V95.3417C301.166 81.8159 307.354 67.8274 299.723 53.8999V53.8999L299.697 53.8531L299.666 53.8091C296.561 49.5043 291.851 46.5955 287.221 44.0912V44.0912C232.923 14.983 167.35 17.9308 116.094 51.7852V51.7852C69.6328 82.4702 41.4779 134.242 40.7793 190.275V190.275C40.7128 195.663 40.9065 201.115 41.3527 206.447V206.447C42.2041 224.102 34.3525 238.889 26.04 254.545V254.545C22.6608 260.908 19.1678 267.488 16.3125 274.255V274.255C13.7762 279.545 8.4999 290.554 15.7865 297.117V297.117C25.492 305.777 38.1248 304.983 50.3419 304.217V304.217C55.8424 303.872 61.531 303.513 66.8603 304.032V304.032C76.1953 304.903 83.6183 307.196 89.5494 311.043V311.043C93.1534 314.402 97.437 318.327 101.914 322.01V322.01C115.548 333.225 130.836 342.175 147.352 348.608V348.608C163.651 354.956 180.764 358.712 198.221 359.772V359.772C201.668 359.981 205.104 360.085 208.528 360.085V360.085C241.163 360.085 272.644 350.626 300.141 332.465M359.924 132.426C364.057 136.373 365.985 141.554 367.324 146.095V146.095C387.479 216.471 360.097 290.784 299.188 331.012V331.012C238.279 371.24 159.443 367.082 103.014 320.664V320.664C98.5493 316.993 94.2707 313.069 90.673 309.716V309.716L90.5556 309.624C84.3728 305.596 76.6754 303.2 67.0236 302.3V302.3C61.5599 301.769 55.8021 302.13 50.2331 302.479V302.479C37.8258 303.259 26.1043 303.994 16.9404 295.821V295.821C11.3912 290.821 14.1092 282.864 17.8908 274.971V274.971C20.7333 268.238 24.2093 261.692 27.5694 255.362V255.362C35.9979 239.489 43.9584 224.496 43.083 206.332V206.332C42.6382 201.025 42.4473 195.629 42.5138 190.296V190.296C43.2046 134.842 71.0668 83.6056 117.047 53.2378V53.2378C167.773 19.7355 232.667 16.8188 286.401 45.6247V45.6247C290.832 48.0205 295.329 50.7888 298.23 54.7855V54.7855C305.406 67.9423 299.403 81.5129 293.597 94.6363V94.6363C292.093 98.0327 290.539 101.546 289.259 104.959V104.959C287.16 110.266 287.345 115.254 289.781 119.009V119.009C292.12 122.616 296.398 124.715 301.826 124.923V124.923C307.137 125.114 312.605 124.846 317.892 124.587V124.587C322.039 124.384 326.123 124.184 330.117 124.184V124.184C340.895 124.184 351.016 125.641 359.924 132.426" fill="white"/>
</mask>
<g mask="url(#mask2_24_104)">
<path fill-rule="evenodd" clip-rule="evenodd" d="M300.141 332.465C330.524 312.399 353.107 283.649 365.448 249.325V249.325C371.386 232.815 374.718 215.553 375.357 198.019V198.019C376.002 180.25 373.861 162.618 368.989 145.609V145.609C367.579 140.824 365.538 135.364 361.083 131.131V131.131L361.012 131.07C348.289 121.354 332.793 122.115 317.808 122.849V122.849C312.556 123.106 307.125 123.373 301.89 123.185V123.185C297.042 122.998 293.257 121.178 291.233 118.06V118.06C289.114 114.792 288.985 110.368 290.877 105.586V105.586C292.144 102.205 293.688 98.7168 295.182 95.3417V95.3417C301.166 81.8159 307.354 67.8274 299.723 53.8999V53.8999L299.697 53.8531L299.666 53.8091C296.561 49.5043 291.851 46.5955 287.221 44.0912V44.0912C232.923 14.983 167.35 17.9308 116.094 51.7852V51.7852C69.6328 82.4702 41.4779 134.242 40.7793 190.275V190.275C40.7128 195.663 40.9065 201.115 41.3527 206.447V206.447C42.2041 224.102 34.3525 238.889 26.04 254.545V254.545C22.6608 260.908 19.1678 267.488 16.3125 274.255V274.255C13.7762 279.545 8.4999 290.554 15.7865 297.117V297.117C25.492 305.777 38.1248 304.983 50.3419 304.217V304.217C55.8424 303.872 61.531 303.513 66.8603 304.032V304.032C76.1953 304.903 83.6183 307.196 89.5494 311.043V311.043C93.1534 314.402 97.437 318.327 101.914 322.01V322.01C115.548 333.225 130.836 342.175 147.352 348.608V348.608C163.651 354.956 180.764 358.712 198.221 359.772V359.772C201.668 359.981 205.104 360.085 208.528 360.085V360.085C241.163 360.085 272.644 350.626 300.141 332.465M359.924 132.426C364.057 136.373 365.985 141.554 367.324 146.095V146.095C387.479 216.471 360.097 290.784 299.188 331.012V331.012C238.279 371.24 159.443 367.082 103.014 320.664V320.664C98.5493 316.993 94.2707 313.069 90.673 309.716V309.716L90.5556 309.624C84.3728 305.596 76.6754 303.2 67.0236 302.3V302.3C61.5599 301.769 55.8021 302.13 50.2331 302.479V302.479C37.8258 303.259 26.1043 303.994 16.9404 295.821V295.821C11.3912 290.821 14.1092 282.864 17.8908 274.971V274.971C20.7333 268.238 24.2093 261.692 27.5694 255.362V255.362C35.9979 239.489 43.9584 224.496 43.083 206.332V206.332C42.6382 201.025 42.4473 195.629 42.5138 190.296V190.296C43.2046 134.842 71.0668 83.6056 117.047 53.2378V53.2378C167.773 19.7355 232.667 16.8188 286.401 45.6247V45.6247C290.832 48.0205 295.329 50.7888 298.23 54.7855V54.7855C305.406 67.9423 299.403 81.5129 293.597 94.6363V94.6363C292.093 98.0327 290.539 101.546 289.259 104.959V104.959C287.16 110.266 287.345 115.254 289.781 119.009V119.009C292.12 122.616 296.398 124.715 301.826 124.923V124.923C307.137 125.114 312.605 124.846 317.892 124.587V124.587C322.039 124.384 326.123 124.184 330.117 124.184V124.184C340.895 124.184 351.016 125.641 359.924 132.426" fill="url(#paint2_linear_24_104)"/>
</g>
<mask id="mask3_24_104" style="mask-type:alpha" maskUnits="userSpaceOnUse" x="18" y="36" width="345" height="312">
<path fill-rule="evenodd" clip-rule="evenodd" d="M292.365 322.021C318.246 304.903 338.206 280.683 350.087 251.978V251.978C361.679 223.97 364.942 193.455 359.522 163.735V163.735C358.605 158.708 357.436 153.724 356.046 148.919V148.919L356.014 148.825C347.548 128.625 327.018 129.979 307.164 131.288V131.288C298.654 131.849 289.854 132.429 282.418 131.175V131.175C279.397 130.713 276.825 129.236 275.358 127.118V127.118C274.133 125.35 273.733 123.213 274.199 120.937V120.937C275.457 114.805 278.573 108.166 281.872 101.137V101.137C285.755 92.8641 289.768 84.3114 290.656 76.3781V76.3781C291.678 67.2428 288.349 60.2199 280.479 54.9062V54.9062L280.406 54.8622C276.061 52.5207 271.519 50.3559 266.905 48.4267V48.4267C219.213 28.4874 165.077 33.5556 122.095 61.9845V61.9845C79.1123 90.4134 53.0652 138.377 52.4185 190.288V190.288C52.3811 193.416 52.4298 196.487 52.4807 199.74V199.74C52.511 201.617 52.5414 203.517 52.5541 205.448V205.448C50.9289 222.003 42.7296 235.678 34.0503 250.153V250.153C30.548 255.997 26.9256 262.039 23.8002 268.264V268.264L23.3865 269.149C20.636 275.041 17.7916 281.132 19.188 288V288C21.5164 297.343 32.3193 297.886 40.2072 298.283V298.283L40.8433 298.314C46.4198 298.415 51.9462 298.083 57.2905 297.76V297.76C71.1934 296.921 84.3267 296.128 96.7555 302.829V302.829C100.396 305.14 103.543 307.783 106.586 310.338V310.338C107.383 311.008 108.179 311.676 108.978 312.333V312.333C121.592 322.724 135.735 331.015 151.015 336.976V336.976C166.093 342.858 181.926 346.338 198.075 347.318V347.318C201.266 347.513 204.445 347.609 207.615 347.609V347.609C237.805 347.609 266.928 338.845 292.365 322.021M354.399 149.454C355.765 154.186 356.915 159.096 357.819 164.049V164.049C368.951 225.086 342.885 286.524 291.414 320.568V320.568C235.111 357.806 162.236 353.957 110.075 310.989V310.989C109.28 310.334 108.49 309.67 107.696 309.004V309.004C104.603 306.405 101.404 303.718 97.6542 301.34V301.34L97.6019 301.309C84.7319 294.36 71.3522 295.168 57.186 296.023V296.023C51.8749 296.343 46.3845 296.674 40.9026 296.576V296.576L40.294 296.545C32.5374 296.155 22.8846 295.669 20.8775 287.615V287.615C19.6032 281.349 22.324 275.523 24.9552 269.888V269.888L25.3562 269.025C28.4413 262.88 32.0468 256.867 35.5336 251.052V251.052C43.9376 237.035 52.6275 222.539 54.2809 205.572V205.572L54.2858 205.482C54.2731 203.529 54.2421 201.609 54.2117 199.711V199.711C54.1609 196.473 54.1122 193.414 54.151 190.31V190.31C54.7899 138.977 80.5448 91.5479 123.047 63.4376V63.4376C165.548 35.3273 219.078 30.3159 266.241 50.0338V50.0338C270.788 51.9354 275.266 54.0689 279.55 56.3749V56.3749C295.8 67.3791 287.923 84.1631 280.305 100.395V100.395C276.961 107.52 273.803 114.249 272.503 120.586V120.586C271.937 123.341 272.434 125.943 273.937 128.113V128.113C275.675 130.62 278.671 132.363 282.144 132.893V132.893C289.765 134.18 298.668 133.591 307.277 133.024V133.024C312.12 132.705 317.001 132.383 321.726 132.384V132.384C335.768 132.384 348.413 135.23 354.399 149.454" fill="white"/>
</mask>
<g mask="url(#mask3_24_104)">
<path fill-rule="evenodd" clip-rule="evenodd" d="M292.365 322.021C318.246 304.903 338.206 280.683 350.087 251.978V251.978C361.679 223.97 364.942 193.455 359.522 163.735V163.735C358.605 158.708 357.436 153.724 356.046 148.919V148.919L356.014 148.825C347.548 128.625 327.018 129.979 307.164 131.288V131.288C298.654 131.849 289.854 132.429 282.418 131.175V131.175C279.397 130.713 276.825 129.236 275.358 127.118V127.118C274.133 125.35 273.733 123.213 274.199 120.937V120.937C275.457 114.805 278.573 108.166 281.872 101.137V101.137C285.755 92.8641 289.768 84.3114 290.656 76.3781V76.3781C291.678 67.2428 288.349 60.2199 280.479 54.9062V54.9062L280.406 54.8622C276.061 52.5207 271.519 50.3559 266.905 48.4267V48.4267C219.213 28.4874 165.077 33.5556 122.095 61.9845V61.9845C79.1123 90.4134 53.0652 138.377 52.4185 190.288V190.288C52.3811 193.416 52.4298 196.487 52.4807 199.74V199.74C52.511 201.617 52.5414 203.517 52.5541 205.448V205.448C50.9289 222.003 42.7296 235.678 34.0503 250.153V250.153C30.548 255.997 26.9256 262.039 23.8002 268.264V268.264L23.3865 269.149C20.636 275.041 17.7916 281.132 19.188 288V288C21.5164 297.343 32.3193 297.886 40.2072 298.283V298.283L40.8433 298.314C46.4198 298.415 51.9462 298.083 57.2905 297.76V297.76C71.1934 296.921 84.3267 296.128 96.7555 302.829V302.829C100.396 305.14 103.543 307.783 106.586 310.338V310.338C107.383 311.008 108.179 311.676 108.978 312.333V312.333C121.592 322.724 135.735 331.015 151.015 336.976V336.976C166.093 342.858 181.926 346.338 198.075 347.318V347.318C201.266 347.513 204.445 347.609 207.615 347.609V347.609C237.805 347.609 266.928 338.845 292.365 322.021M354.399 149.454C355.765 154.186 356.915 159.096 357.819 164.049V164.049C368.951 225.086 342.885 286.524 291.414 320.568V320.568C235.111 357.806 162.236 353.957 110.075 310.989V310.989C109.28 310.334 108.49 309.67 107.696 309.004V309.004C104.603 306.405 101.404 303.718 97.6542 301.34V301.34L97.6019 301.309C84.7319 294.36 71.3522 295.168 57.186 296.023V296.023C51.8749 296.343 46.3845 296.674 40.9026 296.576V296.576L40.294 296.545C32.5374 296.155 22.8846 295.669 20.8775 287.615V287.615C19.6032 281.349 22.324 275.523 24.9552 269.888V269.888L25.3562 269.025C28.4413 262.88 32.0468 256.867 35.5336 251.052V251.052C43.9376 237.035 52.6275 222.539 54.2809 205.572V205.572L54.2858 205.482C54.2731 203.529 54.2421 201.609 54.2117 199.711V199.711C54.1609 196.473 54.1122 193.414 54.151 190.31V190.31C54.7899 138.977 80.5448 91.5479 123.047 63.4376V63.4376C165.548 35.3273 219.078 30.3159 266.241 50.0338V50.0338C270.788 51.9354 275.266 54.0689 279.55 56.3749V56.3749C295.8 67.3791 287.923 84.1631 280.305 100.395V100.395C276.961 107.52 273.803 114.249 272.503 120.586V120.586C271.937 123.341 272.434 125.943 273.937 128.113V128.113C275.675 130.62 278.671 132.363 282.144 132.893V132.893C289.765 134.18 298.668 133.591 307.277 133.024V133.024C312.12 132.705 317.001 132.383 321.726 132.384V132.384C335.768 132.384 348.413 135.23 354.399 149.454" fill="url(#paint3_linear_24_104)"/>
</g>
<mask id="mask4_24_104" style="mask-type:alpha" maskUnits="userSpaceOnUse" x="27" y="49" width="324" height="287">
<path fill-rule="evenodd" clip-rule="evenodd" d="M286.643 311.907C309.325 296.966 327.173 275.991 338.261 251.251V251.251C349.051 227.172 353.014 200.637 349.722 174.513V174.513C349.061 169.271 348.098 164.011 346.858 158.88V158.88L346.84 158.817C339.47 135.997 317.757 137.864 296.76 139.668V139.668C286.811 140.523 276.526 141.407 268.227 139.498V139.498C263.619 138.166 261.849 136.175 262.309 132.832V132.832C263.215 125.591 267.231 117.32 271.115 109.321V109.321C279.734 91.5748 288.646 73.2244 266.794 62.435V62.435C262.04 60.2998 257.113 58.4049 252.15 56.8021V56.8021C210.661 43.3967 166.059 49.4164 129.78 73.3141V73.3141C93.5002 97.2119 70.3347 135.835 66.2202 179.28V179.28C65.7526 184.211 65.5189 189.346 65.5047 194.977V194.977C63.7954 214.206 54.1346 229.895 43.9074 246.502V246.502C38.9841 254.495 33.8942 262.76 29.7161 271.51V271.51C27.1104 276.932 27.0736 282.632 29.6186 286.757V286.757C31.8154 290.32 35.7921 292.329 40.7938 292.41V292.41C48.6993 292.73 56.5482 292.088 64.1386 291.466V291.466C80.3027 290.142 95.5712 288.893 109.935 296.663V296.663L111.862 298.258C115.451 301.23 118.84 304.038 122.415 306.726V306.726C145.695 324.229 173.463 334.098 202.715 335.266V335.266C204.647 335.343 206.573 335.382 208.497 335.382V335.382C236.341 335.382 263.248 327.318 286.643 311.907M326.374 141.667C336.051 143.97 342.027 149.58 345.181 159.32V159.32C346.403 164.377 347.352 169.562 348.004 174.73V174.73C354.799 228.655 330.922 280.663 285.691 310.459V310.459C236.14 343.099 170.943 341.041 123.455 305.34V305.34C119.913 302.676 116.538 299.882 112.966 296.922V296.922L110.973 295.272L110.835 295.18C95.9957 287.118 80.4532 288.39 63.9981 289.738V289.738C56.4592 290.354 48.6632 290.993 40.8425 290.677V290.677C36.3678 290.604 32.995 288.934 31.0914 285.847V285.847C28.8932 282.28 28.9638 277.076 31.2778 272.26V272.26C35.417 263.591 40.483 255.366 45.3808 247.411V247.411C55.726 230.615 65.4977 214.749 67.2339 195.092V195.092L67.2374 195.018C67.2508 189.428 67.4818 184.332 67.9445 179.443V179.443C72.0088 136.524 94.8938 98.3694 130.732 74.7622V74.7622C166.571 51.1543 210.632 45.2102 251.617 58.453V58.453C256.521 60.0368 261.389 61.9083 266.056 64.0032V64.0032C286.334 74.017 278.184 90.797 269.557 108.564V108.564C265.612 116.689 261.532 125.09 260.591 132.606V132.606C259.733 138.856 265.782 140.598 267.77 141.17V141.17L267.815 141.182C276.384 143.159 286.817 142.263 296.908 141.395V141.395C302.55 140.91 308.298 140.416 313.771 140.417V140.417C318.222 140.417 322.492 140.743 326.374 141.667" fill="white"/>
</mask>
<g mask="url(#mask4_24_104)">
<path fill-rule="evenodd" clip-rule="evenodd" d="M286.643 311.907C309.325 296.966 327.173 275.991 338.261 251.251V251.251C349.051 227.172 353.014 200.637 349.722 174.513V174.513C349.061 169.271 348.098 164.011 346.858 158.88V158.88L346.84 158.817C339.47 135.997 317.757 137.864 296.76 139.668V139.668C286.811 140.523 276.526 141.407 268.227 139.498V139.498C263.619 138.166 261.849 136.175 262.309 132.832V132.832C263.215 125.591 267.231 117.32 271.115 109.321V109.321C279.734 91.5748 288.646 73.2244 266.794 62.435V62.435C262.04 60.2998 257.113 58.4049 252.15 56.8021V56.8021C210.661 43.3967 166.059 49.4164 129.78 73.3141V73.3141C93.5002 97.2119 70.3347 135.835 66.2202 179.28V179.28C65.7526 184.211 65.5189 189.346 65.5047 194.977V194.977C63.7954 214.206 54.1346 229.895 43.9074 246.502V246.502C38.9841 254.495 33.8942 262.76 29.7161 271.51V271.51C27.1104 276.932 27.0736 282.632 29.6186 286.757V286.757C31.8154 290.32 35.7921 292.329 40.7938 292.41V292.41C48.6993 292.73 56.5482 292.088 64.1386 291.466V291.466C80.3027 290.142 95.5712 288.893 109.935 296.663V296.663L111.862 298.258C115.451 301.23 118.84 304.038 122.415 306.726V306.726C145.695 324.229 173.463 334.098 202.715 335.266V335.266C204.647 335.343 206.573 335.382 208.497 335.382V335.382C236.341 335.382 263.248 327.318 286.643 311.907M326.374 141.667C336.051 143.97 342.027 149.58 345.181 159.32V159.32C346.403 164.377 347.352 169.562 348.004 174.73V174.73C354.799 228.655 330.922 280.663 285.691 310.459V310.459C236.14 343.099 170.943 341.041 123.455 305.34V305.34C119.913 302.676 116.538 299.882 112.966 296.922V296.922L110.973 295.272L110.835 295.18C95.9957 287.118 80.4532 288.39 63.9981 289.738V289.738C56.4592 290.354 48.6632 290.993 40.8425 290.677V290.677C36.3678 290.604 32.995 288.934 31.0914 285.847V285.847C28.8932 282.28 28.9638 277.076 31.2778 272.26V272.26C35.417 263.591 40.483 255.366 45.3808 247.411V247.411C55.726 230.615 65.4977 214.749 67.2339 195.092V195.092L67.2374 195.018C67.2508 189.428 67.4818 184.332 67.9445 179.443V179.443C72.0088 136.524 94.8938 98.3694 130.732 74.7622V74.7622C166.571 51.1543 210.632 45.2102 251.617 58.453V58.453C256.521 60.0368 261.389 61.9083 266.056 64.0032V64.0032C286.334 74.017 278.184 90.797 269.557 108.564V108.564C265.612 116.689 261.532 125.09 260.591 132.606V132.606C259.733 138.856 265.782 140.598 267.77 141.17V141.17L267.815 141.182C276.384 143.159 286.817 142.263 296.908 141.395V141.395C302.55 140.91 308.298 140.416 313.771 140.417V140.417C318.222 140.417 322.492 140.743 326.374 141.667" fill="url(#paint4_linear_24_104)"/>
</g>
<mask id="mask5_24_104" style="mask-type:alpha" maskUnits="userSpaceOnUse" x="34" y="61" width="305" height="264">
<path fill-rule="evenodd" clip-rule="evenodd" d="M279.723 302.945C300.534 289.201 316.914 269.907 327.087 247.149V247.149C336.988 225 340.625 200.59 337.604 176.561V176.561C336.998 171.737 336.114 166.899 334.975 162.18V162.18L334.96 162.121C333.56 157.689 331.339 152.342 326.572 150.316V150.316C312.248 143.757 298.177 145.056 283.28 146.43V146.43C277.2 146.991 270.913 147.571 264.614 147.569V147.569C261.768 147.553 254.82 147.092 251.776 143.195V143.195C250.408 141.443 250.045 139.175 250.693 136.468V136.468C252.22 130.42 255.656 124.129 259.296 117.47V117.47C267.524 102.41 276.033 86.8379 261.622 73.6902V73.6902L261.527 73.6041L261.412 73.5479C257.403 71.6216 252.916 69.8497 248.072 68.2798V68.2798C210.003 55.9505 169.075 61.4868 135.787 83.4699V83.4699C106.622 102.729 86.6664 132.283 79.5961 166.689V166.689C78.6317 171.381 77.9154 176.178 77.4637 180.943V180.943L77.4609 180.989C76.4872 203.575 65.3563 221.322 53.5708 240.112V240.112C47.3643 250.006 40.9464 260.237 36.0284 271.343V271.343C33.7095 276.359 34.9668 279.937 36.4291 282.058V282.058C39.0835 285.905 44.5745 288.105 50.3761 287.668V287.668C56.7656 287.505 63.1891 286.918 69.4013 286.351V286.351C86.0218 284.832 101.722 283.398 117.044 289.404V289.404C120.37 291.561 123.406 293.886 126.344 296.135V296.135C127.242 296.822 128.134 297.505 129.029 298.18V298.18C150.391 314.28 175.87 323.359 202.711 324.433V324.433C204.485 324.504 206.253 324.539 208.019 324.539V324.539C233.568 324.539 258.255 317.123 279.723 302.945M325.872 151.913C329.997 153.667 332.005 158.551 333.292 162.62V162.62C334.411 167.267 335.282 172.03 335.879 176.779V176.779C342.107 226.325 320.223 274.112 278.768 301.488V301.488C233.352 331.477 173.596 329.588 130.073 296.784V296.784C129.181 296.113 128.292 295.433 127.399 294.748V294.748C124.413 292.462 121.325 290.098 117.913 287.89V287.89L117.759 287.811C102.029 281.618 86.1033 283.072 69.2432 284.612V284.612C63.06 285.177 56.6656 285.761 50.2882 285.925V285.925C45.129 286.314 40.133 284.361 37.8588 281.065V281.065C36.1313 278.563 36.0447 275.454 37.612 272.065V272.065C42.4853 261.061 48.8691 250.885 55.0416 241.041V241.041C66.9505 222.056 78.1977 204.125 79.1983 181.086V181.086C79.6422 176.39 80.3486 171.665 81.2995 167.041V167.041C88.2755 133.093 107.966 103.931 136.743 84.9273V84.9273C169.589 63.236 209.974 57.7736 247.538 69.9407V69.9407C252.262 71.4707 256.636 73.1949 260.546 75.0672V75.0672C273.813 87.2741 265.657 102.197 257.771 116.631V116.631C254.24 123.093 250.588 129.776 249.004 136.05V136.05C248.224 139.313 248.696 142.078 250.407 144.271V144.271C253.919 148.766 261.505 149.296 264.609 149.314V149.314C270.992 149.317 277.32 148.734 283.439 148.168V148.168C289.489 147.609 295.4 147.064 301.237 147.064V147.064C309.542 147.064 317.694 148.169 325.872 151.913" fill="white"/>
</mask>
<g mask="url(#mask5_24_104)">
<path fill-rule="evenodd" clip-rule="evenodd" d="M279.723 302.945C300.534 289.201 316.914 269.907 327.087 247.149V247.149C336.988 225 340.625 200.59 337.604 176.561V176.561C336.998 171.737 336.114 166.899 334.975 162.18V162.18L334.96 162.121C333.56 157.689 331.339 152.342 326.572 150.316V150.316C312.248 143.757 298.177 145.056 283.28 146.43V146.43C277.2 146.991 270.913 147.571 264.614 147.569V147.569C261.768 147.553 254.82 147.092 251.776 143.195V143.195C250.408 141.443 250.045 139.175 250.693 136.468V136.468C252.22 130.42 255.656 124.129 259.296 117.47V117.47C267.524 102.41 276.033 86.8379 261.622 73.6902V73.6902L261.527 73.6041L261.412 73.5479C257.403 71.6216 252.916 69.8497 248.072 68.2798V68.2798C210.003 55.9505 169.075 61.4868 135.787 83.4699V83.4699C106.622 102.729 86.6664 132.283 79.5961 166.689V166.689C78.6317 171.381 77.9154 176.178 77.4637 180.943V180.943L77.4609 180.989C76.4872 203.575 65.3563 221.322 53.5708 240.112V240.112C47.3643 250.006 40.9464 260.237 36.0284 271.343V271.343C33.7095 276.359 34.9668 279.937 36.4291 282.058V282.058C39.0835 285.905 44.5745 288.105 50.3761 287.668V287.668C56.7656 287.505 63.1891 286.918 69.4013 286.351V286.351C86.0218 284.832 101.722 283.398 117.044 289.404V289.404C120.37 291.561 123.406 293.886 126.344 296.135V296.135C127.242 296.822 128.134 297.505 129.029 298.18V298.18C150.391 314.28 175.87 323.359 202.711 324.433V324.433C204.485 324.504 206.253 324.539 208.019 324.539V324.539C233.568 324.539 258.255 317.123 279.723 302.945M325.872 151.913C329.997 153.667 332.005 158.551 333.292 162.62V162.62C334.411 167.267 335.282 172.03 335.879 176.779V176.779C342.107 226.325 320.223 274.112 278.768 301.488V301.488C233.352 331.477 173.596 329.588 130.073 296.784V296.784C129.181 296.113 128.292 295.433 127.399 294.748V294.748C124.413 292.462 121.325 290.098 117.913 287.89V287.89L117.759 287.811C102.029 281.618 86.1033 283.072 69.2432 284.612V284.612C63.06 285.177 56.6656 285.761 50.2882 285.925V285.925C45.129 286.314 40.133 284.361 37.8588 281.065V281.065C36.1313 278.563 36.0447 275.454 37.612 272.065V272.065C42.4853 261.061 48.8691 250.885 55.0416 241.041V241.041C66.9505 222.056 78.1977 204.125 79.1983 181.086V181.086C79.6422 176.39 80.3486 171.665 81.2995 167.041V167.041C88.2755 133.093 107.966 103.931 136.743 84.9273V84.9273C169.589 63.236 209.974 57.7736 247.538 69.9407V69.9407C252.262 71.4707 256.636 73.1949 260.546 75.0672V75.0672C273.813 87.2741 265.657 102.197 257.771 116.631V116.631C254.24 123.093 250.588 129.776 249.004 136.05V136.05C248.224 139.313 248.696 142.078 250.407 144.271V144.271C253.919 148.766 261.505 149.296 264.609 149.314V149.314C270.992 149.317 277.32 148.734 283.439 148.168V148.168C289.489 147.609 295.4 147.064 301.237 147.064V147.064C309.542 147.064 317.694 148.169 325.872 151.913" fill="url(#paint5_linear_24_104)"/>
</g>
<mask id="mask6_24_104" style="mask-type:alpha" maskUnits="userSpaceOnUse" x="44" y="73" width="284" height="237">
<path fill-rule="evenodd" clip-rule="evenodd" d="M273.707 290.125C291.335 278.607 305.571 262.62 314.878 243.894V243.894C323.91 225.72 328.125 205.417 327.072 185.181V185.181C326.809 180.127 326.211 175.044 325.296 170.07V170.07C324.383 158.299 314.242 151.556 295.965 150.566V150.566C289.637 150.209 282.723 151.202 276.037 152.162V152.162C262.558 154.1 249.826 155.929 243.696 146.678V146.678C238.584 138.968 243.792 130.134 249.306 120.781V120.781C253.008 114.502 256.835 108.008 258.128 101.182V101.182C260.134 91.5183 255.668 82.9499 247.004 79.8574V79.8574C242.257 78.2275 237.32 76.8828 232.329 75.861V75.861C201.176 69.4832 169.425 75.505 142.928 92.8198V92.8198C116.428 110.134 98.2967 136.703 91.873 167.632V167.632C91.4975 169.44 91.156 171.229 90.794 173.125V173.125C90.183 176.322 89.5514 179.628 88.7284 183.143V183.143C84.0623 201.767 73.3225 217.977 62.9348 233.653V233.653C58.3412 240.585 53.5905 247.754 49.3733 255.1V255.1L49.3498 255.144C49.0105 255.821 48.6548 256.503 48.2992 257.187V257.187C45.7457 262.086 43.1032 267.154 45.0877 273.069V273.069L45.1226 273.155C47.4414 278.185 52.7512 278.503 57.4343 278.782V278.782C58.0467 278.818 58.6514 278.855 59.2396 278.901V278.901L59.2858 278.903C67.4813 279.113 75.6363 278.217 83.5217 277.35V277.35C99.4767 275.596 114.549 273.94 129.019 281.05V281.05C132.426 282.949 135.475 285.049 138.425 287.079V287.079C139.659 287.93 140.937 288.811 142.203 289.649V289.649C161.416 302.365 183.825 309.24 207.006 309.527V309.527C207.508 309.534 208.009 309.537 208.511 309.537V309.537C231.736 309.537 254.248 302.839 273.707 290.125M295.868 152.295C313.416 153.245 322.733 159.284 323.56 170.246V170.246L323.572 170.337C324.479 175.251 325.07 180.276 325.33 185.271V185.271C327.475 226.462 307.327 266.086 272.748 288.679V288.679C233.353 314.419 182.49 314.234 143.171 288.208V288.208C141.917 287.378 140.646 286.503 139.419 285.657V285.657C136.431 283.599 133.34 281.47 129.853 279.528V279.528L129.813 279.507C114.878 272.16 99.5536 273.845 83.3297 275.629V275.629C75.5097 276.489 67.4237 277.377 59.3555 277.173V277.173C58.7623 277.126 58.1542 277.09 57.5396 277.054V277.054C53.1552 276.792 48.6228 276.52 46.7272 272.477V272.477C45.0052 267.272 47.467 262.55 49.8484 257.983V257.983C50.2055 257.298 50.5604 256.615 50.9018 255.935V255.935C55.0871 248.646 59.8164 241.507 64.3915 234.605V234.605C74.8596 218.807 85.6833 202.473 90.4234 183.547V183.547C91.2578 179.986 91.8936 176.661 92.5075 173.447V173.447C92.8681 171.559 93.2088 169.775 93.5815 167.982V167.982C99.9106 137.506 117.777 111.325 143.886 94.2668V94.2668C169.995 77.2063 201.28 71.2735 231.976 77.5573V77.5573C236.894 78.5643 241.757 79.8892 246.424 81.4908V81.4908C254.227 84.2761 258.244 92.0479 256.417 100.847V100.847C255.177 107.394 251.427 113.754 247.801 119.906V119.906C242.006 129.737 236.532 139.021 242.238 147.631V147.631C248.98 157.801 262.243 155.895 276.286 153.877V153.877C281.957 153.062 287.792 152.224 293.226 152.224V152.224C294.118 152.224 295.001 152.246 295.868 152.295" fill="white"/>
</mask>
<g mask="url(#mask6_24_104)">
<path fill-rule="evenodd" clip-rule="evenodd" d="M273.707 290.125C291.335 278.607 305.571 262.62 314.878 243.894V243.894C323.91 225.72 328.125 205.417 327.072 185.181V185.181C326.809 180.127 326.211 175.044 325.296 170.07V170.07C324.383 158.299 314.242 151.556 295.965 150.566V150.566C289.637 150.209 282.723 151.202 276.037 152.162V152.162C262.558 154.1 249.826 155.929 243.696 146.678V146.678C238.584 138.968 243.792 130.134 249.306 120.781V120.781C253.008 114.502 256.835 108.008 258.128 101.182V101.182C260.134 91.5183 255.668 82.9499 247.004 79.8574V79.8574C242.257 78.2275 237.32 76.8828 232.329 75.861V75.861C201.176 69.4832 169.425 75.505 142.928 92.8198V92.8198C116.428 110.134 98.2967 136.703 91.873 167.632V167.632C91.4975 169.44 91.156 171.229 90.794 173.125V173.125C90.183 176.322 89.5514 179.628 88.7284 183.143V183.143C84.0623 201.767 73.3225 217.977 62.9348 233.653V233.653C58.3412 240.585 53.5905 247.754 49.3733 255.1V255.1L49.3498 255.144C49.0105 255.821 48.6548 256.503 48.2992 257.187V257.187C45.7457 262.086 43.1032 267.154 45.0877 273.069V273.069L45.1226 273.155C47.4414 278.185 52.7512 278.503 57.4343 278.782V278.782C58.0467 278.818 58.6514 278.855 59.2396 278.901V278.901L59.2858 278.903C67.4813 279.113 75.6363 278.217 83.5217 277.35V277.35C99.4767 275.596 114.549 273.94 129.019 281.05V281.05C132.426 282.949 135.475 285.049 138.425 287.079V287.079C139.659 287.93 140.937 288.811 142.203 289.649V289.649C161.416 302.365 183.825 309.24 207.006 309.527V309.527C207.508 309.534 208.009 309.537 208.511 309.537V309.537C231.736 309.537 254.248 302.839 273.707 290.125M295.868 152.295C313.416 153.245 322.733 159.284 323.56 170.246V170.246L323.572 170.337C324.479 175.251 325.07 180.276 325.33 185.271V185.271C327.475 226.462 307.327 266.086 272.748 288.679V288.679C233.353 314.419 182.49 314.234 143.171 288.208V288.208C141.917 287.378 140.646 286.503 139.419 285.657V285.657C136.431 283.599 133.34 281.47 129.853 279.528V279.528L129.813 279.507C114.878 272.16 99.5536 273.845 83.3297 275.629V275.629C75.5097 276.489 67.4237 277.377 59.3555 277.173V277.173C58.7623 277.126 58.1542 277.09 57.5396 277.054V277.054C53.1552 276.792 48.6228 276.52 46.7272 272.477V272.477C45.0052 267.272 47.467 262.55 49.8484 257.983V257.983C50.2055 257.298 50.5604 256.615 50.9018 255.935V255.935C55.0871 248.646 59.8164 241.507 64.3915 234.605V234.605C74.8596 218.807 85.6833 202.473 90.4234 183.547V183.547C91.2578 179.986 91.8936 176.661 92.5075 173.447V173.447C92.8681 171.559 93.2088 169.775 93.5815 167.982V167.982C99.9106 137.506 117.777 111.325 143.886 94.2668V94.2668C169.995 77.2063 201.28 71.2735 231.976 77.5573V77.5573C236.894 78.5643 241.757 79.8892 246.424 81.4908V81.4908C254.227 84.2761 258.244 92.0479 256.417 100.847V100.847C255.177 107.394 251.427 113.754 247.801 119.906V119.906C242.006 129.737 236.532 139.021 242.238 147.631V147.631C248.98 157.801 262.243 155.895 276.286 153.877V153.877C281.957 153.062 287.792 152.224 293.226 152.224V152.224C294.118 152.224 295.001 152.246 295.868 152.295" fill="url(#paint6_linear_24_104)"/>
</g>
<mask id="mask7_24_104" style="mask-type:alpha" maskUnits="userSpaceOnUse" x="54" y="85" width="260" height="213">
<path fill-rule="evenodd" clip-rule="evenodd" d="M212.938 297.801C231.664 296.831 249.87 290.844 265.586 280.486V280.486C281.302 270.128 293.995 255.752 302.293 238.91V238.91C310.343 222.567 314.104 204.309 313.163 186.109V186.109C312.92 181.372 312.359 176.795 311.5 172.508V172.508L311.472 172.367L311.399 172.242C301.199 154.712 281.96 156.366 263.356 157.966V157.966C255.941 158.603 248.274 159.262 241.503 158.593V158.593C238.356 158.399 232.69 157.589 230.112 154.34V154.34C228.929 152.848 228.517 150.95 228.89 148.701V148.701C230.356 142.166 233.648 136.015 236.831 130.066V130.066C242.134 120.157 247.618 109.912 244.217 98.1465V98.1465C242.436 91.4531 235.488 89.6054 229.904 88.1198V88.1198C229.514 88.0164 229.128 87.9136 228.747 87.8101V87.8101L228.696 87.798C224.275 86.8859 219.752 86.2473 215.255 85.9029V85.9029C191.666 84.0963 168.752 90.0256 148.992 103.048V103.048C129.232 116.073 114.73 134.802 107.055 157.214V157.214C105.875 160.662 104.864 164.159 103.793 167.862V167.862C103.534 168.755 103.273 169.662 103.002 170.592V170.592C97.6613 189.864 87.0022 206.221 75.7154 223.539V223.539C71.3957 230.167 66.9288 237.021 62.8229 244.009V244.009C62.0565 245.333 61.1867 246.655 60.2667 248.054V248.054C56.642 253.566 52.5325 259.813 55.032 266.954V266.954C56.9704 273.147 63.8773 272.988 69.4277 272.861V272.861C69.8799 272.851 70.3271 272.841 70.7708 272.834V272.834C77.4875 272.664 84.3789 271.949 91.0438 271.257V271.257C111.942 269.086 131.68 267.036 148.295 280.02V280.02L148.347 280.058C152.134 282.587 156.128 284.894 160.218 286.914V286.914C174.897 294.168 191.123 297.942 207.465 297.942V297.942C209.288 297.942 211.113 297.896 212.938 297.801M309.827 172.993C310.653 177.156 311.193 181.599 311.429 186.199V186.199C313.339 223.179 295.407 258.751 264.632 279.034V279.034C233.857 299.317 194.142 301.739 160.985 285.355V285.355C156.973 283.372 153.054 281.109 149.336 278.63V278.63C132.174 265.237 111.175 267.419 90.8648 269.528V269.528C84.2324 270.217 77.3756 270.929 70.7369 271.096V271.096C70.2953 271.104 69.8452 271.113 69.388 271.124V271.124C64.1604 271.244 58.2357 271.379 56.6788 266.407V266.407C54.4545 260.051 58.1465 254.438 61.7168 249.01V249.01C62.6092 247.652 63.5327 246.248 64.3203 244.886V244.886C68.4037 237.937 72.8606 231.1 77.169 224.489V224.489C88.5294 207.055 99.2614 190.587 104.67 171.069V171.069C104.94 170.149 105.202 169.24 105.461 168.344V168.344C106.525 164.663 107.53 161.185 108.697 157.778V157.778C116.247 135.734 130.509 117.311 149.946 104.5V104.5C169.382 91.6912 191.92 85.8589 215.122 87.6357V87.6357C219.538 87.9738 223.978 88.5989 228.319 89.4955V89.4955C228.694 89.5969 229.075 89.6968 229.46 89.7996V89.7996C234.877 91.2404 241.019 92.8748 242.545 98.6121V98.6121C245.755 109.715 240.677 119.201 235.302 129.245V129.245C232.059 135.303 228.706 141.568 227.191 148.344V148.344L227.182 148.39C226.718 151.157 227.246 153.522 228.754 155.421V155.421C231.599 159.008 237.2 160.069 241.365 160.326V160.326C248.264 161.008 256.011 160.341 263.504 159.697V159.697C268.83 159.239 274.209 158.776 279.394 158.776V158.776C291.755 158.776 303.016 161.406 309.827 172.993" fill="white"/>
</mask>
<g mask="url(#mask7_24_104)">
<path fill-rule="evenodd" clip-rule="evenodd" d="M212.938 297.801C231.664 296.831 249.87 290.844 265.586 280.486V280.486C281.302 270.128 293.995 255.752 302.293 238.91V238.91C310.343 222.567 314.104 204.309 313.163 186.109V186.109C312.92 181.372 312.359 176.795 311.5 172.508V172.508L311.472 172.367L311.399 172.242C301.199 154.712 281.96 156.366 263.356 157.966V157.966C255.941 158.603 248.274 159.262 241.503 158.593V158.593C238.356 158.399 232.69 157.589 230.112 154.34V154.34C228.929 152.848 228.517 150.95 228.89 148.701V148.701C230.356 142.166 233.648 136.015 236.831 130.066V130.066C242.134 120.157 247.618 109.912 244.217 98.1465V98.1465C242.436 91.4531 235.488 89.6054 229.904 88.1198V88.1198C229.514 88.0164 229.128 87.9136 228.747 87.8101V87.8101L228.696 87.798C224.275 86.8859 219.752 86.2473 215.255 85.9029V85.9029C191.666 84.0963 168.752 90.0256 148.992 103.048V103.048C129.232 116.073 114.73 134.802 107.055 157.214V157.214C105.875 160.662 104.864 164.159 103.793 167.862V167.862C103.534 168.755 103.273 169.662 103.002 170.592V170.592C97.6613 189.864 87.0022 206.221 75.7154 223.539V223.539C71.3957 230.167 66.9288 237.021 62.8229 244.009V244.009C62.0565 245.333 61.1867 246.655 60.2667 248.054V248.054C56.642 253.566 52.5325 259.813 55.032 266.954V266.954C56.9704 273.147 63.8773 272.988 69.4277 272.861V272.861C69.8799 272.851 70.3271 272.841 70.7708 272.834V272.834C77.4875 272.664 84.3789 271.949 91.0438 271.257V271.257C111.942 269.086 131.68 267.036 148.295 280.02V280.02L148.347 280.058C152.134 282.587 156.128 284.894 160.218 286.914V286.914C174.897 294.168 191.123 297.942 207.465 297.942V297.942C209.288 297.942 211.113 297.896 212.938 297.801M309.827 172.993C310.653 177.156 311.193 181.599 311.429 186.199V186.199C313.339 223.179 295.407 258.751 264.632 279.034V279.034C233.857 299.317 194.142 301.739 160.985 285.355V285.355C156.973 283.372 153.054 281.109 149.336 278.63V278.63C132.174 265.237 111.175 267.419 90.8648 269.528V269.528C84.2324 270.217 77.3756 270.929 70.7369 271.096V271.096C70.2953 271.104 69.8452 271.113 69.388 271.124V271.124C64.1604 271.244 58.2357 271.379 56.6788 266.407V266.407C54.4545 260.051 58.1465 254.438 61.7168 249.01V249.01C62.6092 247.652 63.5327 246.248 64.3203 244.886V244.886C68.4037 237.937 72.8606 231.1 77.169 224.489V224.489C88.5294 207.055 99.2614 190.587 104.67 171.069V171.069C104.94 170.149 105.202 169.24 105.461 168.344V168.344C106.525 164.663 107.53 161.185 108.697 157.778V157.778C116.247 135.734 130.509 117.311 149.946 104.5V104.5C169.382 91.6912 191.92 85.8589 215.122 87.6357V87.6357C219.538 87.9738 223.978 88.5989 228.319 89.4955V89.4955C228.694 89.5969 229.075 89.6968 229.46 89.7996V89.7996C234.877 91.2404 241.019 92.8748 242.545 98.6121V98.6121C245.755 109.715 240.677 119.201 235.302 129.245V129.245C232.059 135.303 228.706 141.568 227.191 148.344V148.344L227.182 148.39C226.718 151.157 227.246 153.522 228.754 155.421V155.421C231.599 159.008 237.2 160.069 241.365 160.326V160.326C248.264 161.008 256.011 160.341 263.504 159.697V159.697C268.83 159.239 274.209 158.776 279.394 158.776V158.776C291.755 158.776 303.016 161.406 309.827 172.993" fill="url(#paint7_linear_24_104)"/>
</g>
<mask id="mask8_24_104" style="mask-type:alpha" maskUnits="userSpaceOnUse" x="64" y="98" width="238" height="189">
<path fill-rule="evenodd" clip-rule="evenodd" d="M210.393 286.283C227.833 285.831 244.775 280.507 259.387 270.889V270.889C271.888 262.66 282.339 251.437 289.61 238.434V238.434C296.644 225.855 300.75 211.575 301.484 197.139V197.139C301.73 192.314 301.601 187.443 301.102 182.668V182.668L301.093 182.57L301.061 182.475C297.813 173.005 291.26 167.333 281.03 165.134V165.134C272.128 163.221 261.577 164.119 251.374 164.986V164.986C242.874 165.709 234.846 166.392 227.975 165.516V165.516C224.839 165.138 222.227 163.634 220.617 161.279V161.279C219.024 158.946 218.535 155.946 219.279 153.038V153.038C220.559 147.85 223.263 142.709 225.877 137.738V137.738C231.038 127.924 236.376 117.775 231.189 106.662V106.662C228.65 100.779 222.691 100.085 216.929 99.4128V99.4128C215.47 99.2435 213.962 99.0671 212.569 98.8057V98.8057L212.454 98.7922C207.638 98.5478 202.769 98.6746 197.985 99.1705V99.1705C183.169 100.706 168.731 105.868 156.231 114.096V114.096C143.729 122.325 133.278 133.548 126.007 146.55V146.55C123.903 150.314 121.928 154.425 119.604 159.884V159.884L119.586 159.93C112.341 179.992 100.376 197.896 88.8043 215.21V215.21C81.5552 226.059 74.0583 237.277 67.6563 249.067V249.067C66.2051 251.337 61.9576 258.823 66.7604 261.906V261.906C77.7802 269.452 91.1132 267.306 104.009 265.23V265.23C111.56 264.015 119.368 262.757 126.785 263.374V263.374L127.509 263.434C134.801 264.045 141.689 264.623 148.467 267.28V267.28C152.504 268.963 155.952 270.935 159.287 272.843V272.843C160.155 273.34 161.016 273.832 161.878 274.315V274.315C175.946 282.186 191.822 286.314 207.941 286.314V286.314C208.757 286.314 209.575 286.304 210.393 286.283M299.386 182.947C299.866 187.602 299.989 192.347 299.751 197.051V197.051C298.261 226.326 282.815 253.388 258.432 269.437V269.437C229.607 288.411 192.934 289.699 162.725 272.798V272.798C161.869 272.319 161.013 271.829 160.15 271.335V271.335C156.768 269.4 153.272 267.4 149.118 265.669V265.669C142.087 262.913 135.075 262.325 127.653 261.702V261.702L126.929 261.642C119.3 261.009 111.387 262.283 103.732 263.515V263.515C90.5962 265.629 78.1889 267.627 67.7201 260.458V260.458C66.4282 259.628 66.0167 258.172 66.4629 256.009V256.009C66.9544 253.62 68.349 251.206 69.1352 249.98V249.98L69.1685 249.925C75.535 238.193 83.0157 227 90.2491 216.175V216.175C101.873 198.781 113.894 180.795 121.211 160.542V160.542C123.507 155.154 125.453 151.1 127.523 147.398V147.398C134.659 134.638 144.916 123.624 157.185 115.548V115.548C169.454 107.471 183.625 102.405 198.164 100.898V100.898C202.841 100.413 207.599 100.288 212.308 100.525V100.525C213.742 100.791 215.259 100.968 216.728 101.139V101.139C222.244 101.781 227.453 102.388 229.605 107.373V107.373C234.438 117.73 229.532 127.055 224.341 136.93V136.93C221.678 141.993 218.923 147.229 217.596 152.616V152.616C216.728 156 217.307 159.515 219.184 162.259V162.259C221.08 165.033 224.127 166.801 227.76 167.24V167.24C234.809 168.138 242.927 167.447 251.521 166.718V166.718C257.267 166.229 263.067 165.736 268.585 165.736V165.736C282.438 165.736 294.501 168.846 299.386 182.947" fill="white"/>
</mask>
<g mask="url(#mask8_24_104)">
<path fill-rule="evenodd" clip-rule="evenodd" d="M210.393 286.283C227.833 285.831 244.775 280.507 259.387 270.889V270.889C271.888 262.66 282.339 251.437 289.61 238.434V238.434C296.644 225.855 300.75 211.575 301.484 197.139V197.139C301.73 192.314 301.601 187.443 301.102 182.668V182.668L301.093 182.57L301.061 182.475C297.813 173.005 291.26 167.333 281.03 165.134V165.134C272.128 163.221 261.577 164.119 251.374 164.986V164.986C242.874 165.709 234.846 166.392 227.975 165.516V165.516C224.839 165.138 222.227 163.634 220.617 161.279V161.279C219.024 158.946 218.535 155.946 219.279 153.038V153.038C220.559 147.85 223.263 142.709 225.877 137.738V137.738C231.038 127.924 236.376 117.775 231.189 106.662V106.662C228.65 100.779 222.691 100.085 216.929 99.4128V99.4128C215.47 99.2435 213.962 99.0671 212.569 98.8057V98.8057L212.454 98.7922C207.638 98.5478 202.769 98.6746 197.985 99.1705V99.1705C183.169 100.706 168.731 105.868 156.231 114.096V114.096C143.729 122.325 133.278 133.548 126.007 146.55V146.55C123.903 150.314 121.928 154.425 119.604 159.884V159.884L119.586 159.93C112.341 179.992 100.376 197.896 88.8043 215.21V215.21C81.5552 226.059 74.0583 237.277 67.6563 249.067V249.067C66.2051 251.337 61.9576 258.823 66.7604 261.906V261.906C77.7802 269.452 91.1132 267.306 104.009 265.23V265.23C111.56 264.015 119.368 262.757 126.785 263.374V263.374L127.509 263.434C134.801 264.045 141.689 264.623 148.467 267.28V267.28C152.504 268.963 155.952 270.935 159.287 272.843V272.843C160.155 273.34 161.016 273.832 161.878 274.315V274.315C175.946 282.186 191.822 286.314 207.941 286.314V286.314C208.757 286.314 209.575 286.304 210.393 286.283M299.386 182.947C299.866 187.602 299.989 192.347 299.751 197.051V197.051C298.261 226.326 282.815 253.388 258.432 269.437V269.437C229.607 288.411 192.934 289.699 162.725 272.798V272.798C161.869 272.319 161.013 271.829 160.15 271.335V271.335C156.768 269.4 153.272 267.4 149.118 265.669V265.669C142.087 262.913 135.075 262.325 127.653 261.702V261.702L126.929 261.642C119.3 261.009 111.387 262.283 103.732 263.515V263.515C90.5962 265.629 78.1889 267.627 67.7201 260.458V260.458C66.4282 259.628 66.0167 258.172 66.4629 256.009V256.009C66.9544 253.62 68.349 251.206 69.1352 249.98V249.98L69.1685 249.925C75.535 238.193 83.0157 227 90.2491 216.175V216.175C101.873 198.781 113.894 180.795 121.211 160.542V160.542C123.507 155.154 125.453 151.1 127.523 147.398V147.398C134.659 134.638 144.916 123.624 157.185 115.548V115.548C169.454 107.471 183.625 102.405 198.164 100.898V100.898C202.841 100.413 207.599 100.288 212.308 100.525V100.525C213.742 100.791 215.259 100.968 216.728 101.139V101.139C222.244 101.781 227.453 102.388 229.605 107.373V107.373C234.438 117.73 229.532 127.055 224.341 136.93V136.93C221.678 141.993 218.923 147.229 217.596 152.616V152.616C216.728 156 217.307 159.515 219.184 162.259V162.259C221.08 165.033 224.127 166.801 227.76 167.24V167.24C234.809 168.138 242.927 167.447 251.521 166.718V166.718C257.267 166.229 263.067 165.736 268.585 165.736V165.736C282.438 165.736 294.501 168.846 299.386 182.947" fill="url(#paint8_linear_24_104)"/>
</g>
<mask id="mask9_24_104" style="mask-type:alpha" maskUnits="userSpaceOnUse" x="75" y="111" width="214" height="164">
<path fill-rule="evenodd" clip-rule="evenodd" d="M216.317 274.256C229.143 272.92 241.642 268.429 252.466 261.269V261.269C263.288 254.108 272.335 244.343 278.631 233.028V233.028C284.72 222.083 288.275 209.657 288.91 197.097V197.097C289.167 192.025 288.795 188.123 287.735 184.817V184.817L287.659 184.645C278.523 168.974 260.847 170.477 243.753 171.93V171.93C237.623 172.451 231.834 172.944 226.476 172.658V172.658C225.505 172.62 224.484 172.611 223.405 172.602V172.602C218.492 172.558 212.922 172.508 210.219 169.717V169.717C209.038 168.495 208.482 166.829 208.521 164.619V164.619C208.638 156.808 211.603 150.389 214.74 143.594V143.594C216.715 139.319 218.757 134.896 219.989 130.106V130.106C221.499 122.741 219.893 117.447 215.341 114.795V114.795C206.432 109.607 195.137 112.229 186.862 114.149V114.149C182.728 115.254 178.65 116.705 174.736 118.46V118.46C170.739 120.255 166.843 122.401 163.16 124.838V124.838C159.482 127.271 155.987 130.013 152.772 132.988V132.988C144.621 139.728 139.087 148.349 134.115 156.607V156.607C123.452 174.569 111.849 191.827 100.629 208.517V208.517C95.766 215.75 90.739 223.231 85.8214 230.711V230.711C85.0824 231.802 84.2363 232.962 83.3414 234.189V234.189C78.8331 240.366 73.2238 248.053 76.912 253.687V253.687C83.6759 264.59 97.4993 262.046 110.868 259.585V259.585C116.845 258.485 123.024 257.347 128.503 257.418V257.418L129.221 257.422C142.98 257.502 155.977 257.578 168.048 264.252V264.252C171.685 266.294 175.513 268.072 179.425 269.534V269.534C188.543 272.941 198.283 274.687 208 274.687V274.687C210.779 274.687 213.557 274.543 216.317 274.256M286.117 185.442C287.087 188.522 287.426 192.201 287.182 197.008V197.008C285.898 222.41 272.563 245.889 251.514 259.815V259.815C230.465 273.742 203.74 276.765 180.027 267.902V267.902C176.199 266.472 172.452 264.733 168.887 262.73V262.73C156.426 255.84 143.217 255.764 129.232 255.682V255.682L128.518 255.677C122.879 255.606 116.614 256.758 110.557 257.874V257.874C97.1677 260.339 84.5221 262.665 78.3687 252.747V252.747C75.3311 248.107 80.5452 240.961 84.7366 235.218V235.218C85.6421 233.979 86.4961 232.807 87.259 231.681V231.681C92.1766 224.196 97.2029 216.721 102.063 209.491V209.491C113.297 192.781 124.913 175.503 135.598 157.504V157.504C140.495 149.373 145.94 140.885 153.889 134.316V134.316L153.927 134.283C160.23 128.448 167.617 123.562 175.441 120.049V120.049C179.271 118.331 183.262 116.911 187.279 115.837V115.837C195.246 113.988 206.156 111.456 214.473 116.302V116.302C219.332 119.131 219.233 125.179 218.304 129.712V129.712C217.121 134.307 215.112 138.656 213.17 142.863V142.863C210.093 149.523 206.913 156.412 206.791 164.592V164.592C206.743 167.248 207.479 169.381 208.98 170.931V170.931C212.185 174.241 218.138 174.294 223.39 174.341V174.341C224.456 174.351 225.465 174.361 226.397 174.395V174.395C231.861 174.687 237.709 174.19 243.898 173.664V173.664C248.825 173.244 253.8 172.821 258.587 172.821V172.821C269.859 172.822 280.082 175.169 286.117 185.442" fill="white"/>
</mask>
<g mask="url(#mask9_24_104)">
<path fill-rule="evenodd" clip-rule="evenodd" d="M216.317 274.256C229.143 272.92 241.642 268.429 252.466 261.269V261.269C263.288 254.108 272.335 244.343 278.631 233.028V233.028C284.72 222.083 288.275 209.657 288.91 197.097V197.097C289.167 192.025 288.795 188.123 287.735 184.817V184.817L287.659 184.645C278.523 168.974 260.847 170.477 243.753 171.93V171.93C237.623 172.451 231.834 172.944 226.476 172.658V172.658C225.505 172.62 224.484 172.611 223.405 172.602V172.602C218.492 172.558 212.922 172.508 210.219 169.717V169.717C209.038 168.495 208.482 166.829 208.521 164.619V164.619C208.638 156.808 211.603 150.389 214.74 143.594V143.594C216.715 139.319 218.757 134.896 219.989 130.106V130.106C221.499 122.741 219.893 117.447 215.341 114.795V114.795C206.432 109.607 195.137 112.229 186.862 114.149V114.149C182.728 115.254 178.65 116.705 174.736 118.46V118.46C170.739 120.255 166.843 122.401 163.16 124.838V124.838C159.482 127.271 155.987 130.013 152.772 132.988V132.988C144.621 139.728 139.087 148.349 134.115 156.607V156.607C123.452 174.569 111.849 191.827 100.629 208.517V208.517C95.766 215.75 90.739 223.231 85.8214 230.711V230.711C85.0824 231.802 84.2363 232.962 83.3414 234.189V234.189C78.8331 240.366 73.2238 248.053 76.912 253.687V253.687C83.6759 264.59 97.4993 262.046 110.868 259.585V259.585C116.845 258.485 123.024 257.347 128.503 257.418V257.418L129.221 257.422C142.98 257.502 155.977 257.578 168.048 264.252V264.252C171.685 266.294 175.513 268.072 179.425 269.534V269.534C188.543 272.941 198.283 274.687 208 274.687V274.687C210.779 274.687 213.557 274.543 216.317 274.256M286.117 185.442C287.087 188.522 287.426 192.201 287.182 197.008V197.008C285.898 222.41 272.563 245.889 251.514 259.815V259.815C230.465 273.742 203.74 276.765 180.027 267.902V267.902C176.199 266.472 172.452 264.733 168.887 262.73V262.73C156.426 255.84 143.217 255.764 129.232 255.682V255.682L128.518 255.677C122.879 255.606 116.614 256.758 110.557 257.874V257.874C97.1677 260.339 84.5221 262.665 78.3687 252.747V252.747C75.3311 248.107 80.5452 240.961 84.7366 235.218V235.218C85.6421 233.979 86.4961 232.807 87.259 231.681V231.681C92.1766 224.196 97.2029 216.721 102.063 209.491V209.491C113.297 192.781 124.913 175.503 135.598 157.504V157.504C140.495 149.373 145.94 140.885 153.889 134.316V134.316L153.927 134.283C160.23 128.448 167.617 123.562 175.441 120.049V120.049C179.271 118.331 183.262 116.911 187.279 115.837V115.837C195.246 113.988 206.156 111.456 214.473 116.302V116.302C219.332 119.131 219.233 125.179 218.304 129.712V129.712C217.121 134.307 215.112 138.656 213.17 142.863V142.863C210.093 149.523 206.913 156.412 206.791 164.592V164.592C206.743 167.248 207.479 169.381 208.98 170.931V170.931C212.185 174.241 218.138 174.294 223.39 174.341V174.341C224.456 174.351 225.465 174.361 226.397 174.395V174.395C231.861 174.687 237.709 174.19 243.898 173.664V173.664C248.825 173.244 253.8 172.821 258.587 172.821V172.821C269.859 172.822 280.082 175.169 286.117 185.442" fill="url(#paint9_linear_24_104)"/>
</g>
<mask id="mask10_24_104" style="mask-type:alpha" maskUnits="userSpaceOnUse" x="85" y="126" width="192" height="136">
<path fill-rule="evenodd" clip-rule="evenodd" d="M245.82 250.164C261.275 240.026 271.849 224.469 275.595 206.358V206.358C276.555 201.719 276.966 197.306 276.818 193.243V193.243L276.815 193.108L276.768 192.982C270.101 174.455 249.678 176.057 231.66 177.469V177.469C225.611 177.944 219.897 178.392 214.853 178.125V178.125C213.765 178.058 212.639 178.037 211.445 178.017V178.017C205.584 177.909 199.523 177.8 197.814 172.284V172.284C196.361 165.853 198.857 159.841 201.497 153.478V153.478C203.143 149.512 204.846 145.411 205.624 141.059V141.059L205.631 141.004C205.665 140.707 205.702 140.401 205.741 140.091V140.091C206.147 136.817 206.651 132.744 203.334 130.121V130.121C193.266 121.2 179.549 129 169.53 134.697V134.697C169.045 134.973 168.57 135.244 168.105 135.506V135.506L168.079 135.522L168.054 135.538C164.082 138.153 160.165 141.293 156.393 144.891V144.891C137.917 163.73 122.461 185.767 107.513 207.079V207.079C103.368 212.988 99.0812 219.098 94.7988 225.048V225.048C94.4211 225.544 94.0321 226.047 93.6366 226.558V226.558C89.1007 232.424 83.458 239.723 86.3192 247.92V247.92C87.531 252.372 92.3978 253.123 96.5347 253.281V253.281C105.899 253.336 115.144 252.428 124.086 251.551V251.551C143.927 249.604 162.667 247.765 180.952 256.187V256.187C185.048 257.885 189.33 259.199 193.679 260.093V260.093C198.408 261.065 203.157 261.545 207.873 261.544V261.544C221.276 261.544 234.387 257.664 245.82 250.164M275.084 193.441C275.213 197.329 274.811 201.556 273.89 206.007V206.007C270.237 223.664 259.929 238.83 244.863 248.714V248.714C229.796 258.597 211.744 262.034 194.03 258.393V258.393C189.79 257.522 185.614 256.241 181.651 254.599V254.599C162.967 245.991 143.998 247.853 123.915 249.824V249.824C115.018 250.696 105.819 251.6 96.5723 251.546V251.546C92.8344 251.403 88.8913 250.804 87.9925 247.44V247.44L87.9726 247.377C85.3976 240.054 90.5086 233.448 95.0154 227.618V227.618C95.4144 227.103 95.8055 226.596 96.1995 226.078V226.078C100.503 220.102 104.792 213.987 108.94 208.073V208.073C123.848 186.819 139.263 164.841 157.618 146.125V146.125C161.287 142.626 165.112 139.557 168.989 137.001V137.001C169.447 136.742 169.916 136.477 170.393 136.205V136.205C179.958 130.765 193.058 123.314 202.195 131.435V131.435L202.237 131.469C204.805 133.485 204.403 136.735 204.014 139.879V139.879C203.976 140.185 203.938 140.486 203.906 140.781V140.781C203.157 144.938 201.496 148.943 199.889 152.814V152.814C197.135 159.45 194.534 165.718 196.124 172.699V172.699L196.139 172.762C198.205 179.512 205.529 179.645 211.415 179.751V179.751C212.588 179.773 213.697 179.793 214.754 179.858V179.858C219.919 180.131 225.689 179.678 231.797 179.199V179.199C236.879 178.801 242.006 178.398 246.897 178.399V178.399C259.525 178.399 270.567 181.083 275.084 193.441" fill="white"/>
</mask>
<g mask="url(#mask10_24_104)">
<path fill-rule="evenodd" clip-rule="evenodd" d="M245.82 250.164C261.275 240.026 271.849 224.469 275.595 206.358V206.358C276.555 201.719 276.966 197.306 276.818 193.243V193.243L276.815 193.108L276.768 192.982C270.101 174.455 249.678 176.057 231.66 177.469V177.469C225.611 177.944 219.897 178.392 214.853 178.125V178.125C213.765 178.058 212.639 178.037 211.445 178.017V178.017C205.584 177.909 199.523 177.8 197.814 172.284V172.284C196.361 165.853 198.857 159.841 201.497 153.478V153.478C203.143 149.512 204.846 145.411 205.624 141.059V141.059L205.631 141.004C205.665 140.707 205.702 140.401 205.741 140.091V140.091C206.147 136.817 206.651 132.744 203.334 130.121V130.121C193.266 121.2 179.549 129 169.53 134.697V134.697C169.045 134.973 168.57 135.244 168.105 135.506V135.506L168.079 135.522L168.054 135.538C164.082 138.153 160.165 141.293 156.393 144.891V144.891C137.917 163.73 122.461 185.767 107.513 207.079V207.079C103.368 212.988 99.0812 219.098 94.7988 225.048V225.048C94.4211 225.544 94.0321 226.047 93.6366 226.558V226.558C89.1007 232.424 83.458 239.723 86.3192 247.92V247.92C87.531 252.372 92.3978 253.123 96.5347 253.281V253.281C105.899 253.336 115.144 252.428 124.086 251.551V251.551C143.927 249.604 162.667 247.765 180.952 256.187V256.187C185.048 257.885 189.33 259.199 193.679 260.093V260.093C198.408 261.065 203.157 261.545 207.873 261.544V261.544C221.276 261.544 234.387 257.664 245.82 250.164M275.084 193.441C275.213 197.329 274.811 201.556 273.89 206.007V206.007C270.237 223.664 259.929 238.83 244.863 248.714V248.714C229.796 258.597 211.744 262.034 194.03 258.393V258.393C189.79 257.522 185.614 256.241 181.651 254.599V254.599C162.967 245.991 143.998 247.853 123.915 249.824V249.824C115.018 250.696 105.819 251.6 96.5723 251.546V251.546C92.8344 251.403 88.8913 250.804 87.9925 247.44V247.44L87.9726 247.377C85.3976 240.054 90.5086 233.448 95.0154 227.618V227.618C95.4144 227.103 95.8055 226.596 96.1995 226.078V226.078C100.503 220.102 104.792 213.987 108.94 208.073V208.073C123.848 186.819 139.263 164.841 157.618 146.125V146.125C161.287 142.626 165.112 139.557 168.989 137.001V137.001C169.447 136.742 169.916 136.477 170.393 136.205V136.205C179.958 130.765 193.058 123.314 202.195 131.435V131.435L202.237 131.469C204.805 133.485 204.403 136.735 204.014 139.879V139.879C203.976 140.185 203.938 140.486 203.906 140.781V140.781C203.157 144.938 201.496 148.943 199.889 152.814V152.814C197.135 159.45 194.534 165.718 196.124 172.699V172.699L196.139 172.762C198.205 179.512 205.529 179.645 211.415 179.751V179.751C212.588 179.773 213.697 179.793 214.754 179.858V179.858C219.919 180.131 225.689 179.678 231.797 179.199V179.199C236.879 178.801 242.006 178.398 246.897 178.399V178.399C259.525 178.399 270.567 181.083 275.084 193.441" fill="url(#paint10_linear_24_104)"/>
</g>
<mask id="mask11_24_104" style="mask-type:alpha" maskUnits="userSpaceOnUse" x="97" y="144" width="167" height="106">
<path fill-rule="evenodd" clip-rule="evenodd" d="M210.855 249.554C220.919 249.033 230.701 245.813 239.146 240.244V240.244C247.592 234.676 254.412 226.946 258.87 217.89V217.89C261.039 213.487 262.624 208.841 263.584 204.058V204.058C264.659 197.801 263.257 192.807 259.743 190.354V190.354C246.99 181.387 231.871 182.694 217.25 183.96V183.96C210.369 184.555 203.254 185.17 196.399 184.747V184.747C192.142 184.351 189.293 183.051 187.69 180.773V180.773C184.618 176.407 186.509 168.977 188.337 161.791V161.791C189.275 158.109 190.161 154.63 190.395 151.526V151.526C190.47 149.556 189.692 147.713 188.204 146.337V146.337C186.603 144.857 184.424 144.159 182.223 144.421V144.421C177.312 145.006 172.968 146.6 168.732 149.394V149.394C168.02 149.864 167.31 150.368 166.602 150.905V150.905C164.338 152.428 161.993 154.207 159.633 156.193V156.193L159.561 156.262C155.561 160.491 151.319 164.794 147.217 168.954V168.954C126.9 189.558 105.891 210.862 97.4728 239.046V239.046L97.4543 239.12C97.1621 240.541 97.4699 241.896 98.3438 243.042V243.042C100.206 245.482 104.17 246.554 107.258 246.746V246.746H107.317C116.986 246.692 126.521 245.863 135.742 245.06V245.06C156.607 243.244 176.315 241.531 196.209 248.414V248.414L196.318 248.444C200.135 249.233 204.02 249.63 207.906 249.63V249.63C208.89 249.63 209.873 249.604 210.855 249.554M258.748 191.782C262.922 194.695 262.322 201.131 261.875 203.738V203.738C260.947 208.348 259.412 212.85 257.311 217.119V217.119C252.989 225.897 246.377 233.389 238.19 238.788V238.788C230.004 244.188 220.52 247.308 210.766 247.814V247.814C206.068 248.056 201.345 247.699 196.724 246.748V246.748C176.498 239.764 156.628 241.494 135.592 243.324V243.324C126.415 244.122 116.924 244.948 107.336 245.003V245.003C104.556 244.826 101.133 243.826 99.7248 241.982V241.982C99.1574 241.239 98.9694 240.429 99.1496 239.507V239.507C107.453 211.761 128.296 190.621 148.454 170.179V170.179C152.55 166.024 156.788 161.728 160.79 157.496V157.496C163.096 155.558 165.386 153.821 167.593 152.339V152.339L167.634 152.309C172.304 148.752 177.005 146.798 182.429 146.152V146.152C184.123 145.95 185.798 146.484 187.024 147.618V147.618C188.132 148.643 188.713 150.008 188.658 151.427V151.427C188.438 154.347 187.569 157.752 186.652 161.36V161.36C184.725 168.928 182.733 176.755 186.268 181.777V181.777C188.183 184.497 191.444 186.037 196.264 186.486V186.486C203.275 186.917 210.455 186.297 217.399 185.696V185.696C222.745 185.234 227.983 184.781 233.069 184.781V184.781C242.224 184.781 250.879 186.25 258.748 191.782" fill="white"/>
</mask>
<g mask="url(#mask11_24_104)">
<path fill-rule="evenodd" clip-rule="evenodd" d="M210.855 249.554C220.919 249.033 230.701 245.813 239.146 240.244V240.244C247.592 234.676 254.412 226.946 258.87 217.89V217.89C261.039 213.487 262.624 208.841 263.584 204.058V204.058C264.659 197.801 263.257 192.807 259.743 190.354V190.354C246.99 181.387 231.871 182.694 217.25 183.96V183.96C210.369 184.555 203.254 185.17 196.399 184.747V184.747C192.142 184.351 189.293 183.051 187.69 180.773V180.773C184.618 176.407 186.509 168.977 188.337 161.791V161.791C189.275 158.109 190.161 154.63 190.395 151.526V151.526C190.47 149.556 189.692 147.713 188.204 146.337V146.337C186.603 144.857 184.424 144.159 182.223 144.421V144.421C177.312 145.006 172.968 146.6 168.732 149.394V149.394C168.02 149.864 167.31 150.368 166.602 150.905V150.905C164.338 152.428 161.993 154.207 159.633 156.193V156.193L159.561 156.262C155.561 160.491 151.319 164.794 147.217 168.954V168.954C126.9 189.558 105.891 210.862 97.4728 239.046V239.046L97.4543 239.12C97.1621 240.541 97.4699 241.896 98.3438 243.042V243.042C100.206 245.482 104.17 246.554 107.258 246.746V246.746H107.317C116.986 246.692 126.521 245.863 135.742 245.06V245.06C156.607 243.244 176.315 241.531 196.209 248.414V248.414L196.318 248.444C200.135 249.233 204.02 249.63 207.906 249.63V249.63C208.89 249.63 209.873 249.604 210.855 249.554M258.748 191.782C262.922 194.695 262.322 201.131 261.875 203.738V203.738C260.947 208.348 259.412 212.85 257.311 217.119V217.119C252.989 225.897 246.377 233.389 238.19 238.788V238.788C230.004 244.188 220.52 247.308 210.766 247.814V247.814C206.068 248.056 201.345 247.699 196.724 246.748V246.748C176.498 239.764 156.628 241.494 135.592 243.324V243.324C126.415 244.122 116.924 244.948 107.336 245.003V245.003C104.556 244.826 101.133 243.826 99.7248 241.982V241.982C99.1574 241.239 98.9694 240.429 99.1496 239.507V239.507C107.453 211.761 128.296 190.621 148.454 170.179V170.179C152.55 166.024 156.788 161.728 160.79 157.496V157.496C163.096 155.558 165.386 153.821 167.593 152.339V152.339L167.634 152.309C172.304 148.752 177.005 146.798 182.429 146.152V146.152C184.123 145.95 185.798 146.484 187.024 147.618V147.618C188.132 148.643 188.713 150.008 188.658 151.427V151.427C188.438 154.347 187.569 157.752 186.652 161.36V161.36C184.725 168.928 182.733 176.755 186.268 181.777V181.777C188.183 184.497 191.444 186.037 196.264 186.486V186.486C203.275 186.917 210.455 186.297 217.399 185.696V185.696C222.745 185.234 227.983 184.781 233.069 184.781V184.781C242.224 184.781 250.879 186.25 258.748 191.782" fill="url(#paint11_linear_24_104)"/>
</g>
<mask id="mask12_24_104" style="mask-type:alpha" maskUnits="userSpaceOnUse" x="107" y="168" width="143" height="73">
<path fill-rule="evenodd" clip-rule="evenodd" d="M116.739 240.53C123.782 240.125 130.798 239.634 137.584 239.158V239.158C162.21 237.43 185.47 235.798 209.509 238.097V238.097L209.637 238.099C213.513 237.901 217.343 237.199 221.024 236.015V236.015C228.613 233.576 235.573 229.025 240.833 223.062V223.062C243.47 220.073 245.583 216.877 247.128 213.53V213.53C250.542 205.247 249.673 199.328 244.629 196.426V196.426C230.528 187.905 213.466 190.316 198.414 192.445V192.445C196.489 192.717 194.499 192.998 192.586 193.246V193.246C186.527 194.032 181.909 193.122 178.469 190.462V190.462C174.128 187.105 171.647 181.059 170.428 170.893V170.893C170.326 169.534 169.642 168.892 169.084 168.592V168.592C166.802 167.365 162.419 169.561 157.748 172.122V172.122L156.899 172.585L156.864 172.61C153.212 175.086 149.091 178.483 144.596 182.723V182.723C130.949 196.344 117.939 209.97 108.762 226.869V226.869C106.875 230.312 106.81 234.022 108.589 236.793V236.793C110.136 239.206 112.814 240.553 116.008 240.553V240.553C116.248 240.553 116.492 240.545 116.739 240.53M137.462 237.433C130.681 237.908 123.67 238.4 116.632 238.805V238.805C113.767 238.985 111.369 237.913 110.056 235.865V235.865C108.622 233.631 108.71 230.578 110.291 227.693V227.693C119.36 210.995 132.276 197.469 145.811 183.959V183.959C150.207 179.813 154.244 176.483 157.809 174.06V174.06L158.586 173.635C161.195 172.206 166.621 169.232 168.257 170.112V170.112C168.362 170.169 168.642 170.318 168.698 171.06V171.06C169.979 181.758 172.663 188.163 177.402 191.826V191.826C181.227 194.784 186.268 195.809 192.812 194.96V194.96C194.735 194.71 196.729 194.428 198.658 194.156V194.156C214.144 191.967 230.156 189.703 243.742 197.912V197.912C248.002 200.364 248.6 205.399 245.532 212.843V212.843C244.073 216.005 242.052 219.059 239.525 221.924V221.924C236.998 224.787 234.08 227.311 230.85 229.423V229.423C227.62 231.534 224.134 233.199 220.488 234.371V234.371C216.972 235.502 213.313 236.174 209.611 236.37V236.37C201.075 235.557 192.648 235.235 184.226 235.235V235.235C168.811 235.235 153.42 236.314 137.462 237.433" fill="white"/>
</mask>
<g mask="url(#mask12_24_104)">
<path fill-rule="evenodd" clip-rule="evenodd" d="M116.739 240.53C123.782 240.125 130.798 239.634 137.584 239.158V239.158C162.21 237.43 185.47 235.798 209.509 238.097V238.097L209.637 238.099C213.513 237.901 217.343 237.199 221.024 236.015V236.015C228.613 233.576 235.573 229.025 240.833 223.062V223.062C243.47 220.073 245.583 216.877 247.128 213.53V213.53C250.542 205.247 249.673 199.328 244.629 196.426V196.426C230.528 187.905 213.466 190.316 198.414 192.445V192.445C196.489 192.717 194.499 192.998 192.586 193.246V193.246C186.527 194.032 181.909 193.122 178.469 190.462V190.462C174.128 187.105 171.647 181.059 170.428 170.893V170.893C170.326 169.534 169.642 168.892 169.084 168.592V168.592C166.802 167.365 162.419 169.561 157.748 172.122V172.122L156.899 172.585L156.864 172.61C153.212 175.086 149.091 178.483 144.596 182.723V182.723C130.949 196.344 117.939 209.97 108.762 226.869V226.869C106.875 230.312 106.81 234.022 108.589 236.793V236.793C110.136 239.206 112.814 240.553 116.008 240.553V240.553C116.248 240.553 116.492 240.545 116.739 240.53M137.462 237.433C130.681 237.908 123.67 238.4 116.632 238.805V238.805C113.767 238.985 111.369 237.913 110.056 235.865V235.865C108.622 233.631 108.71 230.578 110.291 227.693V227.693C119.36 210.995 132.276 197.469 145.811 183.959V183.959C150.207 179.813 154.244 176.483 157.809 174.06V174.06L158.586 173.635C161.195 172.206 166.621 169.232 168.257 170.112V170.112C168.362 170.169 168.642 170.318 168.698 171.06V171.06C169.979 181.758 172.663 188.163 177.402 191.826V191.826C181.227 194.784 186.268 195.809 192.812 194.96V194.96C194.735 194.71 196.729 194.428 198.658 194.156V194.156C214.144 191.967 230.156 189.703 243.742 197.912V197.912C248.002 200.364 248.6 205.399 245.532 212.843V212.843C244.073 216.005 242.052 219.059 239.525 221.924V221.924C236.998 224.787 234.08 227.311 230.85 229.423V229.423C227.62 231.534 224.134 233.199 220.488 234.371V234.371C216.972 235.502 213.313 236.174 209.611 236.37V236.37C201.075 235.557 192.648 235.235 184.226 235.235V235.235C168.811 235.235 153.42 236.314 137.462 237.433" fill="url(#paint12_linear_24_104)"/>
</g>
<mask id="mask13_24_104" style="mask-type:alpha" maskUnits="userSpaceOnUse" x="121" y="191" width="113" height="44">
<path fill-rule="evenodd" clip-rule="evenodd" d="M139.722 233.676C141.496 233.466 143.169 233.266 144.585 233.206V233.206C157.033 232.189 169.026 231.018 180.623 229.887V229.887C188.352 229.132 196.343 228.352 204.405 227.625V227.625C214.175 226.612 230.036 220.838 233.157 213.043V213.043C234.309 210.166 233.71 207.302 231.388 204.544V204.544C222.236 193.247 207.982 195.276 192.891 197.423V197.423C185.24 198.513 177.327 199.638 170.067 198.891V198.891C166.215 198.653 163.278 196.857 160.17 194.958V194.958C158.311 193.823 156.389 192.648 154.257 191.834V191.834C151.37 190.391 148.838 192.097 146.602 193.602V193.602C146.023 193.993 145.473 194.363 144.935 194.668V194.668L144.9 194.687L144.867 194.71C142.897 196.084 140.764 197.822 138.527 199.878V199.878L138.474 199.93C136.983 201.557 135.365 203.12 133.653 204.774V204.774C127.532 210.683 121.203 216.794 121.15 225.743V225.743C121.049 228.412 121.779 230.492 123.321 231.923V231.923C125.306 233.766 128.42 234.309 131.785 234.309V234.309C134.419 234.309 137.206 233.976 139.722 233.676M230.052 205.661C231.961 207.929 232.45 210.13 231.547 212.389V212.389C228.785 219.286 213.773 224.897 204.24 225.884V225.884C196.181 226.611 188.188 227.392 180.456 228.146V228.146C168.864 229.279 156.878 230.448 144.478 231.462V231.462C143.031 231.522 141.325 231.725 139.519 231.941V231.941C134.142 232.581 127.451 233.379 124.499 230.638V230.638C123.332 229.554 122.805 227.975 122.888 225.781V225.781C122.936 217.543 128.996 211.693 134.855 206.035V206.035C136.504 204.444 138.207 202.799 139.726 201.143V201.143C141.883 199.162 143.936 197.489 145.826 196.17V196.17C146.213 195.948 146.602 195.699 146.987 195.444V195.444C147.183 195.315 147.377 195.184 147.569 195.054V195.054C149.597 193.689 151.517 192.396 153.515 193.416V193.416L153.601 193.453C155.599 194.21 157.381 195.298 159.267 196.452V196.452C162.419 198.378 165.679 200.371 169.924 200.632V200.632C177.361 201.4 185.38 200.258 193.136 199.154V199.154C198.975 198.323 204.684 197.511 209.981 197.511V197.511C217.918 197.511 224.927 199.336 230.052 205.661" fill="white"/>
</mask>
<g mask="url(#mask13_24_104)">
<path fill-rule="evenodd" clip-rule="evenodd" d="M139.722 233.676C141.496 233.466 143.169 233.266 144.585 233.206V233.206C157.033 232.189 169.026 231.018 180.623 229.887V229.887C188.352 229.132 196.343 228.352 204.405 227.625V227.625C214.175 226.612 230.036 220.838 233.157 213.043V213.043C234.309 210.166 233.71 207.302 231.388 204.544V204.544C222.236 193.247 207.982 195.276 192.891 197.423V197.423C185.24 198.513 177.327 199.638 170.067 198.891V198.891C166.215 198.653 163.278 196.857 160.17 194.958V194.958C158.311 193.823 156.389 192.648 154.257 191.834V191.834C151.37 190.391 148.838 192.097 146.602 193.602V193.602C146.023 193.993 145.473 194.363 144.935 194.668V194.668L144.9 194.687L144.867 194.71C142.897 196.084 140.764 197.822 138.527 199.878V199.878L138.474 199.93C136.983 201.557 135.365 203.12 133.653 204.774V204.774C127.532 210.683 121.203 216.794 121.15 225.743V225.743C121.049 228.412 121.779 230.492 123.321 231.923V231.923C125.306 233.766 128.42 234.309 131.785 234.309V234.309C134.419 234.309 137.206 233.976 139.722 233.676M230.052 205.661C231.961 207.929 232.45 210.13 231.547 212.389V212.389C228.785 219.286 213.773 224.897 204.24 225.884V225.884C196.181 226.611 188.188 227.392 180.456 228.146V228.146C168.864 229.279 156.878 230.448 144.478 231.462V231.462C143.031 231.522 141.325 231.725 139.519 231.941V231.941C134.142 232.581 127.451 233.379 124.499 230.638V230.638C123.332 229.554 122.805 227.975 122.888 225.781V225.781C122.936 217.543 128.996 211.693 134.855 206.035V206.035C136.504 204.444 138.207 202.799 139.726 201.143V201.143C141.883 199.162 143.936 197.489 145.826 196.17V196.17C146.213 195.948 146.602 195.699 146.987 195.444V195.444C147.183 195.315 147.377 195.184 147.569 195.054V195.054C149.597 193.689 151.517 192.396 153.515 193.416V193.416L153.601 193.453C155.599 194.21 157.381 195.298 159.267 196.452V196.452C162.419 198.378 165.679 200.371 169.924 200.632V200.632C177.361 201.4 185.38 200.258 193.136 199.154V199.154C198.975 198.323 204.684 197.511 209.981 197.511V197.511C217.918 197.511 224.927 199.336 230.052 205.661" fill="url(#paint13_linear_24_104)"/>
</g>
<mask id="mask14_24_104" style="mask-type:alpha" maskUnits="userSpaceOnUse" x="135" y="203" width="80" height="24">
<path fill-rule="evenodd" clip-rule="evenodd" d="M200.895 218.966C201.337 218.85 201.801 218.733 202.283 218.611V218.611C207.649 217.253 215.758 215.202 214.537 208.455V208.455C213.723 204.513 209.866 204.237 206.464 203.993V203.993C205.213 203.903 204.03 203.819 202.995 203.577V203.577L202.855 203.556C198.797 203.273 193.78 203.382 187.947 203.875V203.875L187.781 203.906C182.406 205.428 176.165 205.536 169.557 205.65V205.65C160.082 205.815 150.388 205.983 143.301 210.598V210.598C139.97 212.767 137.213 215.92 135.328 220.518V220.518C134.927 221.358 134.926 222.223 135.325 223.019V223.019C136.143 224.655 138.486 225.657 140.405 226.049V226.049L140.531 226.065C143.176 226.215 145.799 226.286 148.401 226.286V226.286C166.961 226.286 184.438 222.706 200.895 218.966M202.664 205.275C203.818 205.535 205.099 205.627 206.339 205.716V205.716C210.033 205.98 212.314 206.32 212.822 208.78V208.78C213.684 213.539 208.362 215.29 201.85 216.938V216.938C201.364 217.06 200.893 217.18 200.475 217.29V217.29C181.111 221.691 161.966 225.542 140.695 224.345V224.345C138.876 223.962 137.316 223.106 136.89 222.253V222.253C136.726 221.924 136.732 221.612 136.914 221.239V221.239L136.937 221.189C142.391 207.85 155.602 207.621 169.587 207.378V207.378C175.986 207.267 182.6 207.152 188.18 205.589V205.589C191.817 205.283 195.123 205.129 198.066 205.129V205.129C199.715 205.129 201.25 205.178 202.664 205.275" fill="white"/>
</mask>
<g mask="url(#mask14_24_104)">
<path fill-rule="evenodd" clip-rule="evenodd" d="M200.895 218.966C201.337 218.85 201.801 218.733 202.283 218.611V218.611C207.649 217.253 215.758 215.202 214.537 208.455V208.455C213.723 204.513 209.866 204.237 206.464 203.993V203.993C205.213 203.903 204.03 203.819 202.995 203.577V203.577L202.855 203.556C198.797 203.273 193.78 203.382 187.947 203.875V203.875L187.781 203.906C182.406 205.428 176.165 205.536 169.557 205.65V205.65C160.082 205.815 150.388 205.983 143.301 210.598V210.598C139.97 212.767 137.213 215.92 135.328 220.518V220.518C134.927 221.358 134.926 222.223 135.325 223.019V223.019C136.143 224.655 138.486 225.657 140.405 226.049V226.049L140.531 226.065C143.176 226.215 145.799 226.286 148.401 226.286V226.286C166.961 226.286 184.438 222.706 200.895 218.966M202.664 205.275C203.818 205.535 205.099 205.627 206.339 205.716V205.716C210.033 205.98 212.314 206.32 212.822 208.78V208.78C213.684 213.539 208.362 215.29 201.85 216.938V216.938C201.364 217.06 200.893 217.18 200.475 217.29V217.29C181.111 221.691 161.966 225.542 140.695 224.345V224.345C138.876 223.962 137.316 223.106 136.89 222.253V222.253C136.726 221.924 136.732 221.612 136.914 221.239V221.239L136.937 221.189C142.391 207.85 155.602 207.621 169.587 207.378V207.378C175.986 207.267 182.6 207.152 188.18 205.589V205.589C191.817 205.283 195.123 205.129 198.066 205.129V205.129C199.715 205.129 201.25 205.178 202.664 205.275" fill="url(#paint14_linear_24_104)"/>
</g>
<defs>
<linearGradient id="paint0_linear_24_104" x1="400" y1="0.000114467" x2="-0.000149478" y2="0.000114467" gradientUnits="userSpaceOnUse">
<stop stop-color="#EF44E8"/>
<stop offset="1" stop-color="#31DBED"/>
</linearGradient>
<linearGradient id="paint1_linear_24_104" x1="388.117" y1="11.8025" x2="5.50848" y2="11.8025" gradientUnits="userSpaceOnUse">
<stop stop-color="#EF44E8"/>
<stop offset="1" stop-color="#31DBED"/>
</linearGradient>
<linearGradient id="paint2_linear_24_104" x1="375.468" y1="24.1587" x2="12.082" y2="24.1587" gradientUnits="userSpaceOnUse">
<stop stop-color="#EF44E8"/>
<stop offset="1" stop-color="#31DBED"/>
</linearGradient>
<linearGradient id="paint3_linear_24_104" x1="362.07" y1="36.3967" x2="18.8211" y2="36.3967" gradientUnits="userSpaceOnUse">
<stop stop-color="#EF44E8"/>
<stop offset="1" stop-color="#31DBED"/>
</linearGradient>
<linearGradient id="paint4_linear_24_104" x1="350.848" y1="49.7986" x2="27.7355" y2="49.7986" gradientUnits="userSpaceOnUse">
<stop stop-color="#EF44E8"/>
<stop offset="1" stop-color="#31DBED"/>
</linearGradient>
<linearGradient id="paint5_linear_24_104" x1="338.637" y1="61.839" x2="34.7464" y2="61.839" gradientUnits="userSpaceOnUse">
<stop stop-color="#EF44E8"/>
<stop offset="1" stop-color="#31DBED"/>
</linearGradient>
<linearGradient id="paint6_linear_24_104" x1="327.231" y1="73.3812" x2="44.3928" y2="73.3812" gradientUnits="userSpaceOnUse">
<stop stop-color="#EF44E8"/>
<stop offset="1" stop-color="#31DBED"/>
</linearGradient>
<linearGradient id="paint7_linear_24_104" x1="313.305" y1="85.5855" x2="54.2658" y2="85.5855" gradientUnits="userSpaceOnUse">
<stop stop-color="#EF44E8"/>
<stop offset="1" stop-color="#31DBED"/>
</linearGradient>
<linearGradient id="paint8_linear_24_104" x1="301.606" y1="98.6711" x2="64.5344" y2="98.6711" gradientUnits="userSpaceOnUse">
<stop stop-color="#EF44E8"/>
<stop offset="1" stop-color="#31DBED"/>
</linearGradient>
<linearGradient id="paint9_linear_24_104" x1="288.989" y1="111.757" x2="75.7159" y2="111.757" gradientUnits="userSpaceOnUse">
<stop stop-color="#EF44E8"/>
<stop offset="1" stop-color="#31DBED"/>
</linearGradient>
<linearGradient id="paint10_linear_24_104" x1="276.848" y1="126.075" x2="85.5432" y2="126.075" gradientUnits="userSpaceOnUse">
<stop stop-color="#EF44E8"/>
<stop offset="1" stop-color="#31DBED"/>
</linearGradient>
<linearGradient id="paint11_linear_24_104" x1="263.937" y1="144.367" x2="97.3468" y2="144.367" gradientUnits="userSpaceOnUse">
<stop stop-color="#EF44E8"/>
<stop offset="1" stop-color="#31DBED"/>
</linearGradient>
<linearGradient id="paint12_linear_24_104" x1="249.176" y1="168.242" x2="107.299" y2="168.242" gradientUnits="userSpaceOnUse">
<stop stop-color="#EF44E8"/>
<stop offset="1" stop-color="#31DBED"/>
</linearGradient>
<linearGradient id="paint13_linear_24_104" x1="233.727" y1="191.288" x2="121.141" y2="191.288" gradientUnits="userSpaceOnUse">
<stop stop-color="#EF44E8"/>
<stop offset="1" stop-color="#31DBED"/>
</linearGradient>
<linearGradient id="paint14_linear_24_104" x1="214.66" y1="203.402" x2="135.027" y2="203.402" gradientUnits="userSpaceOnUse">
<stop stop-color="#EF44E8"/>
<stop offset="1" stop-color="#31DBED"/>
</linearGradient>
</defs>
</svg>
