<svg width="22" height="17" viewBox="0 0 22 17" fill="none" xmlns="http://www.w3.org/2000/svg">
<path fill-rule="evenodd" clip-rule="evenodd" d="M11 11.0024C9.346 11.0024 8 9.65644 8 8.00244C8 6.34844 9.346 5.00244 11 5.00244C12.654 5.00244 14 6.34844 14 8.00244C14 9.65644 12.654 11.0024 11 11.0024M11 3.00244C8.239 3.00244 6 5.24144 6 8.00244C6 10.7634 8.239 13.0024 11 13.0024C13.761 13.0024 16 10.7634 16 8.00244C16 5.24144 13.761 3.00244 11 3.00244" fill="white"/>
<path fill-rule="evenodd" clip-rule="evenodd" d="M11 14.0111C11 14.0111 5.656 14.1901 2.174 7.9341C2.174 7.9341 4.344 1.9721 11 1.9761C11 1.9761 16.765 1.9761 19.813 8.0871C19.813 8.0871 17.328 14.0111 11 14.0111M11 9.54472e-05C2.562 -0.0319046 0 7.9931 0 7.9931C3.344 15.8681 11 16.0051 11 16.0051C19.25 16.0051 22 7.9931 22 7.9931C18.562 0.0560956 11 9.54472e-05 11 9.54472e-05" fill="white"/>
</svg>
