<svg width="24" height="20" viewBox="0 0 24 20" fill="none" xmlns="http://www.w3.org/2000/svg">
<path fill-rule="evenodd" clip-rule="evenodd" d="M21.6 10.3032L16.8 5.5032L9.6 12.7032L7.2 10.3032L2.4 15.1032V2.4H21.6V10.3032ZM21.6 14.4C21.6 15.7236 20.5236 16.8 19.2 16.8H4.0968L7.2 13.6968L9.6 16.0968L16.8 8.8968L21.6 13.6968V14.4ZM0 0V19.2H19.2C21.8472 19.2 24 17.0472 24 14.4V0H0ZM6.6 8.4C7.5936 8.4 8.4 7.5936 8.4 6.6C8.4 5.6064 7.5936 4.8 6.6 4.8C5.6064 4.8 4.8 5.6064 4.8 6.6C4.8 7.5936 5.6064 8.4 6.6 8.4Z" fill="white"/>
</svg>
