<svg width="14" height="14" viewBox="0 0 14 14" fill="none" xmlns="http://www.w3.org/2000/svg">
<mask id="mask0_0_5192" style="mask-type:alpha" maskUnits="userSpaceOnUse" x="0" y="0" width="14" height="14">
<path fill-rule="evenodd" clip-rule="evenodd" d="M6.99955 0C3.1338 0 0 3.13425 0 7.00045C0 10.866 3.1338 14 6.99955 14C10.8657 14 14 10.866 14 7.00045C14 3.13425 10.8657 0 6.99955 0Z" fill="white"/>
</mask>
<g mask="url(#mask0_0_5192)">
<path fill-rule="evenodd" clip-rule="evenodd" d="M-3.5 14H17.5005V0H-3.5V14Z" fill="#EDEDED"/>
<path fill-rule="evenodd" clip-rule="evenodd" d="M-3.5 11.8461H17.5005V10.7693H-3.5V11.8461ZM-3.5 9.69239H17.5005V8.61522H-3.5V9.69239ZM-3.5 7.53836H17.5005V6.46149H-3.5V7.53836ZM-3.5 5.38463H17.5005V4.30776H-3.5V5.38463ZM-3.5 3.23059H17.5005V2.15388H-3.5V3.23059ZM-3.5 1.07671H17.5005V0H-3.5V1.07671ZM-3.5 14H17.5005V12.923H-3.5V14Z" fill="#EF0315"/>
<path fill-rule="evenodd" clip-rule="evenodd" d="M-3.5 7.53821H7.14035V0H-3.5V7.53821Z" fill="#004CBA"/>
<path fill-rule="evenodd" clip-rule="evenodd" d="M4.62288 2.30804L4.87616 2.12399H4.56305L4.46595 1.82588L4.36915 2.12399H4.05605L4.30962 2.30819L4.21268 2.60599L4.4661 2.4218L4.71953 2.60599L4.62288 2.30804ZM2.85891 2.30804L3.11233 2.12399H2.79892L2.70213 1.82588L2.60518 2.12399H2.29192L2.5455 2.30819L2.4487 2.60599L2.70213 2.4218L2.9557 2.60599L2.85891 2.30804ZM1.09493 2.30804L1.34821 2.12399H1.0351L0.938153 1.82588L0.841207 2.12399H0.527645L0.781524 2.30819L0.684577 2.60599L0.938153 2.4218L1.19173 2.60599L1.09493 2.30804ZM6.40806 3.87827L6.66164 3.69437H6.34823L6.25174 3.39611L6.15464 3.69437H5.84138L6.0948 3.87857L5.99816 4.17623L6.25159 3.99218L6.50501 4.17623L6.40806 3.87827ZM4.64394 3.87842L4.89736 3.69437H4.58425L4.48731 3.39611L4.39036 3.69437H4.0771L4.33098 3.87842L4.23404 4.17623L4.48731 3.99218L4.74088 4.17623L4.64394 3.87842ZM6.39882 5.33928L6.65225 5.15524H6.33914L6.24234 4.85728L6.1454 5.15524H5.83229L6.08556 5.33959L5.98892 5.63724L6.24234 5.45289L6.49562 5.63724L6.39882 5.33928ZM4.63485 5.33959L4.88812 5.15524H4.57517L4.47822 4.85728L4.38127 5.15524H4.06817L4.32174 5.33928L4.2251 5.63724L4.47837 5.45289L4.73149 5.63724L4.63485 5.33959ZM6.43397 6.80787L6.68739 6.62413H6.37398L6.27734 6.32602L6.18039 6.62413H5.86743L6.12056 6.80787L6.02406 7.10583L6.27734 6.92209L6.53091 7.10583L6.43397 6.80787ZM4.66999 6.80787L4.92326 6.62413H4.61016L4.51321 6.32602L4.41626 6.62413H4.10331L4.35673 6.80787L4.25994 7.10583L4.51321 6.92179L4.76664 7.10583L4.66999 6.80787ZM2.90587 6.80787L3.15929 6.62413H2.84603L2.74939 6.32602L2.65244 6.62413H2.33918L2.59246 6.80787L2.49581 7.10583L2.74924 6.92209L3.00281 7.10583L2.90587 6.80787ZM2.87103 5.33928L3.1243 5.15524H2.81104L2.71409 4.85728L2.61745 5.15524H2.30389L2.55762 5.33928L2.46052 5.63724L2.7144 5.45289L2.96752 5.63724L2.87103 5.33928ZM2.88012 3.87842L3.13354 3.69437H2.82028L2.72349 3.39611L2.62654 3.69437H2.31328L2.56671 3.87827L2.47006 4.17623L2.72349 3.99233L2.97676 4.17623L2.88012 3.87842ZM-0.669191 2.30804L-0.415918 2.12399H-0.729026L-0.825821 1.82588L-0.922767 2.12399H-1.23618L-0.982602 2.30804L-1.07925 2.60599L-0.825821 2.4218L-0.572245 2.60599L-0.669191 2.30804ZM-2.43301 2.30804L-2.18004 2.12399H-2.49285L-2.58979 1.82588L-2.68689 2.12399H-3L-2.74658 2.30819L-2.84352 2.60599L-2.58979 2.42164L-2.33652 2.60599L-2.43301 2.30804ZM1.11599 3.87842L1.36957 3.69437H1.05631L0.959209 3.39611L0.862414 3.69437H0.549155L0.802428 3.87842L0.705936 4.17623L0.95936 3.99218L1.21278 4.17623L1.11599 3.87842ZM1.10675 5.33928L1.36048 5.15524H1.04707L0.950272 4.85728L0.853325 5.15524H0.540066L0.793642 5.33959L0.696847 5.63724L0.950272 5.45289L1.2037 5.63724L1.10675 5.33928ZM1.14174 6.80787L1.39562 6.62413H1.08221L0.985263 6.32602L0.888468 6.62413H0.575209L0.828634 6.80787L0.731687 7.10583L0.985263 6.92209L1.23869 7.10583L1.14174 6.80787ZM-0.622081 6.80787L-0.368808 6.62413H-0.681916L-0.778711 6.32602L-0.875506 6.62413H-1.18892L-0.935492 6.80787L-1.03214 7.10583L-0.778711 6.92209L-0.525135 7.10583L-0.622081 6.80787ZM-0.657224 5.33928L-0.403648 5.15524H-0.716907L-0.813854 4.85728L-0.910497 5.15524H-1.22391L-0.970483 5.33928L-1.06713 5.63724L-0.813854 5.45289L-0.560126 5.63724L-0.657224 5.33928ZM-0.647833 3.87827L-0.394408 3.69437H-0.707667L-0.804462 3.39611L-0.901409 3.69437H-1.21467L-0.961395 3.87827L-1.05819 4.17623L-0.804462 3.99233L-0.551189 4.17623L-0.647833 3.87827ZM-2.41211 3.87857L-2.15853 3.69437H-2.47164L-2.56859 3.39611L-2.66553 3.69437H-2.97894L-2.72537 3.87842L-2.82201 4.17623L-2.56859 3.99218L-2.31516 4.17623L-2.41211 3.87857ZM-2.4212 5.33928L-2.16777 5.15524H-2.48088L-2.57783 4.85728L-2.67462 5.15524H-2.98788L-2.73431 5.33959L-2.8311 5.63724L-2.57783 5.45289L-2.3244 5.63724L-2.4212 5.33928ZM-2.38621 6.80787L-2.13278 6.62413H-2.44589L-2.54268 6.32602L-2.63948 6.62413H-2.95274L-2.69931 6.80802L-2.79626 7.10583L-2.54268 6.92209L-2.28941 7.10583L-2.38621 6.80787ZM5.50494 1.55185L5.75822 1.3678H5.44496L5.34801 1.07015L5.25137 1.3678H4.93796L5.19138 1.55185L5.09444 1.84981L5.34832 1.66561L5.60189 1.84981L5.50494 1.55185ZM3.74067 1.55185L3.99424 1.3678H3.68114L3.58419 1.07015L3.48724 1.3678H3.17414L3.42741 1.55185L3.33077 1.84981L3.58419 1.66592L3.83761 1.84981L3.74067 1.55185ZM1.97669 1.55185L2.23027 1.3678H1.91701L1.82037 1.07015L1.72342 1.3678H1.41001L1.66344 1.55185L1.56694 1.84981L1.82006 1.66592L2.07349 1.84981L1.97669 1.55185ZM5.52615 3.12224L5.77927 2.93819H5.46617L5.36937 2.64023L5.27242 2.93819H4.95917L5.21274 3.12224L5.1158 3.4202L5.36937 3.23615L5.6228 3.4202L5.52615 3.12224ZM5.51691 4.5834L5.77034 4.3992H5.45708L5.36059 4.10109L5.26334 4.3992H4.95023L5.20365 4.58325L5.10701 4.88151L5.36013 4.69701L5.61355 4.88151L5.51691 4.5834ZM5.55205 6.05184L5.80533 5.86764H5.49222L5.39527 5.56983L5.29863 5.86764H4.98522L5.23864 6.05184L5.142 6.34995L5.39527 6.1659L5.64885 6.34995L5.55205 6.05184ZM3.78778 6.05184L4.04135 5.86764H3.72825L3.63145 5.56983L3.5345 5.86764H3.22125L3.47482 6.05169L3.37788 6.34995L3.6313 6.1659L3.88472 6.34995L3.78778 6.05184ZM3.75294 4.58325L4.00636 4.3992H3.69295L3.59631 4.10109L3.49921 4.3992H3.18625L3.43938 4.5831L3.34288 4.88151L3.59616 4.69732L3.84973 4.88151L3.75294 4.58325ZM3.76218 3.12224L4.01545 2.93819H3.70219L3.60555 2.64023L3.5086 2.93819H3.19519L3.44877 3.12224L3.35197 3.4202L3.60525 3.23615L3.85912 3.4202L3.76218 3.12224ZM0.212569 1.55185L0.466145 1.3678H0.152734L0.0560906 1.07015L-0.0407045 1.3678H-0.354115L-0.100539 1.55185L-0.197334 1.84981L0.0560906 1.66561L0.309515 1.84981L0.212569 1.55185ZM-1.55125 1.55185L-1.29813 1.3678H-1.61124L-1.70803 1.07015L-1.80468 1.3678H-2.11809L-1.86451 1.55185L-1.96131 1.84981L-1.70803 1.66592L-1.45461 1.84981L-1.55125 1.55185ZM1.99775 3.12224L2.25133 2.93819H1.93837L1.84127 2.64023L1.74448 2.93819H1.43137L1.68479 3.12254L1.58785 3.4202L1.84142 3.236L2.09485 3.4202L1.99775 3.12224ZM1.98896 4.58325L2.24239 4.3992H1.92898L1.83218 4.10109L1.73539 4.3992H1.42213L1.6757 4.5834L1.57906 4.88151L1.83218 4.69701L2.08591 4.88151L1.98896 4.58325ZM2.02396 6.05184L2.27738 5.86764H1.96427L1.86733 5.56983L1.77053 5.86764H1.45712L1.71055 6.05169L1.61405 6.34995L1.86702 6.1659L2.1209 6.34995L2.02396 6.05184ZM0.25983 6.05184L0.513406 5.86764H0.200147L0.1032 5.56983L0.00625396 5.86764H-0.306702L-0.0531259 6.05184L-0.150073 6.34995L0.1032 6.1659L0.356776 6.34995L0.25983 6.05184ZM0.224838 4.58325L0.478414 4.3992H0.165004L0.0679059 4.10109L-0.0287378 4.3992H-0.341694L-0.0882692 4.5834L-0.185367 4.88151L0.0682087 4.69701L0.321633 4.88151L0.224838 4.58325ZM0.234078 3.12224L0.487351 2.93819H0.174244L0.0774491 2.64023L-0.0194974 2.93819H-0.332453L-0.0791802 3.12224L-0.175975 3.4202L0.0774491 3.23615L0.330874 3.4202L0.234078 3.12224ZM6.3867 0.796123L6.64028 0.611773H6.32687L6.23007 0.313965L6.13328 0.611773H5.82032L6.07329 0.796123L5.9768 1.09393L6.23007 0.909732L6.48335 1.09393L6.3867 0.796123ZM4.62288 0.796123L4.87616 0.611773H4.5629L4.46595 0.313965L4.36915 0.611773H4.05605L4.30962 0.796123L4.21268 1.09393L4.4661 0.909732L4.71953 1.09393L4.62288 0.796123ZM-1.5299 3.12224L-1.27662 2.93819H-1.58988L-1.68652 2.64023L-1.78362 2.93819H-2.09673L-1.84331 3.12224L-1.9401 3.4202L-1.68652 3.23615L-1.43325 3.4202L-1.5299 3.12224ZM-1.53914 4.5834L-1.28601 4.3992H-1.59897L-1.69592 4.10109L-1.79256 4.3992H-2.10597L-1.85255 4.5834L-1.94934 4.88151L-1.69592 4.69701L-1.44249 4.88151L-1.53914 4.5834ZM-1.50399 6.05184L-1.25057 5.86764H-1.56398L-1.66092 5.56983L-1.75787 5.86764H-2.07083L-1.8174 6.05184L-1.9142 6.34995L-1.66077 6.1659L-1.4075 6.34995L-1.50399 6.05184ZM2.85891 0.796123L3.11233 0.611773H2.79892L2.70213 0.313965L2.60533 0.611773H2.29192L2.5455 0.796123L2.4487 1.09393L2.70213 0.909732L2.9557 1.09393L2.85891 0.796123ZM1.09493 0.795971L1.34821 0.611773H1.03495L0.938153 0.313965L0.841207 0.611773H0.527645L0.781524 0.796123L0.684577 1.09393L0.938153 0.909732L1.19173 1.09393L1.09493 0.795971ZM-0.669191 0.796123L-0.415918 0.611773H-0.729026L-0.825821 0.313965L-0.922616 0.611773H-1.23618L-0.982602 0.796123L-1.07925 1.09393L-0.825821 0.909732L-0.572245 1.09393L-0.669191 0.796123ZM-2.43301 0.796123L-2.18004 0.611773H-2.493L-2.58979 0.313965L-2.68689 0.611773H-3L-2.74658 0.796123L-2.84352 1.09393L-2.58979 0.909581L-2.33652 1.09393L-2.43301 0.796123ZM6.32687 2.12399L6.23007 1.82588L6.13328 2.12399H5.82032L6.07329 2.30804L5.9768 2.60599L6.23007 2.4218L6.48335 2.60599L6.3867 2.30804L6.64028 2.12399H6.32687Z" fill="#EDEDED"/>
</g>
</svg>
