<svg width="14" height="14" viewBox="0 0 14 14" fill="none" xmlns="http://www.w3.org/2000/svg">
<mask id="mask0_0_5091" style="mask-type:alpha" maskUnits="userSpaceOnUse" x="0" y="0" width="14" height="15">
<path fill-rule="evenodd" clip-rule="evenodd" d="M0 7.00053C0 10.8662 3.13383 14.0002 6.99962 14.0002C10.8657 14.0002 14 10.8662 14 7.00053C14 3.13429 10.8657 0 6.99962 0C3.13383 0 0 3.13429 0 7.00053Z" fill="white"/>
</mask>
<g mask="url(#mask0_0_5091)">
<path fill-rule="evenodd" clip-rule="evenodd" d="M6.99055 11.9616L-1.73913 7.00773L6.97556 2.03856L15.7354 7.00773L6.99055 11.9616ZM-3.61719 14.077H17.6134V-0.0767212H-3.61719V14.077Z" fill="#5EAE33"/>
</g>
<mask id="mask1_0_5091" style="mask-type:alpha" maskUnits="userSpaceOnUse" x="0" y="0" width="14" height="15">
<path fill-rule="evenodd" clip-rule="evenodd" d="M0 7.00053C0 10.8662 3.13383 14.0002 6.99962 14.0002C10.8657 14.0002 14 10.8662 14 7.00053C14 3.13429 10.8657 0 6.99962 0C3.13383 0 0 3.13429 0 7.00053Z" fill="white"/>
</mask>
<g mask="url(#mask1_0_5091)">
<path fill-rule="evenodd" clip-rule="evenodd" d="M-1.73828 7.00772L6.9914 11.9616L15.7362 7.00772L6.97641 2.0387L-1.73828 7.00772Z" fill="#F2DB0A"/>
</g>
<mask id="mask2_0_5091" style="mask-type:alpha" maskUnits="userSpaceOnUse" x="0" y="0" width="14" height="15">
<path fill-rule="evenodd" clip-rule="evenodd" d="M0 7.00053C0 10.8662 3.13383 14.0002 6.99962 14.0002C10.8657 14.0002 14 10.8662 14 7.00053C14 3.13429 10.8657 0 6.99962 0C3.13383 0 0 3.13429 0 7.00053Z" fill="white"/>
</mask>
<g mask="url(#mask2_0_5091)">
<path fill-rule="evenodd" clip-rule="evenodd" d="M6.97254 10.3673C8.84423 10.3673 10.3707 8.89489 10.3707 7.08984C10.3707 5.28465 8.84423 3.81226 6.97254 3.81226C5.10069 3.81226 3.57422 5.28465 3.57422 7.08984C3.57422 8.89489 5.10069 10.3673 6.97254 10.3673Z" fill="#EDEDED"/>
</g>
<mask id="mask3_0_5091" style="mask-type:alpha" maskUnits="userSpaceOnUse" x="0" y="0" width="14" height="15">
<path fill-rule="evenodd" clip-rule="evenodd" d="M0 7.00053C0 10.8662 3.13383 14.0002 6.99962 14.0002C10.8657 14.0002 14 10.8662 14 7.00053C14 3.13429 10.8657 0 6.99962 0C3.13383 0 0 3.13429 0 7.00053Z" fill="white"/>
</mask>
<g mask="url(#mask3_0_5091)">
<path fill-rule="evenodd" clip-rule="evenodd" d="M10.2922 7.79217C8.92588 6.91373 7.29474 6.40279 5.54256 6.40279C4.87847 6.40279 4.23165 6.47641 3.60982 6.61547C3.58649 6.77043 3.57422 6.92873 3.57422 7.08991C3.57422 8.89965 5.09599 10.3673 6.97254 10.3673C8.59899 10.3673 9.95868 9.26456 10.2922 7.79217ZM6.97254 3.81232C8.81045 3.81232 10.3078 5.22033 10.3686 6.97902C8.95587 6.14966 7.30579 5.67265 5.54256 5.67265C4.96027 5.67265 4.39025 5.72491 3.83704 5.82459C4.35056 4.64289 5.56104 3.81232 6.97254 3.81232Z" fill="#042D96"/>
</g>
<mask id="mask4_0_5091" style="mask-type:alpha" maskUnits="userSpaceOnUse" x="0" y="0" width="14" height="15">
<path fill-rule="evenodd" clip-rule="evenodd" d="M0 7.00053C0 10.8662 3.13383 14.0002 6.99962 14.0002C10.8657 14.0002 14 10.8662 14 7.00053C14 3.13429 10.8657 0 6.99962 0C3.13383 0 0 3.13429 0 7.00053Z" fill="white"/>
</mask>
<g mask="url(#mask4_0_5091)">
<path fill-rule="evenodd" clip-rule="evenodd" d="M9.78276 7.06651C9.7667 7.09695 9.74549 7.11846 9.71944 7.13028C9.69323 7.1424 9.66884 7.1424 9.64642 7.13073C9.62234 7.11816 9.60734 7.09756 9.60143 7.06893C9.59538 7.0403 9.60083 7.01 9.61734 6.97804C9.6334 6.94729 9.65476 6.92593 9.68081 6.91397C9.70702 6.90215 9.7314 6.902 9.75382 6.91366C9.77791 6.92624 9.79306 6.94699 9.79897 6.97547C9.80487 7.0041 9.79957 7.03439 9.78276 7.06651ZM9.84971 7.09302C9.87289 7.04893 9.87819 7.00561 9.86562 6.96289C9.85335 6.92002 9.82669 6.88806 9.78624 6.86716C9.74352 6.84474 9.69975 6.84156 9.65476 6.85746C9.60946 6.87322 9.57462 6.90503 9.55008 6.95214C9.52706 6.99592 9.52176 7.03954 9.53418 7.08226C9.5466 7.12498 9.57311 7.15694 9.6137 7.17815C9.65627 7.20042 9.7002 7.2036 9.74504 7.18784C9.79033 7.17179 9.82517 7.14028 9.84971 7.09302ZM9.48025 6.99122C9.45359 7.05348 9.39542 7.0656 9.30605 7.02742C9.2756 7.01425 9.24879 6.99864 9.22576 6.98016L9.2603 6.93184C9.28242 6.95184 9.30483 6.96668 9.32786 6.97638C9.35316 6.98713 9.3727 6.99274 9.38588 6.99243C9.39906 6.99228 9.4083 6.98652 9.41329 6.97471C9.41845 6.96274 9.41739 6.95017 9.41057 6.93745C9.40451 6.92624 9.39012 6.90882 9.36755 6.88503C9.34695 6.86352 9.33331 6.84383 9.32634 6.8258C9.31801 6.80308 9.31862 6.77991 9.32862 6.75627C9.34043 6.72886 9.35967 6.71174 9.38663 6.70492C9.41345 6.69826 9.44617 6.70295 9.48419 6.71931C9.51539 6.73249 9.54054 6.74628 9.55947 6.76067L9.52797 6.81005C9.50979 6.79293 9.48813 6.77915 9.46298 6.76854C9.42541 6.75249 9.40239 6.75461 9.39375 6.7746C9.38921 6.78521 9.38997 6.79581 9.39587 6.80611C9.40103 6.8152 9.41436 6.8305 9.43556 6.85171C9.45798 6.87443 9.47343 6.89518 9.48116 6.91427C9.49176 6.93957 9.49131 6.96532 9.48025 6.99122ZM9.21698 6.87791C9.22728 6.85186 9.22697 6.82596 9.21561 6.80096C9.20713 6.78218 9.19122 6.76188 9.1679 6.73991C9.14608 6.71931 9.13245 6.70447 9.12685 6.69583C9.12063 6.68553 9.11973 6.67508 9.12397 6.66417C9.13184 6.64388 9.15487 6.64115 9.19289 6.65599C9.21834 6.66584 9.24046 6.67887 9.25909 6.69538L9.28893 6.64509C9.26969 6.63145 9.24409 6.61843 9.21243 6.60601C9.1738 6.59101 9.14108 6.58722 9.11458 6.5948C9.08791 6.60252 9.06913 6.62024 9.05822 6.64797C9.04898 6.67175 9.04883 6.69508 9.05807 6.71734C9.0655 6.73507 9.07989 6.75461 9.10109 6.77551C9.12442 6.79839 9.13912 6.8155 9.14563 6.82641C9.1529 6.83883 9.15426 6.8514 9.14957 6.86352C9.14502 6.87534 9.13593 6.88155 9.1226 6.88215C9.10943 6.88276 9.08988 6.87791 9.06413 6.86792C9.04096 6.85883 9.01793 6.84474 8.99536 6.8255L8.96249 6.87488C8.98597 6.89276 9.01308 6.9073 9.04399 6.91957C9.13472 6.95502 9.19244 6.94108 9.21698 6.87791ZM8.94068 6.79854L8.9181 6.85095L8.71194 6.77051C8.733 6.72265 8.75572 6.66796 8.77965 6.60691C8.80237 6.54814 8.82101 6.49739 8.83509 6.45528L9.03172 6.53208L9.00839 6.58404C8.96097 6.56253 8.91735 6.54405 8.87827 6.5286C8.87099 6.55178 8.8613 6.57844 8.84964 6.60903C8.88326 6.62221 8.91962 6.63539 8.95885 6.64872L8.93901 6.69932C8.9019 6.68311 8.86615 6.66796 8.83161 6.65448C8.81904 6.68735 8.80752 6.7184 8.79783 6.74734C8.84191 6.76476 8.88963 6.78172 8.94068 6.79854ZM8.65907 6.49497C8.64635 6.53087 8.61393 6.53981 8.56197 6.52133C8.55576 6.51921 8.54819 6.51633 8.5394 6.51269C8.55395 6.4721 8.5647 6.43862 8.57197 6.41272C8.58454 6.41469 8.59848 6.41832 8.61378 6.42393C8.65559 6.43862 8.67089 6.4624 8.65907 6.49497ZM8.67089 6.75294C8.66983 6.68917 8.6668 6.64448 8.66195 6.61888C8.6571 6.59328 8.64741 6.57525 8.63241 6.5648L8.63378 6.56102C8.6821 6.56041 8.71376 6.53966 8.72815 6.49891C8.74617 6.44786 8.718 6.40878 8.64302 6.38212C8.62984 6.37742 8.61545 6.37257 8.59954 6.36742C8.58379 6.36227 8.57333 6.35894 8.56864 6.35727L8.52622 6.34213C8.51335 6.38469 8.49638 6.43604 8.47533 6.49542C8.45321 6.55738 8.43246 6.61237 8.41261 6.66114L8.48063 6.68523C8.49456 6.64191 8.50896 6.59934 8.5238 6.55738C8.53243 6.56041 8.54152 6.56344 8.55107 6.56677C8.57364 6.5748 8.58757 6.58737 8.59288 6.60464C8.59818 6.62191 8.6 6.66266 8.59833 6.72719L8.67089 6.75294ZM8.35535 6.62555C8.31279 6.62343 8.27825 6.61812 8.25174 6.60979C8.19494 6.59207 8.15661 6.56298 8.13692 6.52269C8.11723 6.4824 8.1145 6.43998 8.12828 6.39545C8.14298 6.34879 8.17161 6.31289 8.21433 6.2882C8.25719 6.26381 8.30703 6.26017 8.36384 6.2779C8.3905 6.28638 8.41322 6.29592 8.432 6.30713L8.40549 6.36318C8.38171 6.34834 8.35944 6.33758 8.33869 6.33107C8.3037 6.32016 8.27446 6.32289 8.25053 6.33879C8.22659 6.35485 8.20978 6.37848 8.20024 6.40953C8.19039 6.44104 8.19145 6.47164 8.20342 6.50103C8.21523 6.53072 8.23811 6.55071 8.27204 6.56132C8.28143 6.5642 8.29279 6.56662 8.30582 6.56844C8.30915 6.54935 8.31355 6.53087 8.31885 6.51315C8.3246 6.49542 8.32915 6.47467 8.33263 6.45134L8.40292 6.47316C8.39353 6.49815 8.38489 6.5236 8.37686 6.5495C8.37111 6.56814 8.36384 6.59358 8.35535 6.62555ZM8.0024 6.35015C8.01119 6.31501 8.00952 6.28426 7.99695 6.2579C7.98453 6.2317 7.96499 6.21503 7.93878 6.20837C7.91409 6.20216 7.89046 6.20807 7.86774 6.22579C7.84532 6.24351 7.82941 6.26911 7.82108 6.30274C7.8123 6.33758 7.81411 6.36848 7.82684 6.39499C7.83926 6.4215 7.85865 6.43786 7.88501 6.44453C7.90939 6.45059 7.93303 6.44483 7.9559 6.42711C7.97862 6.40938 7.99407 6.38363 8.0024 6.35015ZM8.07405 6.36045C8.06103 6.41196 8.03437 6.45089 7.99422 6.47679C7.95423 6.503 7.91076 6.50997 7.86425 6.49815C7.81987 6.48709 7.78654 6.46225 7.76443 6.42347C7.74246 6.38484 7.73746 6.34137 7.74958 6.29335C7.76246 6.24169 7.78897 6.20291 7.82911 6.17686C7.86925 6.15081 7.91258 6.14384 7.95923 6.1555C8.00346 6.16656 8.03679 6.1914 8.05906 6.23018C8.08102 6.26866 8.08602 6.31213 8.07405 6.36045ZM7.644 6.19413C7.63567 6.23139 7.60446 6.24381 7.55069 6.2317C7.54402 6.23003 7.53645 6.22806 7.52721 6.22579C7.5369 6.18353 7.54387 6.14914 7.54796 6.12263C7.56053 6.12308 7.57493 6.12521 7.59068 6.12884C7.634 6.13869 7.65188 6.1605 7.644 6.19413ZM7.68566 6.44892C7.67733 6.38575 7.66915 6.34167 7.66112 6.31683C7.65339 6.29199 7.64158 6.27517 7.62567 6.26654L7.62643 6.26275C7.67445 6.25639 7.70323 6.23215 7.71308 6.19019C7.72519 6.13717 7.69247 6.10173 7.61492 6.08385C7.60113 6.08067 7.58629 6.07764 7.57008 6.07431C7.55372 6.07128 7.54311 6.06901 7.53812 6.06779L7.49419 6.0578C7.48646 6.10173 7.47555 6.15429 7.46131 6.21594C7.44677 6.28002 7.43238 6.33713 7.4186 6.38772L7.48904 6.40393C7.49767 6.35924 7.50691 6.31531 7.51676 6.27169C7.52569 6.27381 7.53524 6.27578 7.54508 6.27805C7.56841 6.2835 7.58371 6.29441 7.59083 6.31077C7.59825 6.32713 7.60477 6.36757 7.61067 6.4318L7.68566 6.44892ZM7.3527 6.13626C7.35937 6.09976 7.33846 6.07703 7.28999 6.06825C7.27802 6.06613 7.265 6.06507 7.25091 6.06507C7.24697 6.09779 7.24136 6.13445 7.23394 6.17535C7.23833 6.17625 7.24318 6.17747 7.24879 6.17838C7.31105 6.18958 7.34573 6.17565 7.3527 6.13626ZM7.42148 6.13399C7.41405 6.17459 7.39345 6.20216 7.35967 6.21609C7.32589 6.23003 7.28696 6.23306 7.24288 6.22533C7.23485 6.22382 7.22925 6.22261 7.22591 6.2217C7.22016 6.25366 7.21349 6.29623 7.20592 6.34909L7.13396 6.33607C7.14502 6.28729 7.15654 6.22927 7.16865 6.16232C7.17971 6.10112 7.18819 6.0478 7.19395 6.00296L7.23849 6.01099C7.24485 6.0122 7.25697 6.01402 7.27499 6.01675C7.29302 6.01947 7.30862 6.0219 7.3218 6.02447C7.35407 6.03008 7.38012 6.04235 7.39981 6.06113C7.41966 6.07991 7.42678 6.10415 7.42148 6.13399ZM6.65104 6.22852L6.64438 6.28532L6.42397 6.2679C6.43034 6.21579 6.43624 6.15717 6.44139 6.09158C6.44624 6.02856 6.44957 5.97494 6.45079 5.9304L6.66134 5.94722L6.65392 6.00372C6.60227 5.99675 6.55531 5.99175 6.5132 5.98842C6.51305 6.01235 6.51168 6.04083 6.50911 6.07355C6.54501 6.07643 6.58379 6.0784 6.62514 6.07991L6.6209 6.13399C6.58061 6.12914 6.54198 6.12521 6.50502 6.12218C6.50229 6.15732 6.50047 6.19019 6.49941 6.22094C6.54667 6.22473 6.59742 6.22715 6.65104 6.22852ZM5.87046 6.22852L5.79488 6.22897C5.79472 6.19958 5.7926 6.1499 5.78851 6.07991C5.78457 6.01008 5.78245 5.96645 5.7823 5.94903H5.77821C5.7767 5.95949 5.77215 5.97872 5.76488 6.0069C5.75746 6.03492 5.74367 6.07643 5.72338 6.13126C5.70323 6.18595 5.69308 6.21897 5.69323 6.22958L5.63582 6.22988C5.63552 6.21882 5.62567 6.1858 5.60568 6.13096C5.58568 6.07628 5.5725 6.03765 5.56644 6.01568C5.56038 5.99387 5.55538 5.97191 5.5516 5.95025H5.54766C5.54766 5.97191 5.54569 6.01826 5.5419 6.08961C5.53827 6.16095 5.5366 6.20776 5.5366 6.23048L5.46798 6.23064C5.46798 6.22549 5.47389 6.17338 5.48585 6.07431C5.49812 5.97539 5.50403 5.9145 5.50403 5.89208L5.60446 5.89162C5.60477 5.91086 5.61552 5.95388 5.63718 6.01977C5.65869 6.08582 5.66945 6.12824 5.6696 6.14656H5.67354C5.67324 6.12793 5.68535 6.08537 5.70899 6.01917C5.73307 5.95282 5.74474 5.90995 5.74474 5.89086L5.84456 5.89026C5.84486 5.92631 5.84911 5.99008 5.85774 6.08218C5.86622 6.17429 5.87046 6.22306 5.87046 6.22852ZM5.4245 6.17232L5.42496 6.22942L5.2041 6.23972C5.2038 6.18731 5.20228 6.12824 5.1991 6.06264C5.19622 5.99963 5.19259 5.946 5.1885 5.90162L5.39921 5.89193L5.39906 5.94888C5.34695 5.94843 5.29968 5.94934 5.25757 5.95115C5.2603 5.97524 5.26257 6.00357 5.26409 6.03613C5.30029 6.03462 5.33877 6.03189 5.37997 6.02811L5.38254 6.08234C5.34195 6.08264 5.30317 6.08355 5.26621 6.08506C5.26787 6.12021 5.2703 6.15323 5.27302 6.18368C5.32029 6.1814 5.37103 6.17762 5.4245 6.17232ZM5.06883 6.07522C5.0664 6.04189 5.05459 6.01462 5.03368 5.99327C5.01263 5.97191 4.98233 5.96267 4.94264 5.96554C4.93522 5.966 4.92492 5.96751 4.9122 5.97009C4.91629 6.00448 4.91977 6.04053 4.92235 6.07825C4.92538 6.1196 4.92916 6.1605 4.93371 6.20095C4.94522 6.20231 4.95643 6.20291 4.96779 6.20185C5.00475 6.19928 5.03172 6.1858 5.04777 6.16141C5.06413 6.13717 5.0711 6.10839 5.06883 6.07522ZM5.13866 6.05901C5.14214 6.10809 5.12942 6.15202 5.10049 6.1908C5.07171 6.22988 5.02899 6.25139 4.97233 6.25533C4.94658 6.25715 4.91144 6.25851 4.8663 6.25972C4.86478 6.20731 4.86175 6.14853 4.85721 6.08294C4.85267 6.01993 4.84767 5.96615 4.84236 5.92207L4.88781 5.91889C4.89508 5.91828 4.90614 5.91722 4.92083 5.91571C4.93552 5.91404 4.94507 5.91328 4.94946 5.91283C5.01187 5.90844 5.05838 5.92086 5.08852 5.94994C5.11882 5.97888 5.13563 6.01538 5.13866 6.05901ZM4.70164 6.03083C4.698 5.99645 4.67407 5.9816 4.62999 5.9863C4.61393 5.98796 4.59954 5.99069 4.58757 5.99448C4.59212 6.02084 4.59697 6.05568 4.60151 6.09854C4.6109 6.09779 4.61893 6.09718 4.62544 6.09642C4.68028 6.09067 4.70558 6.0687 4.70164 6.03083ZM4.82388 6.25836L4.74723 6.26639C4.72073 6.20761 4.70149 6.17156 4.68937 6.15838C4.67695 6.1452 4.65907 6.13975 4.63529 6.14232C4.62529 6.14338 4.6156 6.14444 4.60666 6.1455C4.61136 6.18989 4.61681 6.23457 4.62302 6.27956L4.55122 6.28699C4.54789 6.23488 4.54289 6.1761 4.53592 6.11066C4.52941 6.04795 4.52259 5.99448 4.51562 5.95055L4.56031 5.94585C4.56561 5.94525 4.57636 5.94388 4.59272 5.94146C4.60908 5.93934 4.62423 5.93737 4.63817 5.93585C4.71754 5.92767 4.75981 5.95055 4.76556 6.00463C4.77011 6.0475 4.75057 6.07976 4.7074 6.10142L4.70785 6.10536C4.72557 6.10839 4.74239 6.12036 4.75769 6.14111C4.77329 6.16217 4.79525 6.20125 4.82388 6.25836ZM4.40716 6.13581C4.40459 6.09976 4.39322 6.07098 4.37323 6.04977C4.35308 6.02871 4.32945 6.01917 4.30249 6.02114C4.27704 6.0228 4.25629 6.03568 4.24023 6.05961C4.22447 6.08355 4.21766 6.11278 4.22008 6.14732C4.22266 6.18322 4.23387 6.212 4.25416 6.23321C4.27431 6.25442 4.29794 6.26411 4.32475 6.26214C4.35005 6.26048 4.37065 6.2476 4.38671 6.22352C4.40292 6.19958 4.40958 6.17035 4.40716 6.13581ZM4.47805 6.12324C4.48199 6.17625 4.46881 6.2214 4.43882 6.25881C4.40883 6.29592 4.36974 6.31622 4.32203 6.31956C4.27628 6.32289 4.23705 6.30971 4.20387 6.27972C4.17085 6.25003 4.15252 6.21019 4.14904 6.16065C4.1454 6.10763 4.15828 6.06249 4.18827 6.02523C4.21842 5.98796 4.2575 5.96767 4.30537 5.96433C4.35096 5.961 4.39035 5.97418 4.42337 6.00417C4.45624 6.03386 4.47472 6.07355 4.47805 6.12324Z" fill="#319900"/>
</g>
<mask id="mask5_0_5091" style="mask-type:alpha" maskUnits="userSpaceOnUse" x="0" y="0" width="14" height="15">
<path fill-rule="evenodd" clip-rule="evenodd" d="M0 7.00053C0 10.8662 3.13383 14.0002 6.99962 14.0002C10.8657 14.0002 14 10.8662 14 7.00053C14 3.13429 10.8657 0 6.99962 0C3.13383 0 0 3.13429 0 7.00053Z" fill="white"/>
</mask>
<g mask="url(#mask5_0_5091)">
<path fill-rule="evenodd" clip-rule="evenodd" d="M9.64032 8.49917L9.66198 8.40677L9.58533 8.35526L9.68365 8.34663L9.71334 8.26604L9.74787 8.3483L9.83831 8.35269L9.76757 8.40889L9.79407 8.49372L9.71561 8.44555L9.64032 8.49917ZM9.36266 9.13978L9.37947 9.06844L9.32009 9.02875L9.39598 9.02208L9.41901 8.95982L9.44567 9.02329L9.5155 9.02663L9.46082 9.0701L9.48112 9.13569L9.42067 9.09858L9.36266 9.13978ZM9.23238 8.94362L9.24905 8.87227L9.18982 8.83258L9.26571 8.82592L9.28874 8.7635L9.3154 8.82713L9.38538 8.83046L9.33054 8.87393L9.35099 8.93937L9.29055 8.90226L9.23238 8.94362ZM9.0503 9.14705L9.06303 9.09222L9.01774 9.06192L9.0759 9.05692L9.09348 9.00936L9.11393 9.05783L9.1674 9.06041L9.12544 9.09358L9.14119 9.14372L9.09484 9.11524L9.0503 9.14705ZM8.79779 9.17159L8.81051 9.11691L8.76522 9.08661L8.82339 9.08131L8.84111 9.03375L8.86141 9.08237L8.91488 9.08495L8.87292 9.11812L8.88867 9.16826L8.84217 9.13993L8.79779 9.17159ZM8.77809 9.52591L8.79082 9.47122L8.74537 9.44093L8.80354 9.43578L8.82111 9.38821L8.84156 9.43684L8.89489 9.43926L8.85323 9.47259L8.86868 9.52273L8.82263 9.4944L8.77809 9.52591ZM8.59056 9.36943L8.60586 9.30429L8.55178 9.26809L8.62116 9.26188L8.64206 9.20522L8.66645 9.26309L8.73023 9.26612L8.68024 9.30581L8.69887 9.36549L8.64358 9.33171L8.59056 9.36943ZM8.34683 6.01171L8.3847 5.85038L8.25064 5.76085L8.42242 5.74571L8.47438 5.60498L8.53451 5.74843L8.69236 5.75601L8.5686 5.85401L8.6151 6.00231L8.47801 5.91824L8.34683 6.01171ZM8.29608 9.23461L8.31275 9.16311L8.25352 9.12342L8.32941 9.11661L8.35258 9.0545L8.37909 9.11797L8.44908 9.12145L8.39424 9.16478L8.41469 9.23037L8.35425 9.19326L8.29608 9.23461ZM8.08098 9.42139L8.09764 9.34989L8.03841 9.3102L8.11431 9.30353L8.13748 9.24112L8.16414 9.30475L8.23382 9.30808L8.17914 9.35155L8.19959 9.41714L8.139 9.37988L8.08098 9.42139ZM7.90556 9.12691L7.92223 9.05556L7.86285 9.01587L7.93904 9.00921L7.96192 8.94695L7.98873 9.01057L8.05826 9.01375L8.00357 9.05723L8.02402 9.12282L7.96358 9.0857L7.90556 9.12691ZM8.00978 7.16569L8.03145 7.07328L7.95464 7.02193L8.05296 7.0133L8.08265 6.93271L8.11733 7.01481L8.20762 7.0192L8.13672 7.0754L8.16323 7.16023L8.08477 7.11221L8.00978 7.16569ZM7.42522 8.33694L7.46294 8.17576L7.32903 8.08593L7.50066 8.07094L7.55246 7.93036L7.61306 8.07366L7.7706 8.08124L7.64699 8.1794L7.69319 8.32769L7.5564 8.24377L7.42522 8.33694ZM7.0397 9.55514L7.06136 9.46274L6.98471 9.41139L7.08302 9.40275L7.11271 9.32217L7.1474 9.40442L7.23769 9.40866L7.16694 9.46486L7.1933 9.54984L7.11499 9.50152L7.0397 9.55514ZM7.08621 8.82167L7.10772 8.72912L7.03092 8.67792L7.12938 8.66913L7.15907 8.58854L7.19376 8.6708L7.28389 8.67519L7.21315 8.73139L7.23966 8.81622L7.16134 8.7682L7.08621 8.82167ZM7.03576 8.51356L7.05243 8.44206L6.9932 8.40237L7.06909 8.39571L7.09211 8.33345L7.11893 8.39692L7.18846 8.40025L7.13392 8.44373L7.15437 8.50932L7.09378 8.47206L7.03576 8.51356ZM6.95699 7.91052L6.99486 7.74904L6.8608 7.65936L7.03258 7.64437L7.08454 7.50379L7.14483 7.64724L7.30252 7.65467L7.17891 7.75283L7.22511 7.90097L7.08817 7.81705L6.95699 7.91052ZM6.60601 8.31815L6.64373 8.15682L6.50982 8.06715L6.68145 8.05215L6.73341 7.91158L6.79385 8.05488L6.95139 8.06245L6.82778 8.16061L6.87398 8.30861L6.73719 8.22484L6.60601 8.31815ZM5.82452 7.65754L5.86239 7.49622L5.72833 7.40654L5.90011 7.39154L5.95192 7.25082L6.01236 7.39427L6.1699 7.40184L6.04629 7.5L6.09264 7.648L5.9557 7.56408L5.82452 7.65754ZM5.46218 8.99769L5.4999 8.83637L5.36584 8.74654L5.53762 8.73154L5.58958 8.59097L5.65002 8.73427L5.80771 8.74184L5.68395 8.84L5.73015 8.9883L5.59321 8.90438L5.46218 8.99769ZM4.99183 8.62717L5.01349 8.53477L4.93669 8.48342L5.03516 8.47478L5.065 8.3942L5.09954 8.4763L5.18982 8.48054L5.11893 8.53689L5.14543 8.62187L5.06712 8.5737L4.99183 8.62717ZM5.10044 8.26816L5.12226 8.17576L5.04546 8.12441L5.14377 8.11592L5.17346 8.03534L5.208 8.11744L5.29828 8.12168L5.22739 8.17803L5.25405 8.26286L5.17558 8.21484L5.10044 8.26816ZM4.71114 7.71556L4.72795 7.64406L4.66872 7.60437L4.74462 7.59771L4.76764 7.5356L4.7943 7.59892L4.86413 7.60225L4.8093 7.64573L4.8299 7.71147L4.76931 7.67421L4.71114 7.71556ZM4.26185 8.05018L4.29941 7.8887L4.16551 7.79918L4.33744 7.78403L4.38909 7.64331L4.44953 7.78691L4.60707 7.79448L4.48346 7.89264L4.52982 8.04079L4.39288 7.95672L4.26185 8.05018ZM3.96495 8.23453L3.98646 8.14213L3.90981 8.09078L4.00827 8.08199L4.03781 8.00141L4.0725 8.08366L4.16293 8.08805L4.09204 8.1441L4.1184 8.22908L4.04008 8.18091L3.96495 8.23453ZM3.73697 7.18189L3.77484 7.02042L3.64062 6.93089L3.81256 6.91574L3.86451 6.77502L3.9248 6.91862L4.08249 6.9262L3.95873 7.02435L4.00509 7.1725L3.8683 7.08843L3.73697 7.18189ZM9.06045 8.70019L9.09832 8.53886L8.96426 8.44918L9.13589 8.43403L9.188 8.29346L9.24829 8.43691L9.40583 8.44449L9.28222 8.54249L9.32857 8.69064L9.19179 8.60672L9.06045 8.70019Z" fill="#EDEDED"/>
</g>
</svg>
