<svg width="16" height="24" viewBox="0 0 16 24" fill="none" xmlns="http://www.w3.org/2000/svg">
<path fill-rule="evenodd" clip-rule="evenodd" d="M12.2307 23.6799C12.43 23.8829 12.6936 23.9968 12.9671 23.9979C13.137 24.009 13.3069 23.9725 13.4593 23.8923C13.8518 23.6834 14.0999 23.2511 14.0979 22.779V1.20496C14.0999 0.732397 13.8518 0.300512 13.4593 0.0916194C13.0432 -0.084406 12.5745 -0.00304612 12.2307 0.303472L5.64872 6.61146H1.12919C0.945592 6.60807 0.765905 6.65418 0.603795 6.74326C0.502233 6.79963 0.408483 6.87321 0.326452 6.96235C0.111608 7.19233 -0.00557972 7.5055 0.000279654 7.83091V16.2058C-0.0036266 16.3923 0.0334828 16.5749 0.105748 16.74C0.160436 16.8629 0.234655 16.9762 0.326452 17.0743C0.537389 17.3043 0.828405 17.4308 1.12919 17.4252H5.64872L12.2307 23.6799ZM16.0003 15.5742V14.7174C15.9515 14.8526 15.9261 14.9976 15.9261 15.1455C15.9261 15.2937 15.9515 15.4389 16.0003 15.5742ZM16.0003 8.67188C15.9749 8.81656 15.9749 8.96519 16.0003 9.10987V8.67188Z" fill="white"/>
</svg>
