<svg width="24" height="24" viewBox="0 0 24 24" fill="none" xmlns="http://www.w3.org/2000/svg">
<path d="M12.967 23.9979C12.6929 23.9968 12.4298 23.8829 12.2304 23.6799L5.64881 17.4252H1.12978C0.82862 17.4308 0.538085 17.3043 0.325321 17.0743C0.112214 16.8443 -0.00529826 16.5312 0.000183546 16.2058V7.83089C-0.00529826 7.50551 0.112214 7.19233 0.325321 6.96234C0.538085 6.73236 0.82862 6.60591 1.12978 6.61145H5.64854L12.2305 0.303475C12.5734 -0.00304952 13.0438 -0.0843966 13.4584 0.0916069C13.8511 0.300513 14.0988 0.732381 14.0967 1.20495V22.779C14.0988 23.2511 13.851 23.6834 13.4584 23.8923C13.3059 23.9725 13.1366 24.009 12.967 23.9979ZM21.5625 12.0182L23.6743 9.73908C24.1081 9.27061 24.1084 8.5111 23.6747 8.04265C23.2406 7.57418 22.5368 7.57418 22.1028 8.04265L19.9909 10.3218L17.8787 8.04265C17.4446 7.57418 16.7409 7.57418 16.3071 8.04265C15.873 8.51112 15.873 9.27062 16.3071 9.73908L18.3701 12.0182L16.2582 14.2973C16.0458 14.5203 15.9255 14.8261 15.9255 15.1455C15.9255 15.4654 16.0454 15.7712 16.2579 15.9937C16.4662 16.2215 16.7474 16.3542 17.0438 16.365C17.3446 16.3775 17.6341 16.2407 17.8298 15.9937L19.9416 13.7146L22.0535 15.9937C22.2618 16.2215 22.5434 16.3542 22.8398 16.365C23.1406 16.3775 23.4301 16.2407 23.6254 15.9937C23.8378 15.7711 23.9577 15.4654 23.9577 15.1455C23.9577 14.8261 23.8378 14.5203 23.6254 14.2973L21.5625 12.0182Z" fill="white"/>
</svg>
