<svg width="48" height="29" viewBox="0 0 48 29" fill="none" xmlns="http://www.w3.org/2000/svg">
<path d="M35.8866 22.5941L35.9294 22.3444L35.7052 22.4623L34 23.3588L32.2948 22.4623L32.0706 22.3444L32.1134 22.5941L32.4391 24.4928L31.0596 25.8375L30.8782 26.0143L31.1289 26.0508L33.0353 26.3278L33.8879 28.0553L34 28.2824L34.1121 28.0553L34.9647 26.3278L36.8711 26.0508L37.1218 26.0143L36.9404 25.8375L35.5609 24.4928L35.8866 22.5941Z" stroke="black" stroke-width="0.25"/>
<path d="M13.8866 22.5941L13.9294 22.3444L13.7052 22.4623L12 23.3588L10.2948 22.4623L10.0706 22.3444L10.1134 22.5941L10.4391 24.4928L9.05958 25.8375L8.87821 26.0143L9.12886 26.0508L11.0353 26.3278L11.8879 28.0553L12 28.2824L12.1121 28.0553L12.9647 26.3278L14.8711 26.0508L15.1218 26.0143L14.9404 25.8375L13.5609 24.4928L13.8866 22.5941Z" stroke="black" stroke-width="0.25"/>
<path d="M24.8866 11.5941L24.9294 11.3444L24.7052 11.4623L23 12.3588L21.2948 11.4623L21.0706 11.3444L21.1134 11.5941L21.4391 13.4928L20.0596 14.8375L19.8782 15.0143L20.1289 15.0508L22.0353 15.3278L22.8879 17.0553L23 17.2824L23.1121 17.0553L23.9647 15.3278L25.8711 15.0508L26.1218 15.0143L25.9404 14.8375L24.5609 13.4928L24.8866 11.5941Z" stroke="black" stroke-width="0.25"/>
<path d="M45.8866 11.5941L45.9294 11.3444L45.7052 11.4623L44 12.3588L42.2948 11.4623L42.0706 11.3444L42.1134 11.5941L42.4391 13.4928L41.0596 14.8375L40.8782 15.0143L41.1289 15.0508L43.0353 15.3278L43.8879 17.0553L44 17.2824L44.1121 17.0553L44.9647 15.3278L46.8711 15.0508L47.1218 15.0143L46.9404 14.8375L45.5609 13.4928L45.8866 11.5941Z" stroke="black" stroke-width="0.25"/>
<path d="M5.88656 11.5941L5.92937 11.3444L5.70519 11.4623L4 12.3588L2.29481 11.4623L2.07063 11.3444L2.11344 11.5941L2.43911 13.4928L1.05958 14.8375L0.878211 15.0143L1.12886 15.0508L3.03531 15.3278L3.88791 17.0553L4 17.2824L4.11209 17.0553L4.96469 15.3278L6.87114 15.0508L7.12179 15.0143L6.94042 14.8375L5.56089 13.4928L5.88656 11.5941Z" stroke="black" stroke-width="0.25"/>
<path d="M35.8866 0.594079L35.9294 0.344447L35.7052 0.462307L34 1.35878L32.2948 0.462307L32.0706 0.344447L32.1134 0.594079L32.4391 2.49283L31.0596 3.83754L30.8782 4.01433L31.1289 4.05075L33.0353 4.32778L33.8879 6.05532L34 6.28244L34.1121 6.05532L34.9647 4.32778L36.8711 4.05075L37.1218 4.01433L36.9404 3.83754L35.5609 2.49283L35.8866 0.594079Z" stroke="black" stroke-width="0.25"/>
<path d="M13.8866 0.594079L13.9294 0.344447L13.7052 0.462307L12 1.35878L10.2948 0.462307L10.0706 0.344447L10.1134 0.594079L10.4391 2.49283L9.05958 3.83754L8.87821 4.01433L9.12886 4.05075L11.0353 4.32778L11.8879 6.05532L12 6.28244L12.1121 6.05532L12.9647 4.32778L14.8711 4.05075L15.1218 4.01433L14.9404 3.83754L13.5609 2.49283L13.8866 0.594079Z" stroke="black" stroke-width="0.25"/>
</svg>
