<svg width="199" height="405" viewBox="0 0 199 405" fill="none" xmlns="http://www.w3.org/2000/svg">
<path d="M137.103 56.0448L137.275 55.0462L136.378 55.5177L127.5 60.1851L118.622 55.5177L117.725 55.0462L117.897 56.0448L119.592 65.9306L112.41 72.9317L111.684 73.6389L112.687 73.7846L122.613 75.2269L127.052 84.2213L127.5 85.1298L127.948 84.2213L132.387 75.2269L142.313 73.7846L143.316 73.6389L142.59 72.9317L135.408 65.9306L137.103 56.0448Z" stroke="black"/>
<path d="M137.103 374.045L137.275 373.046L136.378 373.518L127.5 378.185L118.622 373.518L117.725 373.046L117.897 374.045L119.592 383.931L112.41 390.932L111.684 391.639L112.687 391.785L122.613 393.227L127.052 402.221L127.5 403.13L127.948 402.221L132.387 393.227L142.313 391.785L143.316 391.639L142.59 390.932L135.408 383.931L137.103 374.045Z" stroke="black"/>
<path d="M27.1035 56.0448L27.2747 55.0462L26.378 55.5177L17.5 60.1851L8.622 55.5177L7.72526 55.0462L7.89652 56.0448L9.59207 65.9306L2.40962 72.9317L1.68414 73.6389L2.68672 73.7846L12.6126 75.2269L17.0516 84.2213L17.5 85.1298L17.9484 84.2213L22.3874 75.2269L32.3133 73.7846L33.3159 73.6389L32.5904 72.9317L25.4079 65.9306L27.1035 56.0448Z" stroke="black"/>
<path d="M27.1035 374.045L27.2747 373.046L26.378 373.518L17.5 378.185L8.622 373.518L7.72526 373.046L7.89652 374.045L9.59207 383.931L2.40962 390.932L1.68414 391.639L2.68672 391.785L12.6126 393.227L17.0516 402.221L17.5 403.13L17.9484 402.221L22.3874 393.227L32.3133 391.785L33.3159 391.639L32.5904 390.932L25.4079 383.931L27.1035 374.045Z" stroke="black"/>
<path d="M82.1035 3.04476L82.2747 2.04623L81.378 2.51767L72.5 7.18511L63.622 2.51767L62.7253 2.04623L62.8965 3.04476L64.5921 12.9306L57.4096 19.9317L56.6841 20.6389L57.6867 20.7846L67.6126 22.2269L72.0516 31.2213L72.5 32.1298L72.9484 31.2213L77.3874 22.2269L87.3133 20.7846L88.3159 20.6389L87.5904 19.9317L80.4079 12.9306L82.1035 3.04476Z" stroke="black"/>
<path d="M191.103 3.04476L191.275 2.04623L190.378 2.51767L181.5 7.18511L172.622 2.51767L171.725 2.04623L171.897 3.04476L173.592 12.9306L166.41 19.9317L165.684 20.6389L166.687 20.7846L176.613 22.2269L181.052 31.2213L181.5 32.1298L181.948 31.2213L186.387 22.2269L196.313 20.7846L197.316 20.6389L196.59 19.9317L189.408 12.9306L191.103 3.04476Z" stroke="black"/>
<path d="M82.1035 321.045L82.2747 320.046L81.378 320.518L72.5 325.185L63.622 320.518L62.7253 320.046L62.8965 321.045L64.5921 330.931L57.4096 337.932L56.6841 338.639L57.6867 338.785L67.6126 340.227L72.0516 349.221L72.5 350.13L72.9484 349.221L77.3874 340.227L87.3133 338.785L88.3159 338.639L87.5904 337.932L80.4079 330.931L82.1035 321.045Z" stroke="black"/>
<path d="M191.103 321.045L191.275 320.046L190.378 320.518L181.5 325.185L172.622 320.518L171.725 320.046L171.897 321.045L173.592 330.931L166.41 337.932L165.684 338.639L166.687 338.785L176.613 340.227L181.052 349.221L181.5 350.13L181.948 349.221L186.387 340.227L196.313 338.785L197.316 338.639L196.59 337.932L189.408 330.931L191.103 321.045Z" stroke="black"/>
<path d="M137.103 268.045L137.275 267.046L136.378 267.518L127.5 272.185L118.622 267.518L117.725 267.046L117.897 268.045L119.592 277.931L112.41 284.932L111.684 285.639L112.687 285.785L122.613 287.227L127.052 296.221L127.5 297.13L127.948 296.221L132.387 287.227L142.313 285.785L143.316 285.639L142.59 284.932L135.408 277.931L137.103 268.045Z" stroke="black"/>
<path d="M27.1035 268.045L27.2747 267.046L26.378 267.518L17.5 272.185L8.622 267.518L7.72526 267.046L7.89652 268.045L9.59207 277.931L2.40962 284.932L1.68414 285.639L2.68672 285.785L12.6126 287.227L17.0516 296.221L17.5 297.13L17.9484 296.221L22.3874 287.227L32.3133 285.785L33.3159 285.639L32.5904 284.932L25.4079 277.931L27.1035 268.045Z" stroke="black"/>
<path d="M82.1035 215.045L82.2747 214.046L81.378 214.518L72.5 219.185L63.622 214.518L62.7253 214.046L62.8965 215.045L64.5921 224.931L57.4096 231.932L56.6841 232.639L57.6867 232.785L67.6126 234.227L72.0516 243.221L72.5 244.13L72.9484 243.221L77.3874 234.227L87.3133 232.785L88.3159 232.639L87.5904 231.932L80.4079 224.931L82.1035 215.045Z" stroke="black"/>
<path d="M191.103 215.045L191.275 214.046L190.378 214.518L181.5 219.185L172.622 214.518L171.725 214.046L171.897 215.045L173.592 224.931L166.41 231.932L165.684 232.639L166.687 232.785L176.613 234.227L181.052 243.221L181.5 244.13L181.948 243.221L186.387 234.227L196.313 232.785L197.316 232.639L196.59 231.932L189.408 224.931L191.103 215.045Z" stroke="black"/>
<path d="M137.103 162.045L137.275 161.046L136.378 161.518L127.5 166.185L118.622 161.518L117.725 161.046L117.897 162.045L119.592 171.931L112.41 178.932L111.684 179.639L112.687 179.785L122.613 181.227L127.052 190.221L127.5 191.13L127.948 190.221L132.387 181.227L142.313 179.785L143.316 179.639L142.59 178.932L135.408 171.931L137.103 162.045Z" stroke="black"/>
<path d="M27.1035 162.045L27.2747 161.046L26.378 161.518L17.5 166.185L8.622 161.518L7.72526 161.046L7.89652 162.045L9.59207 171.931L2.40962 178.932L1.68414 179.639L2.68672 179.785L12.6126 181.227L17.0516 190.221L17.5 191.13L17.9484 190.221L22.3874 181.227L32.3133 179.785L33.3159 179.639L32.5904 178.932L25.4079 171.931L27.1035 162.045Z" stroke="black"/>
<path d="M82.1035 109.045L82.2747 108.046L81.378 108.518L72.5 113.185L63.622 108.518L62.7253 108.046L62.8965 109.045L64.5921 118.931L57.4096 125.932L56.6841 126.639L57.6867 126.785L67.6126 128.227L72.0516 137.221L72.5 138.13L72.9484 137.221L77.3874 128.227L87.3133 126.785L88.3159 126.639L87.5904 125.932L80.4079 118.931L82.1035 109.045Z" stroke="black"/>
<path d="M191.103 109.045L191.275 108.046L190.378 108.518L181.5 113.185L172.622 108.518L171.725 108.046L171.897 109.045L173.592 118.931L166.41 125.932L165.684 126.639L166.687 126.785L176.613 128.227L181.052 137.221L181.5 138.13L181.948 137.221L186.387 128.227L196.313 126.785L197.316 126.639L196.59 125.932L189.408 118.931L191.103 109.045Z" stroke="black"/>
</svg>
