<svg width="16" height="21" viewBox="0 0 16 21" fill="none" xmlns="http://www.w3.org/2000/svg">
<path fill-rule="evenodd" clip-rule="evenodd" d="M7.89477 11.3955C5.73172 11.3955 3.97819 9.64197 3.97819 7.47892C3.97819 5.31587 5.73172 3.56235 7.89477 3.56235C10.0578 3.56235 11.8113 5.31587 11.8113 7.47892C11.8113 9.64197 10.0578 11.3955 7.89477 11.3955ZM15.7894 7.89468C15.7894 3.53456 12.2549 0 7.89477 0C3.53465 0 9.02249e-05 3.53456 9.02249e-05 7.89468H0C0 7.89576 9.02249e-05 7.89684 9.02249e-05 7.89783C0.000451124 8.78411 0.146886 9.63611 0.416478 10.4313C2.04504 15.8763 7.89468 21 7.89468 21H7.89486C7.89486 21 13.7445 15.8763 15.3731 10.4313C15.6426 9.63611 15.7891 8.78411 15.7894 7.89783C15.7894 7.89684 15.7895 7.89576 15.7895 7.89468H15.7894Z" fill="white"/>
</svg>
