<svg width="70" height="315" viewBox="0 0 70 315" fill="none" xmlns="http://www.w3.org/2000/svg">
<path fill-rule="evenodd" clip-rule="evenodd" d="M19.1719 108.023V105.861H0.171875L0.171875 108.023H19.1719Z" fill="#F44AAF"/>
<path fill-rule="evenodd" clip-rule="evenodd" d="M10.7548 116.408L10.7548 97.4808H8.58203L8.58203 116.408H10.7548Z" fill="#F44AAF"/>
<path fill-rule="evenodd" clip-rule="evenodd" d="M19.1719 11.3716V9.20754L0.171875 9.20754L0.171875 11.3716L19.1719 11.3716Z" fill="#F44AAF"/>
<path fill-rule="evenodd" clip-rule="evenodd" d="M10.7548 19.7505L10.7548 0.828459H8.58203L8.58203 19.7505H10.7548Z" fill="#F44AAF"/>
<path fill-rule="evenodd" clip-rule="evenodd" d="M19.1719 204.681V202.517H0.171875L0.171875 204.681H19.1719Z" fill="#F44AAF"/>
<path fill-rule="evenodd" clip-rule="evenodd" d="M10.7548 213.059L10.7548 194.132H8.58203L8.58203 213.059H10.7548Z" fill="#F44AAF"/>
<path fill-rule="evenodd" clip-rule="evenodd" d="M19.1719 301.332V299.172H0.171875L0.171875 301.332H19.1719Z" fill="#F44AAF"/>
<path fill-rule="evenodd" clip-rule="evenodd" d="M10.7548 309.715L10.7548 290.788H8.58203L8.58203 309.715H10.7548Z" fill="#F44AAF"/>
<path fill-rule="evenodd" clip-rule="evenodd" d="M19.1719 112.48V110.315H0.171875L0.171875 112.48H19.1719Z" fill="#56F273"/>
<path fill-rule="evenodd" clip-rule="evenodd" d="M10.7548 120.864L10.7548 101.937H8.58203L8.58203 120.864H10.7548Z" fill="#56F273"/>
<path fill-rule="evenodd" clip-rule="evenodd" d="M19.1719 15.8252V13.6628L0.171875 13.6628L0.171875 15.8252L19.1719 15.8252Z" fill="#56F273"/>
<path fill-rule="evenodd" clip-rule="evenodd" d="M10.7548 24.2051L10.7548 5.27977H8.58203L8.58203 24.2051H10.7548Z" fill="#56F273"/>
<path fill-rule="evenodd" clip-rule="evenodd" d="M19.1719 209.132V206.971H0.171875L0.171875 209.132H19.1719Z" fill="#56F273"/>
<path fill-rule="evenodd" clip-rule="evenodd" d="M10.7548 217.517L10.7548 198.59H8.58203L8.58203 217.517H10.7548Z" fill="#56F273"/>
<path fill-rule="evenodd" clip-rule="evenodd" d="M19.1719 305.79V303.626H0.171875L0.171875 305.79H19.1719Z" fill="#56F273"/>
<path fill-rule="evenodd" clip-rule="evenodd" d="M10.7548 314.171L10.7548 295.246H8.58203L8.58203 314.171H10.7548Z" fill="#56F273"/>
<path fill-rule="evenodd" clip-rule="evenodd" d="M19.1719 110.385V108.221H0.171875L0.171875 110.385H19.1719Z" fill="white"/>
<path fill-rule="evenodd" clip-rule="evenodd" d="M10.7548 118.764L10.7548 99.8367H8.58203L8.58203 118.764H10.7548Z" fill="white"/>
<path fill-rule="evenodd" clip-rule="evenodd" d="M19.1719 13.7275V11.5651L0.171875 11.5651L0.171875 13.7275L19.1719 13.7275Z" fill="white"/>
<path fill-rule="evenodd" clip-rule="evenodd" d="M10.7548 22.1108L10.7548 3.18389H8.58203L8.58203 22.1108H10.7548Z" fill="white"/>
<path fill-rule="evenodd" clip-rule="evenodd" d="M19.1719 207.037V204.874H0.171875L0.171875 207.037H19.1719Z" fill="white"/>
<path fill-rule="evenodd" clip-rule="evenodd" d="M10.7548 215.42L10.7548 196.492H8.58203L8.58203 215.42H10.7548Z" fill="white"/>
<path fill-rule="evenodd" clip-rule="evenodd" d="M19.1719 303.692V301.528H0.171875L0.171875 303.692H19.1719Z" fill="white"/>
<path fill-rule="evenodd" clip-rule="evenodd" d="M10.7548 312.073L10.7548 293.146H8.58203L8.58203 312.073H10.7548Z" fill="white"/>
<path fill-rule="evenodd" clip-rule="evenodd" d="M69.1719 108.023V105.861H50.1719V108.023H69.1719Z" fill="#F44AAF"/>
<path fill-rule="evenodd" clip-rule="evenodd" d="M60.7548 116.408V97.4808H58.582V116.408H60.7548Z" fill="#F44AAF"/>
<path fill-rule="evenodd" clip-rule="evenodd" d="M69.1719 11.3716V9.20754L50.1719 9.20754V11.3716L69.1719 11.3716Z" fill="#F44AAF"/>
<path fill-rule="evenodd" clip-rule="evenodd" d="M60.7548 19.7505V0.828459H58.582V19.7505H60.7548Z" fill="#F44AAF"/>
<path fill-rule="evenodd" clip-rule="evenodd" d="M69.1719 204.681V202.517H50.1719V204.681H69.1719Z" fill="#F44AAF"/>
<path fill-rule="evenodd" clip-rule="evenodd" d="M60.7548 213.059V194.132H58.582V213.059H60.7548Z" fill="#F44AAF"/>
<path fill-rule="evenodd" clip-rule="evenodd" d="M69.1719 301.332V299.172H50.1719V301.332H69.1719Z" fill="#F44AAF"/>
<path fill-rule="evenodd" clip-rule="evenodd" d="M60.7548 309.715V290.788H58.582V309.715H60.7548Z" fill="#F44AAF"/>
<path fill-rule="evenodd" clip-rule="evenodd" d="M69.1719 112.48V110.315H50.1719V112.48H69.1719Z" fill="#56F273"/>
<path fill-rule="evenodd" clip-rule="evenodd" d="M60.7548 120.864V101.937H58.582V120.864H60.7548Z" fill="#56F273"/>
<path fill-rule="evenodd" clip-rule="evenodd" d="M69.1719 15.8252V13.6628L50.1719 13.6628V15.8252L69.1719 15.8252Z" fill="#56F273"/>
<path fill-rule="evenodd" clip-rule="evenodd" d="M60.7548 24.2051V5.27977H58.582V24.2051H60.7548Z" fill="#56F273"/>
<path fill-rule="evenodd" clip-rule="evenodd" d="M69.1719 209.132V206.971H50.1719V209.132H69.1719Z" fill="#56F273"/>
<path fill-rule="evenodd" clip-rule="evenodd" d="M60.7548 217.517V198.59H58.582V217.517H60.7548Z" fill="#56F273"/>
<path fill-rule="evenodd" clip-rule="evenodd" d="M69.1719 305.79V303.626H50.1719V305.79H69.1719Z" fill="#56F273"/>
<path fill-rule="evenodd" clip-rule="evenodd" d="M60.7548 314.171V295.246H58.582V314.171H60.7548Z" fill="#56F273"/>
<path fill-rule="evenodd" clip-rule="evenodd" d="M69.1719 110.385V108.221H50.1719V110.385H69.1719Z" fill="white"/>
<path fill-rule="evenodd" clip-rule="evenodd" d="M60.7548 118.764V99.8367H58.582V118.764H60.7548Z" fill="white"/>
<path fill-rule="evenodd" clip-rule="evenodd" d="M69.1719 13.7275V11.5651L50.1719 11.5651V13.7275L69.1719 13.7275Z" fill="white"/>
<path fill-rule="evenodd" clip-rule="evenodd" d="M60.7548 22.1108V3.18389H58.582V22.1108H60.7548Z" fill="white"/>
<path fill-rule="evenodd" clip-rule="evenodd" d="M69.1719 207.037V204.874H50.1719V207.037H69.1719Z" fill="white"/>
<path fill-rule="evenodd" clip-rule="evenodd" d="M60.7548 215.42V196.492H58.582V215.42H60.7548Z" fill="white"/>
<path fill-rule="evenodd" clip-rule="evenodd" d="M69.1719 303.692V301.528H50.1719V303.692H69.1719Z" fill="white"/>
<path fill-rule="evenodd" clip-rule="evenodd" d="M60.7548 312.073V293.146H58.582V312.073H60.7548Z" fill="white"/>
</svg>
