<svg width="760" height="73" viewBox="0 0 760 73" fill="none" xmlns="http://www.w3.org/2000/svg">
<path d="M136.695 1.40332L234.705 71.5965" stroke="white" stroke-linecap="round"/>
<path d="M1.49609 1.40332L99.5061 71.5965" stroke="white" stroke-linecap="round"/>
<path d="M271.895 1.40332L369.905 71.5965" stroke="white" stroke-linecap="round"/>
<path d="M204.297 1.40332L302.307 71.5965" stroke="white" stroke-linecap="round"/>
<path d="M69.0938 1.40332L167.104 71.5965" stroke="white" stroke-linecap="round"/>
<path d="M153.594 1.40332L251.604 71.5965" stroke="white" stroke-linecap="round"/>
<path d="M18.3945 1.40332L116.405 71.5965" stroke="white" stroke-linecap="round"/>
<path d="M288.797 1.40332L386.807 71.5965" stroke="white" stroke-linecap="round"/>
<path d="M221.195 1.40332L319.205 71.5965" stroke="white" stroke-linecap="round"/>
<path d="M85.9961 1.40332L184.006 71.5965" stroke="white" stroke-linecap="round"/>
<path d="M170.496 1.40332L268.506 71.5965" stroke="white" stroke-linecap="round"/>
<path d="M35.2969 1.40332L133.307 71.5965" stroke="white" stroke-linecap="round"/>
<path d="M305.695 1.40332L403.705 71.5965" stroke="white" stroke-linecap="round"/>
<path d="M238.094 1.40332L336.104 71.5965" stroke="white" stroke-linecap="round"/>
<path d="M102.895 1.40332L200.905 71.5965" stroke="white" stroke-linecap="round"/>
<path d="M187.395 1.40332L285.405 71.5965" stroke="white" stroke-linecap="round"/>
<path d="M52.1953 1.40332L150.205 71.5965" stroke="white" stroke-linecap="round"/>
<path d="M322.594 1.40332L420.604 71.5965" stroke="white" stroke-linecap="round"/>
<path d="M254.996 1.40332L353.006 71.5965" stroke="white" stroke-linecap="round"/>
<path d="M119.797 1.40332L217.807 71.5965" stroke="white" stroke-linecap="round"/>
<path d="M474.695 1.40332L572.705 71.5965" stroke="white" stroke-linecap="round"/>
<path d="M339.496 1.40332L437.506 71.5965" stroke="white" stroke-linecap="round"/>
<path d="M609.895 1.40332L707.905 71.5965" stroke="white" stroke-linecap="round"/>
<path d="M542.297 1.40332L640.307 71.5965" stroke="white" stroke-linecap="round"/>
<path d="M407.094 1.40332L505.104 71.5965" stroke="white" stroke-linecap="round"/>
<path d="M491.594 1.40332L589.604 71.5965" stroke="white" stroke-linecap="round"/>
<path d="M356.395 1.40332L454.405 71.5965" stroke="white" stroke-linecap="round"/>
<path d="M626.797 1.40332L724.807 71.5965" stroke="white" stroke-linecap="round"/>
<path d="M559.195 1.40332L657.205 71.5965" stroke="white" stroke-linecap="round"/>
<path d="M423.996 1.40332L522.006 71.5965" stroke="white" stroke-linecap="round"/>
<path d="M508.496 1.40332L606.506 71.5965" stroke="white" stroke-linecap="round"/>
<path d="M373.297 1.40332L471.307 71.5965" stroke="white" stroke-linecap="round"/>
<path d="M643.695 1.40332L741.705 71.5965" stroke="white" stroke-linecap="round"/>
<path d="M576.094 1.40332L674.104 71.5965" stroke="white" stroke-linecap="round"/>
<path d="M440.895 1.40332L538.905 71.5965" stroke="white" stroke-linecap="round"/>
<path d="M525.395 1.40332L623.405 71.5965" stroke="white" stroke-linecap="round"/>
<path d="M390.195 1.40332L488.205 71.5965" stroke="white" stroke-linecap="round"/>
<path d="M660.594 1.40332L758.604 71.5965" stroke="white" stroke-linecap="round"/>
<path d="M592.996 1.40332L691.006 71.5965" stroke="white" stroke-linecap="round"/>
<path d="M457.797 1.40332L555.807 71.5965" stroke="white" stroke-linecap="round"/>
</svg>
