<svg width="183" height="380" viewBox="0 0 183 380" fill="none" xmlns="http://www.w3.org/2000/svg">
<path d="M131.416 27.7226L131 27.0986L130.584 27.7226L118.584 45.7227L118.066 46.5H119L143 46.5H143.934L143.416 45.7227L131.416 27.7226Z" stroke="white"/>
<path d="M52.416 27.7226L52 27.0986L51.584 27.7226L39.584 45.7227L39.0657 46.5H40L64 46.5H64.9343L64.416 45.7227L52.416 27.7226Z" stroke="white"/>
<path d="M169.416 1.72265L169 1.09861L168.584 1.72265L156.584 19.7227L156.066 20.5H157L181 20.5H181.934L181.416 19.7227L169.416 1.72265Z" stroke="white"/>
<path d="M91.416 1.72265L91 1.09861L90.584 1.72265L78.584 19.7227L78.0657 20.5H79L103 20.5H103.934L103.416 19.7227L91.416 1.72265Z" stroke="white"/>
<path d="M131.416 84.7226L131 84.0986L130.584 84.7226L118.584 102.723L118.066 103.5H119H143H143.934L143.416 102.723L131.416 84.7226Z" stroke="white"/>
<path d="M52.416 84.7226L52 84.0986L51.584 84.7226L39.584 102.723L39.0657 103.5H40H64H64.9343L64.416 102.723L52.416 84.7226Z" stroke="white"/>
<path d="M169.416 56.7226L169 56.0986L168.584 56.7226L156.584 74.7227L156.066 75.5H157H181H181.934L181.416 74.7227L169.416 56.7226Z" stroke="white"/>
<path d="M91.416 56.7226L91 56.0986L90.584 56.7226L78.584 74.7227L78.0657 75.5H79H103H103.934L103.416 74.7227L91.416 56.7226Z" stroke="white"/>
<path d="M14.416 56.7226L14 56.0986L13.584 56.7226L1.58397 74.7227L1.06574 75.5H2H26H26.9343L26.416 74.7227L14.416 56.7226Z" stroke="white"/>
<path d="M131.416 195.723L131 195.099L130.584 195.723L118.584 213.723L118.066 214.5H119H143H143.934L143.416 213.723L131.416 195.723Z" stroke="white"/>
<path d="M52.416 195.723L52 195.099L51.584 195.723L39.584 213.723L39.0657 214.5H40H64H64.9343L64.416 213.723L52.416 195.723Z" stroke="white"/>
<path d="M131.416 305.723L131 305.099L130.584 305.723L118.584 323.723L118.066 324.5H119H143H143.934L143.416 323.723L131.416 305.723Z" stroke="white"/>
<path d="M52.416 305.723L52 305.099L51.584 305.723L39.584 323.723L39.0657 324.5H40H64H64.9343L64.416 323.723L52.416 305.723Z" stroke="white"/>
<path d="M169.416 168.723L169 168.099L168.584 168.723L156.584 186.723L156.066 187.5H157H181H181.934L181.416 186.723L169.416 168.723Z" stroke="white"/>
<path d="M169.416 277.723L169 277.099L168.584 277.723L156.584 295.723L156.066 296.5H157H181H181.934L181.416 295.723L169.416 277.723Z" stroke="white"/>
<path d="M91.416 168.723L91 168.099L90.584 168.723L78.584 186.723L78.0657 187.5H79H103H103.934L103.416 186.723L91.416 168.723Z" stroke="white"/>
<path d="M14.416 168.723L14 168.099L13.584 168.723L1.58397 186.723L1.06574 187.5H2H26H26.9343L26.416 186.723L14.416 168.723Z" stroke="white"/>
<path d="M91.416 277.723L91 277.099L90.584 277.723L78.584 295.723L78.0657 296.5H79H103H103.934L103.416 295.723L91.416 277.723Z" stroke="white"/>
<path d="M14.416 277.723L14 277.099L13.584 277.723L1.58397 295.723L1.06574 296.5H2H26H26.9343L26.416 295.723L14.416 277.723Z" stroke="white"/>
<path d="M131.416 139.723L131 139.099L130.584 139.723L118.584 157.723L118.066 158.5H119H143H143.934L143.416 157.723L131.416 139.723Z" stroke="white"/>
<path d="M52.416 139.723L52 139.099L51.584 139.723L39.584 157.723L39.0657 158.5H40H64H64.9343L64.416 157.723L52.416 139.723Z" stroke="white"/>
<path d="M169.416 112.723L169 112.099L168.584 112.723L156.584 130.723L156.066 131.5H157H181H181.934L181.416 130.723L169.416 112.723Z" stroke="white"/>
<path d="M91.416 112.723L91 112.099L90.584 112.723L78.584 130.723L78.0657 131.5H79H103H103.934L103.416 130.723L91.416 112.723Z" stroke="white"/>
<path d="M14.416 112.723L14 112.099L13.584 112.723L1.58397 130.723L1.06574 131.5H2H26H26.9343L26.416 130.723L14.416 112.723Z" stroke="white"/>
<path d="M131.416 251.723L131 251.099L130.584 251.723L118.584 269.723L118.066 270.5H119H143H143.934L143.416 269.723L131.416 251.723Z" stroke="white"/>
<path d="M52.416 251.723L52 251.099L51.584 251.723L39.584 269.723L39.0657 270.5H40H64H64.9343L64.416 269.723L52.416 251.723Z" stroke="white"/>
<path d="M131.416 360.723L131 360.099L130.584 360.723L118.584 378.723L118.066 379.5H119H143H143.934L143.416 378.723L131.416 360.723Z" stroke="white"/>
<path d="M52.416 360.723L52 360.099L51.584 360.723L39.584 378.723L39.0657 379.5H40H64H64.9343L64.416 378.723L52.416 360.723Z" stroke="white"/>
<path d="M169.416 224.723L169 224.099L168.584 224.723L156.584 242.723L156.066 243.5H157H181H181.934L181.416 242.723L169.416 224.723Z" stroke="white"/>
<path d="M169.416 334.723L169 334.099L168.584 334.723L156.584 352.723L156.066 353.5H157H181H181.934L181.416 352.723L169.416 334.723Z" stroke="white"/>
<path d="M91.416 224.723L91 224.099L90.584 224.723L78.584 242.723L78.0657 243.5H79H103H103.934L103.416 242.723L91.416 224.723Z" stroke="white"/>
<path d="M14.416 224.723L14 224.099L13.584 224.723L1.58397 242.723L1.06574 243.5H2H26H26.9343L26.416 242.723L14.416 224.723Z" stroke="white"/>
<path d="M91.416 334.723L91 334.099L90.584 334.723L78.584 352.723L78.0657 353.5H79H103H103.934L103.416 352.723L91.416 334.723Z" stroke="white"/>
<path d="M14.416 334.723L14 334.099L13.584 334.723L1.58397 352.723L1.06574 353.5H2H26H26.9343L26.416 352.723L14.416 334.723Z" stroke="white"/>
</svg>
