<svg width="119" height="15" viewBox="0 0 119 15" fill="none" xmlns="http://www.w3.org/2000/svg">
<path d="M92.6562 0.579545L73.9805 14.4205" stroke="white" stroke-width="0.25" stroke-linecap="round"/>
<path d="M118.403 0.579545L99.7271 14.4205" stroke="white" stroke-width="0.25" stroke-linecap="round"/>
<path d="M66.9091 0.579545L48.2335 14.4205" stroke="white" stroke-width="0.25" stroke-linecap="round"/>
<path d="M79.7826 0.579545L61.107 14.4205" stroke="white" stroke-width="0.25" stroke-linecap="round"/>
<path d="M105.529 0.579545L86.8536 14.4205" stroke="white" stroke-width="0.25" stroke-linecap="round"/>
<path d="M89.4374 0.579545L70.7618 14.4205" stroke="white" stroke-width="0.25" stroke-linecap="round"/>
<path d="M115.184 0.579545L96.5089 14.4205" stroke="white" stroke-width="0.25" stroke-linecap="round"/>
<path d="M63.6908 0.579545L45.0152 14.4205" stroke="white" stroke-width="0.25" stroke-linecap="round"/>
<path d="M76.5644 0.579545L57.8887 14.4205" stroke="white" stroke-width="0.25" stroke-linecap="round"/>
<path d="M102.311 0.579545L83.6353 14.4205" stroke="white" stroke-width="0.25" stroke-linecap="round"/>
<path d="M86.2192 0.579545L67.5435 14.4205" stroke="white" stroke-width="0.25" stroke-linecap="round"/>
<path d="M111.966 0.579545L93.2906 14.4205" stroke="white" stroke-width="0.25" stroke-linecap="round"/>
<path d="M60.4726 0.579545L41.7969 14.4205" stroke="white" stroke-width="0.25" stroke-linecap="round"/>
<path d="M73.3461 0.579545L54.6705 14.4205" stroke="white" stroke-width="0.25" stroke-linecap="round"/>
<path d="M99.0927 0.579545L80.4171 14.4205" stroke="white" stroke-width="0.25" stroke-linecap="round"/>
<path d="M83.0009 0.579545L64.3253 14.4205" stroke="white" stroke-width="0.25" stroke-linecap="round"/>
<path d="M108.748 0.579545L90.0723 14.4205" stroke="white" stroke-width="0.25" stroke-linecap="round"/>
<path d="M57.2543 0.579545L38.5787 14.4205" stroke="white" stroke-width="0.25" stroke-linecap="round"/>
<path d="M70.1274 0.579545L51.4517 14.4205" stroke="white" stroke-width="0.25" stroke-linecap="round"/>
<path d="M95.8744 0.579545L77.1988 14.4205" stroke="white" stroke-width="0.25" stroke-linecap="round"/>
<path d="M28.289 0.579545L9.61336 14.4205" stroke="white" stroke-width="0.25" stroke-linecap="round"/>
<path d="M54.0356 0.579545L35.3599 14.4205" stroke="white" stroke-width="0.25" stroke-linecap="round"/>
<path d="M5.76066 0.579545L-12.915 14.4205" stroke="white" stroke-width="0.25" stroke-linecap="round"/>
<path d="M15.4154 0.579545L-3.26018 14.4205" stroke="white" stroke-width="0.25" stroke-linecap="round"/>
<path d="M41.1625 0.579545L22.4869 14.4205" stroke="white" stroke-width="0.25" stroke-linecap="round"/>
<path d="M25.0707 0.579545L6.39509 14.4205" stroke="white" stroke-width="0.25" stroke-linecap="round"/>
<path d="M50.8173 0.579545L32.1417 14.4205" stroke="white" stroke-width="0.25" stroke-linecap="round"/>
<path d="M2.5424 0.579545L-16.1332 14.4205" stroke="white" stroke-width="0.25" stroke-linecap="round"/>
<path d="M12.1972 0.579545L-6.47844 14.4205" stroke="white" stroke-width="0.25" stroke-linecap="round"/>
<path d="M37.9443 0.579545L19.2686 14.4205" stroke="white" stroke-width="0.25" stroke-linecap="round"/>
<path d="M21.8525 0.579545L3.17683 14.4205" stroke="white" stroke-width="0.25" stroke-linecap="round"/>
<path d="M47.599 0.579545L28.9234 14.4205" stroke="white" stroke-width="0.25" stroke-linecap="round"/>
<path d="M8.97892 0.579545L-9.6967 14.4205" stroke="white" stroke-width="0.25" stroke-linecap="round"/>
<path d="M34.7255 0.579545L16.0499 14.4205" stroke="white" stroke-width="0.25" stroke-linecap="round"/>
<path d="M18.6337 0.579545L-0.0419178 14.4205" stroke="white" stroke-width="0.25" stroke-linecap="round"/>
<path d="M44.3808 0.579545L25.7052 14.4205" stroke="white" stroke-width="0.25" stroke-linecap="round"/>
<path d="M31.5072 0.579545L12.8316 14.4205" stroke="white" stroke-width="0.25" stroke-linecap="round"/>
</svg>
