<svg width="137" height="131" viewBox="0 0 137 131" fill="none" xmlns="http://www.w3.org/2000/svg">
<path d="M57.5 54.5L79.5 76.5" stroke="white" stroke-linecap="square"/>
<path d="M79.5 54.5L57.5 76.5" stroke="white" stroke-linecap="square"/>
<path d="M57.5 1.5L79.5 23.5" stroke="white" stroke-linecap="square"/>
<path d="M79.5 1.5L57.5 23.5" stroke="white" stroke-linecap="square"/>
<path d="M57.5 107.5L79.5 129.5" stroke="white" stroke-linecap="square"/>
<path d="M79.5 107.5L57.5 129.5" stroke="white" stroke-linecap="square"/>
<path d="M1.5 54.5L23.5 76.5" stroke="white" stroke-linecap="square"/>
<path d="M23.5 54.5L1.5 76.5" stroke="white" stroke-linecap="square"/>
<path d="M1.5 1.5L23.5 23.5" stroke="white" stroke-linecap="square"/>
<path d="M23.5 1.5L1.5 23.5" stroke="white" stroke-linecap="square"/>
<path d="M1.5 107.5L23.5 129.5" stroke="white" stroke-linecap="square"/>
<path d="M23.5 107.5L1.5 129.5" stroke="white" stroke-linecap="square"/>
<path d="M113.5 54.5L135.5 76.5" stroke="white" stroke-linecap="square"/>
<path d="M135.5 54.5L113.5 76.5" stroke="white" stroke-linecap="square"/>
<path d="M113.5 1.5L135.5 23.5" stroke="white" stroke-linecap="square"/>
<path d="M135.5 1.5L113.5 23.5" stroke="white" stroke-linecap="square"/>
<path d="M113.5 107.5L135.5 129.5" stroke="white" stroke-linecap="square"/>
<path d="M135.5 107.5L113.5 129.5" stroke="white" stroke-linecap="square"/>
</svg>
