<svg width="416" height="130" viewBox="0 0 416 130" fill="none" xmlns="http://www.w3.org/2000/svg">
<path d="M57 54L79 76" stroke="white" stroke-linecap="square"/>
<path d="M79 54L57 76" stroke="white" stroke-linecap="square"/>
<path d="M57 1L79 23" stroke="white" stroke-linecap="square"/>
<path d="M79 1L57 23" stroke="white" stroke-linecap="square"/>
<path d="M57 107L79 129" stroke="white" stroke-linecap="square"/>
<path d="M79 107L57 129" stroke="white" stroke-linecap="square"/>
<path d="M169 54L191 76" stroke="white" stroke-linecap="square"/>
<path d="M191 54L169 76" stroke="white" stroke-linecap="square"/>
<path d="M169 1L191 23" stroke="white" stroke-linecap="square"/>
<path d="M191 1L169 23" stroke="white" stroke-linecap="square"/>
<path d="M169 107L191 129" stroke="white" stroke-linecap="square"/>
<path d="M191 107L169 129" stroke="white" stroke-linecap="square"/>
<path d="M281 54L303 76" stroke="white" stroke-linecap="square"/>
<path d="M393 54L415 76" stroke="white" stroke-linecap="square"/>
<path d="M303 54L281 76" stroke="white" stroke-linecap="square"/>
<path d="M415 54L393 76" stroke="white" stroke-linecap="square"/>
<path d="M281 1L303 23" stroke="white" stroke-linecap="square"/>
<path d="M393 1L415 23" stroke="white" stroke-linecap="square"/>
<path d="M303 1L281 23" stroke="white" stroke-linecap="square"/>
<path d="M415 1L393 23" stroke="white" stroke-linecap="square"/>
<path d="M281 107L303 129" stroke="white" stroke-linecap="square"/>
<path d="M393 107L415 129" stroke="white" stroke-linecap="square"/>
<path d="M303 107L281 129" stroke="white" stroke-linecap="square"/>
<path d="M415 107L393 129" stroke="white" stroke-linecap="square"/>
<path d="M1 54L23 76" stroke="white" stroke-linecap="square"/>
<path d="M23 54L1 76" stroke="white" stroke-linecap="square"/>
<path d="M1 1L23 23" stroke="white" stroke-linecap="square"/>
<path d="M23 1L1 23" stroke="white" stroke-linecap="square"/>
<path d="M1 107L23 129" stroke="white" stroke-linecap="square"/>
<path d="M23 107L1 129" stroke="white" stroke-linecap="square"/>
<path d="M113 54L135 76" stroke="white" stroke-linecap="square"/>
<path d="M135 54L113 76" stroke="white" stroke-linecap="square"/>
<path d="M113 1L135 23" stroke="white" stroke-linecap="square"/>
<path d="M135 1L113 23" stroke="white" stroke-linecap="square"/>
<path d="M113 107L135 129" stroke="white" stroke-linecap="square"/>
<path d="M135 107L113 129" stroke="white" stroke-linecap="square"/>
<path d="M225 54L247 76" stroke="white" stroke-linecap="square"/>
<path d="M337 54L359 76" stroke="white" stroke-linecap="square"/>
<path d="M247 54L225 76" stroke="white" stroke-linecap="square"/>
<path d="M359 54L337 76" stroke="white" stroke-linecap="square"/>
<path d="M225 1L247 23" stroke="white" stroke-linecap="square"/>
<path d="M337 1L359 23" stroke="white" stroke-linecap="square"/>
<path d="M247 1L225 23" stroke="white" stroke-linecap="square"/>
<path d="M359 1L337 23" stroke="white" stroke-linecap="square"/>
<path d="M225 107L247 129" stroke="white" stroke-linecap="square"/>
<path d="M337 107L359 129" stroke="white" stroke-linecap="square"/>
<path d="M247 107L225 129" stroke="white" stroke-linecap="square"/>
<path d="M359 107L337 129" stroke="white" stroke-linecap="square"/>
</svg>
