<svg width="109" height="342" viewBox="0 0 109 342" fill="none" xmlns="http://www.w3.org/2000/svg">
<path fill-rule="evenodd" clip-rule="evenodd" d="M100 0V9L109 9V0L100 0Z" fill="white"/>
<path fill-rule="evenodd" clip-rule="evenodd" d="M100 66V75H109V66H100Z" fill="white"/>
<path fill-rule="evenodd" clip-rule="evenodd" d="M100 133V142H109V133H100Z" fill="white"/>
<path fill-rule="evenodd" clip-rule="evenodd" d="M100 200V209H109V200H100Z" fill="white"/>
<path fill-rule="evenodd" clip-rule="evenodd" d="M100 266V275H109V266H100Z" fill="white"/>
<path fill-rule="evenodd" clip-rule="evenodd" d="M100 333V342H109V333H100Z" fill="white"/>
<path fill-rule="evenodd" clip-rule="evenodd" d="M50 0V9L59 9V0L50 0Z" fill="white"/>
<path fill-rule="evenodd" clip-rule="evenodd" d="M50 66V75H59V66H50Z" fill="white"/>
<path fill-rule="evenodd" clip-rule="evenodd" d="M50 133V142H59V133H50Z" fill="white"/>
<path fill-rule="evenodd" clip-rule="evenodd" d="M50 200V209H59V200H50Z" fill="white"/>
<path fill-rule="evenodd" clip-rule="evenodd" d="M50 266V275H59V266H50Z" fill="white"/>
<path fill-rule="evenodd" clip-rule="evenodd" d="M50 333V342H59V333H50Z" fill="white"/>
<path fill-rule="evenodd" clip-rule="evenodd" d="M0 0L0 9L9 9L9 0L0 0Z" fill="white"/>
<path fill-rule="evenodd" clip-rule="evenodd" d="M0 66L0 75H9L9 66H0Z" fill="white"/>
<path fill-rule="evenodd" clip-rule="evenodd" d="M0 133L0 142H9L9 133H0Z" fill="white"/>
<path fill-rule="evenodd" clip-rule="evenodd" d="M0 200L0 209H9L9 200H0Z" fill="white"/>
<path fill-rule="evenodd" clip-rule="evenodd" d="M0 266L0 275H9L9 266H0Z" fill="white"/>
<path fill-rule="evenodd" clip-rule="evenodd" d="M0 333L0 342H9L9 333H0Z" fill="white"/>
<path fill-rule="evenodd" clip-rule="evenodd" d="M74 34V43H83V34H74Z" fill="white"/>
<path fill-rule="evenodd" clip-rule="evenodd" d="M74 101V110H83V101H74Z" fill="white"/>
<path fill-rule="evenodd" clip-rule="evenodd" d="M74 168V177H83V168H74Z" fill="white"/>
<path fill-rule="evenodd" clip-rule="evenodd" d="M74 234V243H83V234H74Z" fill="white"/>
<path fill-rule="evenodd" clip-rule="evenodd" d="M74 301V310H83V301H74Z" fill="white"/>
<path fill-rule="evenodd" clip-rule="evenodd" d="M24 34V43H33V34H24Z" fill="white"/>
<path fill-rule="evenodd" clip-rule="evenodd" d="M24 101V110H33V101H24Z" fill="white"/>
<path fill-rule="evenodd" clip-rule="evenodd" d="M24 168V177H33V168H24Z" fill="white"/>
<path fill-rule="evenodd" clip-rule="evenodd" d="M24 234V243H33V234H24Z" fill="white"/>
<path fill-rule="evenodd" clip-rule="evenodd" d="M24 301V310H33V301H24Z" fill="white"/>
</svg>
